<svg xmlns="http://www.w3.org/2000/svg" xmlns:xlink="http://www.w3.org/1999/xlink" width="26" height="22" viewBox="0 0 26 22"><defs><path id="9gy1a" d="M1068.04 10026.82c-.74 0-1.5-.07-2.26-.22a10.56 10.56 0 0 1-4.67 1.95h-.04a.4.4 0 0 1-.27-.11.46.46 0 0 1-.14-.29.28.28 0 0 1-.02-.08v-.09a.3.3 0 0 1 .03-.08l.04-.07.04-.07.05-.07.06-.07.05-.06.3-.34a5.28 5.28 0 0 0 .62-.78c.12-.17.23-.34.32-.52.1-.18.18-.38.26-.6a7.65 7.65 0 0 1-2.5-2.39 5.5 5.5 0 0 1 .3-6.49 8.2 8.2 0 0 1 3.29-2.51c1.39-.62 2.9-.93 4.54-.93 1.63 0 3.14.31 4.53.93a8.2 8.2 0 0 1 3.3 2.51 5.62 5.62 0 0 1 0 6.94 8.18 8.18 0 0 1-3.3 2.52c-1.39.61-2.9.92-4.53.92zm10.55 1.96c.08.21.17.41.26.59s.2.35.32.52l.29.4.33.39a9.42 9.42 0 0 1 .5.6l.03.07a9.3 9.3 0 0 0 .04.17c-.02 0-.02.04-.02.09a.5.5 0 0 1-.16.3.37.37 0 0 1-.29.1 10.55 10.55 0 0 1-4.67-1.94c-.77.13-1.52.2-2.26.2-2.31 0-4.33-.59-6.05-1.78a12.94 12.94 0 0 0 5.1-.55c1.26-.4 2.39-.99 3.38-1.74a8.9 8.9 0 0 0 2.46-2.86 7.2 7.2 0 0 0 .57-5.48 7.75 7.75 0 0 1 2.62 2.4 5.5 5.5 0 0 1 .05 6.13 7.68 7.68 0 0 1-2.5 2.39z"/></defs><g><g transform="translate(-1057 -10012)"><use fill="#fff" xlink:href="#9gy1a"/></g></g></svg>