<svg xmlns="http://www.w3.org/2000/svg" xmlns:xlink="http://www.w3.org/1999/xlink" width="21" height="20" viewBox="0 0 21 20"><defs><path id="gv7fa" d="M966.82 10014c1.2 0 2.18.89 2.18 2.18v12.64c0 1.3-.98 2.18-2.18 2.18h-12.64c-1.2 0-2.18-.89-2.18-2.18v-12.64c0-1.3.98-2.18 2.18-2.18zm-3.2 2.65v1.83c0 .43.34.77.76.77h1.93c.42 0 .76-.34.76-.77v-1.83a.77.77 0 0 0-.76-.76h-1.93a.77.77 0 0 0-.76.76zm1.96 4.54c.14.46.22.95.22 1.46a5.2 5.2 0 0 1-5.28 5.12 5.2 5.2 0 0 1-5.29-5.12c0-.51.08-1 .22-1.46h-1.56v7.18c0 .37.3.68.67.68h11.84c.37 0 .68-.3.68-.68v-7.18zm-5.06-2.04a3.36 3.36 0 0 0-3.42 3.31c0 1.83 1.53 3.31 3.42 3.31a3.36 3.36 0 0 0 3.41-3.3c0-1.84-1.53-3.32-3.41-3.32z"/></defs><g><g transform="translate(-950 -10012)"><use fill="#fff" xlink:href="#gv7fa"/></g></g></svg>