<svg xmlns="http://www.w3.org/2000/svg" xmlns:xlink="http://www.w3.org/1999/xlink" width="23" height="15" viewBox="0 0 23 15"><defs><path id="1nupa" d="M860.12 10027.07l-.06-.13c-.34-.63-.98-1.4-1.93-2.33l-.02-.02h-.01l-.01-.02h-.01c-.43-.43-.7-.72-.82-.87-.21-.28-.26-.56-.14-.85.08-.22.38-.68.9-1.38l.66-.9c1.17-1.61 1.67-2.64 1.52-3.1l-.06-.1c-.04-.06-.15-.12-.32-.17a1.52 1.52 0 0 0-.64-.03l-2.91.02a.36.36 0 0 0-.2 0l-.13.04-.05.02-.04.04a.48.48 0 0 0-.12.1.76.76 0 0 0-.1.19 17.57 17.57 0 0 1-1.76 3.5 5.2 5.2 0 0 1-.91 1.08c-.12.09-.2.12-.27.11l-.17-.04a.7.7 0 0 1-.22-.26 1.2 1.2 0 0 1-.12-.4 4.76 4.76 0 0 1-.03-.94l.01-.45a27.24 27.24 0 0 1 .04-1.6l.01-.59c0-.2-.01-.36-.04-.48a1.71 1.71 0 0 0-.1-.34.57.57 0 0 0-.2-.25c-.1-.06-.21-.1-.35-.14a6.42 6.42 0 0 0-1.36-.14c-1.25-.01-2.06.07-2.41.26-.14.07-.27.18-.39.31-.12.16-.13.24-.05.25.4.07.7.22.86.46l.06.12a5.1 5.1 0 0 1 .23 1.25 8.55 8.55 0 0 1-.23 2.68l-.12.23a.19.19 0 0 1-.05.05.73.73 0 0 1-.27.05c-.1 0-.21-.05-.35-.14-.13-.1-.27-.24-.42-.41-.14-.17-.3-.41-.49-.72-.18-.31-.37-.68-.56-1.1l-.16-.3a25.23 25.23 0 0 1-.88-1.96.7.7 0 0 0-.24-.33l-.05-.04a1.16 1.16 0 0 0-.4-.16l-2.76.03c-.29 0-.48.07-.58.2l-.04.06a.35.35 0 0 0-.03.17c0 .08.02.17.06.29a35.4 35.4 0 0 0 2.55 5.09 26.09 26.09 0 0 0 2.08 2.87l.25.25c.16.17.4.37.7.6.32.24.67.47 1.05.7a5.48 5.48 0 0 0 2.8.73h1.16c.24-.02.42-.1.54-.23l.04-.05c.03-.04.05-.11.07-.2.03-.08.04-.18.04-.29a3.63 3.63 0 0 1 .24-1.36 1.37 1.37 0 0 1 .39-.46.54.54 0 0 1 .08-.04c.16-.06.35 0 .57.16.22.17.42.37.61.61.2.24.43.52.7.82.26.3.5.53.7.68l.2.12c.14.09.31.16.53.23.21.07.4.1.56.06l2.59-.05c.25 0 .45-.04.6-.13.14-.09.22-.18.25-.29a1.3 1.3 0 0 0-.07-.64z"/></defs><g><g transform="translate(-839 -10015)"><use fill="#fff" xlink:href="#1nupa"/></g></g></svg>