<svg xmlns="http://www.w3.org/2000/svg" xmlns:xlink="http://www.w3.org/1999/xlink" width="21" height="24" viewBox="0 0 21 24"><defs><path id="pixfa" d="M1022.23 10028.36h-1.19v-.67c0-.3.26-.54.56-.54h.08c.3 0 .56.24.56.54zm-3.9-1v3.26c0 .24-.25.43-.55.43-.3 0-.55-.2-.55-.43v-3.26c0-.24.25-.43.55-.43.3 0 .55.2.55.43zm6.67-2.26v6.2c0 1.48-1.33 2.7-2.94 2.7h-12.12c-1.62 0-2.94-1.22-2.94-2.7v-6.2c0-1.48 1.32-2.7 2.94-2.7h12.12c1.61 0 2.94 1.22 2.94 2.7zm-14.25 6.87v-6.52h1.5v-.97h-4v.94h1.25v6.55zm3.25-5.55v3.48c0 .5.03.76 0 .85-.1.27-.56.55-.74.03-.03-.1 0-.37 0-.85v-3.51H1012V10030.97c.04.32.03.69.33.9.56.4 1.64-.06 1.91-.62v.72h1v-5.55zm5.26 3.99v-2.9c0-1.1-.86-1.77-2.01-.87v-2.16H1016v7.44l1.03-.01.09-.47c1.31 1.18 2.14.37 2.14-1.03zm3.91-.39h-.93v.64a.5.5 0 0 1-.52.5h-.18a.5.5 0 0 1-.52-.5v-1.34h2.15v-.78c0-.58-.01-1.15-.06-1.48-.16-1.04-1.66-1.2-2.41-.67-.24.16-.42.38-.53.68-.1.3-.16.71-.16 1.23v1.73c0 2.87 3.6 2.47 3.16 0zm-4.93-9.86l-.02-1v-3.89h1.14v4.5c0 .23.2.43.46.43.25 0 .46-.2.46-.44v-4.49h1.1v5.77h-1.4l.02-.48c-.1.2-.2.34-.35.44-.14.1-.3.14-.48.14a.89.89 0 0 1-.5-.13.83.83 0 0 1-.31-.37c-.06-.16-.1-.32-.12-.48zm-4.1-2.78c0-.55.04-.99.13-1.3.1-.3.27-.56.52-.75.24-.19.56-.28.94-.28.33 0 .6.06.83.18.23.12.41.28.54.47.12.2.21.4.26.6.04.21.07.53.07.95v1.46c0 .53-.03.93-.07 1.18-.04.25-.13.48-.27.7-.14.21-.32.37-.54.48-.22.1-.47.15-.76.15-.32 0-.58-.04-.8-.13a1.1 1.1 0 0 1-.52-.4c-.12-.18-.2-.4-.26-.65a6.05 6.05 0 0 1-.08-1.13v-1.53zm1.08 2.29c0 .33.25.6.56.6.3 0 .55-.27.55-.6v-3.07c0-.33-.25-.6-.55-.6-.3 0-.56.27-.56.6zm-3.86-2.87l-1.65-3.8h1.42l.84 2.82.83-2.81h1.44l-1.56 3.79v4.42h-1.32z"/></defs><g><g transform="translate(-1005 -10011)"><use fill="#fff" xlink:href="#pixfa"/></g></g></svg>