<svg xmlns="http://www.w3.org/2000/svg" xmlns:xlink="http://www.w3.org/1999/xlink" width="75" height="75" viewBox="0 0 75 75"><defs><path id="4s6ba" d="M684 4655.4c0-15.61 12.61-28.4 28.02-28.4 15.46 0 28.01 12.72 28.01 28.4a28.6 28.6 0 0 1-6.52 18.15l21.74 22.04a2.58 2.58 0 1 1-1.8 4.4c-.68.01-1.3-.24-1.8-.75l-21.74-22.04a27.28 27.28 0 0 1-17.9 6.61c-15.4 0-28.01-12.72-28.01-28.4zm5.1 0c0 12.8 10.24 23.25 22.92 23.25 12.67 0 22.92-10.4 22.92-23.24 0-12.79-10.25-23.25-22.92-23.25-12.61 0-22.93 10.46-22.93 23.25zm20.37 2.59h-14.04a2.54 2.54 0 0 1-2.55-2.58 2.54 2.54 0 0 1 2.55-2.59h14.04v-14.23a2.54 2.54 0 0 1 2.55-2.58 2.54 2.54 0 0 1 2.54 2.58v14.23h14.04a2.54 2.54 0 0 1 2.55 2.59 2.54 2.54 0 0 1-2.55 2.58h-14.04v14.23a2.54 2.54 0 0 1-2.54 2.59 2.54 2.54 0 0 1-2.55-2.59z"/></defs><g><g transform="translate(-683 -4626)"><use fill="#fff" xlink:href="#4s6ba"/></g></g></svg>