<svg xmlns="http://www.w3.org/2000/svg" xmlns:xlink="http://www.w3.org/1999/xlink" width="28" height="47" viewBox="0 0 28 47"><defs><path id="4jbva" d="M824.58 64.99a2.6 2.6 0 0 1-2.58 2.6 2.6 2.6 0 0 1-2.58-2.6 2.6 2.6 0 0 1 2.58-2.6 2.6 2.6 0 0 1 2.58 2.6zm-1.79 0a.8.8 0 0 0-.79-.8.8.8 0 0 0-.8.8c0 .44.36.8.8.8a.8.8 0 0 0 .8-.8zm4.4-36.33c0 .53-.43.96-.95.96h-4.59a.95.95 0 0 1-.94-.96c0-.52.42-.95.94-.95h4.59c.52 0 .94.43.94.95zm-8.44-.97a1 1 0 0 1 1 1 1 1 0 0 1-1 1 1 1 0 0 1-.99-1 1 1 0 0 1 1-1zM836 27v40.98a3 3 0 0 1-2.98 3h-22.04a3 3 0 0 1-2.98-3V27.01a3 3 0 0 1 2.98-3.01h22.04a3 3 0 0 1 2.98 3zm-1.99 40.98V27.01a1 1 0 0 0-1-1h-22.03a1 1 0 0 0-1 1v40.98a1 1 0 0 0 1 1h22.04a1 1 0 0 0 1-1zm-10.33-23.74l-4.78 4.82a.99.99 0 0 1-1.4 0 1.01 1.01 0 0 1 0-1.42l4.77-4.81a.99.99 0 0 1 1.4 0c.4.39.4 1.02 0 1.41zm2.83 2.8l-1.9 1.92a.99.99 0 0 1-1.41 0 1.01 1.01 0 0 1 0-1.42l1.9-1.92a.99.99 0 0 1 1.4 0 1 1 0 0 1 0 1.42zm5.42-14.72v27.65c0 .5-.4.9-.89.9h-18.08a.9.9 0 0 1-.9-.9V32.33c0-.5.4-.9.9-.9h18.08c.5 0 .9.4.9.9zm-1.79.9h-16.29v25.85h16.3z"/></defs><g><g transform="translate(-808 -24)"><use fill="#e72314" xlink:href="#4jbva"/></g></g></svg>