<svg xmlns="http://www.w3.org/2000/svg" xmlns:xlink="http://www.w3.org/1999/xlink" width="37" height="42" viewBox="0 0 37 42"><defs><path id="u87oa" d="M1339.28 46.98l-1.72 1.75c.09.24.13.5.13.77 0 1.23-.98 2.23-2.19 2.23a2.21 2.21 0 0 1-2.06-3l-3.54-3.6a.94.94 0 0 1 0-1.31.9.9 0 0 1 1.3 0l3.54 3.6a2.15 2.15 0 0 1 1.52 0l1.72-1.76a.9.9 0 0 1 1.3 0c.36.37.36.96 0 1.32zm-3.24 2.52c0-.3-.24-.55-.54-.55-.3 0-.54.25-.54.55 0 .3.24.55.54.55.3 0 .54-.25.54-.55zm17.08 0c0 6.23-3.15 11.72-7.92 14.93l1.45 2.1c.3.43.2 1-.22 1.3a.91.91 0 0 1-1.28-.23l-1.53-2.22a17.3 17.3 0 0 1-16.24 0l-1.53 2.22a.91.91 0 0 1-1.28.23.94.94 0 0 1-.22-1.3l1.45-2.1a17.96 17.96 0 0 1-7.92-14.93c0-5.73 2.66-10.83 6.8-14.11l-1.04-1.5-4.16 2.95a.9.9 0 0 1-1.28-.23 6.82 6.82 0 0 1 1.63-9.4c3-2.13 7.15-1.38 9.26 1.66.29.43.18 1-.23 1.3l-3.72 2.64 1.04 1.51a17.32 17.32 0 0 1 18.64 0l1.04-1.5-3.72-2.65a.94.94 0 0 1-.23-1.3 6.59 6.59 0 0 1 9.26-1.65 6.82 6.82 0 0 1 1.63 9.4.92.92 0 0 1-.75.4.9.9 0 0 1-.53-.18l-4.16-2.96-1.04 1.5a17.97 17.97 0 0 1 6.8 14.12zm-1.37-14.77c.92-2.09.28-4.62-1.63-5.99a4.77 4.77 0 0 0-6.1.5zm-24.76-5.5a4.78 4.78 0 0 0-6.1-.49 4.94 4.94 0 0 0-1.64 6zm24.3 20.27c0-8.84-7.08-16.03-15.79-16.03-8.7 0-15.79 7.19-15.79 16.03s7.08 16.03 15.79 16.03c8.7 0 15.79-7.19 15.79-16.03zm-2.83 0c0 7.26-5.81 13.16-12.96 13.16-7.15 0-12.96-5.9-12.96-13.16s5.81-13.16 12.96-13.16c7.15 0 12.96 5.9 12.96 13.16zm-1.69.93h-.88a.92.92 0 0 1-.92-.93c0-.51.41-.93.92-.93h.88a11.52 11.52 0 0 0-2.66-6.5l-.61.63a.9.9 0 0 1-1.3 0 .94.94 0 0 1 0-1.32l.62-.63a11.17 11.17 0 0 0-6.4-2.7v.9c0 .51-.41.93-.92.93a.92.92 0 0 1-.92-.93v-.9c-2.43.2-4.64 1.19-6.4 2.7l.62.63c.36.36.36.95 0 1.32a.9.9 0 0 1-1.3 0l-.61-.63a11.52 11.52 0 0 0-2.66 6.5h.88c.5 0 .92.42.92.93s-.41.93-.92.93h-.88c.2 2.47 1.16 4.72 2.66 6.5l.61-.63a.9.9 0 0 1 1.3 0c.36.37.36.96 0 1.32l-.62.63a11.17 11.17 0 0 0 6.4 2.7v-.9c0-.51.41-.93.92-.93.5 0 .92.42.92.93v.9c2.43-.2 4.64-1.19 6.4-2.7l-.62-.63a.94.94 0 0 1 0-1.32.9.9 0 0 1 1.3 0l.61.63a11.53 11.53 0 0 0 2.66-6.5z"/></defs><g><g transform="translate(-1317 -26)"><use fill="#e72314" xlink:href="#u87oa"/></g></g></svg>