<svg xmlns="http://www.w3.org/2000/svg" xmlns:xlink="http://www.w3.org/1999/xlink" width="49" height="30" viewBox="0 0 49 30"><defs><path id="q045a" d="M820 9793.67a2.3 2.3 0 0 1-2.3 2.27l-40.36.06a2.3 2.3 0 0 1-2.3-2.27l-.04-22.4a2.3 2.3 0 0 1 2.3-2.28l40.36-.05a2.3 2.3 0 0 1 2.31 2.27zm-40.16-22.34l17.66 12.05 17.63-12.1zm24.91 12.74c.4-.5 1.12-.59 1.62-.2l11.33 8.67-.03-20.23-19.5 13.39a1.16 1.16 0 0 1-1.32 0l-19.54-13.33.03 20.17 11.33-8.67c.5-.39 1.22-.3 1.61.2.4.5.3 1.2-.2 1.6l-10.52 8.05 35.85-.05-10.45-8c-.5-.4-.6-1.1-.2-1.6z"/></defs><g><g transform="translate(-773 -9767)"><use fill="#ff3c3c" xlink:href="#q045a"/></g></g></svg>