<svg xmlns="http://www.w3.org/2000/svg" xmlns:xlink="http://www.w3.org/1999/xlink" width="35" height="46" viewBox="0 0 35 46"><defs><path id="bwn4a" d="M1137.7 9801.69a1.01 1.01 0 0 1-1.14.22l-6.82-3.09-6.83 3.09a1 1 0 0 1-.82 0l-6.83-3.09-6.82 3.09a1 1 0 0 1-1.15-.22c-.3-.31-.37-.78-.2-1.17l5.46-11.71c.1-.23.28-.4.5-.5l2.73-1.24-4.7-8a13.27 13.27 0 0 1-1.44-6.09 13.09 13.09 0 0 1 3.74-9.1 12.67 12.67 0 0 1 18.15-.12 13.08 13.08 0 0 1 3.82 9.3 13.09 13.09 0 0 1-1.43 6.01l-4.7 8 2.71 1.23c.23.1.41.27.52.5l5.45 11.72c.18.39.1.86-.2 1.17zm-16.08-8.71c.27.45.7.5.88.5a1 1 0 0 0 .88-.5l8.77-14.94a11.01 11.01 0 0 0 1.17-4.98 11 11 0 0 0-3.23-7.82 10.65 10.65 0 0 0-7.74-3.17 10.96 10.96 0 0 0-10.67 10.93c0 1.77.39 3.47 1.17 5.04zm13.26 5.9l-4.1-8.84-2.61-1.18-3.04 5.18a3.02 3.02 0 0 1-5.26 0l-3.04-5.18-2.6 1.18-4.11 8.84 4.73-2.14a1 1 0 0 1 .83 0l6.82 3.09 6.82-3.1a1 1 0 0 1 .83 0zm-7.73-25.82a4.7 4.7 0 0 1-4.65 4.73 4.7 4.7 0 0 1-4.65-4.73 4.7 4.7 0 0 1 4.65-4.73 4.7 4.7 0 0 1 4.65 4.73zm-2.04 0a2.64 2.64 0 0 0-2.61-2.65 2.64 2.64 0 0 0-2.61 2.65 2.64 2.64 0 0 0 2.61 2.66c1.44 0 2.61-1.2 2.61-2.66z"/></defs><g><g transform="translate(-1105 -9758)"><use fill="#ff3c3c" xlink:href="#bwn4a"/></g></g></svg>