<svg xmlns="http://www.w3.org/2000/svg" xmlns:xlink="http://www.w3.org/1999/xlink" preserveAspectRatio="xMidYMid" width="55" height="53" viewBox="0 0 55 53">
  <defs>
    <style>
      .cls-1 {
        fill: #333;
        fill-rule: evenodd;
      }
    </style>
  </defs>
  <path d="M54.922,28.423 C54.922,31.313 53.455,32.779 50.535,32.781 C42.847,32.786 35.159,32.783 27.470,32.783 C19.847,32.784 12.225,32.784 4.602,32.784 C1.446,32.783 0.006,31.344 0.006,28.204 C0.007,20.260 0.006,12.315 0.006,4.371 C0.006,1.556 1.526,0.026 4.330,0.025 C19.740,0.024 35.149,0.052 50.559,-0.004 C52.961,-0.012 54.994,1.531 54.957,4.393 C54.855,12.402 54.922,20.413 54.922,28.423 ZM46.754,29.623 C46.234,28.248 45.719,27.041 45.327,25.795 C45.076,24.998 44.667,24.750 43.841,24.755 C38.390,24.791 32.938,24.773 27.486,24.773 C22.001,24.773 16.517,24.768 11.032,24.786 C10.673,24.787 10.086,24.863 9.993,25.075 C9.358,26.529 8.826,28.029 8.220,29.623 C21.148,29.623 33.849,29.623 46.754,29.623 ZM46.743,21.665 C46.264,20.382 45.750,19.215 45.398,18.001 C45.095,16.953 44.587,16.605 43.457,16.615 C35.970,16.677 28.482,16.647 20.995,16.647 C17.645,16.647 14.296,16.639 10.946,16.662 C10.629,16.664 10.115,16.779 10.028,16.985 C9.390,18.486 8.838,20.024 8.216,21.665 C21.121,21.665 33.840,21.665 46.743,21.665 ZM46.736,13.473 C46.204,12.070 45.674,10.828 45.269,9.547 C45.011,8.733 44.562,8.523 43.755,8.526 C37.348,8.555 30.941,8.542 24.534,8.542 C20.066,8.542 15.597,8.534 11.129,8.558 C10.747,8.560 10.130,8.675 10.023,8.917 C9.374,10.376 8.842,11.888 8.237,13.473 C21.143,13.473 33.877,13.473 46.736,13.473 ZM50.288,3.128 C35.071,3.128 19.855,3.129 4.639,3.131 C3.167,3.131 3.070,3.225 3.070,4.699 C3.069,12.513 3.069,20.327 3.070,28.142 C3.070,28.405 2.990,28.728 3.111,28.919 C3.297,29.211 3.609,29.585 3.896,29.612 C4.269,29.647 4.903,29.481 5.022,29.219 C5.656,27.814 6.165,26.352 6.733,24.867 C4.696,23.742 4.424,22.919 5.239,20.836 C5.773,19.470 6.272,18.089 6.782,16.729 C4.781,15.768 4.431,14.849 5.189,12.862 C5.823,11.200 6.435,9.529 7.074,7.869 C7.671,6.319 8.801,5.500 10.470,5.499 C21.808,5.495 33.146,5.496 44.484,5.499 C46.104,5.499 47.246,6.244 47.841,7.765 C48.476,9.391 49.092,11.025 49.705,12.659 C50.547,14.903 50.282,15.631 48.251,16.728 C48.248,16.760 48.234,16.797 48.245,16.824 C48.735,18.152 49.226,19.479 49.718,20.806 C50.528,22.990 50.294,23.672 48.267,24.878 C48.799,26.311 49.319,27.764 49.893,29.196 C49.976,29.404 50.301,29.609 50.539,29.644 C51.579,29.795 51.897,29.469 51.898,28.289 C51.902,20.442 51.901,12.595 51.900,4.747 C51.899,3.195 51.831,3.128 50.288,3.128 ZM2.208,41.920 C3.613,41.949 5.019,41.928 6.582,41.928 C6.582,40.095 6.614,38.420 6.567,36.748 C6.546,36.011 6.781,35.733 7.519,35.796 C8.133,35.849 8.755,35.807 9.492,35.807 C9.492,37.842 9.492,39.797 9.492,41.841 C9.880,41.877 10.159,41.923 10.439,41.925 C11.620,41.933 12.802,41.938 13.983,41.926 C14.825,41.918 15.570,42.119 15.959,42.938 C16.344,43.750 16.066,44.465 15.522,45.121 C13.632,47.397 11.763,49.691 9.862,51.957 C8.690,53.353 7.402,53.342 6.238,51.914 C4.377,49.633 2.558,47.318 0.712,45.025 C0.228,44.424 -0.103,43.772 0.282,43.036 C0.671,42.292 1.321,41.902 2.208,41.920 ZM8.023,49.500 C9.286,47.962 10.432,46.567 11.725,44.994 C9.181,44.994 6.915,44.994 4.365,44.994 C5.659,46.588 6.799,47.993 8.023,49.500 ZM21.574,41.927 C23.012,41.938 24.450,41.930 26.015,41.930 C26.015,40.257 26.013,38.683 26.015,37.110 C26.016,35.811 26.018,35.811 27.291,35.807 C28.947,35.802 28.952,35.802 28.959,37.486 C28.966,38.928 28.960,40.370 28.960,41.928 C30.466,41.928 31.868,41.942 33.269,41.923 C34.176,41.911 35.000,42.066 35.416,42.982 C35.813,43.856 35.415,44.562 34.856,45.231 C33.023,47.428 31.218,49.648 29.377,51.839 C28.093,53.368 26.881,53.383 25.618,51.879 C23.736,49.638 21.884,47.370 20.022,45.111 C19.487,44.463 19.187,43.754 19.593,42.928 C19.996,42.105 20.735,41.920 21.574,41.927 ZM27.491,49.453 C28.736,47.934 29.870,46.549 31.126,45.017 C28.615,45.017 26.325,45.017 23.824,45.017 C25.114,46.577 26.270,47.976 27.491,49.453 ZM40.978,41.925 C42.415,41.938 43.853,41.928 45.421,41.928 C45.421,40.218 45.474,38.611 45.400,37.011 C45.357,36.072 45.621,35.676 46.590,35.795 C47.134,35.861 47.693,35.807 48.402,35.807 C48.402,37.914 48.402,39.849 48.402,41.928 C49.819,41.928 51.153,41.945 52.487,41.923 C53.446,41.906 54.368,41.971 54.835,42.978 C55.308,44.000 54.691,44.727 54.088,45.452 C52.343,47.553 50.609,49.664 48.870,51.769 C47.542,53.377 46.313,53.395 44.980,51.798 C43.125,49.574 41.291,47.334 39.443,45.104 C38.934,44.490 38.585,43.841 38.956,43.030 C39.353,42.161 40.090,41.917 40.978,41.925 ZM46.910,49.442 C48.140,47.945 49.299,46.534 50.568,44.988 C48.022,44.988 45.744,44.988 43.228,44.988 C44.534,46.569 45.679,47.954 46.910,49.442 Z" class="cls-1"/>
</svg>
