<svg id="SvgjsSvg1056" xmlns="http://www.w3.org/2000/svg" version="1.1" xmlns:xlink="http://www.w3.org/1999/xlink" xmlns:svgjs="http://svgjs.com/svgjs" width="49" height="50" viewBox="0 0 49 50"><title>Shape 69</title><desc>Created with Avocode.</desc><defs id="SvgjsDefs1057"></defs><path id="SvgjsPath1058" d="M723.63 2194.98C726.305 2194.98 728.826 2194.98 731.348 2194.98C734.966 2194.98 738.584 2195.04 742.2009999999999 2194.97C743.3679999999999 2194.95 743.6449999999999 2195.37 743.5939999999999 2196.4399999999996C743.295 2202.7899999999995 743.0289999999999 2209.1399999999994 742.7729999999999 2215.4999999999995C742.6909999999999 2217.5199999999995 742.6589999999999 2219.5399999999995 742.627 2221.5599999999995C742.611 2222.6099999999997 742.245 2223.3199999999997 741.1909999999999 2223.7399999999993C740.829 2223.879999999999 740.4769999999999 2224.5399999999995 740.4569999999999 2224.979999999999C740.3749999999999 2226.809999999999 740.4329999999999 2228.649999999999 740.4159999999998 2230.4899999999993C740.3989999999998 2232.4099999999994 739.8709999999999 2232.9699999999993 738.0019999999998 2232.979999999999C735.1339999999998 2232.999999999999 732.2659999999998 2233.0099999999993 729.3989999999999 2232.979999999999C727.5869999999999 2232.959999999999 727.0559999999999 2232.409999999999 727.0379999999999 2230.5899999999992C727.0189999999999 2228.709999999999 727.0199999999999 2226.8199999999993 727.0379999999999 2224.939999999999C727.0449999999998 2224.249999999999 726.9229999999999 2223.7799999999993 726.0969999999999 2223.659999999999C725.0299999999999 2223.519999999999 724.6359999999999 2222.719999999999 724.6059999999999 2221.729999999999C724.5609999999999 2220.219999999999 724.5409999999998 2218.719999999999 724.5419999999999 2217.209999999999C724.5419999999999 2216.439999999999 724.2979999999999 2215.899999999999 723.4459999999999 2215.889999999999C721.2009999999999 2215.8799999999987 718.9559999999999 2215.889999999999 716.4549999999999 2215.889999999999C716.4549999999999 2217.649999999999 716.4469999999999 2219.279999999999 716.458 2220.909999999999C716.467 2222.339999999999 716.2719999999999 2223.569999999999 714.4839999999999 2223.799999999999C714.247 2223.839999999999 713.9409999999999 2224.4999999999986 713.929 2224.8799999999987C713.872 2226.8099999999986 713.9159999999999 2228.739999999999 713.895 2230.6699999999987C713.876 2232.3999999999987 713.333 2232.9599999999987 711.6 2232.9799999999987C708.6850000000001 2233.009999999999 705.77 2233.009999999999 702.855 2232.9799999999987C701.065 2232.9599999999987 700.561 2232.3999999999987 700.548 2230.5399999999986C700.5360000000001 2228.6999999999985 700.525 2226.8699999999985 700.553 2225.0299999999984C700.564 2224.2899999999986 700.408 2223.7999999999984 699.585 2223.5799999999986C698.4490000000001 2223.2699999999986 698.379 2222.2699999999986 698.3480000000001 2221.2999999999984C698.1440000000001 2214.7999999999984 697.95 2208.3099999999986 697.73 2201.8199999999983C697.666 2199.9399999999982 697.534 2198.059999999998 697.419 2196.1799999999985C697.369 2195.3499999999985 697.682 2194.9999999999986 698.559 2195.0099999999984C704.105 2195.0299999999984 709.6519999999999 2194.9899999999984 715.199 2194.999999999998C717.284 2194.999999999998 717.284 2195.0299999999984 717.266 2197.1499999999983C717.2529999999999 2198.6599999999985 717.276 2200.1699999999983 717.218 2201.6799999999985C717.183 2202.5799999999986 717.512 2202.9599999999987 718.434 2202.9399999999987C719.891 2202.8999999999987 721.352 2202.8699999999985 722.805 2202.949999999999C723.833 2203.009999999999 723.983 2202.519999999999 723.935 2201.6699999999987C723.8119999999999 2199.5199999999986 723.7349999999999 2197.3699999999985 723.63 2194.9799999999987ZM701.626 2220.41C704.571 2220.41 707.336 2220.46 710.0989999999999 2220.3999999999996C713.4509999999999 2220.3299999999995 713.4689999999999 2220.2899999999995 713.228 2216.8599999999997C713.203 2216.5099999999998 712.861 2215.99 712.5419999999999 2215.87C711.5409999999999 2215.47 711.223 2214.75 711.2249999999999 2213.77C711.2299999999999 2210.89 711.2539999999999 2208.02 711.2259999999999 2205.14C711.2129999999999 2203.92 711.6199999999999 2203.19 712.9179999999999 2202.98C713.2769999999999 2202.92 713.8109999999999 2202.39 713.8299999999999 2202.05C713.9 2200.82 713.7919999999999 2199.5800000000004 713.718 2198.3500000000004C713.7149999999999 2198.3 713.377 2198.2400000000002 713.1949999999999 2198.2400000000002C709.4359999999999 2198.2500000000005 705.6759999999999 2198.28 701.9169999999999 2198.28C700.9559999999999 2198.27 700.8679999999999 2198.82 700.8969999999999 2199.5600000000004C701.001 2202.2000000000003 701.088 2204.8300000000004 701.18 2207.4700000000003C701.3259999999999 2211.7000000000003 701.472 2215.9300000000003 701.626 2220.4100000000003ZM739.518 2208.97C739.711 2208.97 739.904 2208.97 740.097 2208.97C740.097 2205.87 740.059 2202.7599999999998 740.117 2199.66C740.1379999999999 2198.5499999999997 739.769 2198.16 738.6619999999999 2198.18C735.939 2198.24 733.2109999999999 2198.1299999999997 730.4889999999999 2198.22C726.329 2198.3399999999997 727.2439999999999 2197.73 727.1429999999999 2201.7099999999996C727.1249999999999 2202.4399999999996 727.3639999999999 2202.8399999999997 728.1239999999999 2202.9799999999996C729.1299999999999 2203.1499999999996 729.675 2203.7899999999995 729.685 2204.8499999999995C729.7099999999999 2207.8599999999997 729.81 2210.8699999999994 729.713 2213.8799999999997C729.693 2214.5199999999995 728.9599999999999 2215.1299999999997 728.558 2215.7499999999995C728.271 2216.1999999999994 727.865 2216.6099999999997 727.735 2217.0899999999997C727.596 2217.62 727.749 2218.22 727.715 2218.7799999999997C727.645 2219.9399999999996 728.176 2220.3799999999997 729.311 2220.3599999999997C731.9870000000001 2220.3199999999997 734.664 2220.3499999999995 737.341 2220.3399999999997C739.28 2220.3399999999997 739.498 2220.14 739.5120000000001 2218.1499999999996C739.5340000000001 2215.0899999999997 739.518 2212.0299999999997 739.518 2208.97ZM720.488 2212.59C722.0840000000001 2212.59 723.6800000000001 2212.57 725.2750000000001 2212.61C726.1600000000001 2212.63 726.5620000000001 2212.33 726.5230000000001 2211.3900000000003C726.4680000000002 2210.0800000000004 726.4630000000002 2208.7500000000005 726.5250000000001 2207.4400000000005C726.57 2206.4900000000007 726.113 2206.1900000000005 725.272 2206.1900000000005C722.034 2206.1900000000005 718.796 2206.1900000000005 715.558 2206.1700000000005C714.805 2206.1600000000003 714.4399999999999 2206.4400000000005 714.4689999999999 2207.2500000000005C714.5179999999999 2208.6100000000006 714.5509999999999 2209.9800000000005 714.4929999999999 2211.3400000000006C714.449 2212.370000000001 714.9159999999999 2212.6300000000006 715.843 2212.6100000000006C717.39 2212.5600000000004 718.9399999999999 2212.5900000000006 720.4879999999999 2212.5900000000006ZM707.253 2223.72C703.783 2223.72 703.783 2223.72 703.784 2227.2099999999996C703.784 2227.5899999999997 703.813 2227.97 703.78 2228.3399999999997C703.702 2229.24 704.048 2229.6299999999997 704.983 2229.6C706.3879999999999 2229.5499999999997 707.8 2229.5299999999997 709.204 2229.6C710.3019999999999 2229.66 710.7879999999999 2229.2799999999997 710.6579999999999 2228.16C710.6199999999999 2227.83 710.6529999999999 2227.5 710.6529999999999 2227.17C710.6549999999999 2223.7200000000003 710.6549999999999 2223.7200000000003 707.2529999999999 2223.7200000000003ZM733.754 2223.72C730.289 2223.72 730.289 2223.72 730.289 2227.2099999999996C730.289 2227.5399999999995 730.321 2227.8699999999994 730.284 2228.1899999999996C730.167 2229.2099999999996 730.54 2229.6599999999994 731.616 2229.5999999999995C732.9739999999999 2229.5299999999993 734.341 2229.5299999999993 735.698 2229.5999999999995C736.7909999999999 2229.6599999999994 737.287 2229.2699999999995 737.167 2228.1499999999996C737.1320000000001 2227.8299999999995 737.163 2227.49 737.163 2227.16C737.165 2223.72 737.165 2223.72 733.754 2223.72ZM707.429 2187.26C705.504 2187.2700000000004 703.577 2187.3 701.654 2187.25C700.637 2187.22 700.298 2187.64 700.43 2188.6C700.5129999999999 2189.21 700.5459999999999 2189.8199999999997 700.5619999999999 2190.43C700.6049999999999 2192.08 699.1499999999999 2192.96 697.7059999999999 2192.12C697.4599999999999 2191.98 697.2959999999999 2191.52 697.271 2191.2C697.146 2189.6 697.06 2188.0099999999998 696.9989999999999 2186.41C696.9319999999999 2184.67 697.5629999999999 2184.02 699.329 2184.02C704.7289999999999 2184.0099999999998 710.13 2184.0099999999998 715.53 2184.02C717.249 2184.02 717.809 2184.6 717.7769999999999 2186.33C717.7479999999999 2187.93 717.6389999999999 2189.5299999999997 717.584 2191.13C717.53 2192.71 716.3299999999999 2192.15 715.5 2192.25C714.619 2192.36 714.263 2192.01 714.286 2191.05C714.3779999999999 2187.26 714.347 2187.26 710.5279999999999 2187.26C709.4949999999999 2187.26 708.4619999999999 2187.26 707.4289999999999 2187.26ZM733.631 2184.02C736.355 2184.02 739.0799999999999 2184 741.805 2184.02C743.4549999999999 2184.04 744.0269999999999 2184.59 744.0039999999999 2186.24C743.9809999999999 2187.89 743.8599999999999 2189.5299999999997 743.7649999999999 2191.18C743.6739999999999 2192.74 742.4679999999998 2192.16 741.6359999999999 2192.25C740.7169999999999 2192.35 740.3549999999999 2191.88 740.4319999999999 2190.98C740.5009999999999 2190.19 740.5189999999999 2189.39 740.6009999999999 2188.59C740.6989999999998 2187.6400000000003 740.3769999999998 2187.2400000000002 739.3549999999999 2187.25C735.55 2187.29 731.7439999999999 2187.3 727.9399999999999 2187.24C726.847 2187.2299999999996 726.5139999999999 2187.6499999999996 726.621 2188.66C726.7049999999999 2189.45 726.706 2190.2599999999998 726.773 2191.0499999999997C726.8430000000001 2191.89 726.498 2192.3599999999997 725.653 2192.24C724.839 2192.1299999999997 723.572 2192.8199999999997 723.44 2191.29C723.2890000000001 2189.56 723.2410000000001 2187.81 723.2410000000001 2186.07C723.2420000000001 2184.57 723.8050000000001 2184.04 725.315 2184.02C728.0870000000001 2184 730.859 2184.02 733.6310000000001 2184.02ZM720.559 2211.04C719.855 2211.04 719.149 2211.08 718.449 2211.0299999999997C717.5279999999999 2210.97 716.7869999999999 2210.4199999999996 716.9639999999999 2209.54C717.0889999999999 2208.92 717.8119999999999 2208.05 718.372 2207.97C719.79 2207.74 721.2679999999999 2207.85 722.718 2207.9199999999996C723.574 2207.9599999999996 724.103 2208.4999999999995 724.0949999999999 2209.3999999999996C724.0869999999999 2210.3299999999995 723.5989999999999 2210.9199999999996 722.6669999999999 2211.0199999999995C721.9709999999999 2211.0799999999995 721.262 2211.0299999999997 720.559 2211.0299999999997V2211.04Z " fill="#f7f7f7" fill-opacity="1" transform="matrix(1,0,0,1,-696,-2184)"></path></svg>