<svg id="SvgjsSvg1053" xmlns="http://www.w3.org/2000/svg" version="1.1" xmlns:xlink="http://www.w3.org/1999/xlink" xmlns:svgjs="http://svgjs.com/svgjs" width="37" height="51" viewBox="0 0 37 51"><title>Shape 67</title><desc>Created with Avocode.</desc><defs id="SvgjsDefs1054"></defs><path id="SvgjsPath1055" d="M258.988 2210.45C258.989 2217.22 258.993 2223.98 258.987 2230.74C258.98400000000004 2234.1499999999996 257.329 2235.9399999999996 253.97600000000003 2235.9599999999996C244.997 2235.9999999999995 236.01900000000003 2235.9999999999995 227.04000000000002 2235.9499999999994C223.70900000000003 2235.939999999999 222.01200000000003 2234.1199999999994 222.00900000000001 2230.7299999999996C221.99900000000002 2217.2599999999998 221.99800000000002 2203.7799999999997 222.007 2190.2999999999997C222.00900000000001 2186.83 223.74800000000002 2185.0299999999997 227.131 2185.0199999999995C236.01 2184.9999999999995 244.889 2184.9999999999995 253.768 2185.0099999999993C257.308 2185.0099999999993 258.984 2186.7399999999993 258.986 2190.3099999999995C258.991 2197.0199999999995 258.988 2203.7399999999993 258.988 2210.4499999999994ZM240.512 2200.75C245.148 2200.75 249.784 2200.71 254.419 2200.77C255.597 2200.79 255.985 2200.41 255.95700000000002 2199.22C255.889 2196.24 255.94700000000003 2193.2599999999998 255.92600000000002 2190.29C255.91400000000002 2188.61 255.461 2188.15 253.76200000000003 2188.15C244.93900000000002 2188.14 236.11500000000004 2188.14 227.29200000000003 2188.15C225.56600000000003 2188.15 225.11700000000002 2188.63 225.10700000000003 2190.4300000000003C225.09100000000004 2193.36 225.14700000000002 2196.28 225.07900000000004 2199.2100000000005C225.05100000000004 2200.3900000000003 225.41400000000004 2200.7800000000007 226.60400000000004 2200.7700000000004C231.23900000000003 2200.7100000000005 235.87600000000003 2200.7500000000005 240.51200000000003 2200.7500000000005ZM247.856 2232.78C250.118 2232.78 252.29999999999998 2232.82 254.47899999999998 2232.76C255.50599999999997 2232.73 255.926 2231.9900000000002 255.927 2231C255.92999999999998 2225.9 255.914 2220.8 255.946 2215.7C255.952 2214.73 255.521 2214.5099999999998 254.672 2214.5299999999997C252.827 2214.5699999999997 250.977 2214.6099999999997 249.136 2214.5199999999995C247.982 2214.4599999999996 247.7 2214.9099999999994 247.71 2216.0099999999993C247.756 2221.109999999999 247.728 2226.1999999999994 247.73600000000002 2231.2999999999993C247.73600000000002 2231.7399999999993 247.806 2232.1799999999994 247.85600000000002 2232.7799999999993ZM240.565 2203.91C239.56799999999998 2203.91 238.571 2203.95 237.577 2203.8999999999996C236.74699999999999 2203.8599999999997 236.418 2204.18 236.438 2205.0399999999995C236.47899999999998 2206.7999999999997 236.47899999999998 2208.5599999999995 236.439 2210.3299999999995C236.42 2211.1799999999994 236.766 2211.4999999999995 237.58599999999998 2211.4799999999996C238.78099999999998 2211.4399999999996 239.97699999999998 2211.4699999999993 241.172 2211.4699999999993C244.615 2211.4699999999993 244.615 2211.4699999999993 244.614 2207.9799999999996C244.613 2203.9099999999994 244.613 2203.9099999999994 240.565 2203.9099999999994ZM233.232 2214.55C230.716 2214.55 228.288 2214.52 225.863 2214.6000000000004C225.6 2214.6100000000006 225.154 2215.2400000000002 225.139 2215.6000000000004C225.066 2217.4100000000003 225.066 2219.2300000000005 225.14100000000002 2221.0400000000004C225.156 2221.4100000000003 225.59900000000002 2222.0500000000006 225.86 2222.0600000000004C228.28500000000003 2222.1400000000003 230.71300000000002 2222.1100000000006 233.23200000000003 2222.1100000000006C233.23200000000003 2219.5200000000004 233.23200000000003 2217.1300000000006 233.23200000000003 2214.5500000000006ZM240.602 2214.54C239.604 2214.54 238.605 2214.57 237.609 2214.5299999999997C236.809 2214.4999999999995 236.41500000000002 2214.7499999999995 236.437 2215.64C236.48100000000002 2217.4 236.48700000000002 2219.17 236.437 2220.94C236.40900000000002 2221.9 236.828 2222.15 237.69400000000002 2222.14C239.58800000000002 2222.1 241.48600000000002 2222.08 243.38000000000002 2222.14C244.41100000000003 2222.18 244.65600000000003 2221.72 244.62700000000004 2220.7799999999997C244.57600000000005 2219.1699999999996 244.54700000000003 2217.5499999999997 244.63500000000005 2215.9399999999996C244.70100000000005 2214.7499999999995 244.21100000000004 2214.4399999999996 243.14500000000004 2214.5299999999997C242.30300000000003 2214.6 241.45000000000005 2214.54 240.60200000000003 2214.54ZM233.313 2203.92C230.731 2203.92 228.307 2203.89 225.886 2203.9700000000003C225.61599999999999 2203.9800000000005 225.155 2204.59 225.141 2204.94C225.065 2206.75 225.047 2208.57 225.153 2210.38C225.17499999999998 2210.76 225.784 2211.4 226.146 2211.42C228.232 2211.52 230.325 2211.4900000000002 232.414 2211.4300000000003C232.72099999999998 2211.42 233.266 2210.9700000000003 233.274 2210.7200000000003C233.343 2208.51 233.313 2206.3100000000004 233.313 2203.92ZM251.8 2203.91C250.80200000000002 2203.91 249.803 2203.95 248.80700000000002 2203.8999999999996C248.05200000000002 2203.8699999999994 247.71400000000003 2204.1399999999994 247.72600000000003 2204.9399999999996C247.75500000000002 2206.7599999999998 247.75300000000001 2208.5799999999995 247.72600000000003 2210.3899999999994C247.71500000000003 2211.1699999999996 248.02700000000002 2211.4899999999993 248.78800000000004 2211.4699999999993C250.03500000000005 2211.4499999999994 251.28200000000004 2211.4699999999993 252.52900000000005 2211.4699999999993C255.93400000000005 2211.4699999999993 255.93400000000005 2211.4699999999993 255.93400000000005 2208.0699999999993C255.93400000000005 2203.9099999999994 255.93400000000005 2203.9099999999994 251.80000000000007 2203.9099999999994ZM244.606 2232.74C244.606 2230.43 244.649 2228.27 244.557 2226.12C244.54399999999998 2225.81 243.891 2225.29 243.517 2225.2799999999997C241.52599999999998 2225.1899999999996 239.53 2225.2099999999996 237.53799999999998 2225.2599999999998C237.18099999999998 2225.27 236.535 2225.62 236.528 2225.8199999999997C236.45499999999998 2228.1099999999997 236.482 2230.41 236.482 2232.74C239.267 2232.74 241.8 2232.74 244.606 2232.74ZM233.32 2232.79C233.32 2230.43 233.356 2228.27 233.279 2226.11C233.268 2225.81 232.709 2225.29 232.389 2225.28C230.29600000000002 2225.2000000000003 228.198 2225.2000000000003 226.10600000000002 2225.28C225.76100000000002 2225.3 225.17300000000003 2225.88 225.15200000000002 2226.2200000000003C225.055 2227.88 225.074 2229.55 225.133 2231.2200000000003C225.168 2232.2200000000003 225.77200000000002 2232.78 226.787 2232.78C228.876 2232.8 230.966 2232.7900000000004 233.32 2232.7900000000004ZM249.357 2191.93C250.285 2191.93 251.163 2191.93 252.174 2191.93C252.174 2193.66 252.174 2195.3799999999997 252.174 2197.19C251.256 2197.19 250.377 2197.19 249.357 2197.19C249.357 2195.4700000000003 249.357 2193.75 249.357 2191.93ZM242.871 2197.19C242.871 2195.42 242.871 2193.78 242.871 2191.9900000000002C243.83800000000002 2191.9900000000002 244.781 2191.9900000000002 245.83100000000002 2191.9900000000002C245.83100000000002 2193.73 245.83100000000002 2195.42 245.83100000000002 2197.19C244.89000000000001 2197.19 243.965 2197.19 242.871 2197.19Z " fill="#f7f7f7" fill-opacity="1" transform="matrix(1,0,0,1,-222,-2185)"></path></svg>