<?xml version="1.0" encoding="UTF-8" standalone="no"?>
<svg
   xmlns:dc="http://purl.org/dc/elements/1.1/"
   xmlns:cc="http://creativecommons.org/ns#"
   xmlns:rdf="http://www.w3.org/1999/02/22-rdf-syntax-ns#"
   xmlns:svg="http://www.w3.org/2000/svg"
   xmlns="http://www.w3.org/2000/svg"
   viewBox="0 0 56 40"
   height="40"
   width="56"
   version="1.1"
   id="SvgjsSvg1062">
  <metadata
     id="metadata11">
    <rdf:RDF>
      <cc:Work
         rdf:about="">
        <dc:format>image/svg+xml</dc:format>
        <dc:type
           rdf:resource="http://purl.org/dc/dcmitype/StillImage" />
        <dc:title></dc:title>
      </cc:Work>
    </rdf:RDF>
  </metadata>
  <desc
     id="desc5">Created with Avocode.</desc>
  <defs
     id="SvgjsDefs1063" />
  <path
     transform="matrix(1,0,0,1,-1172,-2194)"
     fill="#f7f7f7"
     fill-opacity="1"
     d="M1177.3 2212.85C1178.99 2212.85 1180.3999999999999 2212.85 1181.82 2212.85C1185.79 2212.85 1189.75 2212.86 1193.71 2212.8399999999997C1194.53 2212.8299999999995 1194.99 2212.97 1195.0900000000001 2213.9999999999995C1195.38 2216.8699999999994 1197.3700000000001 2218.7099999999996 1200.0000000000002 2218.7099999999996C1202.6000000000001 2218.7099999999996 1204.6100000000001 2216.7899999999995 1204.9700000000003 2213.99C1205.0100000000002 2213.66 1205.0600000000002 2213.33 1205.1300000000003 2212.8199999999997C1210.9100000000003 2212.8199999999997 1216.6400000000003 2212.8199999999997 1222.6200000000003 2212.8199999999997C1222.0900000000004 2211.64 1221.7300000000002 2210.6899999999996 1221.2600000000004 2209.7999999999997C1219.1700000000005 2205.7999999999997 1217.0400000000004 2201.8199999999997 1214.9200000000005 2197.83C1214.7600000000004 2197.5299999999997 1214.6000000000006 2197.22 1214.4400000000005 2196.92C1213.9000000000005 2195.92 1213.7000000000005 2194.92 1214.8500000000006 2194.26C1216.0000000000007 2193.6000000000004 1216.7600000000007 2194.2900000000004 1217.2800000000007 2195.3C1218.5400000000006 2197.77 1219.7300000000007 2200.27 1221.0200000000007 2202.7200000000003C1222.5500000000006 2205.65 1224.1100000000006 2208.5600000000004 1225.7300000000007 2211.4500000000003C1226.6100000000008 2213.01 1227.0300000000007 2214.61 1227.0000000000007 2216.4500000000003C1226.9100000000008 2221.44 1226.9800000000007 2226.4300000000003 1226.9800000000007 2231.42C1226.9700000000007 2233.5 1226.4700000000007 2234 1224.4300000000007 2234C1208.2500000000007 2234 1192.0800000000008 2234 1175.9000000000008 2234C1173.2200000000007 2234 1172.9900000000007 2233.76 1172.9900000000007 2230.96C1172.9900000000007 2225.82 1172.9600000000007 2220.68 1173.0200000000007 2215.55C1173.0400000000006 2214.57 1173.2800000000007 2213.5 1173.7200000000007 2212.63C1176.6300000000008 2206.9 1179.6200000000008 2201.2200000000003 1182.5700000000006 2195.51C1183.1100000000006 2194.4700000000003 1183.7500000000007 2193.65 1185.0300000000007 2194.19C1186.0300000000007 2194.61 1186.1700000000008 2195.65 1185.4200000000008 2197.1C1182.9700000000007 2201.86 1180.4900000000007 2206.6 1178.0300000000007 2211.35C1177.8300000000006 2211.74 1177.6500000000005 2212.13 1177.3000000000006 2212.85ZM1223.71 2216.42C1223.39 2216.29 1223.31 2216.2200000000003 1223.22 2216.2200000000003C1218.3600000000001 2216.2000000000003 1213.49 2216.1600000000003 1208.63 2216.21C1208.23 2216.2200000000003 1207.7 2216.79 1207.47 2217.23C1205.84 2220.28 1203.43 2222.03 1199.99 2222.02C1196.57 2222.0099999999998 1194.07 2220.33 1192.57 2217.2C1192.2 2216.4199999999996 1191.78 2216.1299999999997 1190.95 2216.14C1186.51 2216.18 1182.07 2216.19 1177.63 2216.1299999999997C1176.46 2216.1199999999994 1176.19 2216.5899999999997 1176.2 2217.6899999999996C1176.25 2221.3499999999995 1176.22 2225.0199999999995 1176.22 2228.6899999999996C1176.22 2230.6799999999994 1176.23 2230.6799999999994 1178.17 2230.6899999999996C1191.96 2230.72 1205.75 2230.74 1219.54 2230.7699999999995C1220.8999999999999 2230.7699999999995 1222.27 2230.7699999999995 1223.71 2230.7699999999995C1223.71 2225.7799999999997 1223.71 2221.0899999999997 1223.71 2216.4199999999996ZM1200.11 2206.64C1204.54 2206.64 1208.9799999999998 2206.64 1213.4099999999999 2206.65C1213.8799999999999 2206.65 1214.4799999999998 2206.54 1214.8 2206.79C1215.28 2207.15 1215.85 2207.7799999999997 1215.85 2208.29C1215.84 2208.81 1215.26 2209.43 1214.78 2209.79C1214.45 2210.0299999999997 1213.86 2209.92 1213.3899999999999 2209.92C1204.4699999999998 2209.9300000000003 1195.56 2209.9300000000003 1186.6499999999999 2209.92C1186.2199999999998 2209.92 1185.6599999999999 2210.06 1185.3899999999999 2209.84C1184.86 2209.4100000000003 1184.1899999999998 2208.78 1184.1599999999999 2208.19C1184.1299999999999 2207.7200000000003 1184.8799999999999 2207.1 1185.4099999999999 2206.7200000000003C1185.6999999999998 2206.51 1186.2399999999998 2206.65 1186.6699999999998 2206.65C1191.1499999999999 2206.64 1195.6299999999999 2206.64 1200.11 2206.64ZM1199.93 2200.41C1203.46 2200.41 1206.99 2200.43 1210.52 2200.3999999999996C1211.69 2200.3999999999996 1212.75 2200.6199999999994 1212.77 2202.0299999999997C1212.78 2203.4399999999996 1211.71 2203.7099999999996 1210.55 2203.7099999999996C1203.49 2203.7099999999996 1196.43 2203.72 1189.36 2203.7099999999996C1187.9099999999999 2203.6999999999994 1187.07 2203.0499999999997 1187.1699999999998 2201.99C1187.3 2200.6699999999996 1188.2099999999998 2200.3999999999996 1189.33 2200.41C1192.87 2200.42 1196.3999999999999 2200.41 1199.9299999999998 2200.41ZM1200.11 2194.11C1202.83 2194.11 1205.54 2194.11 1208.26 2194.11C1209.4 2194.11 1210.45 2194.35 1210.44 2195.8C1210.43 2197.15 1209.43 2197.4500000000003 1208.3500000000001 2197.4500000000003C1202.7700000000002 2197.4600000000005 1197.2 2197.4600000000005 1191.63 2197.4500000000003C1190.5400000000002 2197.4500000000003 1189.6000000000001 2197.1400000000003 1189.48 2195.82C1189.39 2194.76 1190.21 2194.13 1191.68 2194.1200000000003C1194.49 2194.1000000000004 1197.3 2194.11 1200.1100000000001 2194.11Z "
     id="SvgjsPath1064" />
</svg>
