<svg id="SvgjsSvg1017" xmlns="http://www.w3.org/2000/svg" version="1.1" xmlns:xlink="http://www.w3.org/1999/xlink" xmlns:svgjs="http://svgjs.com/svgjs" width="36" height="56" viewBox="0 0 36 56"><title>Shape 62</title><desc>Created with Avocode.</desc><defs id="SvgjsDefs1018"></defs><path id="SvgjsPath1019" d="M284.627 1138C286.32800000000003 1138.85 287.499 1140.14 287.889 1142.04C288.438 1144.71 286.88800000000003 1147.45 284.372 1148.31C281.70500000000004 1149.22 278.88 1148.1 277.619 1145.6399999999999C276.367 1143.1899999999998 277.139 1140.1499999999999 279.41700000000003 1138.58C279.70000000000005 1138.3799999999999 279.98800000000006 1138.1899999999998 280.273 1138C281.72400000000005 1138 283.17600000000004 1138 284.627 1138ZM280.492 1143.17C280.51500000000004 1144.3000000000002 281.44800000000004 1145.19 282.57800000000003 1145.17C283.64900000000006 1145.14 284.53600000000006 1144.23 284.543 1143.14C284.551 1142.0300000000002 283.594 1141.0800000000002 282.494 1141.1000000000001C281.355 1141.1200000000001 280.46900000000005 1142.0300000000002 280.492 1143.17ZM274.746 1159.2C274.746 1162.77 274.768 1166.3500000000001 274.72999999999996 1169.92C274.72099999999995 1170.8000000000002 274.96599999999995 1171.47 275.52099999999996 1172.15C281.89899999999994 1180.0400000000002 277.818 1191.7800000000002 267.95899999999995 1193.7C262.381 1194.79 257.7339999999999 1192.89 254.48099999999994 1188.25C251.31199999999993 1183.72 251.27599999999993 1178.86 253.85399999999993 1173.99C254.17599999999993 1173.39 254.60499999999993 1172.8 255.10399999999993 1172.33C255.90599999999992 1171.58 256.05299999999994 1170.6999999999998 256.01399999999995 1169.6699999999998C255.93599999999995 1167.59 255.89899999999994 1165.5099999999998 255.89199999999994 1163.4299999999998C255.87599999999995 1158.3999999999999 255.85999999999993 1153.37 255.89499999999992 1148.34C255.92699999999994 1143.6499999999999 258.8239999999999 1139.9599999999998 263.20399999999995 1138.9399999999998C269.1449999999999 1137.5599999999997 274.70599999999996 1141.9399999999998 274.775 1148.1C274.816 1151.8 274.782 1155.5 274.782 1159.1999999999998C274.77 1159.1999999999998 274.758 1159.1999999999998 274.746 1159.1999999999998ZM271.359 1160.15C271.342 1160.15 271.325 1160.15 271.308 1160.15C271.308 1159.2900000000002 271.313 1158.44 271.307 1157.5800000000002C271.284 1154.2 271.40000000000003 1150.8100000000002 271.192 1147.44C270.973 1143.89 267.559 1141.55 264.087 1142.3200000000002C261.186 1142.9500000000003 259.416 1145.18 259.413 1148.2600000000002C259.404 1156.0000000000002 259.40500000000003 1163.7500000000002 259.426 1171.4900000000002C259.429 1172.3300000000002 259.212 1172.9400000000003 258.599 1173.5800000000002C257.735 1174.4800000000002 256.834 1175.4800000000002 256.378 1176.6000000000001C254.83599999999998 1180.42 255.284 1184.0400000000002 258.043 1187.21C261.722 1191.44 268.253 1191.65 272.221 1187.7C276.1 1183.8400000000001 276.29200000000003 1177.54 272.031 1173.3500000000001C271.677 1173.0000000000002 271.395 1172.4 271.38800000000003 1171.91C271.33700000000005 1167.99 271.35900000000004 1164.0700000000002 271.35900000000004 1160.15ZM267.037 1166.89C267.037 1168.8100000000002 267.04299999999995 1170.74 267.03299999999996 1172.67C267.03 1173.16 267.14099999999996 1173.47 267.68799999999993 1173.65C271.72399999999993 1174.97 273.7419999999999 1179.5400000000002 272.17299999999994 1183.47C270.45699999999994 1187.78 265.23799999999994 1189.3700000000001 261.45399999999995 1186.98C257.727 1184.6200000000001 257.0559999999999 1180.14 258.881 1177.1200000000001C259.806 1175.5800000000002 260.96299999999997 1174.3100000000002 262.69 1173.74C263.502 1173.47 263.664 1173.01 263.657 1172.26C263.625 1168.6299999999999 263.621 1164.99 263.611 1161.36C263.60699999999997 1160.01 263.613 1160 264.974 1160.01C267.38599999999997 1160.03 267.054 1159.74 267.074 1162.14C267.087 1163.72 267.076 1165.3000000000002 267.076 1166.89C267.06300000000005 1166.89 267.05 1166.89 267.03700000000003 1166.89ZM265.368 1184.6C267.581 1184.58 269.303 1182.82 269.276 1180.61C269.25 1178.4599999999998 267.368 1176.57 265.291 1176.61C263.146 1176.6499999999999 261.366 1178.5 261.381 1180.6699999999998C261.395 1182.8799999999999 263.17199999999997 1184.6299999999999 265.368 1184.6Z " fill="#333333" fill-opacity="1" transform="matrix(1,0,0,1,-252,-1138)"></path></svg>