<svg id="SvgjsSvg1008" xmlns="http://www.w3.org/2000/svg" version="1.1" xmlns:xlink="http://www.w3.org/1999/xlink" xmlns:svgjs="http://svgjs.com/svgjs" width="55" height="61" viewBox="0 0 55 61"><title>Shape 53</title><desc>Created with Avocode.</desc><defs id="SvgjsDefs1009"></defs><path id="SvgjsPath1010" d="M585.949 844.908C585.872 845.917 585.81 846.765 585.7429999999999 847.611C585.304 853.1899999999999 581.03 856.917 575.4559999999999 856.8199999999999C571.1859999999999 856.7449999999999 566.9119999999999 856.973 562.6389999999999 856.9809999999999C559.5279999999999 856.9869999999999 556.4139999999999 856.8949999999999 553.3039999999999 856.7739999999999C548.2639999999999 856.5779999999999 543.9859999999999 851.1819999999999 544.3899999999999 846.1419999999999C544.7139999999998 842.0989999999999 544.4749999999999 838.01 544.4679999999998 833.9409999999999C544.4599999999998 830.1719999999999 544.3999999999999 826.4029999999999 544.4259999999998 822.6349999999999C544.4339999999999 821.5719999999999 545.0959999999998 820.9699999999999 546.1929999999999 820.9459999999999C546.4959999999999 820.939 546.7999999999998 820.9369999999999 547.1029999999998 820.9369999999999C559.0979999999998 820.935 571.0919999999999 820.9329999999999 583.0869999999999 820.9339999999999C585.4359999999999 820.9339999999999 585.8109999999999 821.3119999999999 585.8269999999999 823.6769999999999C585.8339999999998 824.6879999999999 585.8279999999999 825.699 585.8279999999999 826.882C589.6219999999998 826.699 592.8629999999998 827.645 595.2399999999999 830.65C596.5619999999999 832.322 597.0759999999999 834.23 597.0059999999999 836.353C596.9119999999998 839.223 595.5879999999999 841.3919999999999 593.3869999999998 843.096C591.2229999999998 844.772 588.6989999999998 845.116 585.9489999999998 844.908ZM565.141 824.25C559.829 824.25 554.5169999999999 824.275 549.206 824.23C548.116 824.221 547.69 824.508 547.697 825.682C547.743 832.711 547.68 839.741 547.738 846.769C547.7710000000001 850.69 550.44 853.54 554.2750000000001 853.594C561.4570000000001 853.695 568.642 853.691 575.8240000000001 853.595C579.768 853.542 582.5120000000001 850.596 582.5300000000001 846.6220000000001C582.5620000000001 839.6440000000001 582.5160000000001 832.6650000000001 582.566 825.6870000000001C582.5740000000001 824.5150000000001 582.174 824.2220000000001 581.076 824.2320000000001C575.764 824.2780000000001 570.452 824.2520000000001 565.1410000000001 824.2500000000001ZM585.832 836.01C585.832 837.438 585.874 838.866 585.818 840.2909999999999C585.776 841.3779999999999 586.292 841.6959999999999 587.276 841.7339999999999C590.603 841.8629999999999 593.7779999999999 839.1099999999999 593.81 836.016C593.843 832.8449999999999 590.6199999999999 830.049 587.212 830.23C586.1899999999999 830.285 585.776 830.687 585.819 831.73C585.8789999999999 833.154 585.834 834.583 585.832 836.01ZM587.043 862.998C572.419 862.998 557.872 862.998 543.196 862.998C543.149 862.51 543.128 862.072 543.062 861.6400000000001C542.844 860.219 543.3290000000001 859.6880000000001 544.852 859.7230000000001C549.3009999999999 859.825 553.754 859.7570000000001 558.2049999999999 859.7600000000001C566.948 859.7640000000001 575.6909999999999 859.7730000000001 584.434 859.7780000000001C587.4169999999999 859.7800000000001 587.4169999999999 859.7780000000001 587.043 862.9980000000002ZM558.997 817.843C557.636 817.7779999999999 556.89 816.55 557.399 815.506C557.549 815.199 557.823 814.946 558.065 814.692C559.522 813.163 559.5290000000001 812.478 558.086 810.984C555.565 808.373 555.783 804.8530000000001 558.587 802.614C559.45 801.924 560.337 801.6890000000001 561.129 802.5980000000001C561.854 803.431 561.587 804.2520000000001 560.874 805.0310000000001C559.128 806.937 559.144 807.1700000000001 560.875 809.0150000000001C563.295 811.594 562.925 815.3410000000001 560.03 817.3610000000001C559.67 817.6120000000001 559.225 817.7390000000001 558.997 817.8430000000001ZM573.179 803.618C572.771 804.238 572.526 804.7310000000001 572.173 805.1270000000001C570.647 806.84 570.64 807.2070000000001 572.231 808.94C574.697 811.628 574.462 814.9100000000001 571.656 817.221C570.7959999999999 817.93 569.911 818.131 569.093 817.272C568.3059999999999 816.4430000000001 568.5989999999999 815.6360000000001 569.317 814.8570000000001C571.003 813.0260000000001 570.988 812.594 569.329 810.7990000000001C566.915 808.1870000000001 567.295 804.4370000000001 570.251 802.4700000000001C570.716 802.1600000000002 571.529 802.0760000000001 572.057 802.2560000000001C572.506 802.4100000000001 572.775 803.0950000000001 573.179 803.618ZM552.174 838.011C552.174 835.4219999999999 552.183 832.832 552.17 830.242C552.164 829.1129999999999 552.4169999999999 828.121 553.737 828.083C555.1519999999999 828.0419999999999 555.4599999999999 829.0949999999999 555.463 830.265C555.4749999999999 834.319 555.456 838.372 555.476 842.4259999999999C555.481 843.5579999999999 555.06 844.3799999999999 553.893 844.415C552.635 844.453 552.342 843.497 552.335 842.4309999999999C552.327 840.9569999999999 552.3330000000001 839.4839999999999 552.3330000000001 838.011C552.2800000000001 838.011 552.2270000000001 838.011 552.1740000000001 838.011Z " fill="#333333" fill-opacity="1" transform="matrix(1,0,0,1,-543,-802)"></path></svg>