<svg id="SvgjsSvg1000" xmlns="http://www.w3.org/2000/svg" version="1.1" xmlns:xlink="http://www.w3.org/1999/xlink" xmlns:svgjs="http://svgjs.com/svgjs" width="59" height="58" viewBox="0 0 59 58"><title>Shape 52</title><desc>Created with Avocode.</desc><defs id="SvgjsDefs1001"></defs><path id="SvgjsPath1007" d="M288.179 858.633C289.84799999999996 858.633 291.30499999999995 858.64 292.763 858.6310000000001C294.188 858.623 295.092 859.2690000000001 295.013 860.3620000000001C294.917 861.7030000000001 293.981 861.994 292.808 861.993C275.917 861.984 259.025 861.99 242.134 861.9820000000001C240.71699999999998 861.9810000000001 239.874 861.3180000000001 240.01999999999998 860.2940000000001C240.19199999999998 859.0870000000001 240.91299999999998 858.4990000000001 242.19799999999998 858.613C243.01799999999997 858.686 243.849 858.6270000000001 244.78099999999998 858.6270000000001C243.74599999999998 856.6350000000001 242.62999999999997 854.892 241.89899999999997 853.0010000000001C239.83299999999997 847.657 240.04899999999998 842.3560000000001 243.36699999999996 837.5920000000001C247.89699999999996 831.0880000000001 257.90599999999995 829.1300000000001 264.87699999999995 833.0340000000001C270.00999999999993 835.9100000000001 275.2579999999999 838.5840000000001 280.36199999999997 841.5080000000002C282.575 842.7740000000001 284.70099999999996 844.2780000000001 286.609 845.9640000000002C290.007 848.9660000000001 290.695 853.1950000000002 288.762 857.3050000000002C288.601 857.6480000000001 288.457 857.9990000000001 288.179 858.6330000000002ZM266.229 858.597C266.229 858.614 266.229 858.631 266.229 858.648C270.534 858.648 274.84 858.706 279.142 858.616C280.604 858.586 282.135 858.4 283.498 857.91C286.435 856.8539999999999 286.956 852.371 285.59 850.112C284.399 848.141 282.772 846.684 280.787 845.593C274.981 842.3979999999999 269.224 839.107 263.33099999999996 836.079C259.21399999999994 833.962 254.81899999999996 833.704 250.58299999999997 835.8009999999999C243.54299999999998 839.286 242.47999999999996 847.2399999999999 246.02099999999996 853.8209999999999C247.74099999999996 857.0169999999999 250.35099999999997 858.781 254.19899999999996 858.632C258.20399999999995 858.477 262.21899999999994 858.597 266.2289999999999 858.597ZM294.885 811.882C293.60699999999997 810.2389999999999 292.436 808.718 291.24899999999997 807.2099999999999C290.534 806.3019999999999 290.19399999999996 805.372 291.16499999999996 804.4519999999999C291.967 803.6929999999999 293.018 803.9299999999998 293.94899999999996 805.0789999999998C295.41099999999994 806.8859999999999 296.84999999999997 808.7109999999998 298.27299999999997 810.5479999999999C299.335 811.9199999999998 299.23299999999995 812.6249999999999 297.897 813.8309999999999C295.402 816.0869999999999 292.93399999999997 818.3749999999999 290.401 820.5889999999999C289.608 821.2819999999999 289.519 821.8749999999999 289.825 822.886C290.565 825.334 291.373 827.822 291.603 830.343C291.769 832.173 291.366 834.212 290.65500000000003 835.9269999999999C289.68600000000004 838.2649999999999 288.184 840.3829999999999 286.83500000000004 842.7259999999999C285.795 841.9809999999999 284.96700000000004 841.3879999999999 283.985 840.6849999999998C284.788 839.3989999999999 285.517 838.1859999999998 286.29200000000003 837.0019999999998C287.709 834.8389999999998 288.632 832.5769999999999 288.228 829.8979999999998C287.607 825.7769999999998 285.97 822.0759999999998 283.783 818.3569999999997C282.565 819.3729999999997 281.46700000000004 820.2659999999997 280.396 821.1909999999997C279.511 821.9569999999997 278.60200000000003 822.3109999999997 277.646 821.3739999999997C276.85200000000003 820.5949999999997 277.033 819.5729999999996 278.173 818.5819999999997C281.384 815.7909999999996 284.622 813.0309999999996 287.845 810.2539999999997C288.709 809.5079999999997 289.648 809.2759999999997 290.47400000000005 810.1729999999997C291.37000000000006 811.1439999999997 290.98 812.0839999999996 290.08500000000004 812.8699999999997C288.90400000000005 813.9089999999997 287.71400000000006 814.9379999999996 286.45400000000006 816.0349999999996C286.90400000000005 816.7859999999996 287.30000000000007 817.4469999999997 287.81000000000006 818.2979999999997C290.22300000000007 816.1089999999997 292.50900000000007 814.0359999999997 294.88500000000005 811.8819999999996ZM253.126 824.833C253.893 826.2529999999999 254.466 827.314 255.172 828.62C253.984 828.826 253.039 829.035 252.082 829.125C251.825 829.149 251.468 828.863 251.272 828.624C250.995 828.2860000000001 250.786 827.8770000000001 250.617 827.469C249.82399999999998 825.5550000000001 248.637 824.404 246.332 824.798C245.23399999999998 824.986 244.18 824.569 244.128 823.204C244.07299999999998 821.756 245.12699999999998 821.3789999999999 246.313 821.37C249.974 821.34 253.635 821.343 257.296 821.372C258.453 821.381 259.531 821.6619999999999 259.61899999999997 823.0999999999999C259.68699999999995 824.1999999999999 258.79999999999995 824.8059999999999 257.174 824.8299999999999C255.94699999999997 824.847 254.71899999999997 824.833 253.12599999999998 824.833ZM258.853 852.434C258.276 851.8679999999999 257.783 850.8349999999999 256.19100000000003 851.252C253.57000000000002 851.938 250.78600000000003 850.544 249.66100000000003 848.305C248.44300000000004 845.881 248.92500000000004 842.8309999999999 250.83200000000002 840.8879999999999C252.56900000000002 839.1189999999999 255.473 838.7749999999999 257.84200000000004 840.059C260.232 841.353 261.64900000000006 844.047 260.78600000000006 846.694C260.17800000000005 848.56 260.8070000000001 849.52 261.9920000000001 850.74C263.3470000000001 852.136 264.59800000000007 853.34 266.7610000000001 853.121C267.7600000000001 853.02 268.6570000000001 853.5799999999999 268.6430000000001 854.76C268.6290000000001 855.97 267.8810000000001 856.429 266.6760000000001 856.423C264.3080000000001 856.4110000000001 261.9390000000001 856.553 259.5720000000001 856.515C258.44400000000013 856.497 257.0270000000001 856.355 257.2090000000001 854.776C257.2960000000001 854.012 258.1850000000001 853.3399999999999 258.8530000000001 852.434ZM254.875 848.008C256.506 847.979 257.647 846.8090000000001 257.646 845.166C257.64500000000004 843.7860000000001 256.50300000000004 842.7130000000001 255.031 842.7080000000001C253.595 842.7040000000001 252.308 844.0100000000001 252.303 845.4770000000001C252.298 846.8240000000001 253.526 848.032 254.875 848.008Z " fill="#333333" fill-opacity="1" transform="matrix(1,0,0,1,-240,-804)"></path></svg>