<svg id="SvgjsSvg1011" xmlns="http://www.w3.org/2000/svg" version="1.1" xmlns:xlink="http://www.w3.org/1999/xlink" xmlns:svgjs="http://svgjs.com/svgjs" width="61" height="57" viewBox="0 0 61 57"><title>Shape 54</title><desc>Created with Avocode.</desc><defs id="SvgjsDefs1012"></defs><path id="SvgjsPath1013" d="M889.733 840.81C887.6819999999999 841.89 885.9639999999999 842.7959999999999 884.1769999999999 843.7379999999999C884.319 844.156 884.4099999999999 844.4849999999999 884.5409999999999 844.7959999999999C884.9899999999999 845.8649999999999 884.7249999999999 846.675 883.7139999999999 847.2389999999999C881.3259999999999 848.5699999999999 878.939 849.905 876.554 851.2409999999999C875.4399999999999 851.8659999999999 874.525 851.7379999999998 873.876 850.5479999999999C873.096 849.1189999999999 872.3109999999999 847.6939999999998 871.533 846.2659999999998C870.922 845.1449999999999 871.269 844.3029999999999 872.316 843.7109999999999C874.697 842.3659999999999 877.092 841.0469999999999 879.4730000000001 839.7019999999999C880.8810000000001 838.9059999999998 881.7650000000001 839.5539999999999 882.494 840.9929999999999C887.8240000000001 838.175 893.076 835.3979999999999 898.489 832.535C899 833.476 899.466 834.336 899.999 835.318C898.232 836.269 896.551 837.0799999999999 894.977 838.066C894.369 838.447 893.759 839.153 893.566 839.831C889.984 852.404 877.9970000000001 860.865 865.58 859.95C852.032 858.951 841.3140000000001 848.2660000000001 840.1070000000001 834.993C838.7500000000001 820.072 849.5920000000001 806.6830000000001 864.3710000000001 805.148C879.4420000000001 803.5840000000001 892.8700000000001 814.53 894.3950000000001 829.6220000000001C894.5850000000002 831.5120000000001 894.45 831.6630000000001 891.5000000000001 832.7040000000001C891.1310000000001 823.815 887.5070000000001 816.6970000000001 880.0130000000001 811.883C874.9140000000001 808.6080000000001 869.2820000000002 807.515 863.2980000000001 808.485C851.6600000000001 810.369 842.8630000000002 821.019 843.1410000000001 832.85C843.4280000000001 845.061 852.47 855.1270000000001 864.335 856.607C876.5110000000001 858.126 886.7810000000001 849.951 889.7330000000001 840.81ZM879.839 843.161C878.2090000000001 844.0809999999999 876.653 844.958 875.124 845.8199999999999C875.8340000000001 847.919 875.919 847.954 877.613 846.991C878.224 846.644 878.8330000000001 846.293 879.4520000000001 845.96C881.1930000000001 845.02 881.2010000000001 844.994 879.839 843.1610000000001ZM867.238 822.808C872.633 822.802 876.884 827.074 876.874 832.492C876.863 837.885 872.5500000000001 842.211 867.2090000000001 842.183C861.907 842.155 857.5540000000001 837.711 857.6160000000001 832.387C857.6780000000001 827.0609999999999 861.9440000000001 822.814 867.238 822.808ZM873.752 832.46C873.7429999999999 828.919 870.77 825.942 867.2489999999999 825.9480000000001C863.7299999999999 825.9540000000001 860.7679999999999 828.9540000000001 860.786 832.493C860.805 836.056 863.755 839.017 867.2779999999999 839.008C870.7899999999998 839 873.7609999999999 835.994 873.752 832.46ZM858.033 813.326C858.469 814.2280000000001 858.815 814.943 859.2 815.739C853.3620000000001 818.946 849.897 823.748 848.917 830.4340000000001C848.498 830.4340000000001 848.109 830.4200000000001 847.722 830.436C846.487 830.489 846.197 829.981 846.447 828.7510000000001C847.855 821.8090000000001 851.673 816.7420000000001 858.033 813.3260000000001ZM860.621 818.625C860.958 819.322 861.302 820.035 861.547 820.543C859.921 822.115 858.1600000000001 823.402 856.962 825.094C855.764 826.7860000000001 855.128 828.8820000000001 854.133 831.0440000000001C853.6840000000001 831.0100000000001 852.909 830.9520000000001 852.158 830.8960000000001C851.802 826.4770000000001 856.013 820.373 860.621 818.6250000000001ZM867.309 834.483C866.1659999999999 834.5079999999999 865.286 833.6569999999999 865.27 832.5129999999999C865.254 831.3539999999999 866.0989999999999 830.468 867.228 830.4599999999999C868.371 830.4509999999999 869.2529999999999 831.3009999999999 869.275 832.4329999999999C869.298 833.5689999999998 868.444 834.4589999999998 867.309 834.4829999999998Z " fill="#333333" fill-opacity="1" transform="matrix(1,0,0,1,-839,-804)"></path></svg>