<svg id="SvgjsSvg1041" xmlns="http://www.w3.org/2000/svg" version="1.1" xmlns:xlink="http://www.w3.org/1999/xlink" xmlns:svgjs="http://svgjs.com/svgjs" width="52" height="59" viewBox="0 0 52 59"><title>Shape 93</title><desc>Created with Avocode.</desc><defs id="SvgjsDefs1042"></defs><path id="SvgjsPath1043" d="M295.401 1587.67C295.37 1593.16 295.17900000000003 1598.66 295.355 1604.14C295.50800000000004 1608.91 290.797 1612.5300000000002 286.99800000000005 1612.49C275.91400000000004 1612.38 264.83000000000004 1612.36 253.74500000000006 1612.28C248.80500000000006 1612.24 245.49700000000007 1608.85 245.51100000000005 1603.8799999999999C245.53300000000004 1596.4099999999999 245.59100000000007 1588.9399999999998 245.63400000000004 1581.4699999999998C245.65400000000005 1577.9699999999998 245.66500000000005 1574.4599999999998 245.69900000000004 1570.9499999999998C245.74800000000005 1565.8199999999997 248.98600000000005 1562.4999999999998 254.10900000000004 1562.5099999999998C265.08900000000006 1562.5199999999998 276.069 1562.5899999999997 287.04900000000004 1562.6899999999998C292.30400000000003 1562.7399999999998 295.521 1566.09 295.494 1571.32C295.46500000000003 1576.77 295.432 1582.22 295.401 1587.6699999999998ZM247.84 1587.38C247.809 1592.7700000000002 247.779 1598.15 247.747 1603.5300000000002C247.722 1607.7400000000002 249.93 1609.9900000000002 254.12 1610.0200000000002C263.676 1610.0800000000002 273.232 1610.1200000000001 282.78700000000003 1610.1900000000003C284.1 1610.2000000000003 285.418 1610.4500000000003 286.72400000000005 1610.3800000000003C290.63700000000006 1610.1900000000003 293.04100000000005 1607.8900000000003 293.06100000000004 1604.2300000000002C293.119 1593.1500000000003 293.20200000000006 1582.0700000000002 293.24100000000004 1570.9900000000002C293.254 1567.3300000000002 290.807 1564.9300000000003 287.16300000000007 1564.9100000000003C276.1480000000001 1564.8400000000004 265.13300000000004 1564.7800000000002 254.11800000000005 1564.7200000000003C250.41700000000006 1564.7000000000003 247.96100000000004 1567.1200000000003 247.93600000000006 1570.8100000000002C247.90000000000006 1576.3400000000001 247.87200000000007 1581.8600000000001 247.84000000000006 1587.38ZM287.056 1613C287.03499999999997 1613 287.014 1613 286.993 1613C280.651 1612.94 274.202 1612.9 267.965 1612.87C263.22299999999996 1612.85 258.48199999999997 1612.82 253.74099999999999 1612.79C248.499 1612.75 244.987 1609.1599999999999 245.00199999999998 1603.87C245.01799999999997 1598.6299999999999 245.051 1593.29 245.08399999999997 1588.1299999999999C245.09799999999998 1585.9099999999999 245.11199999999997 1583.6899999999998 245.12499999999997 1581.4699999999998L245.14099999999996 1578.3899999999999C245.15299999999996 1575.9099999999999 245.16599999999997 1573.4299999999998 245.18999999999997 1570.9399999999998C245.24199999999996 1565.5099999999998 248.73599999999996 1561.9999999999998 254.09199999999996 1561.9999999999998C254.09799999999996 1561.9999999999998 254.10399999999996 1561.9999999999998 254.10899999999995 1561.9999999999998C264.65399999999994 1562.0099999999998 275.42999999999995 1562.0699999999997 287.054 1562.1799999999998C292.51899999999995 1562.2399999999998 296.03099999999995 1565.82 296.003 1571.32C295.983 1575.1399999999999 295.961 1578.95 295.938 1582.77L295.90999999999997 1587.68C295.9 1589.3400000000001 295.876 1591.01 295.852 1592.68C295.798 1596.43 295.74199999999996 1600.3100000000002 295.863 1604.1200000000001C295.933 1606.2900000000002 295.055 1608.42 293.391 1610.1200000000001C291.647 1611.9 289.226 1613.0000000000002 287.05600000000004 1613.0000000000002ZM254.092 1563.02C249.275 1563.02 246.25500000000002 1566.06 246.20800000000003 1570.95C246.18400000000003 1573.43 246.17100000000002 1575.91 246.15900000000002 1578.39L246.14300000000003 1581.48C246.13000000000002 1583.7 246.11600000000004 1585.92 246.10200000000003 1588.14C246.06900000000005 1593.3000000000002 246.03500000000003 1598.63 246.02000000000004 1603.88C246.00700000000003 1608.5600000000002 249.11300000000003 1611.73 253.74900000000005 1611.7700000000002C258.49000000000007 1611.8100000000002 263.2300000000001 1611.8300000000002 267.97 1611.8600000000001C274.208 1611.89 280.658 1611.92 287.00300000000004 1611.98C288.908 1612 291.08900000000006 1611.01 292.66300000000007 1609.41C294.1310000000001 1607.91 294.90600000000006 1606.0400000000002 294.84600000000006 1604.15C294.72300000000007 1600.3200000000002 294.7800000000001 1596.43 294.83400000000006 1592.66C294.85800000000006 1591 294.88300000000004 1589.3300000000002 294.89200000000005 1587.67L294.9200000000001 1582.76C294.9430000000001 1578.95 294.9650000000001 1575.1299999999999 294.98500000000007 1571.31C295.0110000000001 1566.36 291.9680000000001 1563.25 287.0440000000001 1563.2C275.4240000000001 1563.0900000000001 264.6500000000001 1563.03 254.1080000000001 1563.02C254.1030000000001 1563.02 254.0970000000001 1563.02 254.0920000000001 1563.02ZM286.261 1610.9C285.64700000000005 1610.9 285.03700000000003 1610.8500000000001 284.442 1610.8000000000002C283.895 1610.7500000000002 283.329 1610.7100000000003 282.783 1610.7000000000003C276.689 1610.6600000000003 270.595 1610.6200000000003 264.50100000000003 1610.5900000000004C261.04 1610.5700000000004 257.57800000000003 1610.5500000000004 254.11700000000002 1610.5300000000004C249.65500000000003 1610.5000000000005 247.21200000000002 1608.0100000000004 247.23800000000003 1603.5300000000004L247.36100000000002 1581.9900000000005C247.382 1578.2700000000004 247.40200000000002 1574.5400000000004 247.42700000000002 1570.8100000000004C247.45300000000003 1566.8600000000004 250.122 1564.2100000000005 254.073 1564.2100000000005C254.089 1564.2100000000005 254.104 1564.2100000000005 254.12 1564.2100000000005C265.136 1564.2700000000004 276.151 1564.3300000000004 287.166 1564.4000000000005C291.118 1564.4200000000005 293.764 1567.0700000000006 293.75 1571.0000000000005C293.725 1578.1000000000004 293.681 1585.3100000000004 293.639 1592.3000000000004C293.615 1596.2800000000004 293.59000000000003 1600.2600000000004 293.57 1604.2400000000005C293.549 1608.1300000000006 290.936 1610.6800000000005 286.75 1610.8900000000006C286.587 1610.9000000000005 286.424 1610.9000000000005 286.261 1610.9000000000005ZM248.349 1587.38L248.256 1603.5400000000002C248.233 1607.4800000000002 250.207 1609.4900000000002 254.123 1609.5100000000002C257.584 1609.5300000000002 261.045 1609.5500000000002 264.507 1609.5700000000002C270.601 1609.6100000000001 276.696 1609.64 282.791 1609.68C283.376 1609.69 283.961 1609.74 284.527 1609.79C285.279 1609.85 285.99 1609.9099999999999 286.699 1609.87C290.346 1609.6899999999998 292.534 1607.58 292.552 1604.2299999999998C292.572 1600.2499999999998 292.59700000000004 1596.2699999999998 292.62100000000004 1592.2899999999997C292.663 1585.3099999999997 292.70700000000005 1578.0899999999997 292.732 1570.9899999999998C292.744 1567.62 290.557 1565.4299999999998 287.16 1565.4099999999999C276.14500000000004 1565.35 265.13 1565.2799999999997 254.115 1565.2299999999998C254.101 1565.2299999999998 254.08700000000002 1565.2299999999998 254.072 1565.2299999999998C250.675 1565.2299999999998 248.468 1567.4199999999998 248.445 1570.8199999999997C248.421 1574.5399999999997 248.4 1578.2699999999998 248.379 1581.9999999999998ZM274.074 1597.34C274.616 1597.34 275.024 1597.35 275.432 1597.35C279.08000000000004 1597.37 282.728 1597.3899999999999 286.377 1597.4099999999999C286.65500000000003 1597.4099999999999 286.933 1597.4099999999999 287.21000000000004 1597.4199999999998C287.89500000000004 1597.4499999999998 288.35800000000006 1597.7899999999997 288.39200000000005 1598.4799999999998C288.43000000000006 1599.2599999999998 287.91300000000007 1599.5899999999997 287.20300000000003 1599.6399999999999C286.89300000000003 1599.6699999999998 286.57800000000003 1599.6499999999999 286.266 1599.6499999999999C282.06100000000004 1599.6299999999999 277.857 1599.61 273.653 1599.58C272.10400000000004 1599.57 271.81800000000004 1599.27 271.822 1597.76C271.827 1596.34 271.838 1594.92 271.846 1593.43C270.902 1593.42 270.061 1593.42 269.075 1593.41C269.067 1594.88 269.062 1596.3300000000002 269.049 1597.78C269.037 1599.24 268.734 1599.55 267.26599999999996 1599.54C262.92299999999994 1599.52 258.58 1599.49 254.23599999999996 1599.47C254.06299999999996 1599.47 253.88899999999995 1599.47 253.71499999999997 1599.46C253.01399999999998 1599.41 252.438 1599.1000000000001 252.43899999999996 1598.3600000000001C252.43999999999997 1597.5700000000002 253.00399999999996 1597.22 253.77699999999996 1597.23C256.34799999999996 1597.24 258.919 1597.25 261.48999999999995 1597.27C262.98499999999996 1597.28 264.4789999999999 1597.26 265.972 1597.3C266.597 1597.32 266.893 1597.11 266.825 1596.47C266.822 1596.44 266.822 1596.4 266.827 1596.3700000000001C267.113 1594.15 266.691 1592.68 264.313 1591.44C259.498 1588.93 257.62899999999996 1583.05 259.352 1577.72C260.945 1572.79 265.943 1569.43 271.179 1569.76C276.69699999999995 1570.11 281.19899999999996 1574.05 282.149 1579.37C283.124 1584.83 280.375 1590.1 275.284 1592.32C274.32099999999997 1592.74 273.979 1593.23 274.07099999999997 1594.24C274.159 1595.2 274.08 1596.18 274.07399999999996 1597.34ZM260.965 1581.49C260.96 1586.83 265.224 1591.1200000000001 270.53799999999995 1591.1200000000001C275.82499999999993 1591.1200000000001 280.10599999999994 1586.8100000000002 280.10299999999995 1581.48C280.09999999999997 1576.27 275.75999999999993 1571.95 270.52599999999995 1571.95C265.29299999999995 1571.95 260.96899999999994 1576.27 260.965 1581.49ZM286.785 1600.17C286.685 1600.17 286.588 1600.17 286.49100000000004 1600.16H286.26300000000003L283.10800000000006 1600.14C279.95500000000004 1600.13 276.8020000000001 1600.1100000000001 273.64900000000006 1600.0900000000001C271.8310000000001 1600.0700000000002 271.30800000000005 1599.5500000000002 271.31300000000005 1597.7600000000002C271.31600000000003 1596.8100000000002 271.32200000000006 1595.8700000000001 271.32800000000003 1594.9000000000003L271.334 1593.9300000000003L269.582 1593.9200000000003L269.577 1594.8000000000004C269.572 1595.8000000000004 269.567 1596.7900000000004 269.558 1597.7800000000004C269.543 1599.5200000000004 269.014 1600.0500000000004 267.3 1600.0500000000004C267.288 1600.0500000000004 267.276 1600.0500000000004 267.264 1600.0500000000004C263.982 1600.0400000000004 260.7 1600.0200000000004 257.418 1600.0000000000005L254.172 1599.9800000000005C254.008 1599.9800000000005 253.844 1599.9800000000005 253.68099999999998 1599.9600000000005C252.58299999999997 1599.8900000000006 251.928 1599.2900000000004 251.92999999999998 1598.3600000000006C251.93099999999998 1597.8900000000006 252.08399999999997 1597.5000000000007 252.373 1597.2100000000005C252.69799999999998 1596.8900000000006 253.178 1596.7200000000005 253.762 1596.7200000000005C253.768 1596.7200000000005 253.774 1596.7200000000005 253.78 1596.7200000000005L261.493 1596.7600000000004C261.918 1596.7600000000004 262.344 1596.7600000000004 262.769 1596.7600000000004C263.822 1596.7600000000004 264.912 1596.7700000000004 265.986 1596.7900000000004C266.21999999999997 1596.8000000000004 266.305 1596.7600000000004 266.318 1596.7600000000004C266.316 1596.7500000000005 266.33599999999996 1596.6900000000005 266.31899999999996 1596.5300000000004C266.311 1596.4600000000005 266.31199999999995 1596.3800000000003 266.32099999999997 1596.3100000000004C266.57599999999996 1594.3300000000004 266.294 1593.0500000000004 264.07699999999994 1591.8900000000003C259.1959999999999 1589.3500000000004 257.00499999999994 1583.3200000000004 258.86799999999994 1577.5600000000004C260.5369999999999 1572.4000000000003 265.72999999999996 1568.9000000000003 271.21099999999996 1569.2500000000005C276.95599999999996 1569.6200000000003 281.65999999999997 1573.7400000000005 282.65 1579.2800000000004C283.679 1585.0400000000004 280.801 1590.4700000000005 275.48699999999997 1592.7900000000004C274.695 1593.1400000000003 274.50699999999995 1593.4200000000005 274.578 1594.1900000000005C274.64099999999996 1594.8800000000006 274.62199999999996 1595.5700000000006 274.60299999999995 1596.3000000000004C274.59799999999996 1596.4700000000005 274.59399999999994 1596.6500000000003 274.59 1596.8300000000004L286.57899999999995 1596.9000000000003C286.79699999999997 1596.9000000000003 287.01399999999995 1596.9000000000003 287.23099999999994 1596.9100000000003C288.23099999999994 1596.9600000000003 288.85499999999996 1597.5300000000002 288.8999999999999 1598.4600000000003C288.9479999999999 1599.4300000000003 288.3289999999999 1600.0600000000002 287.24499999999995 1600.1500000000003C287.08899999999994 1600.1600000000003 286.9359999999999 1600.1700000000003 286.78499999999997 1600.1700000000003ZM268.569 1592.9L272.358 1592.92L272.346 1594.9C272.34000000000003 1595.8700000000001 272.334 1596.8200000000002 272.331 1597.76C272.32800000000003 1599 272.389 1599.06 273.656 1599.07C276.809 1599.09 279.961 1599.11 283.11400000000003 1599.1299999999999L286.507 1599.1499999999999C286.736 1599.1499999999999 286.95300000000003 1599.1499999999999 287.162 1599.1399999999999C287.911 1599.08 287.894 1598.7199999999998 287.88399999999996 1598.5099999999998C287.86999999999995 1598.2399999999998 287.77699999999993 1597.9499999999998 287.18899999999996 1597.9299999999998C286.98499999999996 1597.9199999999998 286.78099999999995 1597.9199999999998 286.57699999999994 1597.9199999999998H286.37299999999993L273.56199999999995 1597.85L273.56499999999994 1597.34C273.56699999999995 1596.97 273.57599999999996 1596.61 273.5849999999999 1596.27C273.6049999999999 1595.54 273.6219999999999 1594.91 273.5639999999999 1594.29C273.4539999999999 1593.08 273.8929999999999 1592.3799999999999 275.0799999999999 1591.86C279.9529999999999 1589.7299999999998 282.5929999999999 1584.75 281.6479999999999 1579.4599999999998C280.74099999999993 1574.3799999999999 276.4229999999999 1570.6 271.14699999999993 1570.2699999999998C266.12199999999996 1569.9499999999998 261.36499999999995 1573.1499999999999 259.83699999999993 1577.8799999999997C258.12699999999995 1583.1599999999996 260.10799999999995 1588.6799999999996 264.54799999999994 1590.9899999999996C267.25899999999996 1592.3999999999996 267.6209999999999 1594.1899999999996 267.33099999999996 1596.4399999999996C267.37899999999996 1596.8699999999997 267.29099999999994 1597.1999999999996 267.06199999999995 1597.4499999999996C266.746 1597.7899999999995 266.28099999999995 1597.8199999999995 265.95799999999997 1597.8099999999995C264.89799999999997 1597.7799999999995 263.815 1597.7799999999995 262.768 1597.7799999999995C262.34099999999995 1597.7799999999995 261.914 1597.7799999999995 261.488 1597.7799999999995L253.774 1597.7399999999996C253.456 1597.7199999999996 253.22 1597.7999999999995 253.09 1597.9299999999996C252.995 1598.0299999999995 252.948 1598.1699999999996 252.948 1598.3599999999997C252.948 1598.5099999999998 252.947 1598.8899999999996 253.75 1598.9499999999996C253.891 1598.9599999999996 254.034 1598.9599999999996 254.177 1598.9599999999996L257.424 1598.9799999999996C260.70599999999996 1598.9999999999995 263.98699999999997 1599.0199999999995 267.268 1599.0299999999995C268.44599999999997 1599.0299999999995 268.53 1598.9599999999996 268.53999999999996 1597.7799999999995C268.549 1596.7899999999995 268.554 1595.7899999999995 268.55899999999997 1594.7999999999995ZM270.546 1591.63C270.543 1591.63 270.54 1591.63 270.537 1591.63C267.83099999999996 1591.63 265.29499999999996 1590.5700000000002 263.39599999999996 1588.66C261.49799999999993 1586.76 260.453 1584.21 260.45599999999996 1581.49C260.46 1575.95 264.977 1571.44 270.52599999999995 1571.44C270.52599999999995 1571.44 270.52899999999994 1571.44 270.53099999999995 1571.44C273.19699999999995 1571.44 275.71899999999994 1572.49 277.63499999999993 1574.4C279.5539999999999 1576.3100000000002 280.61099999999993 1578.8200000000002 280.6119999999999 1581.48C280.6139999999999 1584.21 279.5569999999999 1586.77 277.6359999999999 1588.69C275.7389999999999 1590.5800000000002 273.2209999999999 1591.63 270.54599999999994 1591.63ZM264.118 1587.95C265.825 1589.66 268.105 1590.6100000000001 270.538 1590.6100000000001C270.538 1590.6100000000001 270.543 1590.6100000000001 270.546 1590.6100000000001C272.949 1590.6100000000001 275.212 1589.67 276.917 1587.97C278.645 1586.24 279.59499999999997 1583.94 279.594 1581.48C279.593 1579.1 278.642 1576.84 276.917 1575.1200000000001C275.193 1573.4 272.92499999999995 1572.46 270.53099999999995 1572.46C270.52899999999994 1572.46 270.52799999999996 1572.46 270.52599999999995 1572.46C265.53899999999993 1572.46 261.47799999999995 1576.52 261.47399999999993 1581.5C261.4719999999999 1583.94 262.41099999999994 1586.23 264.11799999999994 1587.95ZM270.517 1602.33C275.905 1602.36 281.293 1602.3799999999999 286.681 1602.4299999999998C287.114 1602.4399999999998 287.614 1602.4899999999998 287.954 1602.7199999999998C288.202 1602.8799999999999 288.41200000000003 1603.4299999999998 288.322 1603.6999999999998C288.199 1604.0599999999997 287.825 1604.4299999999998 287.466 1604.61C287.157 1604.77 286.718 1604.6799999999998 286.337 1604.6799999999998C275.66499999999996 1604.62 264.993 1604.56 254.322 1604.4999999999998C254.183 1604.4999999999998 254.043 1604.4999999999998 253.904 1604.4899999999998C252.954 1604.4599999999998 252.313 1603.9599999999998 252.404 1603.2799999999997C252.522 1602.3999999999996 253.166 1602.2199999999998 253.935 1602.2299999999998C259.463 1602.2699999999998 264.99 1602.2999999999997 270.517 1602.3299999999997ZM286.955 1605.21C286.83599999999996 1605.21 286.71799999999996 1605.21 286.60499999999996 1605.2C286.513 1605.19 286.42199999999997 1605.19 286.33399999999995 1605.19C276.63199999999995 1605.14 266.9309999999999 1605.0800000000002 257.2289999999999 1605.02L254.31899999999993 1605L254.18399999999994 1605.01C254.08399999999995 1605.01 253.98399999999995 1605.01 253.88399999999993 1605C253.16399999999993 1604.97 252.57199999999992 1604.73 252.21799999999993 1604.31C251.95599999999993 1603.99 251.84599999999992 1603.62 251.89999999999992 1603.21C252.03199999999993 1602.22 252.70899999999992 1601.72 253.91099999999992 1601.72C253.9199999999999 1601.72 253.92899999999992 1601.72 253.9389999999999 1601.72C258.0019999999999 1601.75 262.0659999999999 1601.77 266.1289999999999 1601.79L273.9029999999999 1601.84C278.1629999999999 1601.86 282.4239999999999 1601.8899999999999 286.6849999999999 1601.9199999999998C287.3609999999999 1601.9299999999998 287.8679999999999 1602.05 288.2369999999999 1602.3C288.6789999999999 1602.59 288.9659999999999 1603.3799999999999 288.8049999999999 1603.86C288.6129999999999 1604.4299999999998 288.0879999999999 1604.86 287.6969999999999 1605.06C287.4589999999999 1605.1799999999998 287.20299999999986 1605.21 286.95499999999987 1605.21ZM254.324 1603.99L257.235 1604C266.937 1604.06 276.63800000000003 1604.12 286.34000000000003 1604.17C286.44500000000005 1604.17 286.55400000000003 1604.18 286.66400000000004 1604.18C286.88000000000005 1604.2 287.12700000000007 1604.21 287.23500000000007 1604.16C287.50300000000004 1604.02 287.7680000000001 1603.75 287.8400000000001 1603.53C287.8450000000001 1603.46 287.7430000000001 1603.2 287.6670000000001 1603.1399999999999C287.53800000000007 1603.05 287.2560000000001 1602.9499999999998 286.6760000000001 1602.9399999999998C282.4160000000001 1602.8999999999999 278.1570000000001 1602.8799999999999 273.8970000000001 1602.86L266.1230000000001 1602.81C262.0590000000001 1602.79 257.9960000000001 1602.77 253.9320000000001 1602.74C253.92300000000012 1602.74 253.9140000000001 1602.74 253.90500000000011 1602.74C253.0580000000001 1602.74 252.95500000000013 1603 252.9090000000001 1603.35C252.89300000000011 1603.4599999999998 252.9210000000001 1603.56 252.9970000000001 1603.6499999999999C253.1590000000001 1603.84 253.50600000000009 1603.9699999999998 253.9250000000001 1603.9899999999998C254.0090000000001 1603.9899999999998 254.0920000000001 1603.9899999999998 254.1750000000001 1603.9899999999998ZM271.267 1582.68C270.154 1582.67 269.257 1582.69 268.363 1582.65C267.098 1582.6100000000001 266.647 1581.95 267.143 1580.8000000000002C267.883 1579.0800000000002 268.68699999999995 1577.39 269.47299999999996 1575.6900000000003C269.77899999999994 1575.0300000000002 270.31199999999995 1574.7300000000002 270.99899999999997 1575.0100000000002C271.71299999999997 1575.3100000000002 271.80699999999996 1575.9200000000003 271.51899999999995 1576.5800000000002C270.9839999999999 1577.8100000000002 270.42599999999993 1579.0300000000002 269.79499999999996 1580.43C270.90599999999995 1580.44 271.83 1580.43 272.75199999999995 1580.45C273.99699999999996 1580.49 274.436 1581.2 273.92699999999996 1582.31C273.17699999999996 1583.95 272.412 1585.59 271.66799999999995 1587.23C271.34399999999994 1587.95 270.86199999999997 1588.44 270.05299999999994 1588.08C269.24799999999993 1587.71 269.28499999999997 1587.03 269.62199999999996 1586.31C270.14799999999997 1585.19 270.64699999999993 1584.05 271.26699999999994 1582.6799999999998ZM270.573 1588.71C270.294 1588.71 270.03999999999996 1588.63 269.844 1588.54C269.408 1588.35 269.116 1588.05 268.977 1587.68C268.81199999999995 1587.23 268.87199999999996 1586.71 269.161 1586.1000000000001C269.526 1585.3200000000002 269.878 1584.5300000000002 270.266 1583.66C270.336 1583.51 270.408 1583.3500000000001 270.481 1583.18C270.263 1583.18 270.052 1583.18 269.843 1583.18C269.327 1583.18 268.832 1583.18 268.343 1583.16C267.521 1583.13 266.952 1582.8700000000001 266.651 1582.4C266.356 1581.93 266.36400000000003 1581.3200000000002 266.675 1580.6000000000001C267.255 1579.2600000000002 267.882 1577.91 268.488 1576.6000000000001L269.011 1575.4800000000002C269.45000000000005 1574.5300000000002 270.288 1574.1700000000003 271.194 1574.5400000000002C271.735 1574.7700000000002 271.97200000000004 1575.1200000000001 272.076 1575.38C272.24 1575.7800000000002 272.209 1576.2700000000002 271.98600000000005 1576.7800000000002C271.61000000000007 1577.65 271.22100000000006 1578.5100000000002 270.80400000000003 1579.4300000000003L270.581 1579.9300000000003C270.658 1579.9300000000003 270.73400000000004 1579.9300000000003 270.809 1579.9300000000003C271.49 1579.9300000000003 272.132 1579.9300000000003 272.76800000000003 1579.9500000000003C273.76800000000003 1579.9800000000002 274.225 1580.3800000000003 274.43300000000005 1580.7200000000003C274.63800000000003 1581.0500000000002 274.79800000000006 1581.6300000000003 274.39000000000004 1582.5200000000002C274.07400000000007 1583.2200000000003 273.754 1583.9100000000003 273.43500000000006 1584.6000000000001C272.9990000000001 1585.5400000000002 272.56200000000007 1586.4900000000002 272.13200000000006 1587.44C271.68000000000006 1588.44 271.08600000000007 1588.71 270.57300000000004 1588.71ZM270.704 1582.17C270.886 1582.17 271.075 1582.17 271.27 1582.17H272.05199999999996L271.19499999999994 1584.0800000000002C270.8039999999999 1584.95 270.44999999999993 1585.7400000000002 270.0829999999999 1586.5300000000002C269.9199999999999 1586.88 269.8669999999999 1587.15 269.9309999999999 1587.3200000000002C269.94699999999995 1587.3700000000001 269.9939999999999 1587.4900000000002 270.2629999999999 1587.6100000000001C270.49799999999993 1587.72 270.8209999999999 1587.8700000000001 271.2049999999999 1587.0200000000002C271.6359999999999 1586.0700000000002 272.0729999999999 1585.1200000000001 272.5109999999999 1584.1700000000003C272.8299999999999 1583.4800000000002 273.1479999999999 1582.7900000000002 273.4639999999999 1582.1000000000004C273.6339999999999 1581.7300000000005 273.6709999999999 1581.4200000000003 273.56799999999987 1581.2500000000005C273.4619999999999 1581.0800000000004 273.15799999999984 1580.9800000000005 272.7359999999999 1580.9600000000005C272.1159999999999 1580.9400000000005 271.4759999999999 1580.9400000000005 270.80899999999986 1580.9400000000005C270.4809999999999 1580.9400000000005 270.14799999999985 1580.9400000000005 269.7909999999999 1580.9400000000005H269.0099999999999L269.87599999999986 1579.0100000000004C270.29199999999986 1578.0900000000004 270.6779999999999 1577.2400000000005 271.0529999999999 1576.3800000000003C271.1629999999999 1576.1200000000003 271.19099999999986 1575.9000000000003 271.1319999999999 1575.7600000000004C271.0869999999999 1575.6500000000005 270.9769999999999 1575.5600000000004 270.8039999999999 1575.4800000000005C270.63499999999993 1575.4100000000005 270.23799999999994 1575.2500000000005 269.9349999999999 1575.9100000000005L269.41199999999986 1577.0300000000004C268.8079999999999 1578.3300000000004 268.18399999999986 1579.6700000000005 267.60999999999984 1581.0000000000005C267.4449999999998 1581.3900000000006 267.4089999999998 1581.6900000000005 267.51199999999983 1581.8500000000004C267.61899999999986 1582.0200000000004 267.9359999999998 1582.1300000000003 268.38199999999983 1582.1500000000003C268.9789999999998 1582.1700000000003 269.5679999999998 1582.1700000000003 270.24999999999983 1582.1700000000003C270.39799999999985 1582.1700000000003 270.5489999999998 1582.1700000000003 270.70399999999984 1582.1700000000003ZM266 1610H267V1621H266ZM267 1610H268V1621H267ZM268 1610H269V1621H268ZM271 1610H272V1621H271ZM272 1610H273V1621H272ZM273 1610H274V1621H273Z " fill="#333333" fill-opacity="1" transform="matrix(1,0,0,1,-245,-1562)"></path></svg>