<svg id="SvgjsSvg1023" xmlns="http://www.w3.org/2000/svg" version="1.1" xmlns:xlink="http://www.w3.org/1999/xlink" xmlns:svgjs="http://svgjs.com/svgjs" width="42" height="55" viewBox="0 0 42 55"><title>Shape 72</title><desc>Created with Avocode.</desc><defs id="SvgjsDefs1024"></defs><path id="SvgjsPath1025" d="M886.221 1164.21V1164.21C885.252 1163.07 883.978 1162.22 882.746 1161.41L882.358 1161.15C881.8 1160.7800000000002 880.7049999999999 1160.8400000000001 880.1479999999999 1161.2800000000002C879.7159999999999 1161.6200000000001 879.6899999999999 1162.2500000000002 879.6659999999999 1162.8000000000002C879.661 1162.9300000000003 879.656 1163.0600000000002 879.645 1163.17C879.6179999999999 1163.46 879.739 1163.68 879.829 1163.8400000000001C879.8489999999999 1163.88 879.871 1163.91 879.886 1163.95C880.4119999999999 1165.26 880.332 1166.57 879.6659999999999 1167.56C878.9989999999999 1168.55 877.805 1169.12 876.42 1169.09C875.103 1169.08 874.371 1168.75 873.9699999999999 1167.99C873.4569999999999 1167.02 873.54 1165.99 874.2159999999999 1164.93C874.4019999999999 1164.64 874.6029999999998 1164.3600000000001 874.8149999999999 1164.0700000000002C875.039 1163.7600000000002 875.27 1163.43 875.482 1163.1000000000001C879.136 1157.3000000000002 879.1659999999999 1151.1200000000001 875.5659999999999 1145.69C873.4569999999999 1142.51 870.6289999999999 1140.02 866.92 1138.06L866.8 1138H863.9399999999999L863.784 1138.29C863.284 1139.24 863.471 1140.1599999999999 864.34 1141.04C865.8040000000001 1142.52 866.346 1144.3 865.95 1146.34C865.6940000000001 1147.6499999999999 865.3180000000001 1148.86 864.8330000000001 1149.9199999999998C863.2330000000001 1153.4199999999998 860.6260000000001 1156.2499999999998 858.3070000000001 1158.6299999999999L857.8670000000001 1159.08C855.542 1161.4499999999998 853.1370000000001 1163.9099999999999 851.4250000000001 1166.9199999999998C849.0150000000001 1171.1399999999999 848.4140000000001 1175.2699999999998 849.5880000000001 1179.5199999999998C850.3950000000001 1182.4399999999998 851.729 1185.0799999999997 853.5540000000001 1187.3799999999997C854.6360000000001 1188.7399999999996 855.993 1189.8799999999997 857.306 1190.9799999999996L857.639 1191.2499999999995C858.122 1191.6599999999996 858.693 1191.8299999999995 859.243 1191.7299999999996C859.754 1191.6399999999996 860.2030000000001 1191.3299999999995 860.476 1190.8699999999997C860.728 1190.4399999999996 860.8 1189.9499999999996 860.678 1189.4999999999998C860.541 1188.9799999999998 860.162 1188.5299999999997 859.61 1188.2199999999998C857.52 1187.0499999999997 856.178 1185.0599999999997 855.0840000000001 1183.2999999999997C852.7890000000001 1179.5999999999997 852.1210000000001 1176.0199999999998 853.042 1172.3499999999997C853.839 1169.1899999999996 855.801 1166.6999999999996 857.421 1164.8899999999996C858.327 1163.8799999999997 859.2700000000001 1162.8699999999997 860.182 1161.8899999999996C861.732 1160.2199999999996 863.336 1158.4899999999996 864.8240000000001 1156.7099999999996C867.556 1153.4299999999996 869.1 1150.1999999999996 869.5450000000001 1146.8199999999995C869.652 1146.0099999999995 869.6260000000001 1145.1899999999994 869.6 1144.3199999999995C870.049 1144.7499999999995 870.476 1145.1499999999994 870.8720000000001 1145.5699999999995C875.3290000000001 1150.2199999999996 875.8190000000001 1156.1699999999994 872.181 1161.4999999999995C872.07 1161.6599999999996 871.955 1161.8199999999995 871.84 1161.9799999999996C871.462 1162.5199999999995 871.072 1163.0699999999995 870.784 1163.6799999999996C869.703 1165.9899999999996 869.795 1168.2399999999996 871.051 1170.1699999999996C872.0930000000001 1171.7799999999995 874.0930000000001 1172.7599999999995 876.4010000000001 1172.7899999999995C878.8320000000001 1172.8199999999995 881.0590000000001 1171.7999999999995 882.2360000000001 1170.0899999999995C882.8120000000001 1169.2599999999995 883.1910000000001 1168.3299999999995 883.5920000000001 1167.3399999999995C883.6570000000002 1167.1799999999994 883.7230000000001 1167.0199999999995 883.791 1166.8599999999994C883.8080000000001 1166.8799999999994 883.826 1166.8999999999994 883.844 1166.9199999999994C887.6800000000001 1171.4899999999993 889.094 1179.1299999999994 884.3710000000001 1184.8899999999994C883.7100000000002 1185.6999999999994 882.9800000000001 1186.4899999999993 882.2740000000001 1187.2499999999993C881.8610000000001 1187.6899999999994 881.4480000000001 1188.1399999999994 881.0440000000001 1188.5899999999992C880.2590000000001 1189.4699999999993 880.2300000000001 1190.5499999999993 880.9730000000001 1191.2799999999993C881.3320000000001 1191.6299999999992 881.748 1191.7999999999993 882.181 1191.7999999999993C882.6600000000001 1191.7999999999993 883.159 1191.5899999999992 883.62 1191.1599999999992C884.02 1190.7899999999993 884.445 1190.3699999999992 884.957 1189.8299999999992C886.877 1187.8199999999993 888.98 1185.3299999999992 890.011 1182.1599999999992C892.122 1175.6799999999992 890.847 1169.6299999999992 886.221 1164.2099999999991ZM880.072 1181.16C879.904 1180.52 879.192 1179.94 878.599 1179.75C878.2180000000001 1179.62 877.259 1179.48 876.6 1180.93C876.519 1181.1000000000001 876.442 1181.29 876.365 1181.47C876.192 1181.88 876.028 1182.27 875.808 1182.6100000000001C875.231 1183.5000000000002 874.511 1184.0100000000002 873.727 1184.0900000000001C872.939 1184.17 872.1279999999999 1183.8100000000002 871.3829999999999 1183.0500000000002C870.502 1182.15 869.9499999999999 1180.9900000000002 869.5939999999999 1179.2800000000002C869.001 1176.4300000000003 867.468 1174.0700000000002 865.039 1172.2500000000002C864.209 1171.6300000000003 863.423 1171.5500000000002 862.706 1172.0100000000002C861.6850000000001 1172.6700000000003 861.847 1173.7500000000002 861.915 1174.2200000000003C862.145 1175.7700000000002 861.996 1177.3500000000004 861.4169999999999 1179.4900000000002C860.8849999999999 1181.4700000000003 860.593 1183.2400000000002 860.5229999999999 1184.9100000000003C860.42 1187.3800000000003 861.2789999999999 1189.8100000000004 863.0759999999999 1192.1500000000003C863.7509999999999 1193.0200000000002 864.6569999999999 1193.2200000000003 865.497 1192.6800000000003C866.396 1192.0900000000004 866.608 1191.1200000000003 866.05 1190.1400000000003C865.875 1189.8400000000004 865.688 1189.5400000000004 865.5 1189.2400000000002C865.374 1189.0300000000002 865.247 1188.8300000000002 865.125 1188.6300000000003C864.157 1187.0100000000004 863.849 1185.2100000000003 864.212 1183.2900000000004C864.3489999999999 1182.5500000000004 864.542 1181.8100000000004 864.728 1181.0900000000004C864.832 1180.6900000000003 864.9369999999999 1180.2800000000004 865.0329999999999 1179.8800000000003C865.1699999999998 1179.3000000000004 865.3019999999999 1178.7200000000003 865.4419999999999 1178.1100000000004C865.6459999999998 1178.7100000000003 865.8409999999999 1179.3200000000004 866.031 1179.9200000000003C866.2479999999999 1180.6000000000004 866.472 1181.3000000000004 866.712 1181.9900000000002C868.053 1185.8600000000001 870.8969999999999 1187.9900000000002 874.139 1187.5700000000002C874.921 1187.4600000000003 875.672 1187.19 876.398 1186.93C876.398 1186.93 876.398 1186.93 876.399 1186.93C876.058 1187.8600000000001 875.407 1188.6000000000001 874.722 1189.38C874.585 1189.5400000000002 874.449 1189.7 874.3149999999999 1189.8500000000001C873.5649999999999 1190.7400000000002 873.5609999999999 1191.68 874.3059999999999 1192.44C874.6759999999999 1192.81 875.0989999999999 1193 875.5329999999999 1193C875.9879999999999 1193 876.454 1192.79 876.8789999999999 1192.38C880.1769999999999 1189.18 881.2219999999999 1185.5100000000002 880.0719999999999 1181.16Z " fill="#333333" fill-opacity="1" transform="matrix(1,0,0,1,-849,-1138)"></path></svg>