<svg id="SvgjsSvg1050" xmlns="http://www.w3.org/2000/svg" version="1.1" xmlns:xlink="http://www.w3.org/1999/xlink" xmlns:svgjs="http://svgjs.com/svgjs" width="78" height="77" viewBox="0 0 78 77"><title>Shape 94</title><desc>Created with Avocode.</desc><defs id="SvgjsDefs1051"></defs><path id="SvgjsPath1052" d="M1171.95 1623.72C1171.96 1623.93 1172.1100000000001 1624.2 1172.29 1624.31C1173.81 1625.3 1174.36 1627.04 1173.6399999999999 1628.6699999999998C1172.9599999999998 1630.1999999999998 1171.1899999999998 1631.0299999999997 1169.54 1630.58C1167.44 1630.01 1166.3999999999999 1627.46 1167.47 1625.58C1167.78 1625.04 1168.21 1624.6499999999999 1168.7 1624.29C1168.88 1624.1599999999999 1169.05 1623.8799999999999 1169.06 1623.6599999999999C1169.09 1622.1499999999999 1169.07 1620.6299999999999 1169.08 1619.11C1169.08 1618.77 1168.9499999999998 1618.6399999999999 1168.6 1618.59C1167.06 1618.36 1165.51 1618.1699999999998 1163.99 1617.82C1162.21 1617.4099999999999 1160.52 1616.74 1158.88 1615.9199999999998C1156.93 1614.9399999999998 1155.1000000000001 1613.7599999999998 1153.47 1612.31C1153.18 1612.05 1152.94 1612.06 1152.67 1612.34C1151.65 1613.3899999999999 1150.6200000000001 1614.4299999999998 1149.5700000000002 1615.4599999999998C1149.2800000000002 1615.7399999999998 1149.19 1616.0099999999998 1149.2700000000002 1616.4099999999999C1149.6800000000003 1618.55 1148.1700000000003 1620.4899999999998 1145.9900000000002 1620.54C1144.5800000000002 1620.58 1143.2700000000002 1619.73 1142.7000000000003 1618.34C1141.9500000000003 1616.54 1142.9600000000003 1614.57 1144.5400000000002 1613.8999999999999C1145.1900000000003 1613.61 1145.9 1613.4699999999998 1146.6200000000001 1613.6999999999998C1146.96 1613.8099999999997 1147.2 1613.7599999999998 1147.45 1613.4999999999998C1148.51 1612.4199999999998 1149.5800000000002 1611.3499999999997 1150.66 1610.2899999999997C1150.94 1610.0099999999998 1150.91 1609.8099999999997 1150.65 1609.4999999999998C1149.3300000000002 1607.9499999999998 1148.18 1606.2699999999998 1147.24 1604.4499999999998C1146.39 1602.7999999999997 1145.73 1601.0699999999997 1145.24 1599.2899999999997C1144.8 1597.7199999999998 1144.53 1596.1199999999997 1144.44 1594.4999999999998C1144.41 1594.0799999999997 1144.27 1593.9299999999998 1143.8500000000001 1593.9399999999998C1142.3700000000001 1593.9599999999998 1140.88 1593.9499999999998 1139.4 1593.9399999999998C1139.0600000000002 1593.9399999999998 1138.8600000000001 1594.0599999999997 1138.65 1594.36C1137.77 1595.6399999999999 1136.51 1596.1599999999999 1134.99 1595.87C1133.74 1595.6299999999999 1132.81 1594.84 1132.47 1593.6399999999999C1131.88 1591.54 1132.76 1589.84 1134.8 1589.1499999999999C1136.18 1588.6799999999998 1137.87 1589.4099999999999 1138.7 1590.6699999999998C1138.81 1590.84 1139.07 1591.0199999999998 1139.27 1591.0199999999998C1140.83 1591.0499999999997 1142.3899999999999 1591.0399999999997 1143.96 1591.0499999999997C1144.27 1591.0499999999997 1144.4 1590.9099999999996 1144.42 1590.6099999999997C1144.53 1588.7599999999998 1144.8200000000002 1586.9399999999996 1145.4 1585.1899999999996C1145.8700000000001 1583.7499999999995 1146.46 1582.3299999999997 1147.0700000000002 1580.9399999999996C1147.8200000000002 1579.2099999999996 1148.92 1577.6999999999996 1150.0400000000002 1576.2099999999996C1150.2500000000002 1575.9399999999996 1150.4800000000002 1575.6799999999996 1150.7100000000003 1575.4399999999996C1150.9200000000003 1575.2199999999996 1150.9700000000003 1575.0299999999995 1150.7400000000002 1574.7999999999995C1149.6400000000003 1573.6999999999996 1148.5400000000002 1572.5799999999995 1147.4200000000003 1571.4999999999995C1147.2700000000002 1571.3499999999995 1146.9600000000003 1571.2499999999995 1146.7700000000002 1571.2999999999995C1145.0900000000001 1571.7099999999996 1143.3400000000001 1570.7899999999995 1142.7000000000003 1569.1899999999996C1141.9600000000003 1567.3699999999997 1142.9400000000003 1565.2999999999995 1144.7200000000003 1564.6899999999996C1146.7000000000003 1563.9999999999995 1148.8000000000002 1565.0599999999995 1149.2400000000002 1567.1399999999996C1149.3400000000001 1567.6399999999996 1149.2400000000002 1568.1699999999996 1149.2700000000002 1568.6899999999996C1149.2800000000002 1568.9199999999996 1149.3200000000002 1569.2299999999996 1149.4700000000003 1569.3799999999997C1150.5500000000002 1570.5199999999998 1151.6700000000003 1571.6299999999997 1152.7700000000002 1572.7499999999995C1153.0300000000002 1573.0099999999995 1153.2300000000002 1572.8999999999996 1153.4500000000003 1572.7099999999996C1154.6700000000003 1571.6199999999997 1155.9800000000002 1570.6899999999996 1157.3900000000003 1569.8799999999997C1159.1200000000003 1568.8799999999997 1160.9400000000003 1568.0899999999997 1162.8500000000004 1567.5099999999998C1164.6300000000003 1566.9699999999998 1166.4500000000003 1566.6299999999997 1168.3000000000004 1566.4499999999998C1169.0800000000004 1566.3799999999999 1169.0800000000004 1566.36 1169.0800000000004 1565.58C1169.0800000000004 1564.1399999999999 1169.0900000000004 1562.6999999999998 1169.0600000000004 1561.26C1169.0600000000004 1561.08 1168.9000000000003 1560.81 1168.7300000000005 1560.72C1167.2100000000005 1559.84 1166.7600000000004 1558.19 1167.2100000000005 1556.67C1167.5700000000004 1555.41 1168.7300000000005 1554.47 1170.0400000000004 1554.3200000000002C1172.0100000000004 1554.1000000000001 1173.4800000000005 1555.3100000000002 1173.8900000000003 1557.0500000000002C1174.2100000000003 1558.39 1173.6100000000004 1559.8700000000001 1172.3800000000003 1560.6200000000001C1172.0500000000004 1560.8200000000002 1171.9200000000003 1561.0300000000002 1171.9300000000003 1561.44C1171.9600000000003 1562.8600000000001 1171.9500000000003 1564.28 1171.9500000000003 1565.7C1171.9500000000003 1566.3400000000001 1171.9700000000003 1566.39 1172.6100000000004 1566.44C1174.4800000000002 1566.6000000000001 1176.3100000000004 1566.96 1178.1100000000004 1567.5C1180.3100000000004 1568.16 1182.3900000000003 1569.08 1184.3200000000004 1570.33C1185.3700000000003 1571.02 1186.3700000000003 1571.81 1187.3700000000003 1572.58C1187.9200000000003 1573.01 1187.9200000000003 1573.03 1188.4300000000003 1572.53C1189.4500000000003 1571.51 1190.4600000000003 1570.49 1191.4800000000002 1569.48C1191.6900000000003 1569.27 1191.7800000000002 1569.06 1191.7000000000003 1568.73C1191.3100000000002 1567.09 1192.1800000000003 1565.32 1193.7700000000002 1564.73C1195.1600000000003 1564.21 1196.6800000000003 1564.5 1197.6700000000003 1565.65C1198.8100000000004 1566.98 1198.6500000000003 1568.8600000000001 1197.8900000000003 1569.92C1197.1800000000003 1570.93 1195.5800000000004 1571.75 1194.1800000000003 1571.28C1194.0100000000002 1571.22 1193.7200000000003 1571.34 1193.5700000000004 1571.48C1192.5900000000004 1572.44 1191.6100000000004 1573.41 1190.6600000000003 1574.4C1190.0500000000004 1575.0400000000002 1190.0600000000004 1575.0700000000002 1190.6000000000004 1575.75C1191.9600000000003 1577.48 1193.2200000000003 1579.28 1194.1000000000004 1581.29C1194.7400000000005 1582.74 1195.2500000000005 1584.25 1195.7300000000005 1585.76C1196.2200000000005 1587.28 1196.4500000000005 1588.86 1196.5300000000004 1590.45C1196.5500000000004 1590.8600000000001 1196.7100000000005 1591.06 1197.1600000000005 1591.05C1198.6200000000006 1591.03 1200.0700000000006 1591.03 1201.5300000000004 1591.05C1201.9100000000005 1591.06 1202.1600000000005 1590.94 1202.3700000000003 1590.61C1203.5500000000004 1588.7199999999998 1206.4000000000003 1588.52 1207.8700000000003 1590.2299999999998C1209.3500000000004 1591.9599999999998 1208.8000000000004 1594.6599999999999 1206.7200000000003 1595.6299999999999C1205.2000000000003 1596.35 1203.3500000000004 1595.85 1202.4200000000003 1594.4599999999998C1202.1700000000003 1594.0799999999997 1201.9000000000003 1593.9199999999998 1201.4300000000003 1593.9299999999998C1200.0100000000002 1593.9699999999998 1198.5900000000004 1593.9599999999998 1197.1600000000003 1593.9399999999998C1196.7400000000002 1593.9399999999998 1196.5700000000004 1594.09 1196.5200000000002 1594.5199999999998C1196.3600000000001 1595.8599999999997 1196.2600000000002 1597.2099999999998 1195.9300000000003 1598.4999999999998C1195.5400000000002 1600.0399999999997 1194.9900000000002 1601.5299999999997 1194.4100000000003 1603.0099999999998C1193.6000000000004 1605.0599999999997 1192.3800000000003 1606.8899999999999 1191.0600000000004 1608.6499999999999C1190.8300000000004 1608.9499999999998 1190.5700000000004 1609.2399999999998 1190.3100000000004 1609.5199999999998C1190.0700000000004 1609.7799999999997 1190.0300000000004 1609.9999999999998 1190.3100000000004 1610.2699999999998C1191.4000000000003 1611.3399999999997 1192.4700000000005 1612.4299999999998 1193.5400000000004 1613.5199999999998C1193.7800000000004 1613.7599999999998 1194.0200000000004 1613.8099999999997 1194.3400000000004 1613.7199999999998C1196.1400000000003 1613.2199999999998 1198.2100000000003 1614.61 1198.4600000000003 1616.4699999999998C1198.7500000000002 1618.6599999999999 1197.4100000000003 1620.2499999999998 1195.4000000000003 1620.5299999999997C1194.0900000000004 1620.7099999999998 1192.4900000000002 1619.8599999999997 1191.9000000000003 1618.4399999999998C1191.5900000000004 1617.6999999999998 1191.6000000000004 1616.9499999999998 1191.7000000000003 1616.1699999999998C1191.7300000000002 1615.9799999999998 1191.6400000000003 1615.6999999999998 1191.5100000000002 1615.56C1190.4500000000003 1614.47 1189.3600000000001 1613.4199999999998 1188.3000000000002 1612.34C1188.0000000000002 1612.04 1187.8000000000002 1612.07 1187.4900000000002 1612.34C1185.1900000000003 1614.32 1182.6100000000001 1615.85 1179.7700000000002 1616.9399999999998C1178.1200000000001 1617.57 1176.4100000000003 1617.9799999999998 1174.6900000000003 1618.32C1173.9500000000003 1618.47 1173.1900000000003 1618.51 1172.4300000000003 1618.57C1172.0200000000002 1618.6 1171.9100000000003 1618.79 1171.9200000000003 1619.1699999999998C1171.9500000000003 1619.9299999999998 1171.9300000000003 1620.6899999999998 1171.9300000000003 1621.4499999999998C1171.9300000000003 1622.1999999999998 1171.9100000000003 1622.9599999999998 1171.9500000000003 1623.7199999999998ZM1147.26 1592.52C1147.26 1605.25 1157.61 1615.72 1170.45 1615.73C1183.3400000000001 1615.74 1193.54 1605.35 1193.72 1592.8600000000001C1193.9 1579.7700000000002 1183.29 1569.14 1170.24 1569.2700000000002C1157.69 1569.39 1147.27 1579.6100000000001 1147.26 1592.5200000000002ZM1170.46 1631C1170.13 1631 1169.79 1630.95 1169.46 1630.86C1168.38 1630.57 1167.5 1629.78 1167.05 1628.6999999999998C1166.6 1627.61 1166.6599999999999 1626.4199999999998 1167.22 1625.4299999999998C1167.57 1624.81 1168.07 1624.3899999999999 1168.52 1624.06C1168.6399999999999 1623.97 1168.76 1623.77 1168.76 1623.6599999999999C1168.78 1622.7099999999998 1168.78 1621.7499999999998 1168.78 1620.82C1168.78 1620.25 1168.78 1619.6799999999998 1168.79 1619.11C1168.79 1618.9299999999998 1168.79 1618.9099999999999 1168.56 1618.8799999999999C1168.22 1618.83 1167.8799999999999 1618.78 1167.54 1618.7299999999998C1166.35 1618.5599999999997 1165.12 1618.3799999999999 1163.92 1618.11C1162.27 1617.7199999999998 1160.5700000000002 1617.09 1158.75 1616.1799999999998C1156.65 1615.12 1154.85 1613.9299999999998 1153.27 1612.5299999999997C1153.1 1612.3699999999997 1153.04 1612.3799999999997 1152.8799999999999 1612.5399999999997C1151.9599999999998 1613.4799999999998 1150.87 1614.5899999999997 1149.77 1615.6699999999998C1149.55 1615.8899999999999 1149.5 1616.06 1149.55 1616.35C1149.77 1617.4699999999998 1149.5 1618.6 1148.81 1619.4599999999998C1148.1299999999999 1620.2999999999997 1147.11 1620.8099999999997 1145.99 1620.8299999999997C1145.96 1620.8299999999997 1145.93 1620.8299999999997 1145.9 1620.8299999999997C1144.39 1620.8299999999997 1143.0300000000002 1619.9099999999996 1142.43 1618.4499999999996C1141.5900000000001 1616.4399999999996 1142.78 1614.3299999999997 1144.42 1613.6299999999997C1145.26 1613.2699999999998 1146.01 1613.1999999999996 1146.71 1613.4299999999996C1146.94 1613.4999999999995 1147.07 1613.4699999999996 1147.24 1613.2899999999995C1148.34 1612.1699999999996 1149.46 1611.0599999999995 1150.45 1610.0799999999995C1150.5900000000001 1609.9399999999994 1150.6200000000001 1609.9199999999994 1150.43 1609.6899999999994C1149.0600000000002 1608.0899999999995 1147.91 1606.3699999999994 1146.98 1604.5899999999995C1146.15 1602.9799999999996 1145.47 1601.2199999999996 1144.95 1599.3599999999994C1144.51 1597.7499999999995 1144.23 1596.1199999999994 1144.14 1594.5099999999995C1144.13 1594.2399999999996 1144.1000000000001 1594.2299999999996 1143.8600000000001 1594.2299999999996C1142.3400000000001 1594.2499999999995 1140.8200000000002 1594.2399999999996 1139.4 1594.2399999999996C1139.16 1594.2399999999996 1139.0500000000002 1594.2999999999995 1138.9 1594.5299999999995C1137.94 1595.9099999999996 1136.5700000000002 1596.4699999999996 1134.93 1596.1499999999994C1133.55 1595.8899999999994 1132.5600000000002 1594.9999999999993 1132.19 1593.7199999999993C1131.55 1591.4699999999993 1132.52 1589.6099999999994 1134.71 1588.8699999999994C1136.16 1588.3799999999994 1138.02 1589.0999999999995 1138.94 1590.5099999999995C1139.01 1590.6199999999994 1139.19 1590.7299999999996 1139.28 1590.7299999999996C1140.28 1590.7499999999995 1141.31 1590.7499999999995 1142.31 1590.7499999999995C1142.86 1590.7499999999995 1143.4099999999999 1590.7499999999995 1143.96 1590.7499999999995C1144.1100000000001 1590.7499999999995 1144.1200000000001 1590.7399999999996 1144.13 1590.5899999999995C1144.25 1588.5499999999995 1144.5800000000002 1586.7499999999995 1145.1200000000001 1585.0999999999995C1145.6000000000001 1583.6299999999994 1146.21 1582.1799999999994 1146.8000000000002 1580.8199999999995C1147.5500000000002 1579.0899999999995 1148.65 1577.5699999999995 1149.8100000000002 1576.0299999999995C1150.0000000000002 1575.7799999999995 1150.2200000000003 1575.5199999999995 1150.5000000000002 1575.2399999999996C1150.6300000000003 1575.1099999999994 1150.6200000000001 1575.0999999999995 1150.5300000000002 1575.0099999999995L1149.6600000000003 1574.1399999999996C1148.8700000000003 1573.3399999999997 1148.0400000000004 1572.5099999999995 1147.2200000000003 1571.7099999999996C1147.1300000000003 1571.6199999999997 1146.9200000000003 1571.5599999999995 1146.8400000000001 1571.5799999999995C1145.0300000000002 1572.0299999999995 1143.13 1571.0499999999995 1142.42 1569.2999999999995C1142.04 1568.3499999999995 1142.0700000000002 1567.3099999999995 1142.49 1566.3699999999994C1142.91 1565.4499999999994 1143.69 1564.7299999999993 1144.6200000000001 1564.4099999999994C1145.69 1564.0399999999995 1146.8400000000001 1564.1299999999994 1147.7800000000002 1564.6599999999994C1148.6800000000003 1565.1699999999994 1149.3000000000002 1566.0299999999993 1149.5300000000002 1567.0799999999995C1149.6000000000001 1567.4199999999994 1149.5800000000002 1567.7599999999995 1149.5700000000002 1568.0899999999995C1149.5600000000002 1568.2899999999995 1149.5500000000002 1568.4799999999996 1149.5600000000002 1568.6699999999994C1149.5800000000002 1569.0099999999993 1149.64 1569.1399999999994 1149.68 1569.1799999999994C1150.44 1569.9799999999993 1151.24 1570.7799999999993 1152 1571.5599999999995C1152.33 1571.8799999999994 1152.66 1572.2099999999996 1152.98 1572.5499999999995C1153.07 1572.6299999999994 1153.08 1572.6499999999994 1153.26 1572.4899999999996C1154.45 1571.4299999999996 1155.79 1570.4599999999996 1157.24 1569.6199999999997C1158.97 1568.6299999999997 1160.83 1567.8199999999997 1162.77 1567.2299999999996C1164.51 1566.6999999999996 1166.31 1566.3499999999995 1168.27 1566.1599999999996C1168.46 1566.1399999999996 1168.71 1566.1199999999997 1168.77 1566.0799999999997C1168.78 1566.0399999999997 1168.78 1565.8099999999997 1168.78 1565.5799999999997L1168.79 1564.5899999999997C1168.79 1563.4999999999998 1168.79 1562.3699999999997 1168.77 1561.2699999999998C1168.77 1561.1899999999998 1168.67 1561.0199999999998 1168.59 1560.9699999999998C1167.06 1560.0899999999997 1166.4099999999999 1558.37 1166.9299999999998 1556.5799999999997C1167.32 1555.2199999999998 1168.56 1554.1899999999996 1170.0099999999998 1554.0299999999997C1172.0299999999997 1553.8099999999997 1173.6999999999998 1554.9899999999998 1174.1799999999998 1556.9799999999998C1174.5299999999997 1558.4699999999998 1173.85 1560.0599999999997 1172.5399999999997 1560.87C1172.2899999999997 1561.02 1172.2199999999998 1561.1399999999999 1172.2299999999998 1561.4299999999998C1172.2499999999998 1562.4499999999998 1172.2499999999998 1563.4899999999998 1172.2399999999998 1564.4899999999998C1172.2399999999998 1564.8899999999999 1172.2399999999998 1565.2999999999997 1172.2399999999998 1565.6999999999998C1172.2399999999998 1565.83 1172.2399999999998 1566.0599999999997 1172.2699999999998 1566.11C1172.2999999999997 1566.12 1172.5399999999997 1566.1399999999999 1172.6299999999997 1566.1499999999999C1174.4999999999995 1566.31 1176.3699999999997 1566.6699999999998 1178.1899999999996 1567.2199999999998C1180.4999999999995 1567.9199999999998 1182.6199999999997 1568.8799999999999 1184.4799999999996 1570.0899999999997C1185.3699999999997 1570.6699999999996 1186.2299999999996 1571.3299999999997 1187.0599999999995 1571.9799999999998L1187.5899999999995 1572.3799999999999C1187.7199999999996 1572.4899999999998 1187.8699999999994 1572.6 1187.9199999999994 1572.61C1187.9399999999994 1572.59 1188.1099999999994 1572.4299999999998 1188.2199999999993 1572.32L1189.5899999999992 1570.95C1190.1499999999992 1570.39 1190.7099999999991 1569.8300000000002 1191.2799999999993 1569.27C1191.4299999999994 1569.12 1191.4599999999994 1569 1191.4199999999994 1568.8C1190.9899999999993 1566.99 1191.9799999999993 1565.08 1193.6699999999994 1564.45C1195.2399999999993 1563.8700000000001 1196.8499999999995 1564.26 1197.8899999999994 1565.46C1199.0999999999995 1566.8700000000001 1198.9699999999993 1568.92 1198.1299999999994 1570.0900000000001C1197.3399999999995 1571.21 1195.6099999999994 1572.0600000000002 1194.0899999999995 1571.5500000000002C1194.0399999999995 1571.5500000000002 1193.8599999999994 1571.6100000000001 1193.7799999999995 1571.6900000000003C1192.6799999999996 1572.7500000000002 1191.7299999999996 1573.7100000000003 1190.8799999999994 1574.6100000000004C1190.7299999999993 1574.7600000000004 1190.4999999999993 1575.0000000000005 1190.4899999999993 1575.0800000000004C1190.4899999999993 1575.1400000000003 1190.6799999999994 1575.3800000000003 1190.8299999999992 1575.5700000000004C1191.9699999999993 1577.0200000000004 1193.3999999999992 1578.9700000000005 1194.3699999999992 1581.1800000000003C1195.0399999999993 1582.6900000000003 1195.5699999999993 1584.2900000000002 1196.0099999999993 1585.6700000000003C1196.4699999999993 1587.0900000000004 1196.7299999999993 1588.6500000000003 1196.8199999999993 1590.4400000000003C1196.8299999999992 1590.7100000000003 1196.8999999999992 1590.7600000000002 1197.1599999999992 1590.7600000000002C1198.5399999999993 1590.7400000000002 1199.9699999999991 1590.7400000000002 1201.529999999999 1590.7600000000002C1201.839999999999 1590.7600000000002 1201.979999999999 1590.6800000000003 1202.119999999999 1590.4600000000003C1202.7299999999989 1589.4800000000002 1203.759999999999 1588.8700000000003 1204.969999999999 1588.7800000000002C1206.169999999999 1588.6900000000003 1207.3399999999988 1589.1600000000003 1208.0899999999988 1590.0400000000002C1208.8699999999988 1590.9500000000003 1209.1599999999987 1592.14 1208.9099999999987 1593.3000000000002C1208.6599999999987 1594.4600000000003 1207.9099999999987 1595.4 1206.8499999999988 1595.9C1205.1899999999987 1596.67 1203.1799999999987 1596.1200000000001 1202.1699999999987 1594.6200000000001C1201.9699999999987 1594.3200000000002 1201.7799999999986 1594.22 1201.4399999999987 1594.23C1200.0099999999986 1594.26 1198.5999999999988 1594.25 1197.1599999999987 1594.23C1196.9099999999987 1594.23 1196.8499999999988 1594.26 1196.8099999999988 1594.56C1196.7799999999988 1594.85 1196.7399999999989 1595.1399999999999 1196.709999999999 1595.4299999999998C1196.599999999999 1596.4699999999998 1196.4799999999989 1597.5499999999997 1196.219999999999 1598.58C1195.8199999999988 1600.1599999999999 1195.2399999999989 1601.6899999999998 1194.679999999999 1603.12C1193.829999999999 1605.29 1192.4899999999989 1607.2199999999998 1191.2999999999988 1608.82C1191.0599999999988 1609.1399999999999 1190.7899999999988 1609.4399999999998 1190.5199999999988 1609.72C1190.3699999999988 1609.89 1190.3799999999987 1609.92 1190.5199999999988 1610.06C1191.4999999999989 1611.03 1192.5599999999988 1612.1 1193.7499999999989 1613.31C1193.909999999999 1613.47 1194.0299999999988 1613.5 1194.2599999999989 1613.44C1195.189999999999 1613.18 1196.2399999999989 1613.3700000000001 1197.1199999999988 1613.95C1198.0299999999988 1614.55 1198.6199999999988 1615.45 1198.7499999999989 1616.43C1199.0499999999988 1618.7 1197.689999999999 1620.5 1195.439999999999 1620.8200000000002C1193.919999999999 1621.0300000000002 1192.2399999999989 1620.0400000000002 1191.629999999999 1618.5600000000002C1191.269999999999 1617.6900000000003 1191.319999999999 1616.8500000000001 1191.409999999999 1616.13C1191.429999999999 1616.0200000000002 1191.369999999999 1615.8400000000001 1191.299999999999 1615.7600000000002C1190.7099999999991 1615.1700000000003 1190.109999999999 1614.5700000000002 1189.529999999999 1613.9900000000002C1189.049999999999 1613.5100000000002 1188.559999999999 1613.0300000000002 1188.089999999999 1612.5500000000002C1187.929999999999 1612.38 1187.909999999999 1612.3600000000001 1187.679999999999 1612.5600000000002C1185.389999999999 1614.5400000000002 1182.7599999999989 1616.1000000000001 1179.879999999999 1617.2100000000003C1178.119999999999 1617.8900000000003 1176.299999999999 1618.3000000000002 1174.7499999999989 1618.6100000000004C1174.0899999999988 1618.7400000000005 1173.409999999999 1618.7900000000004 1172.7499999999989 1618.8400000000004L1172.449999999999 1618.8700000000003C1172.2499999999989 1618.8800000000003 1172.209999999999 1618.8900000000003 1172.219999999999 1619.1600000000003C1172.2299999999989 1619.7000000000003 1172.2299999999989 1620.2500000000002 1172.2299999999989 1620.7800000000002C1172.2299999999989 1620.9200000000003 1172.219999999999 1621.0500000000002 1172.219999999999 1621.1900000000003L1172.2299999999989 1621.4500000000003C1172.2299999999989 1621.6500000000003 1172.2299999999989 1621.8600000000004 1172.219999999999 1622.0700000000002C1172.219999999999 1622.6100000000001 1172.209999999999 1623.16 1172.2399999999989 1623.7000000000003C1172.2499999999989 1623.8200000000002 1172.3499999999988 1624.0000000000002 1172.449999999999 1624.0600000000002C1174.089999999999 1625.14 1174.679999999999 1627.0400000000002 1173.899999999999 1628.7900000000002C1173.299999999999 1630.15 1171.919999999999 1631.0000000000002 1170.459999999999 1631.0000000000002ZM1153.08 1611.83C1153.27 1611.83 1153.47 1611.9199999999998 1153.6599999999999 1612.09C1155.1999999999998 1613.4599999999998 1156.9499999999998 1614.62 1159.0099999999998 1615.6499999999999C1160.7999999999997 1616.55 1162.4499999999998 1617.1599999999999 1164.0599999999997 1617.54C1165.2299999999998 1617.81 1166.4499999999998 1617.98 1167.6299999999997 1618.1499999999999C1167.9699999999996 1618.1999999999998 1168.3099999999997 1618.2499999999998 1168.6499999999996 1618.3C1168.9599999999996 1618.34 1169.3799999999997 1618.48 1169.3699999999997 1619.12C1169.3699999999997 1619.6899999999998 1169.3699999999997 1620.25 1169.3699999999997 1620.82C1169.3699999999997 1621.75 1169.3699999999997 1622.72 1169.3499999999997 1623.6699999999998C1169.3399999999997 1623.9999999999998 1169.0999999999997 1624.36 1168.8699999999997 1624.5299999999997C1168.4499999999996 1624.8399999999997 1168.0199999999998 1625.1999999999998 1167.7299999999996 1625.7199999999998C1167.2599999999995 1626.5499999999997 1167.2099999999996 1627.5499999999997 1167.5899999999995 1628.4699999999998C1167.9699999999996 1629.3899999999999 1168.7099999999994 1630.0499999999997 1169.6199999999994 1630.2999999999997C1171.1399999999994 1630.7099999999998 1172.7499999999995 1629.9599999999998 1173.3699999999994 1628.5499999999997C1174.0299999999995 1627.0499999999997 1173.5399999999995 1625.4799999999998 1172.1299999999994 1624.5599999999997C1171.8799999999994 1624.3999999999996 1171.6699999999994 1624.0299999999997 1171.6599999999994 1623.7299999999998C1171.6299999999994 1623.1799999999998 1171.6299999999994 1622.61 1171.6399999999994 1622.0699999999997C1171.6399999999994 1621.9599999999998 1171.6399999999994 1621.8499999999997 1171.6399999999994 1621.7399999999998V1621.4499999999998C1171.6399999999994 1621.2199999999998 1171.6399999999994 1620.9999999999998 1171.6399999999994 1620.7799999999997C1171.6399999999994 1620.2499999999998 1171.6499999999994 1619.7099999999998 1171.6299999999994 1619.1799999999998C1171.6199999999994 1618.9699999999998 1171.6099999999994 1618.34 1172.4099999999994 1618.2799999999997L1172.7099999999994 1618.2599999999998C1173.3499999999995 1618.2099999999998 1174.0099999999993 1618.1599999999999 1174.6299999999994 1618.0399999999997C1176.1599999999994 1617.7299999999998 1177.9499999999994 1617.3299999999997 1179.6699999999994 1616.6599999999996C1182.4899999999993 1615.5799999999997 1185.0499999999995 1614.0499999999997 1187.2899999999993 1612.1199999999997C1187.5899999999992 1611.8599999999997 1187.9999999999993 1611.6199999999997 1188.5099999999993 1612.1299999999997C1188.9799999999993 1612.6199999999997 1189.4599999999994 1613.0899999999997 1189.9399999999994 1613.5699999999997C1190.5299999999993 1614.1499999999996 1191.1299999999994 1614.7499999999998 1191.7199999999993 1615.3599999999997C1191.9099999999994 1615.5599999999997 1192.0299999999993 1615.9299999999996 1191.9899999999993 1616.2099999999996C1191.9099999999994 1616.8499999999997 1191.8599999999992 1617.5899999999997 1192.1699999999994 1618.3299999999995C1192.6799999999994 1619.5499999999995 1194.1099999999994 1620.4099999999994 1195.3599999999994 1620.2399999999996C1197.2999999999995 1619.9699999999996 1198.4299999999994 1618.4699999999996 1198.1699999999994 1616.5099999999995C1198.0599999999995 1615.6999999999996 1197.5599999999995 1614.9399999999996 1196.7999999999995 1614.4399999999996C1196.0499999999995 1613.9499999999996 1195.1899999999996 1613.7899999999995 1194.4199999999994 1613.9999999999995C1193.9799999999993 1614.1199999999994 1193.6399999999994 1614.0299999999995 1193.3399999999995 1613.7199999999996C1192.1399999999994 1612.5099999999995 1191.0899999999995 1611.4499999999996 1190.0999999999995 1610.4799999999996C1189.8399999999995 1610.2199999999996 1189.6299999999994 1609.8099999999995 1190.0999999999995 1609.3199999999995C1190.3599999999994 1609.0399999999995 1190.6099999999994 1608.7699999999995 1190.8299999999995 1608.4699999999996C1191.9999999999995 1606.8999999999996 1193.3099999999995 1605.0099999999995 1194.1399999999994 1602.8999999999996C1194.6899999999994 1601.4999999999995 1195.2499999999993 1599.9799999999996 1195.6499999999994 1598.4299999999996C1195.8999999999994 1597.4399999999996 1196.0199999999993 1596.3899999999996 1196.1299999999994 1595.3699999999997C1196.1599999999994 1595.0799999999997 1196.1899999999994 1594.7799999999997 1196.2299999999993 1594.4899999999996C1196.2999999999993 1593.9099999999996 1196.5899999999992 1593.6499999999996 1197.1499999999994 1593.6499999999996C1197.1499999999994 1593.6499999999996 1197.1599999999994 1593.6499999999996 1197.1699999999994 1593.6499999999996C1198.5999999999995 1593.6599999999996 1199.9999999999993 1593.6699999999996 1201.4299999999994 1593.6399999999996C1201.9899999999993 1593.6299999999997 1202.3499999999995 1593.8199999999997 1202.6599999999994 1594.2899999999997C1203.4999999999993 1595.5599999999997 1205.1999999999994 1596.0199999999998 1206.5999999999995 1595.3699999999997C1207.4899999999996 1594.9499999999996 1208.1299999999994 1594.1499999999996 1208.3399999999995 1593.1799999999996C1208.5499999999995 1592.1899999999996 1208.2999999999995 1591.1899999999996 1207.6499999999994 1590.4299999999996C1207.0099999999993 1589.6799999999996 1206.0299999999995 1589.2899999999995 1205.0099999999993 1589.3599999999997C1203.9999999999993 1589.4399999999996 1203.1199999999992 1589.9499999999996 1202.6199999999992 1590.7699999999998C1202.3599999999992 1591.1699999999998 1202.0199999999993 1591.3499999999997 1201.5199999999993 1591.3499999999997C1199.9599999999994 1591.3199999999997 1198.5399999999993 1591.3199999999997 1197.1699999999994 1591.3399999999997C1196.7499999999993 1591.3399999999997 1196.2699999999993 1591.1999999999996 1196.2299999999993 1590.4699999999998C1196.1499999999994 1588.7299999999998 1195.8899999999994 1587.2199999999998 1195.4499999999994 1585.85C1195.0099999999993 1584.49 1194.4899999999993 1582.8999999999999 1193.8299999999995 1581.4099999999999C1192.8899999999994 1579.2599999999998 1191.4799999999996 1577.36 1190.3699999999994 1575.9299999999998C1189.7399999999993 1575.1299999999999 1189.7499999999995 1574.9399999999998 1190.4499999999994 1574.1999999999998C1191.3199999999993 1573.2999999999997 1192.2699999999993 1572.34 1193.3699999999994 1571.2699999999998C1193.5499999999995 1571.0999999999997 1193.9499999999994 1570.8899999999996 1194.2699999999995 1570.9999999999998C1195.5199999999995 1571.4199999999998 1196.9999999999995 1570.6799999999998 1197.6599999999996 1569.7499999999998C1198.3599999999997 1568.7599999999998 1198.4699999999996 1567.0299999999997 1197.4499999999996 1565.8399999999997C1196.5699999999995 1564.8299999999997 1195.1999999999996 1564.5099999999998 1193.8699999999997 1564.9999999999998C1192.4599999999996 1565.5299999999997 1191.6299999999997 1567.1399999999999 1191.9899999999996 1568.6699999999998C1192.0799999999995 1569.07 1191.9899999999996 1569.3899999999999 1191.6899999999996 1569.6899999999998C1191.1299999999997 1570.2499999999998 1190.5699999999997 1570.7999999999997 1190.0099999999995 1571.36L1188.6299999999994 1572.7299999999998C1188.0399999999995 1573.3199999999997 1187.8599999999994 1573.3299999999997 1187.2299999999993 1572.8499999999997L1186.6999999999994 1572.4399999999996C1185.8799999999994 1571.8099999999995 1185.0299999999993 1571.1499999999996 1184.1599999999994 1570.5799999999997C1182.3499999999995 1569.3999999999996 1180.2799999999993 1568.4599999999998 1178.0199999999993 1567.7799999999997C1176.2399999999993 1567.2399999999998 1174.4099999999994 1566.8899999999996 1172.5899999999992 1566.7399999999998C1171.7599999999993 1566.6699999999998 1171.6599999999992 1566.4699999999998 1171.6499999999992 1565.6999999999998C1171.6499999999992 1565.2999999999997 1171.6499999999992 1564.8899999999999 1171.6599999999992 1564.4899999999998C1171.6599999999992 1563.4899999999998 1171.6599999999992 1562.4599999999998 1171.6399999999992 1561.4399999999998C1171.6299999999992 1560.9399999999998 1171.7999999999993 1560.6299999999999 1172.229999999999 1560.37C1173.329999999999 1559.6899999999998 1173.8999999999992 1558.36 1173.6099999999992 1557.12C1173.1999999999991 1555.4299999999998 1171.7899999999993 1554.4199999999998 1170.0799999999992 1554.61C1168.8599999999992 1554.75 1167.8199999999993 1555.6 1167.4899999999993 1556.75C1167.1399999999994 1557.95 1167.3199999999993 1559.56 1168.8799999999994 1560.46C1169.1399999999994 1560.6100000000001 1169.3499999999995 1560.97 1169.3599999999994 1561.26C1169.3799999999994 1562.37 1169.3799999999994 1563.5 1169.3699999999994 1564.59V1565.58C1169.3699999999994 1566.53 1169.2499999999995 1566.6599999999999 1168.3299999999995 1566.75C1166.3999999999994 1566.93 1164.6399999999994 1567.27 1162.9399999999994 1567.79C1161.0499999999993 1568.37 1159.2299999999993 1569.1599999999999 1157.5399999999993 1570.1299999999999C1156.1199999999992 1570.9499999999998 1154.8099999999993 1571.8899999999999 1153.6499999999992 1572.9199999999998C1153.249999999999 1573.2799999999997 1152.8899999999992 1573.2899999999997 1152.5699999999993 1572.9599999999998C1152.2399999999993 1572.6299999999999 1151.9099999999992 1572.2999999999997 1151.5899999999992 1571.9699999999998C1150.8199999999993 1571.1899999999998 1150.0199999999993 1570.3899999999999 1149.2499999999993 1569.5799999999997C1149.0399999999993 1569.3599999999997 1148.9899999999993 1569.0099999999998 1148.9799999999993 1568.6999999999996C1148.9599999999994 1568.4899999999996 1148.9699999999993 1568.2699999999995 1148.9799999999993 1568.0599999999995C1148.9899999999993 1567.7599999999995 1149.0099999999993 1567.4699999999996 1148.9499999999994 1567.1999999999996C1148.7599999999993 1566.3199999999995 1148.2499999999993 1565.5999999999997 1147.4899999999993 1565.1699999999996C1146.6999999999994 1564.7299999999996 1145.7199999999993 1564.6499999999996 1144.8099999999993 1564.9699999999996C1144.0299999999993 1565.2399999999996 1143.3799999999992 1565.8399999999995 1143.0299999999993 1566.6099999999997C1142.6699999999994 1567.4099999999996 1142.6399999999992 1568.2799999999997 1142.9699999999993 1569.0799999999997C1143.5599999999993 1570.5599999999997 1145.1699999999994 1571.3899999999996 1146.6999999999994 1571.0099999999998C1147.0099999999993 1570.9299999999998 1147.4199999999994 1571.0899999999997 1147.6199999999994 1571.2899999999997C1148.4499999999994 1572.0899999999997 1149.2799999999995 1572.9199999999998 1150.0799999999995 1573.7299999999998L1150.9499999999994 1574.5999999999997C1151.1399999999994 1574.7899999999997 1151.3899999999994 1575.1699999999996 1150.9199999999994 1575.6499999999996C1150.6599999999994 1575.9099999999996 1150.4499999999994 1576.1499999999996 1150.2799999999993 1576.3799999999997C1149.1399999999992 1577.8899999999996 1148.0599999999993 1579.3799999999997 1147.3399999999992 1581.0499999999997C1146.6699999999992 1582.6099999999997 1146.1199999999992 1583.9199999999996 1145.6799999999992 1585.2799999999997C1145.1499999999992 1586.8799999999997 1144.8399999999992 1588.6299999999997 1144.7199999999991 1590.6199999999997C1144.6899999999991 1591.0899999999997 1144.4199999999992 1591.3399999999997 1143.9599999999991 1591.3399999999997C1143.4099999999992 1591.3399999999997 1142.8599999999992 1591.3399999999997 1142.309999999999 1591.3399999999997C1141.309999999999 1591.3399999999997 1140.279999999999 1591.3399999999997 1139.259999999999 1591.3199999999997C1138.9499999999991 1591.3099999999997 1138.609999999999 1591.0699999999997 1138.4499999999991 1590.8299999999997C1137.6699999999992 1589.6299999999997 1136.1099999999992 1589.0199999999998 1134.8999999999992 1589.4299999999996C1132.999999999999 1590.0699999999997 1132.1999999999991 1591.6099999999997 1132.749999999999 1593.5599999999997C1133.059999999999 1594.6399999999996 1133.869999999999 1595.3499999999997 1135.039999999999 1595.5799999999997C1136.4599999999991 1595.8499999999997 1137.589999999999 1595.3899999999996 1138.409999999999 1594.1899999999996C1138.679999999999 1593.7999999999995 1138.9799999999989 1593.6399999999996 1139.399999999999 1593.6499999999996C1140.819999999999 1593.6599999999996 1142.339999999999 1593.6599999999996 1143.849999999999 1593.6499999999996C1144.419999999999 1593.6499999999996 1144.699999999999 1593.8999999999996 1144.729999999999 1594.4799999999996C1144.819999999999 1596.0499999999995 1145.079999999999 1597.6399999999996 1145.519999999999 1599.2099999999996C1146.019999999999 1601.0299999999995 1146.6899999999991 1602.7399999999996 1147.499999999999 1604.3199999999995C1148.4099999999992 1606.0699999999995 1149.539999999999 1607.7499999999995 1150.869999999999 1609.3099999999995C1151.109999999999 1609.5899999999995 1151.359999999999 1610.0099999999995 1150.859999999999 1610.4999999999995C1149.869999999999 1611.4799999999996 1148.749999999999 1612.5899999999995 1147.659999999999 1613.6999999999996C1147.329999999999 1614.0399999999995 1146.969999999999 1614.1299999999997 1146.5299999999988 1613.9799999999996C1145.969999999999 1613.7999999999995 1145.3599999999988 1613.8599999999997 1144.6499999999987 1614.1699999999996C1143.2699999999986 1614.7599999999995 1142.2599999999986 1616.5399999999995 1142.9699999999987 1618.2299999999996C1143.4799999999987 1619.4599999999996 1144.6299999999987 1620.2499999999995 1145.8999999999987 1620.2499999999995C1145.9299999999987 1620.2499999999995 1145.9499999999987 1620.2499999999995 1145.9799999999987 1620.2499999999995C1146.9299999999987 1620.2199999999996 1147.7799999999986 1619.8099999999995 1148.3499999999985 1619.0899999999995C1148.9399999999985 1618.3699999999994 1149.1599999999985 1617.4099999999994 1148.9799999999987 1616.4599999999994C1148.8799999999987 1615.9799999999993 1148.9999999999986 1615.6099999999994 1149.3599999999988 1615.2499999999993C1150.4599999999987 1614.1799999999994 1151.5399999999988 1613.0699999999993 1152.4599999999987 1612.1299999999994C1152.6599999999987 1611.9299999999994 1152.8699999999988 1611.8299999999995 1153.0799999999986 1611.8299999999995ZM1170.47 1616.02C1170.47 1616.02 1170.46 1616.02 1170.45 1616.02C1157.5 1616.01 1146.97 1605.47 1146.97 1592.52C1146.98 1579.66 1157.42 1569.1 1170.23 1568.98C1176.63 1568.91 1182.64 1571.3700000000001 1187.15 1575.9C1191.67 1580.44 1194.1000000000001 1586.46 1194.01 1592.8600000000001C1193.83 1605.64 1183.27 1616.0200000000002 1170.47 1616.0200000000002ZM1170.45 1615.44C1170.46 1615.44 1170.47 1615.44 1170.47 1615.44C1182.95 1615.44 1193.25 1605.31 1193.42 1592.8500000000001C1193.51 1586.6100000000001 1191.14 1580.7400000000002 1186.74 1576.3200000000002C1182.39 1571.9600000000003 1176.6200000000001 1569.5600000000002 1170.47 1569.5600000000002C1170.39 1569.5600000000002 1170.32 1569.5600000000002 1170.24 1569.5600000000002C1157.74 1569.68 1147.57 1579.9800000000002 1147.55 1592.5200000000002C1147.56 1605.14 1157.83 1615.4300000000003 1170.45 1615.4400000000003ZM1159.23 1606.06C1158.01 1606.06 1157.4 1605.47 1157.4 1604.25C1157.39 1599.66 1157.39 1595.06 1157.39 1590.47C1157.39 1589.73 1157.39 1589.73 1156.65 1589.73C1156.0900000000001 1589.73 1155.5300000000002 1589.74 1154.98 1589.72C1154.32 1589.7 1153.8 1589.41 1153.56 1588.78C1153.33 1588.2 1153.46 1587.6399999999999 1153.9199999999998 1587.21C1155.1599999999999 1586.04 1156.3999999999999 1584.89 1157.6499999999999 1583.74C1159.2099999999998 1582.29 1160.79 1580.86 1162.36 1579.42C1163.36 1578.5 1164.35 1577.5700000000002 1165.3899999999999 1576.69C1165.6399999999999 1576.47 1166.05 1576.3300000000002 1166.3899999999999 1576.3300000000002C1169.11 1576.3000000000002 1171.84 1576.2900000000002 1174.56 1576.3300000000002C1174.94 1576.3300000000002 1175.3899999999999 1576.5100000000002 1175.6799999999998 1576.7600000000002C1177.0299999999997 1577.9400000000003 1178.34 1579.1700000000003 1179.6599999999999 1580.38C1181.04 1581.64 1182.4199999999998 1582.9 1183.79 1584.17C1184.9099999999999 1585.2 1186.02 1586.25 1187.1299999999999 1587.3000000000002C1187.62 1587.7600000000002 1187.6 1588.3500000000001 1187.3799999999999 1588.89C1187.1799999999998 1589.41 1186.6899999999998 1589.68 1186.1299999999999 1589.72C1185.4999999999998 1589.75 1184.86 1589.72 1184.2299999999998 1589.73C1183.62 1589.73 1183.5699999999997 1589.77 1183.5699999999997 1590.39C1183.5699999999997 1594.8500000000001 1183.5699999999997 1599.3200000000002 1183.5699999999997 1603.7900000000002C1183.5699999999997 1603.9900000000002 1183.5599999999997 1604.2000000000003 1183.5699999999997 1604.4C1183.5899999999997 1605.5400000000002 1182.8799999999997 1605.96 1181.9699999999998 1606.0600000000002C1181.7799999999997 1606.0800000000002 1181.6 1606.0700000000002 1181.4099999999999 1606.0700000000002C1177.7399999999998 1606.0700000000002 1174.08 1606.0700000000002 1170.4099999999999 1606.0700000000002C1170.4099999999999 1606.0600000000002 1170.4099999999999 1606.0600000000002 1170.4099999999999 1606.0600000000002C1166.6799999999998 1606.0600000000002 1162.9599999999998 1606.0600000000002 1159.2299999999998 1606.0600000000002ZM1170.5 1589.73C1167.32 1589.73 1164.13 1589.73 1160.94 1589.73C1160.3200000000002 1589.73 1160.28 1589.77 1160.28 1590.39C1160.28 1594.43 1160.28 1598.46 1160.28 1602.5C1160.28 1602.85 1160.36 1603.07 1160.76 1603.07C1161.79 1603.07 1162.83 1603.09 1163.86 1603.09C1164.1999999999998 1603.09 1164.34 1602.98 1164.33 1602.59C1164.3 1600.81 1164.3 1599.03 1164.32 1597.25C1164.33 1596.21 1164.9099999999999 1595.66 1165.95 1595.64C1166.49 1595.64 1167.03 1595.67 1167.57 1595.67C1170.09 1595.67 1172.61 1595.64 1175.1299999999999 1595.67C1176.1499999999999 1595.68 1176.6499999999999 1596.25 1176.6499999999999 1597.26C1176.6399999999999 1599.04 1176.6499999999999 1600.82 1176.6399999999999 1602.6C1176.6399999999999 1602.9299999999998 1176.7399999999998 1603.07 1177.09 1603.07C1178.11 1603.06 1179.1299999999999 1603.06 1180.1499999999999 1603.08C1180.54 1603.08 1180.6599999999999 1602.9299999999998 1180.6499999999999 1602.55C1180.6399999999999 1598.49 1180.6499999999999 1594.4199999999998 1180.6499999999999 1590.35C1180.6499999999999 1589.74 1180.6299999999999 1589.73 1180.0199999999998 1589.73C1176.8499999999997 1589.73 1173.6799999999998 1589.73 1170.4999999999998 1589.73ZM1170.51 1586.82V1586.83C1174.22 1586.83 1177.93 1586.83 1181.64 1586.83C1181.76 1586.83 1181.88 1586.73 1181.99 1586.6799999999998C1181.94 1586.57 1181.92 1586.4199999999998 1181.83 1586.34C1181.37 1585.8999999999999 1180.8899999999999 1585.49 1180.4299999999998 1585.06C1178.4299999999998 1583.22 1176.4399999999998 1581.37 1174.4299999999998 1579.54C1174.2299999999998 1579.36 1173.9199999999998 1579.21 1173.6599999999999 1579.21C1171.54 1579.19 1169.4199999999998 1579.19 1167.3 1579.21C1167.08 1579.22 1166.81 1579.32 1166.6399999999999 1579.47C1165.61 1580.39 1164.6 1581.34 1163.57 1582.28C1162.1 1583.62 1160.6299999999999 1584.96 1159.1599999999999 1586.31C1159.08 1586.3899999999999 1159.06 1586.55 1159.0199999999998 1586.6699999999998C1159.1699999999998 1586.7199999999998 1159.3199999999997 1586.81 1159.4699999999998 1586.81C1163.1499999999999 1586.82 1166.8299999999997 1586.82 1170.5099999999998 1586.82ZM1170.5 1603.09C1170.5 1603.08 1170.5 1603.07 1170.5 1603.07C1171.41 1603.07 1172.32 1603.06 1173.23 1603.07C1173.6 1603.08 1173.76 1602.95 1173.75 1602.56C1173.73 1601.3999999999999 1173.74 1600.24 1173.75 1599.08C1173.76 1598.6999999999998 1173.61 1598.54 1173.24 1598.55C1171.4 1598.55 1169.56 1598.56 1167.72 1598.55C1167.3500000000001 1598.55 1167.23 1598.7 1167.23 1599.05C1167.24 1600.23 1167.24 1601.3999999999999 1167.22 1602.58C1167.22 1602.96 1167.39 1603.09 1167.76 1603.09C1168.67 1603.08 1169.58 1603.09 1170.5 1603.09ZM1181.7 1606.36C1181.65 1606.36 1181.6000000000001 1606.36 1181.55 1606.36H1167.06C1164.45 1606.36 1161.84 1606.36 1159.23 1606.36C1157.84 1606.36 1157.1100000000001 1605.6299999999999 1157.1 1604.25C1157.1 1601.1 1157.1 1597.94 1157.1 1594.79V1590.47C1157.1 1590.3 1157.1 1590.1200000000001 1157.09 1590.04C1157.01 1590.02 1156.82 1590.02 1156.6499999999999 1590.02C1156.4599999999998 1590.02 1156.28 1590.02 1156.09 1590.02C1155.72 1590.02 1155.34 1590.03 1154.97 1590.02C1154.16 1589.99 1153.56 1589.59 1153.29 1588.8899999999999C1153.02 1588.1999999999998 1153.18 1587.5099999999998 1153.72 1586.9899999999998C1154.89 1585.8899999999999 1156.1100000000001 1584.7599999999998 1157.45 1583.5199999999998C1158.9 1582.1799999999998 1160.3600000000001 1580.8399999999997 1161.82 1579.5099999999998L1162.1599999999999 1579.1999999999998C1162.3899999999999 1578.9999999999998 1162.61 1578.7899999999997 1162.83 1578.59C1163.6 1577.8799999999999 1164.3899999999999 1577.1499999999999 1165.1999999999998 1576.47C1165.4999999999998 1576.21 1165.9699999999998 1576.04 1166.3899999999999 1576.03C1169.36 1576 1172.03 1576 1174.56 1576.03C1175 1576.04 1175.53 1576.24 1175.87 1576.54C1176.8899999999999 1577.43 1177.8999999999999 1578.36 1178.87 1579.26C1179.1999999999998 1579.56 1179.53 1579.86 1179.86 1580.16L1180.83 1581.0500000000002C1181.8799999999999 1582.0200000000002 1182.9399999999998 1582.9800000000002 1183.99 1583.9500000000003C1185.06 1584.9400000000003 1186.16 1585.9700000000003 1187.34 1587.0900000000004C1187.84 1587.5600000000004 1187.9499999999998 1588.2400000000005 1187.6499999999999 1589.0000000000005C1187.4199999999998 1589.5900000000004 1186.86 1589.9700000000005 1186.1499999999999 1590.0100000000004C1185.7099999999998 1590.0300000000004 1185.28 1590.0300000000004 1184.85 1590.0200000000004C1184.6499999999999 1590.0200000000004 1184.4399999999998 1590.0200000000004 1184.23 1590.0200000000004C1184.15 1590.0200000000004 1183.96 1590.0200000000004 1183.88 1590.0400000000004C1183.8600000000001 1590.1200000000003 1183.8600000000001 1590.3100000000004 1183.8600000000001 1590.3900000000003C1183.8600000000001 1593.5100000000002 1183.8600000000001 1596.6400000000003 1183.8600000000001 1599.7700000000004V1604.0300000000004C1183.8600000000001 1604.1500000000003 1183.8600000000001 1604.2700000000004 1183.8600000000001 1604.3900000000003C1183.8700000000001 1605.2000000000003 1183.5600000000002 1606.1900000000003 1182.0000000000002 1606.3500000000004C1181.9000000000003 1606.3600000000004 1181.8000000000002 1606.3600000000004 1181.7000000000003 1606.3600000000004ZM1181.56 1605.77C1181.69 1605.78 1181.82 1605.78 1181.94 1605.77C1182.8600000000001 1605.67 1183.29 1605.24 1183.27 1604.4C1183.27 1604.27 1183.27 1604.15 1183.27 1604.02L1183.28 1603.79L1183.27 1599.77C1183.27 1596.6399999999999 1183.27 1593.51 1183.28 1590.3899999999999C1183.28 1589.62 1183.45 1589.4399999999998 1184.23 1589.4299999999998C1184.44 1589.4299999999998 1184.65 1589.4299999999998 1184.8600000000001 1589.4399999999998C1185.2700000000002 1589.4399999999998 1185.7 1589.4499999999998 1186.1200000000001 1589.4199999999998C1186.6000000000001 1589.3999999999999 1186.96 1589.1599999999999 1187.1100000000001 1588.7799999999997C1187.3200000000002 1588.2499999999998 1187.2600000000002 1587.8199999999997 1186.93 1587.5099999999998C1185.76 1586.3999999999999 1184.66 1585.3699999999997 1183.5900000000001 1584.3799999999997C1182.5400000000002 1583.4099999999996 1181.4900000000002 1582.4499999999996 1180.43 1581.4799999999996L1179.46 1580.5899999999995C1179.13 1580.2899999999995 1178.8 1579.9899999999996 1178.48 1579.6899999999994C1177.5 1578.7899999999993 1176.5 1577.8699999999994 1175.49 1576.9899999999993C1175.24 1576.7699999999993 1174.86 1576.6199999999994 1174.55 1576.6199999999994C1172.03 1576.5899999999995 1169.36 1576.5899999999995 1166.3999999999999 1576.6199999999994C1166.12 1576.6199999999994 1165.78 1576.7399999999993 1165.58 1576.9199999999994C1164.78 1577.5899999999995 1163.99 1578.3199999999995 1163.23 1579.0199999999993C1163.01 1579.2199999999993 1162.78 1579.4299999999994 1162.56 1579.6299999999992L1162.22 1579.9399999999991C1160.76 1581.279999999999 1159.3 1582.6099999999992 1157.8500000000001 1583.9499999999991C1156.5100000000002 1585.1899999999991 1155.2900000000002 1586.319999999999 1154.1200000000001 1587.4199999999992C1153.7500000000002 1587.769999999999 1153.65 1588.2099999999991 1153.8300000000002 1588.6799999999992C1154.0200000000002 1589.1599999999992 1154.41 1589.4099999999992 1154.9900000000002 1589.4299999999992C1155.3500000000001 1589.4399999999991 1155.7200000000003 1589.4399999999991 1156.0900000000001 1589.4399999999991C1156.2700000000002 1589.4299999999992 1156.46 1589.4299999999992 1156.65 1589.4299999999992C1157.5500000000002 1589.4399999999991 1157.69 1589.5699999999993 1157.69 1590.4699999999991V1594.789999999999C1157.69 1597.9399999999991 1157.69 1601.099999999999 1157.69 1604.249999999999C1157.69 1605.299999999999 1158.17 1605.769999999999 1159.23 1605.769999999999C1161.84 1605.769999999999 1164.45 1605.769999999999 1167.06 1605.769999999999ZM1163.87 1603.38C1163.87 1603.38 1163.87 1603.38 1163.86 1603.38C1163.4599999999998 1603.38 1163.06 1603.38 1162.6599999999999 1603.38C1162.0199999999998 1603.3700000000001 1161.3899999999999 1603.3700000000001 1160.7499999999998 1603.3700000000001C1160.4699999999998 1603.3700000000001 1160.2599999999998 1603.2700000000002 1160.1299999999999 1603.0900000000001C1159.9999999999998 1602.91 1159.9799999999998 1602.68 1159.9799999999998 1602.5000000000002C1159.9899999999998 1599.6000000000001 1159.9899999999998 1596.7100000000003 1159.9899999999998 1593.8100000000002V1590.39C1159.9899999999998 1589.6100000000001 1160.1699999999998 1589.44 1160.9399999999998 1589.43C1163.2399999999998 1589.43 1165.5499999999997 1589.43 1167.85 1589.43H1170.5C1173.68 1589.43 1176.85 1589.43 1180.02 1589.43C1180.79 1589.43 1180.94 1589.5800000000002 1180.94 1590.3500000000001V1593.6200000000001C1180.94 1596.6000000000001 1180.94 1599.5700000000002 1180.95 1602.5500000000002C1180.95 1602.7500000000002 1180.93 1603.0000000000002 1180.74 1603.1800000000003C1180.57 1603.3600000000004 1180.32 1603.3700000000003 1180.15 1603.3700000000003C1179.22 1603.3500000000004 1178.22 1603.3500000000004 1177.0900000000001 1603.3600000000004C1176.8500000000001 1603.3700000000003 1176.66 1603.3100000000004 1176.5300000000002 1603.1800000000003C1176.3600000000001 1603.0100000000002 1176.3400000000001 1602.7600000000002 1176.3400000000001 1602.6000000000004C1176.3500000000001 1601.4000000000003 1176.3500000000001 1600.2000000000003 1176.3500000000001 1599.0000000000005V1597.2600000000004C1176.3600000000001 1596.3900000000006 1175.96 1595.9700000000005 1175.13 1595.9600000000005C1173.43 1595.9500000000005 1171.7 1595.9500000000005 1170.0300000000002 1595.9500000000005C1169.2100000000003 1595.9600000000005 1168.39 1595.9600000000005 1167.5700000000002 1595.9600000000005C1167.3300000000002 1595.9600000000005 1167.0900000000001 1595.9500000000005 1166.8500000000001 1595.9500000000005C1166.5500000000002 1595.9400000000005 1166.2500000000002 1595.9300000000005 1165.95 1595.9400000000005C1165.06 1595.9500000000005 1164.63 1596.3800000000006 1164.6200000000001 1597.2600000000004C1164.6000000000001 1599.2500000000005 1164.6000000000001 1600.9900000000005 1164.63 1602.5800000000004C1164.63 1602.7600000000004 1164.6100000000001 1603.0100000000004 1164.43 1603.1900000000003C1164.27 1603.3600000000004 1164.04 1603.3800000000003 1163.8700000000001 1603.3800000000003ZM1160.6 1590.04C1160.58 1590.12 1160.58 1590.31 1160.58 1590.3899999999999V1593.81C1160.58 1596.71 1160.58 1599.6 1160.57 1602.5C1160.57 1602.68 1160.59 1602.73 1160.61 1602.75C1160.62 1602.76 1160.6699999999998 1602.78 1160.76 1602.78C1161.39 1602.78 1162.03 1602.78 1162.66 1602.79C1163.0600000000002 1602.79 1163.47 1602.8 1163.8700000000001 1602.8C1163.98 1602.8 1164.0200000000002 1602.78 1164.0200000000002 1602.78C1164.0200000000002 1602.78 1164.0400000000002 1602.74 1164.0400000000002 1602.59C1164.0100000000002 1601 1164.0100000000002 1599.25 1164.0300000000002 1597.25C1164.0400000000002 1596.06 1164.7400000000002 1595.37 1165.9400000000003 1595.35C1166.2500000000002 1595.35 1166.5600000000002 1595.35 1166.8700000000003 1595.36C1167.1400000000003 1595.37 1167.4000000000003 1595.37 1167.6700000000003 1595.37C1168.4600000000003 1595.37 1169.2400000000002 1595.37 1170.0300000000002 1595.37C1171.7000000000003 1595.36 1173.4300000000003 1595.36 1175.14 1595.3799999999999C1176.2900000000002 1595.3899999999999 1176.94 1596.07 1176.94 1597.26V1599C1176.94 1600.2 1176.94 1601.4 1176.93 1602.6C1176.93 1602.7199999999998 1176.95 1602.76 1176.95 1602.76C1176.95 1602.76 1176.98 1602.78 1177.0800000000002 1602.78C1177.0800000000002 1602.78 1177.0800000000002 1602.78 1177.0900000000001 1602.78C1178.2200000000003 1602.76 1179.2300000000002 1602.77 1180.16 1602.78C1180.3100000000002 1602.79 1180.3300000000002 1602.76 1180.3300000000002 1602.76C1180.3300000000002 1602.76 1180.3600000000001 1602.72 1180.3600000000001 1602.56C1180.3500000000001 1599.58 1180.3500000000001 1596.6 1180.3500000000001 1593.62V1590.35C1180.3500000000001 1590.25 1180.3500000000001 1590.11 1180.3400000000001 1590.03C1180.2700000000002 1590.02 1180.1200000000001 1590.02 1180.0200000000002 1590.02C1176.8500000000001 1590.02 1173.6800000000003 1590.02 1170.5000000000002 1590.02H1167.8500000000001C1165.5500000000002 1590.02 1163.2400000000002 1590.02 1160.94 1590.02C1160.8600000000001 1590.02 1160.67 1590.02 1160.6000000000001 1590.04ZM1167.74 1603.38C1167.47 1603.38 1167.27 1603.3200000000002 1167.14 1603.18C1167 1603.04 1166.93 1602.8400000000001 1166.93 1602.5700000000002C1166.94 1601.4700000000003 1166.94 1600.3100000000002 1166.93 1599.0500000000002C1166.93 1598.7900000000002 1167 1598.5900000000001 1167.13 1598.4500000000003C1167.2700000000002 1598.3200000000002 1167.46 1598.2500000000002 1167.72 1598.2500000000002C1169.68 1598.2600000000002 1171.6100000000001 1598.2600000000002 1173.24 1598.2500000000002C1173.51 1598.2500000000002 1173.7 1598.3200000000002 1173.84 1598.4600000000003C1173.98 1598.6000000000004 1174.05 1598.8100000000002 1174.05 1599.0800000000002C1174.03 1600.3500000000001 1174.03 1601.4900000000002 1174.05 1602.5500000000002C1174.05 1602.8200000000002 1173.99 1603.0200000000002 1173.85 1603.16C1173.6599999999999 1603.3500000000001 1173.3999999999999 1603.3600000000001 1173.23 1603.3700000000001C1172.58 1603.3600000000001 1171.93 1603.3600000000001 1171.28 1603.3600000000001H1170.79L1170.5 1603.38H1169.71C1169.06 1603.38 1168.41 1603.3700000000001 1167.76 1603.38C1167.76 1603.38 1167.75 1603.38 1167.74 1603.38ZM1167.71 1598.84C1167.58 1598.84 1167.55 1598.87 1167.55 1598.87C1167.55 1598.87 1167.52 1598.8999999999999 1167.52 1599.05C1167.53 1600.31 1167.53 1601.47 1167.52 1602.58C1167.52 1602.6999999999998 1167.54 1602.75 1167.55 1602.76C1167.56 1602.78 1167.62 1602.8 1167.76 1602.8C1168.41 1602.79 1169.06 1602.79 1169.71 1602.79H1170.2V1602.78L1171.28 1602.77C1171.93 1602.77 1172.58 1602.77 1173.23 1602.78C1173.39 1602.78 1173.43 1602.75 1173.43 1602.75C1173.44 1602.74 1173.46 1602.69 1173.46 1602.56C1173.44 1601.49 1173.44 1600.35 1173.46 1599.07C1173.46 1598.9399999999998 1173.44 1598.8899999999999 1173.43 1598.87C1173.41 1598.86 1173.3500000000001 1598.85 1173.24 1598.84C1171.61 1598.85 1169.68 1598.85 1167.72 1598.84ZM1173.51 1587.13C1173.01 1587.13 1172.51 1587.13 1172.01 1587.13H1170.21V1587.1100000000001H1168.8500000000001C1165.72 1587.1100000000001 1162.5900000000001 1587.1100000000001 1159.47 1587.1000000000001C1159.31 1587.1000000000001 1159.17 1587.0400000000002 1159.05 1586.9900000000002C1159.01 1586.9800000000002 1158.97 1586.9600000000003 1158.93 1586.9500000000003L1158.63 1586.8500000000004L1158.74 1586.5600000000004C1158.76 1586.5300000000004 1158.76 1586.5000000000005 1158.77 1586.4700000000005C1158.81 1586.3500000000006 1158.85 1586.2100000000005 1158.97 1586.1000000000006C1159.93 1585.2100000000005 1160.9 1584.3200000000006 1161.8700000000001 1583.4400000000005L1163.3700000000001 1582.0600000000004C1163.71 1581.7600000000004 1164.0400000000002 1581.4500000000005 1164.3700000000001 1581.1500000000003C1165.0500000000002 1580.5200000000002 1165.7500000000002 1579.8700000000003 1166.45 1579.2500000000002C1166.67 1579.0500000000002 1167 1578.9200000000003 1167.3 1578.9200000000003C1169.68 1578.9000000000003 1171.76 1578.8900000000003 1173.6599999999999 1578.9200000000003C1173.9799999999998 1578.9200000000003 1174.35 1579.0800000000004 1174.62 1579.3200000000004C1176.1 1580.6600000000003 1177.59 1582.0400000000004 1179.03 1583.3700000000003L1180.6299999999999 1584.8400000000004C1180.81 1585.0100000000004 1180.9899999999998 1585.1700000000003 1181.1699999999998 1585.3300000000004C1181.4599999999998 1585.5900000000004 1181.7499999999998 1585.8600000000004 1182.0299999999997 1586.1200000000003C1182.1399999999996 1586.2300000000002 1182.1899999999998 1586.3600000000004 1182.2299999999998 1586.4700000000003C1182.2399999999998 1586.5000000000002 1182.2499999999998 1586.5300000000002 1182.2599999999998 1586.5600000000002L1182.3899999999999 1586.8400000000001L1182.11 1586.95C1182.08 1586.97 1182.05 1586.98 1182.02 1587C1181.92 1587.05 1181.8 1587.12 1181.6399999999999 1587.12C1178.9299999999998 1587.1299999999999 1176.2199999999998 1587.1299999999999 1173.5099999999998 1587.1299999999999ZM1170.8 1586.54H1172.01C1175.21 1586.54 1178.41 1586.54 1181.61 1586.53C1181.34 1586.28 1181.06 1586.02 1180.78 1585.77C1180.59 1585.6 1180.41 1585.44 1180.23 1585.27L1178.63 1583.8C1177.19 1582.47 1175.7 1581.1 1174.23 1579.76C1174.07 1579.61 1173.83 1579.5 1173.65 1579.5C1171.76 1579.48 1169.68 1579.48 1167.3100000000002 1579.51C1167.15 1579.51 1166.9500000000003 1579.59 1166.8400000000001 1579.69C1166.14 1580.31 1165.44 1580.95 1164.7700000000002 1581.5800000000002C1164.4400000000003 1581.88 1164.1000000000001 1582.19 1163.7700000000002 1582.5000000000002L1162.2600000000002 1583.8700000000001C1161.3000000000002 1584.7500000000002 1160.3500000000001 1585.6200000000001 1159.3900000000003 1586.5000000000002C1159.4200000000003 1586.5100000000002 1159.4500000000003 1586.5200000000002 1159.4700000000003 1586.5200000000002C1162.6000000000004 1586.5200000000002 1165.7200000000003 1586.5200000000002 1168.8500000000004 1586.5200000000002H1170.8000000000004Z " fill="#333333" fill-opacity="1" transform="matrix(1,0,0,1,-1131,-1554)"></path></svg>