<svg id="SvgjsSvg1014" xmlns="http://www.w3.org/2000/svg" version="1.1" xmlns:xlink="http://www.w3.org/1999/xlink" xmlns:svgjs="http://svgjs.com/svgjs" width="62" height="56" viewBox="0 0 62 56"><title>Shape 55</title><desc>Created with Avocode.</desc><defs id="SvgjsDefs1015"></defs><path id="SvgjsPath1016" d="M1152.54 859.807C1148.85 860.1700000000001 1148.85 860.1700000000001 1148.85 856.931C1148.85 849.984 1148.84 843.038 1148.85 836.091C1148.85 833.66 1149.1499999999999 833.33 1151.6 833.318C1163.87 833.254 1176.1499999999999 833.208 1188.4199999999998 833.173C1190.6499999999999 833.167 1191.1299999999999 833.659 1191.1299999999999 835.881C1191.1399999999999 843.347 1191.1 850.812 1191.1699999999998 858.2769999999999C1191.1799999999998 859.685 1190.6799999999998 859.9939999999999 1189.3999999999999 859.997C1188.1 859.9989999999999 1187.3999999999999 859.764 1187.4899999999998 858.2339999999999C1187.6099999999997 856.3029999999999 1187.4799999999998 854.3589999999999 1187.5399999999997 852.4229999999999C1187.5699999999997 851.3039999999999 1187.1499999999996 850.9519999999999 1186.0599999999997 850.9549999999999C1175.3599999999997 850.9859999999999 1164.6599999999996 850.9889999999999 1153.9599999999998 850.958C1152.8099999999997 850.954 1152.4999999999998 851.408 1152.5199999999998 852.476C1152.5699999999997 854.911 1152.5399999999997 857.348 1152.5399999999997 859.807ZM1187.33 837.031C1186.9199999999998 836.986 1186.59 836.9169999999999 1186.25 836.9169999999999C1175.5 836.911 1164.75 836.9359999999999 1154 836.882C1152.54 836.875 1152.53 837.635 1152.52 838.6949999999999C1152.51 839.813 1152.67 840.496 1154.07 840.487C1164.36 840.4209999999999 1174.6499999999999 840.423 1184.95 840.406C1187.68 840.401 1187.69 840.404 1187.49 837.6859999999999C1187.48 837.5219999999999 1187.41 837.3609999999999 1187.33 837.031ZM1187.39 844.214C1186.8200000000002 844.176 1186.3700000000001 844.1220000000001 1185.93 844.1210000000001C1175.42 844.089 1164.92 844.099 1154.41 843.9950000000001C1152.8600000000001 843.9800000000001 1152.44 844.6250000000001 1152.39 845.9480000000001C1152.3200000000002 847.5720000000001 1153.51 847.2150000000001 1154.4 847.2170000000001C1164.8600000000001 847.2370000000001 1175.3200000000002 847.238 1185.7800000000002 847.2390000000001C1186.2700000000002 847.2390000000001 1186.7700000000002 847.1870000000001 1187.39 847.1530000000001C1187.39 846.1820000000001 1187.39 845.3010000000002 1187.39 844.2140000000002ZM1199.97 840.811C1199.97 846.6220000000001 1199.92 852.4340000000001 1200.01 858.244C1200.03 859.788 1199.39 859.985 1198.1 859.991C1196.78 859.9979999999999 1196.1999999999998 859.732 1196.2099999999998 858.2189999999999C1196.2699999999998 847.338 1196.2099999999998 836.4559999999999 1196.2699999999998 825.5759999999999C1196.2799999999997 824.1399999999999 1195.8599999999997 823.3459999999999 1194.5799999999997 822.6429999999999C1186.7899999999997 818.3549999999999 1179.0399999999997 813.9889999999999 1171.2999999999997 809.593C1170.2799999999997 809.012 1169.5199999999998 809.04 1168.5199999999998 809.62C1163.8099999999997 812.343 1159.0499999999997 814.9830000000001 1154.3099999999997 817.653C1151.2199999999998 819.399 1148.1299999999997 821.178 1145.0099999999998 822.873C1144.0899999999997 823.3720000000001 1143.7299999999998 823.9720000000001 1143.7399999999998 825.023C1143.7899999999997 829.791 1143.7599999999998 834.561 1143.7599999999998 839.33C1143.7599999999998 845.6310000000001 1143.7199999999998 851.932 1143.7899999999997 858.2320000000001C1143.8099999999997 859.7560000000001 1143.1999999999998 859.994 1141.8899999999996 859.9960000000001C1140.5799999999997 859.9970000000001 1139.9599999999996 859.758 1139.9999999999995 858.2330000000001C1140.1299999999997 852.83 1140.1699999999996 847.4230000000001 1140.1699999999996 842.018C1140.1699999999996 836.219 1140.1499999999996 830.418 1139.9899999999996 824.6220000000001C1139.9399999999996 822.4910000000001 1140.3899999999996 821.234 1142.5299999999995 820.119C1148.6399999999994 816.937 1154.5199999999995 813.3190000000001 1160.4999999999995 809.89C1163.1099999999994 808.396 1165.7599999999995 806.979 1168.3399999999995 805.458C1169.4499999999994 804.808 1170.4099999999994 804.831 1171.5099999999995 805.457C1180.4999999999995 810.524 1189.4899999999996 815.568 1198.4999999999995 820.582C1199.6699999999996 821.228 1199.9999999999995 822.125 1199.9899999999996 823.379C1199.9599999999996 829.19 1199.9699999999996 835.001 1199.9699999999996 840.811ZM1186.5 825.318C1186.71 825.649 1186.76 825.694 1186.77 825.745C1187.18 829.018 1187.18 829.017 1183.99 829.009C1182.8 829.006 1181.61 828.958 1180.43 829.014C1179.0700000000002 829.077 1179.16 828.154 1179.24 827.301C1179.31 826.5110000000001 1178.76 825.315 1180.32 825.317C1182.3999999999999 825.321 1184.49 825.318 1186.5 825.318ZM1166.48 828.887C1166.38 828.6669999999999 1166.34 828.6179999999999 1166.33 828.564C1165.9099999999999 825.3109999999999 1165.9099999999999 825.31 1169.1 825.308C1169.7199999999998 825.308 1170.34 825.308 1170.9599999999998 825.308C1174.0799999999997 825.309 1174.2099999999998 825.489 1173.5399999999997 828.887C1171.2199999999998 828.887 1168.8799999999997 828.887 1166.4799999999998 828.887ZM1154.59 828.74C1153.6499999999999 829.122 1153.03 828.8820000000001 1153.1399999999999 827.751C1153.2299999999998 826.778 1152.9199999999998 825.568 1154.4799999999998 825.4979999999999C1156.11 825.425 1157.7399999999998 825.371 1159.37 825.3079999999999C1160.1599999999999 825.2769999999999 1160.8799999999999 825.3419999999999 1160.79 826.4389999999999C1160.71 827.4149999999998 1160.99 828.6579999999999 1159.47 828.7239999999998C1157.8500000000001 828.7949999999998 1156.22 828.7399999999998 1154.59 828.7399999999998Z " fill="#b0272c" fill-opacity="1" transform="matrix(1,0,0,1,-1139,-804)"></path></svg>