<svg id="SvgjsSvg1026" xmlns="http://www.w3.org/2000/svg" version="1.1" xmlns:xlink="http://www.w3.org/1999/xlink" xmlns:svgjs="http://svgjs.com/svgjs" width="76" height="63" viewBox="0 0 76 63"><title>Shape 73</title><desc>Created with Avocode.</desc><defs id="SvgjsDefs1027"></defs><path id="SvgjsPath1028" d="M1207.7 1186.28C1207.1100000000001 1184.53 1206.52 1182.77 1205.93 1181.02C1204.14 1175.71 1202.29 1170.21 1200.5 1164.8C1200.05 1163.43 1199.21 1162.81 1197.79 1162.81C1197.77 1162.81 1197.74 1162.81 1197.71 1162.81C1195.27 1162.85 1192.79 1162.84 1190.38 1162.83C1189.44 1162.83 1188.49 1162.83 1187.5500000000002 1162.83H1187.0400000000002C1185.5600000000002 1152.9499999999998 1177.7300000000002 1147.81 1170.5300000000002 1147.81C1170.5000000000002 1147.81 1170.4700000000003 1147.81 1170.4400000000003 1147.81C1166.7500000000002 1147.83 1162.9500000000003 1149.24 1160.0200000000002 1151.6699999999998C1156.7500000000002 1154.3999999999999 1154.6700000000003 1158.2399999999998 1153.9700000000003 1162.83H1153.4600000000003C1152.5100000000002 1162.83 1151.5700000000002 1162.83 1150.6200000000003 1162.84C1148.2600000000004 1162.85 1145.8200000000004 1162.86 1143.4300000000003 1162.8C1141.8600000000004 1162.77 1140.9700000000003 1163.3999999999999 1140.4700000000003 1164.9099999999999C1138.7300000000002 1170.1899999999998 1136.9300000000003 1175.54 1135.1800000000003 1180.7099999999998C1134.5500000000002 1182.5599999999997 1133.9300000000003 1184.4199999999998 1133.3000000000002 1186.2699999999998C1133.0300000000002 1187.0799999999997 1132.8100000000002 1187.9199999999998 1133.2800000000002 1188.5999999999997C1133.7500000000002 1189.2699999999998 1134.63 1189.3299999999997 1135.4200000000003 1189.3299999999997C1139.0700000000004 1189.3299999999997 1142.7200000000003 1189.3299999999997 1146.3800000000003 1189.3299999999997H1154.6100000000004C1158.5300000000004 1189.3399999999997 1162.5700000000004 1189.3399999999997 1166.5600000000004 1189.3199999999997C1166.7200000000005 1189.3199999999997 1166.8100000000004 1189.3199999999997 1166.8700000000003 1189.3299999999997C1166.8700000000003 1189.3799999999997 1166.8800000000003 1189.4499999999996 1166.8700000000003 1189.5399999999997C1166.8100000000004 1190.7899999999997 1166.8100000000004 1192.0999999999997 1166.8700000000003 1193.4499999999998C1166.8700000000003 1193.5199999999998 1166.8700000000003 1193.58 1166.8700000000003 1193.62C1166.8200000000004 1193.62 1166.7500000000005 1193.62 1166.6500000000003 1193.62C1165.0000000000002 1193.58 1163.2400000000002 1193.55 1161.5000000000002 1193.6399999999999C1160.8600000000001 1193.6799999999998 1159.5900000000001 1194.2299999999998 1159.4500000000003 1195.1699999999998C1159.3500000000004 1195.8 1159.5600000000002 1196.2099999999998 1159.7500000000002 1196.4399999999998C1160.2200000000003 1196.9999999999998 1160.9500000000003 1197.0099999999998 1161.4400000000003 1196.9999999999998H1161.5100000000002C1163.3000000000002 1196.9999999999998 1165.1000000000001 1196.9999999999998 1166.8900000000003 1196.9999999999998C1171.0300000000004 1196.9999999999998 1175.1800000000003 1196.9999999999998 1179.3200000000004 1196.9999999999998H1179.4000000000003C1179.8800000000003 1196.9899999999998 1180.6100000000004 1196.9999999999998 1181.0700000000004 1196.4399999999998C1181.2700000000004 1196.2099999999998 1181.4700000000005 1195.7899999999997 1181.3600000000004 1195.1499999999999C1181.2000000000003 1194.2299999999998 1179.9500000000003 1193.6799999999998 1179.3200000000004 1193.6499999999999C1177.7900000000004 1193.56 1176.1400000000003 1193.56 1174.2700000000004 1193.6299999999999C1174.1600000000005 1193.6299999999999 1174.0800000000004 1193.6299999999999 1174.0300000000004 1193.62C1174.0300000000004 1193.57 1174.0300000000004 1193.4899999999998 1174.0300000000004 1193.37C1174.0700000000004 1192.6 1174.0600000000004 1191.84 1174.0500000000004 1191.1C1174.0500000000004 1190.77 1174.0500000000004 1190.4399999999998 1174.0500000000004 1190.11C1174.0500000000004 1189.84 1174.0500000000004 1189.54 1174.0600000000004 1189.34C1174.2500000000005 1189.33 1174.5400000000004 1189.33 1174.8100000000004 1189.33H1184.4200000000003C1191.4700000000003 1189.33 1198.5200000000002 1189.33 1205.5700000000004 1189.33C1206.4100000000003 1189.33 1207.2600000000004 1189.27 1207.7300000000005 1188.6C1208.2000000000005 1187.9299999999998 1207.9700000000005 1187.09 1207.7000000000005 1186.28ZM1162.77 1153.88C1167.1399999999999 1150.71 1171.75 1150.3500000000001 1176.48 1152.8000000000002C1180.43 1154.8500000000001 1182.73 1158.1100000000001 1183.49 1162.7700000000002H1157.53C1158.03 1159.0300000000002 1159.8 1156.0400000000002 1162.77 1153.88ZM1196.9 1166.29C1197.41 1166.28 1197.42 1166.32 1197.5300000000002 1166.68C1198.0800000000002 1168.41 1198.6600000000003 1170.1200000000001 1199.2800000000002 1171.93C1199.39 1172.27 1199.5100000000002 1172.6100000000001 1199.6200000000001 1172.95C1198.93 1172.95 1198.24 1172.95 1197.5600000000002 1172.96C1194.8700000000001 1172.97 1192.3300000000002 1172.98 1189.7800000000002 1172.91C1188.88 1172.89 1187.4400000000003 1171.41 1187.2500000000002 1170.3300000000002C1187.0300000000002 1168.9900000000002 1186.8100000000002 1167.65 1186.5900000000001 1166.3200000000002C1186.68 1166.3100000000002 1186.7600000000002 1166.3100000000002 1186.8400000000001 1166.3100000000002C1187.96 1166.3100000000002 1189.0800000000002 1166.3100000000002 1190.19 1166.3100000000002C1192.39 1166.3100000000002 1194.66 1166.3100000000002 1196.9 1166.2900000000002ZM1188.96 1177.22C1189.3600000000001 1176.72 1189.8400000000001 1176.46 1190.1000000000001 1176.46C1193.46 1176.42 1196.92 1176.42 1200.68 1176.47C1200.72 1176.49 1200.77 1176.52 1200.8 1176.55C1201.82 1179.48 1202.81 1182.47 1203.77 1185.36L1203.94 1185.86C1203.9 1185.86 1203.8600000000001 1185.86 1203.81 1185.86C1202.48 1185.86 1201.1399999999999 1185.86 1199.81 1185.86C1196.71 1185.85 1193.51 1185.85 1190.36 1185.8799999999999C1190.34 1185.8799999999999 1190.33 1185.8799999999999 1190.32 1185.8799999999999C1189.96 1185.8799999999999 1189.87 1185.82 1189.87 1185.82C1189.87 1185.82 1189.8 1185.74 1189.75 1185.3999999999999C1189.51 1183.7499999999998 1189.22 1182.08 1188.94 1180.4699999999998C1188.8 1179.6699999999998 1188.66 1178.8799999999999 1188.53 1178.0799999999997C1188.52 1177.9999999999998 1188.59 1177.6499999999996 1188.96 1177.2199999999998ZM1170.25 1189.33C1170.26 1189.33 1170.28 1189.33 1170.29 1189.33C1170.35 1189.33 1170.4099999999999 1189.34 1170.47 1189.34L1170.6000000000001 1189.33C1170.6200000000001 1189.33 1170.65 1189.33 1170.68 1189.33C1170.68 1189.75 1170.69 1190.1799999999998 1170.7 1190.6C1170.72 1191.6499999999999 1170.74 1192.6499999999999 1170.66 1193.6399999999999C1170.65 1193.6499999999999 1170.65 1193.6499999999999 1170.65 1193.6599999999999C1170.6000000000001 1193.6499999999999 1170.5400000000002 1193.6399999999999 1170.49 1193.6399999999999C1170.41 1193.6299999999999 1170.34 1193.62 1170.25 1193.61V1192.86C1170.26 1191.6299999999999 1170.26 1190.4799999999998 1170.25 1189.33ZM1170.67 1174.73C1170.6200000000001 1174.77 1170.5700000000002 1174.8 1170.51 1174.84L1170.35 1174.72C1170.4099999999999 1174.67 1170.4599999999998 1174.63 1170.51 1174.6100000000001C1170.55 1174.63 1170.61 1174.68 1170.67 1174.73ZM1172.18 1166.56C1172.18 1166.4299999999998 1172.18 1166.35 1172.19 1166.29C1172.24 1166.29 1172.31 1166.28 1172.42 1166.29C1173.69 1166.33 1174.98 1166.32 1176.22 1166.31C1176.74 1166.31 1177.25 1166.3 1177.77 1166.3L1179.05 1166.31C1180.34 1166.31 1181.6699999999998 1166.32 1182.99 1166.3C1183.05 1166.3 1183.09 1166.3 1183.1200000000001 1166.3C1183.13 1166.33 1183.13 1166.36 1183.14 1166.3999999999999C1183.2900000000002 1167.36 1183.46 1168.32 1183.63 1169.2499999999998C1183.7600000000002 1169.9999999999998 1183.89 1170.7499999999998 1184.0100000000002 1171.4999999999998C1184.0200000000002 1171.5799999999997 1183.9000000000003 1171.8999999999999 1183.5500000000002 1172.2699999999998C1183.13 1172.7099999999998 1182.66 1172.9499999999998 1182.4 1172.9499999999998C1179.2900000000002 1172.9899999999998 1176.72 1172.9899999999998 1174.3300000000002 1172.9499999999998C1173.3700000000001 1172.9299999999998 1172.2 1171.6699999999998 1172.2 1170.6599999999999C1172.2 1170.2299999999998 1172.2 1169.8 1172.2 1169.37C1172.21 1168.4499999999998 1172.22 1167.5 1172.18 1166.56ZM1168.8 1169.26C1168.8 1169.7 1168.81 1170.15 1168.81 1170.59C1168.8 1171.6699999999998 1167.6499999999999 1172.9299999999998 1166.6399999999999 1172.9499999999998C1164.12 1172.9899999999998 1161.52 1172.9999999999998 1158.6799999999998 1172.9499999999998C1158.2499999999998 1172.9499999999998 1157.83 1172.7199999999998 1157.5199999999998 1172.33C1157.1699999999998 1171.8999999999999 1157.0199999999998 1171.36 1157.1099999999997 1170.8799999999999L1157.1199999999997 1170.79C1157.3799999999997 1169.3799999999999 1157.6499999999996 1167.92 1157.8499999999997 1166.47C1157.8599999999997 1166.39 1157.8799999999997 1166.34 1157.8899999999996 1166.3C1157.9199999999996 1166.3 1157.9799999999996 1166.29 1158.0599999999997 1166.3C1159.3399999999997 1166.32 1160.6299999999997 1166.32 1161.8799999999997 1166.31C1162.3899999999996 1166.31 1162.8999999999996 1166.31 1163.3999999999996 1166.31C1163.9399999999996 1166.31 1164.4699999999996 1166.31 1165.0099999999995 1166.31C1166.2299999999996 1166.31 1167.4899999999996 1166.32 1168.7399999999996 1166.29C1168.7699999999995 1166.29 1168.7899999999995 1166.29 1168.8199999999995 1166.29C1168.8199999999995 1166.32 1168.8199999999995 1166.34 1168.8199999999995 1166.37C1168.7899999999995 1167.34 1168.7999999999995 1168.32 1168.7999999999995 1169.26ZM1154.91 1174.6C1154.74 1174.78 1154.64 1174.85 1154.5800000000002 1174.8899999999999C1154.5800000000002 1174.8799999999999 1154.5700000000002 1174.8799999999999 1154.5600000000002 1174.87C1154.7000000000003 1174.76 1154.8200000000002 1174.6599999999999 1154.91 1174.6ZM1154.31 1167.31C1154.11 1168.8 1153.9199999999998 1170.2 1153.4199999999998 1171.44C1153.1799999999998 1172.03 1151.8899999999999 1172.8 1151.05 1172.8600000000001C1148.55 1173.0400000000002 1145.97 1173.0000000000002 1143.48 1172.96C1142.79 1172.94 1142.1 1172.93 1141.4 1172.93L1141.44 1172.8200000000002C1141.72 1171.94 1142.02 1171.0400000000002 1142.31 1170.15C1142.4099999999999 1169.8700000000001 1142.5 1169.5800000000002 1142.6 1169.2900000000002C1142.8999999999999 1168.3600000000001 1143.1799999999998 1167.4800000000002 1143.55 1166.64C1143.59 1166.5500000000002 1143.77 1166.39 1143.87 1166.3400000000001C1146.87 1166.2900000000002 1149.9199999999998 1166.3000000000002 1152.87 1166.3100000000002H1154.4499999999998C1154.3999999999999 1166.65 1154.36 1166.9800000000002 1154.3099999999997 1167.3100000000002ZM1137.04 1185.84L1137.22 1185.31C1137.64 1184.06 1138.05 1182.83 1138.47 1181.6C1138.64 1181.1 1138.81 1180.61 1138.98 1180.11C1139.3600000000001 1178.99 1139.76 1177.83 1140.1200000000001 1176.6799999999998C1140.17 1176.4999999999998 1140.22 1176.4599999999998 1140.22 1176.4599999999998C1140.22 1176.4499999999998 1140.3 1176.4299999999998 1140.49 1176.4199999999998C1142.23 1176.4399999999998 1143.97 1176.4399999999998 1145.71 1176.4399999999998C1147.3600000000001 1176.4299999999998 1149.02 1176.4299999999998 1150.67 1176.4399999999998C1151.14 1176.4499999999998 1151.6100000000001 1176.6899999999998 1151.95 1177.11C1152.3 1177.54 1152.46 1178.08 1152.38 1178.56C1152.2600000000002 1179.24 1152.15 1179.9299999999998 1152.0300000000002 1180.62C1151.7600000000002 1182.25 1151.4800000000002 1183.9399999999998 1151.1600000000003 1185.55C1151.1400000000003 1185.62 1151.0400000000004 1185.74 1150.9700000000003 1185.81C1146.7200000000003 1185.86 1142.3900000000003 1185.85 1138.2100000000003 1185.84ZM1154.82 1184.7C1155.11 1183.16 1155.4099999999999 1181.57 1155.54 1179.97C1155.6599999999999 1178.45 1156.3 1177.51 1157.67 1176.84C1158 1176.6799999999998 1158.48 1176.47 1158.8700000000001 1176.4599999999998C1161.43 1176.4099999999999 1164.0400000000002 1176.4199999999998 1166.3400000000001 1176.4399999999998C1167.5900000000001 1176.4499999999998 1168.8100000000002 1177.6699999999998 1168.8100000000002 1178.9099999999999V1181.7499999999998C1168.8000000000002 1183.0599999999997 1168.8000000000002 1184.3799999999999 1168.8100000000002 1185.6999999999998C1168.8100000000002 1185.7499999999998 1168.8100000000002 1185.7999999999997 1168.8100000000002 1185.86C1166.0700000000002 1185.85 1163.3400000000001 1185.84 1160.6000000000001 1185.83C1158.6000000000001 1185.83 1156.6000000000001 1185.82 1154.6100000000001 1185.82C1154.67 1185.4399999999998 1154.7500000000002 1185.07 1154.8200000000002 1184.7ZM1172.19 1185.86C1172.18 1185.81 1172.18 1185.7299999999998 1172.18 1185.61C1172.22 1184.04 1172.21 1182.4399999999998 1172.2 1180.8999999999999C1172.2 1180.1999999999998 1172.2 1179.5099999999998 1172.2 1178.81C1172.2 1177.79 1173.44 1176.46 1174.41 1176.45C1176.92 1176.41 1179.52 1176.41 1182.3600000000001 1176.45C1183.45 1176.46 1185.0800000000002 1177.93 1185.2700000000002 1179.07C1185.5700000000002 1180.86 1185.8700000000001 1182.6499999999999 1186.1900000000003 1184.53L1186.4100000000003 1185.86H1183.2400000000002C1182.2700000000002 1185.86 1181.3000000000002 1185.86 1180.3300000000002 1185.86C1177.7600000000002 1185.85 1175.0900000000001 1185.85 1172.4600000000003 1185.8799999999999C1172.3300000000002 1185.8799999999999 1172.2400000000002 1185.87 1172.1900000000003 1185.86ZM1169.52 1145.3C1169.61 1145.3899999999999 1169.69 1145.48 1169.74 1145.55C1169.9 1145.78 1170.16 1145.9199999999998 1170.44 1145.93C1170.45 1145.93 1170.45 1145.93 1170.46 1145.93C1170.73 1145.93 1170.99 1145.8 1171.16 1145.5800000000002C1171.22 1145.5000000000002 1171.3100000000002 1145.41 1171.4 1145.3100000000002C1171.71 1144.9900000000002 1172.1000000000001 1144.5900000000001 1172.15 1144.0000000000002C1172.24 1143.1300000000003 1172.22 1142.2600000000002 1172.21 1141.4100000000003C1172.2 1141.1000000000004 1172.19 1140.7900000000004 1172.19 1140.4700000000003C1172.19 1140.1500000000003 1172.2 1139.8300000000002 1172.2 1139.5100000000002C1172.22 1138.6700000000003 1172.23 1137.8100000000002 1172.15 1136.9500000000003C1172.1000000000001 1136.3700000000003 1171.73 1135.9700000000003 1171.43 1135.6400000000003C1171.3400000000001 1135.5400000000004 1171.26 1135.4500000000003 1171.2 1135.3700000000003C1171.03 1135.1400000000003 1170.77 1135.0000000000005 1170.49 1135.0000000000005C1170.21 1135.0100000000004 1169.94 1135.1300000000006 1169.77 1135.3600000000004C1169.72 1135.4200000000003 1169.6399999999999 1135.5200000000004 1169.55 1135.6000000000004C1169.26 1135.9100000000003 1168.87 1136.3300000000004 1168.85 1136.9200000000003C1168.78 1139.2600000000002 1168.78 1141.6300000000003 1168.85 1143.9800000000002C1168.86 1144.5700000000002 1169.24 1144.9900000000002 1169.52 1145.3000000000002ZM1154.89 1151.16C1155.3100000000002 1151.5600000000002 1155.8700000000001 1151.6000000000001 1156.3100000000002 1151.64C1156.4500000000003 1151.65 1156.5800000000002 1151.66 1156.67 1151.68C1156.73 1151.69 1156.78 1151.69 1156.8400000000001 1151.69C1157.0700000000002 1151.69 1157.3000000000002 1151.6000000000001 1157.4700000000003 1151.43C1157.6700000000003 1151.22 1157.7700000000002 1150.91 1157.7200000000003 1150.6200000000001C1157.7000000000003 1150.5100000000002 1157.6900000000003 1150.3700000000001 1157.6800000000003 1150.22C1157.6400000000003 1149.75 1157.6100000000004 1149.16 1157.2000000000003 1148.71C1155.9300000000003 1147.32 1154.5900000000004 1145.98 1153.2900000000002 1144.68L1152.5800000000002 1143.97C1152.3500000000001 1143.74 1152.1100000000001 1143.58 1151.8700000000001 1143.42C1151.7800000000002 1143.3600000000001 1151.68 1143.29 1151.5800000000002 1143.22C1151.2500000000002 1142.98 1150.7900000000002 1143 1150.4800000000002 1143.27C1150.4100000000003 1143.33 1150.3400000000001 1143.3799999999999 1150.2600000000002 1143.43C1149.9800000000002 1143.64 1149.5500000000002 1143.95 1149.5300000000002 1144.52C1149.5200000000002 1144.79 1149.5300000000002 1145.69 1150.0700000000002 1146.26C1151.9500000000003 1148.27 1153.44 1149.77 1154.89 1151.16ZM1183.16 1150.59C1183.16 1151.24 1183.71 1151.55 1184.01 1151.72C1184.05 1151.74 1184.09 1151.76 1184.12 1151.78C1184.27 1151.8899999999999 1184.4499999999998 1151.95 1184.6299999999999 1151.95C1184.7299999999998 1151.95 1184.82 1151.93 1184.9099999999999 1151.9C1184.9599999999998 1151.88 1185.0099999999998 1151.8700000000001 1185.05 1151.8600000000001C1185.22 1151.8200000000002 1185.47 1151.7500000000002 1185.69 1151.5300000000002L1186.24 1150.9800000000002C1187.8700000000001 1149.3300000000002 1189.55 1147.6300000000003 1191.17 1145.9200000000003C1191.4 1145.6800000000003 1191.51 1145.3500000000004 1191.49 1144.9300000000003C1191.49 1144.7300000000002 1191.44 1144.0600000000004 1191.01 1143.6600000000003C1190.49 1143.1800000000003 1189.51 1143.1800000000003 1188.98 1143.5200000000002C1188.56 1143.7800000000002 1188.24 1144.13 1187.95 1144.4400000000003C1187.8600000000001 1144.5400000000002 1187.77 1144.6400000000003 1187.68 1144.7400000000002C1187.3600000000001 1145.0600000000002 1187.04 1145.3800000000003 1186.72 1145.7000000000003C1185.72 1146.7000000000003 1184.7 1147.7300000000002 1183.72 1148.7800000000002C1183.3600000000001 1149.1800000000003 1183.17 1149.7800000000002 1183.16 1150.5900000000001ZM1189.42 1157.77C1188.7 1158.01 1188.21 1159 1188.28 1159.65C1188.35 1160.25 1188.81 1160.5800000000002 1189.12 1160.8000000000002C1189.1699999999998 1160.8400000000001 1189.2299999999998 1160.88 1189.27 1160.92C1189.43 1161.0700000000002 1189.65 1161.15 1189.87 1161.15C1189.9399999999998 1161.15 1190.02 1161.14 1190.1 1161.1200000000001C1190.4699999999998 1161.0200000000002 1190.82 1160.92 1191.1699999999998 1160.8300000000002C1192.12 1160.5800000000002 1193.0199999999998 1160.3400000000001 1193.9099999999999 1160.0300000000002C1194.6499999999999 1159.7700000000002 1195.11 1158.65 1194.9199999999998 1157.9800000000002C1194.7299999999998 1157.2700000000002 1193.7499999999998 1156.6600000000003 1193.0199999999998 1156.8100000000002C1191.7899999999997 1157.0500000000002 1190.5799999999997 1157.3700000000001 1189.4199999999998 1157.7700000000002ZM1146.29 1159.06C1146.48 1159.4099999999999 1146.74 1159.8999999999999 1147.27 1160.09C1148.07 1160.3799999999999 1148.8899999999999 1160.59 1149.76 1160.82C1150.11 1160.9099999999999 1150.47 1161 1150.86 1161.1C1150.9299999999998 1161.12 1151 1161.1299999999999 1151.07 1161.1299999999999C1151.28 1161.1299999999999 1151.49 1161.06 1151.6599999999999 1160.9199999999998C1151.6899999999998 1160.8999999999999 1151.7399999999998 1160.87 1151.79 1160.83C1152.12 1160.61 1152.68 1160.25 1152.71 1159.59C1152.74 1158.86 1152.15 1157.98 1151.46 1157.73C1150.3500000000001 1157.32 1149.23 1157.03 1148.15 1156.85C1147.5800000000002 1156.75 1147.1000000000001 1157.06 1146.76 1157.29C1146.65 1157.36 1146.55 1157.42 1146.48 1157.46C1146.24 1157.57 1146.07 1157.79 1146.01 1158.05C1145.94 1158.31 1145.99 1158.58 1146.14 1158.8C1146.2 1158.8799999999999 1146.24 1158.97 1146.2900000000002 1159.06ZM1190.2 1151.18C1189.15 1151.65 1188.1200000000001 1152.26 1187.13 1152.97C1186.64 1153.32 1186.5400000000002 1153.91 1186.46 1154.34C1186.44 1154.4599999999998 1186.42 1154.58 1186.4 1154.6599999999999C1186.3200000000002 1154.9199999999998 1186.3600000000001 1155.1899999999998 1186.5 1155.4099999999999C1186.64 1155.6399999999999 1186.87 1155.79 1187.13 1155.82C1187.22 1155.84 1187.3200000000002 1155.86 1187.42 1155.8899999999999C1187.63 1155.9399999999998 1187.89 1156.0099999999998 1188.17 1156.0099999999998C1188.3700000000001 1156.0099999999998 1188.5700000000002 1155.9699999999998 1188.78 1155.8799999999997C1189.8 1155.3899999999996 1190.74 1154.7999999999997 1191.7 1154.1999999999996C1192.01 1153.9999999999995 1192.2 1153.7599999999995 1192.45 1153.4499999999996C1192.57 1153.2999999999995 1192.71 1153.1199999999997 1192.9 1152.8999999999996C1193.1100000000001 1152.6599999999996 1193.18 1152.3099999999997 1193.0700000000002 1152.0099999999995C1192.9700000000003 1151.6999999999996 1192.7100000000003 1151.4699999999996 1192.4 1151.4099999999996C1192.16 1151.3599999999997 1191.94 1151.2999999999997 1191.73 1151.2399999999996C1191.23 1151.0899999999995 1190.71 1150.9399999999996 1190.2 1151.1799999999996ZM1149.08 1154.03C1150.1599999999999 1154.75 1151.27 1155.41 1152.3899999999999 1155.99C1152.58 1156.08 1152.78 1156.1200000000001 1152.9799999999998 1156.1200000000001C1153.5199999999998 1156.1200000000001 1154.0699999999997 1155.8300000000002 1154.36 1155.5300000000002C1154.77 1155.1000000000001 1154.7299999999998 1154.4100000000003 1154.7099999999998 1154.2100000000003C1154.6699999999998 1153.7900000000002 1154.5099999999998 1153.4800000000002 1154.2299999999998 1153.2900000000002C1153.2999999999997 1152.64 1152.37 1152.0600000000002 1151.37 1151.4300000000003C1151.08 1151.2500000000002 1150.79 1151.0600000000004 1150.4899999999998 1150.8700000000003C1150.1599999999999 1150.6700000000003 1149.7299999999998 1150.7000000000003 1149.4299999999998 1150.9600000000003C1149.35 1151.0300000000002 1149.2599999999998 1151.1000000000004 1149.1699999999998 1151.1600000000003C1148.8899999999999 1151.3700000000003 1148.4899999999998 1151.6600000000003 1148.3999999999999 1152.1800000000003C1148.32 1152.7000000000003 1148.4699999999998 1153.6200000000003 1149.08 1154.0300000000002ZM1179.93 1148.48C1180.0800000000002 1148.54 1180.25 1148.57 1180.42 1148.57C1181.02 1148.57 1181.67 1148.23 1181.97 1147.82C1182.39 1147.23 1182.73 1146.6 1183.06 1145.99C1183.1699999999998 1145.8 1183.27 1145.61 1183.3799999999999 1145.42C1183.53 1145.15 1183.6799999999998 1144.8700000000001 1183.82 1144.5900000000001L1183.98 1144.2900000000002L1184.26 1143.91C1184.43 1143.68 1184.49 1143.38 1184.41 1143.1000000000001C1184.3300000000002 1142.8200000000002 1184.1200000000001 1142.6000000000001 1183.8500000000001 1142.5000000000002C1183.7800000000002 1142.4800000000002 1183.7 1142.4400000000003 1183.63 1142.4100000000003C1183.3700000000001 1142.3000000000004 1183.0500000000002 1142.1600000000003 1182.68 1142.1300000000003C1182.48 1142.1200000000003 1181.47 1142.0900000000004 1181.03 1142.8000000000004C1180.23 1144.0700000000004 1179.6 1145.2100000000005 1179.08 1146.2800000000004C1178.8799999999999 1146.7000000000005 1178.98 1147.1700000000005 1179.1 1147.4800000000005C1179.1999999999998 1147.7700000000004 1179.4499999999998 1148.2800000000004 1179.9299999999998 1148.4800000000005ZM1159.06 1147.86C1159.35 1148.29 1159.98 1148.56 1160.55 1148.56C1160.81 1148.56 1161.06 1148.5 1161.25 1148.3899999999999C1161.89 1148.02 1162.22 1146.87 1161.9 1146.1899999999998C1161.3300000000002 1145.0199999999998 1160.67 1143.9099999999999 1160.0300000000002 1142.83C1159.8300000000002 1142.5 1159.5400000000002 1142.35 1159.2600000000002 1142.1999999999998C1159.1500000000003 1142.1499999999999 1159.0200000000002 1142.08 1158.8600000000001 1141.9799999999998C1158.64 1141.8399999999997 1158.3600000000001 1141.8199999999997 1158.1100000000001 1141.9099999999999C1157.8600000000001 1141.9999999999998 1157.66 1142.1999999999998 1157.5700000000002 1142.4499999999998C1157.5200000000002 1142.5699999999997 1157.4500000000003 1142.7199999999998 1157.39 1142.86C1157.17 1143.31 1156.9 1143.86 1157.16 1144.4399999999998C1157.65 1145.5299999999997 1158.28 1146.6399999999999 1159.0600000000002 1147.86ZM1174.27 1145.61C1174.47 1145.9499999999998 1174.78 1146.4499999999998 1175.3799999999999 1146.5C1175.4199999999998 1146.5 1175.4499999999998 1146.51 1175.4899999999998 1146.51C1176.1099999999997 1146.51 1177.0099999999998 1146.1299999999999 1177.2399999999998 1145.43C1177.6499999999999 1144.18 1177.9899999999998 1142.9 1178.2399999999998 1141.63C1178.3899999999999 1140.8500000000001 1177.6999999999998 1140.0500000000002 1177.1499999999999 1139.7700000000002C1176.86 1139.6200000000001 1176.5199999999998 1139.6200000000001 1176.1599999999999 1139.7800000000002C1176.07 1139.8100000000002 1175.32 1140.14 1175.11 1140.7800000000002C1174.8 1141.6900000000003 1174.55 1142.6000000000001 1174.29 1143.5700000000002C1174.19 1143.91 1174.1 1144.2700000000002 1174 1144.63C1173.92 1144.91 1173.98 1145.21 1174.16 1145.44C1174.19 1145.49 1174.23 1145.55 1174.27 1145.6100000000001ZM1163.73 1145.36C1163.94 1145.9799999999998 1164.75 1146.52 1165.43 1146.52C1165.47 1146.52 1165.52 1146.52 1165.5600000000002 1146.52C1166.15 1146.45 1166.4700000000003 1145.97 1166.6900000000003 1145.66C1166.7300000000002 1145.6000000000001 1166.7700000000002 1145.5400000000002 1166.8000000000002 1145.5C1167.0000000000002 1145.27 1167.0800000000002 1144.95 1167.0000000000002 1144.66C1166.9000000000003 1144.28 1166.8000000000002 1143.92 1166.7100000000003 1143.5700000000002C1166.4700000000003 1142.63 1166.2400000000002 1141.7400000000002 1165.9400000000003 1140.8700000000001C1165.7600000000002 1140.3200000000002 1165.2700000000002 1140.0800000000002 1164.9200000000003 1139.91C1164.8300000000004 1139.8700000000001 1164.7500000000002 1139.8300000000002 1164.6800000000003 1139.7900000000002C1164.4700000000003 1139.65 1164.2200000000003 1139.6100000000001 1163.9800000000002 1139.6700000000003C1163.7400000000002 1139.7400000000002 1163.5400000000002 1139.9000000000003 1163.4200000000003 1140.1200000000003C1163.3800000000003 1140.2000000000003 1163.3100000000004 1140.2900000000004 1163.2500000000002 1140.3700000000003C1163.0100000000002 1140.7200000000003 1162.6900000000003 1141.1900000000003 1162.7900000000002 1141.7800000000004C1163.0000000000002 1142.9300000000005 1163.3100000000002 1144.1300000000003 1163.7300000000002 1145.3600000000004Z " fill="#333333" fill-opacity="1" transform="matrix(1,0,0,1,-1133,-1135)"></path></svg>