<svg id="SvgjsSvg1047" xmlns="http://www.w3.org/2000/svg" version="1.1" xmlns:xlink="http://www.w3.org/1999/xlink" xmlns:svgjs="http://svgjs.com/svgjs" width="63" height="66" viewBox="0 0 63 66"><title>Shape 81</title><desc>Created with Avocode.</desc><defs id="SvgjsDefs1048"></defs><path id="SvgjsPath1049" d="M900.101 1590.01C900.437 1589.5 900.699 1588.86 900.899 1588.06C901.097 1587.26 900.836 1586.49 900.553 1585.78C900.194 1584.87 899.572 1584.11 898.704 1583.5C898.664 1583.47 898.6329999999999 1583.45 898.6089999999999 1583.43C898.6399999999999 1583.39 898.6769999999999 1583.3500000000001 898.6959999999999 1583.3300000000002C898.7699999999999 1583.2400000000002 898.8449999999999 1583.15 898.9189999999999 1583.0700000000002C899.3179999999999 1582.6000000000001 899.7299999999999 1582.1200000000001 900.1079999999998 1581.6200000000001C900.5029999999998 1581.1000000000001 900.7599999999999 1580.46 900.9149999999998 1579.5900000000001C901.0519999999998 1578.8300000000002 900.8249999999998 1578.1200000000001 900.5599999999998 1577.4C900.1399999999999 1576.25 899.2569999999998 1575.5 898.5209999999998 1574.97C898.7919999999998 1574.74 899.1039999999998 1574.46 899.4039999999999 1574.18C900.1749999999998 1573.44 900.6799999999998 1572.48 900.9059999999998 1571.3200000000002C901.0899999999998 1570.38 900.8049999999998 1569.5000000000002 900.5019999999998 1568.7700000000002C900.1769999999998 1567.9900000000002 899.6459999999998 1567.3000000000002 898.9239999999999 1566.7400000000002C897.4329999999999 1565.5700000000002 896.0559999999998 1565.2500000000002 894.5999999999999 1565.7400000000002C894.6009999999999 1565.7000000000003 894.603 1565.6700000000003 894.6049999999999 1565.6300000000003C894.6119999999999 1565.4900000000002 894.6199999999999 1565.3400000000004 894.6199999999999 1565.1900000000003C894.6219999999998 1564.0300000000002 894.6229999999999 1562.9900000000002 894.6189999999999 1561.9200000000003C894.6139999999999 1560.6100000000004 894.2169999999999 1559.4100000000003 893.4399999999999 1558.3600000000004C892.6279999999999 1557.2500000000005 891.593 1556.5200000000004 890.3639999999999 1556.1900000000003C890.3459999999999 1556.1800000000003 890.3 1556.1500000000003 890.2689999999999 1556.1300000000003C890.2369999999999 1556.1000000000004 890.1999999999999 1556.0800000000004 890.1589999999999 1556.0500000000004L890.0809999999999 1556.0000000000005H864.3619999999999L864.2759999999998 1556.0700000000004C864.2479999999998 1556.0900000000004 864.2219999999999 1556.1100000000004 864.1949999999998 1556.1300000000003C864.1799999999998 1556.1500000000003 864.1569999999998 1556.1700000000003 864.1449999999999 1556.1800000000003C864.0739999999998 1556.2000000000003 863.9959999999999 1556.2300000000002 863.9149999999998 1556.2500000000002C863.7869999999998 1556.2800000000002 863.6559999999998 1556.3200000000002 863.5239999999999 1556.3800000000003C862.5059999999999 1556.8400000000004 861.7129999999999 1557.4700000000003 861.0979999999998 1558.2800000000004C860.3089999999999 1559.3300000000004 859.9039999999999 1560.4500000000005 859.8959999999998 1561.6300000000003C859.8729999999998 1564.9500000000003 859.8789999999998 1568.3300000000004 859.8849999999999 1571.6000000000004C859.8859999999999 1572.2600000000004 859.8869999999998 1572.9200000000003 859.8879999999999 1573.5800000000004C859.8889999999999 1573.7200000000005 859.8849999999999 1573.7200000000005 859.79 1573.7600000000004C858.6759999999999 1574.2900000000004 857.93 1575.1000000000004 857.573 1576.1700000000005C857.461 1576.5000000000005 857.36 1576.8400000000006 857.262 1577.1700000000005C857.233 1577.2700000000004 857.203 1577.3700000000006 857.174 1577.4700000000005C857.0559999999999 1577.8600000000006 856.939 1578.2500000000005 856.823 1578.6500000000005C856.691 1579.0900000000006 856.56 1579.5300000000007 856.427 1579.9700000000005C856.076 1581.1400000000006 855.6610000000001 1582.5200000000004 855.2330000000001 1583.9400000000005C855.176 1584.1200000000006 855.12 1584.3100000000004 855.065 1584.4900000000005C854.888 1585.0800000000004 854.705 1585.6900000000005 854.508 1586.2800000000004C854.3580000000001 1586.7300000000005 854.195 1587.1900000000005 854.037 1587.6300000000003C853.7560000000001 1588.4200000000003 853.465 1589.2300000000002 853.2330000000001 1590.0500000000004C852.931 1591.1200000000003 852.738 1592.1500000000003 852.6590000000001 1593.1100000000004C852.5740000000001 1594.1500000000003 852.546 1595.2000000000003 852.5190000000001 1596.2200000000003C852.5050000000001 1596.7800000000002 852.4900000000001 1597.3500000000004 852.4660000000001 1597.9100000000003C852.4420000000001 1598.4800000000002 852.3820000000002 1599.0500000000004 852.3120000000001 1599.6800000000003C852.3020000000001 1599.7700000000002 852.2590000000001 1599.8900000000003 852.1850000000002 1600.0200000000002C852.0380000000001 1600.2800000000002 851.8740000000001 1600.5500000000002 851.7160000000001 1600.8100000000002L851.6190000000001 1600.9600000000003C851.1960000000001 1601.6500000000003 850.8060000000002 1602.2800000000002 850.4300000000002 1602.8900000000003C850.3330000000002 1602.7800000000004 850.2320000000002 1602.6800000000003 850.1350000000002 1602.5900000000004C850.0810000000002 1602.5300000000004 850.0280000000002 1602.4800000000005 849.9750000000003 1602.4300000000003C849.8400000000003 1602.2900000000002 849.7060000000002 1602.1500000000003 849.5710000000003 1602.0200000000002C849.2190000000003 1601.6600000000003 848.8560000000002 1601.2900000000002 848.5050000000002 1600.9200000000003C848.3340000000002 1600.7400000000002 848.1550000000002 1600.6600000000003 847.9690000000003 1600.6700000000003C847.7840000000003 1600.6800000000003 847.6160000000003 1600.7800000000002 847.4670000000003 1600.9800000000002C847.4000000000003 1601.0700000000002 847.3370000000003 1601.1500000000003 847.2710000000003 1601.2200000000003C846.7550000000003 1601.7500000000002 846.3000000000003 1602.2200000000003 845.8810000000003 1602.6400000000003C845.2480000000003 1603.2900000000004 844.5620000000004 1603.9800000000002 843.7820000000003 1604.7700000000004L843.3970000000003 1605.1500000000005C842.6650000000003 1605.8900000000006 841.9090000000002 1606.6500000000005 841.1610000000003 1607.4000000000005C840.5790000000003 1607.9800000000005 839.9510000000002 1608.6000000000006 839.3080000000003 1609.2200000000005C839.1720000000004 1609.3500000000006 839.0030000000004 1609.5100000000004 839.0000000000003 1609.7500000000005C838.9980000000004 1609.9600000000005 839.1410000000003 1610.1300000000006 839.2870000000004 1610.2700000000004L839.4620000000003 1610.4500000000005C840.2740000000003 1611.2600000000004 841.1140000000004 1612.1000000000006 841.9370000000004 1612.9300000000005C843.2680000000004 1614.2700000000004 844.5970000000003 1615.6100000000006 845.9260000000004 1616.9500000000005L847.0720000000003 1618.1100000000006C848.2370000000003 1619.2800000000007 849.4410000000004 1620.4900000000007 850.6220000000003 1621.6900000000005C850.7700000000003 1621.8400000000006 850.9220000000003 1622.0000000000005 851.1440000000003 1622.0000000000005C851.1460000000003 1622.0000000000005 851.1480000000004 1622.0000000000005 851.1500000000003 1622.0000000000005C851.3760000000003 1622.0000000000005 851.5380000000004 1621.8400000000004 851.6810000000003 1621.6900000000005C852.1500000000003 1621.2200000000005 852.6190000000003 1620.7500000000005 853.0870000000002 1620.2800000000004C853.2560000000002 1620.1100000000004 853.3890000000002 1619.9700000000005 853.3880000000003 1619.7600000000004C853.3870000000003 1619.5600000000004 853.2570000000003 1619.4300000000005 853.0780000000003 1619.2500000000005L853.0710000000004 1619.2400000000005C851.9740000000004 1618.1600000000005 851.0780000000003 1617.2700000000004 850.2510000000003 1616.4400000000005C849.6150000000004 1615.8000000000004 848.9720000000003 1615.1400000000006 848.3490000000003 1614.5100000000004C847.9070000000003 1614.0600000000004 847.4650000000003 1613.6100000000004 847.0210000000003 1613.1600000000005C845.7410000000003 1611.8700000000006 844.6710000000003 1610.7900000000006 843.6570000000003 1609.7700000000004C843.9930000000003 1609.4500000000005 844.2670000000003 1609.1800000000005 844.5200000000003 1608.9300000000005C844.7360000000003 1608.7100000000005 844.9520000000003 1608.4900000000005 845.1610000000003 1608.2800000000004C845.3530000000003 1608.0800000000004 845.5520000000002 1607.8700000000003 845.7490000000003 1607.6700000000005C846.0120000000003 1607.4100000000005 846.2770000000003 1607.1400000000006 846.5410000000003 1606.8800000000006C847.0200000000003 1606.4000000000005 847.5160000000003 1605.9000000000005 847.9970000000003 1605.4100000000005C848.0040000000002 1605.4000000000005 848.0100000000003 1605.3900000000006 848.0160000000003 1605.3900000000006C848.0200000000003 1605.3900000000006 848.0240000000003 1605.3900000000006 848.0280000000002 1605.4000000000005C848.3970000000003 1605.7700000000004 848.7670000000003 1606.1400000000006 849.1380000000003 1606.5000000000005C849.5980000000003 1606.9600000000005 850.0740000000003 1607.4300000000005 850.5380000000002 1607.9000000000005C851.1860000000003 1608.5500000000006 851.8420000000002 1609.2200000000005 852.4770000000002 1609.8600000000006C852.9700000000003 1610.3600000000006 853.4620000000002 1610.8600000000006 853.9560000000002 1611.3600000000006C854.5400000000002 1611.9500000000005 855.1260000000002 1612.5400000000006 855.7110000000002 1613.1300000000006C856.4290000000002 1613.8500000000006 857.1710000000003 1614.5900000000006 857.8990000000002 1615.3300000000006C858.4540000000002 1615.8900000000006 859.0080000000003 1616.4600000000007 859.5620000000002 1617.0200000000007C860.2560000000002 1617.7300000000007 860.9740000000003 1618.4600000000007 861.6840000000002 1619.1700000000008C861.8700000000002 1619.3600000000008 862.0660000000001 1619.5400000000006 862.2560000000002 1619.7100000000007C862.4480000000002 1619.8900000000008 862.6460000000002 1620.0700000000006 862.8280000000002 1620.2500000000007C863.2180000000002 1620.6500000000008 863.6010000000002 1621.0700000000006 863.9710000000002 1621.4800000000007L864.1460000000002 1621.6700000000008C864.2820000000002 1621.8200000000008 864.5590000000002 1622.1300000000008 864.9880000000002 1621.9200000000008C865.3030000000002 1622.0200000000007 865.5950000000001 1621.9300000000007 865.8550000000001 1621.6700000000008C866.0870000000001 1621.4300000000007 866.3270000000001 1621.1800000000007 866.5580000000001 1620.9500000000007C866.738 1620.7600000000007 866.9170000000001 1620.5800000000008 867.0960000000001 1620.4000000000008C867.2240000000002 1620.2700000000007 867.3530000000001 1620.1400000000008 867.4810000000001 1620.0000000000007C867.9070000000002 1619.5700000000006 868.3460000000001 1619.1200000000006 868.7700000000001 1618.6700000000008C868.9730000000001 1618.4500000000007 869.1330000000002 1618.3800000000008 869.4290000000001 1618.3900000000008C870.9420000000001 1618.4400000000007 872.277 1618.3400000000008 873.5110000000001 1618.0800000000008C873.7020000000001 1618.0400000000009 873.898 1618.000000000001 874.0880000000001 1617.960000000001C874.484 1617.890000000001 874.893 1617.8100000000009 875.2930000000001 1617.700000000001L875.3670000000001 1617.670000000001C876.109 1617.460000000001 876.8770000000001 1617.240000000001 877.5980000000001 1616.910000000001C879.653 1615.990000000001 881.4620000000001 1614.750000000001 882.975 1613.230000000001C883.828 1612.380000000001 884.645 1611.520000000001 885.258 1610.460000000001C885.461 1610.110000000001 885.644 1610.0600000000009 885.874 1610.110000000001C886.062 1610.140000000001 886.241 1610.130000000001 886.414 1610.130000000001C886.4979999999999 1610.120000000001 886.577 1610.120000000001 886.653 1610.120000000001C886.885 1610.130000000001 887.118 1610.130000000001 887.351 1610.140000000001C887.8 1610.160000000001 888.263 1610.170000000001 888.723 1610.170000000001C889.4219999999999 1610.160000000001 890.1339999999999 1610.010000000001 890.9649999999999 1609.690000000001C892.1439999999999 1609.230000000001 893.093 1608.400000000001 893.7839999999999 1607.230000000001C894.0719999999999 1606.740000000001 894.2249999999999 1606.190000000001 894.3569999999999 1605.660000000001C894.5639999999999 1604.840000000001 894.7259999999999 1604.090000000001 894.6129999999998 1603.290000000001C894.6269999999998 1603.290000000001 894.6399999999999 1603.290000000001 894.6539999999999 1603.300000000001C894.8119999999999 1603.310000000001 894.9909999999999 1603.320000000001 895.1719999999999 1603.2600000000011C895.7689999999999 1603.060000000001 896.5849999999999 1602.790000000001 897.1129999999999 1602.050000000001C897.2719999999999 1601.820000000001 897.459 1601.620000000001 897.656 1601.400000000001C897.7529999999999 1601.290000000001 897.8539999999999 1601.180000000001 897.9509999999999 1601.070000000001C898.161 1600.820000000001 898.3779999999999 1600.570000000001 898.5879999999999 1600.340000000001C899.0839999999998 1599.7700000000011 899.5969999999999 1599.190000000001 900.0629999999999 1598.570000000001C900.7549999999999 1597.660000000001 900.9339999999999 1596.5100000000011 900.6089999999999 1595.030000000001C900.3489999999999 1593.860000000001 899.5989999999999 1592.870000000001 898.381 1592.090000000001C898.5419999999999 1591.900000000001 898.713 1591.710000000001 898.8779999999999 1591.5200000000011C899.3029999999999 1591.050000000001 899.741 1590.560000000001 900.1009999999999 1590.0100000000011ZM891.077 1604.64C891.1129999999999 1605.5500000000002 890.136 1606.3200000000002 889.465 1606.5600000000002C889.462 1606.5600000000002 889.445 1606.5700000000002 889.394 1606.5700000000002C888.964 1606.5800000000002 888.534 1606.5900000000001 888.104 1606.5900000000001C887.038 1606.6200000000001 885.936 1606.64 884.8530000000001 1606.64C884.2660000000001 1606.65 883.667 1606.63 883.0880000000001 1606.6200000000001C882.4830000000001 1606.6000000000001 881.8570000000001 1606.5900000000001 881.2400000000001 1606.5900000000001C880.4990000000001 1606.5900000000001 879.7470000000001 1606.6100000000001 879.0200000000001 1606.63C878.3550000000001 1606.65 877.6680000000001 1606.67 876.993 1606.68C876.6270000000001 1606.68 876.249 1606.66 875.884 1606.64C875.5550000000001 1606.6200000000001 875.215 1606.6000000000001 874.876 1606.6000000000001C874.007 1606.6000000000001 873.13 1606.6000000000001 872.257 1606.6000000000001C871.346 1606.6000000000001 870.4399999999999 1606.6000000000001 869.549 1606.6000000000001H868.789C868.692 1606.6000000000001 868.592 1606.6000000000001 868.5219999999999 1606.6000000000001C868.5229999999999 1606.5200000000002 868.5289999999999 1606.42 868.535 1606.3200000000002L868.536 1606.3100000000002C868.549 1606.0900000000001 868.563 1605.8700000000001 868.578 1605.65C868.62 1605.01 868.663 1604.3400000000001 868.677 1603.68C868.6850000000001 1603.3300000000002 868.658 1602.99 868.633 1602.65C868.616 1602.43 868.599 1602.21 868.592 1601.99C868.5889999999999 1601.91 868.591 1601.85 868.593 1601.82C868.631 1601.82 868.694 1601.81 868.793 1601.81C869.368 1601.81 869.944 1601.81 870.519 1601.81H870.952V1601.82H871.274C871.529 1601.82 871.785 1601.82 872.04 1601.82C872.592 1601.82 873.1619999999999 1601.82 873.722 1601.82C874.412 1601.83 875.114 1601.84 875.793 1601.84C877.015 1601.86 878.279 1601.87 879.524 1601.87C883.109 1601.86 886.754 1601.84 890.279 1601.81H891.037C891.089 1601.81 891.1220000000001 1601.82 891.1370000000001 1601.82C891.139 1601.83 891.1400000000001 1601.84 891.1400000000001 1601.85C891.142 1602.2099999999998 891.1290000000001 1602.57 891.1160000000001 1602.9299999999998C891.1100000000001 1603.1 891.1040000000002 1603.2699999999998 891.099 1603.4499999999998C891.096 1603.5499999999997 891.0920000000001 1603.6599999999999 891.0880000000001 1603.7699999999998C891.0770000000001 1604.0499999999997 891.066 1604.3399999999997 891.0770000000001 1604.6399999999996ZM867.943 1559.42C874.7429999999999 1559.42 881.774 1559.42 888.6899999999999 1559.42C889.7339999999999 1559.42 890.5749999999999 1559.98 890.997 1560.97C891.078 1561.16 891.093 1561.42 891.107 1561.66C891.11 1561.72 891.1139999999999 1561.77 891.117 1561.8200000000002C891.1289999999999 1561.9800000000002 891.125 1562.15 891.121 1562.3300000000002C891.1179999999999 1562.4700000000003 891.115 1562.63 891.121 1562.7800000000002C891.122 1562.8000000000002 891.122 1562.8200000000002 891.121 1562.8300000000002C891.11 1562.8300000000002 891.096 1562.8300000000002 891.079 1562.8300000000002C890.909 1562.8200000000002 890.7389999999999 1562.8200000000002 890.5709999999999 1562.8200000000002C890.478 1562.8200000000002 890.3849999999999 1562.8200000000002 890.2929999999999 1562.8200000000002C890.2009999999999 1562.8200000000002 890.108 1562.8200000000002 890.0159999999998 1562.8200000000002C886.4659999999999 1562.8200000000002 882.9149999999998 1562.8200000000002 879.3639999999998 1562.8200000000002H863.5469999999998C863.5029999999998 1562.8200000000002 863.4109999999998 1562.8200000000002 863.3429999999998 1562.8200000000002C863.3409999999999 1562.7500000000002 863.3449999999998 1562.67 863.3469999999999 1562.63C863.3699999999999 1562.1000000000001 863.3999999999999 1561.67 863.4409999999999 1561.2800000000002C863.497 1560.7500000000002 863.7829999999999 1560.3200000000002 864.367 1559.88C864.776 1559.5700000000002 865.2669999999999 1559.42 865.8679999999999 1559.42ZM897.416 1579.16C897.423 1579.43 897.32 1579.69 897.1110000000001 1579.92C896.5160000000001 1580.5900000000001 895.9270000000001 1581.27 895.3570000000001 1581.94C895.147 1582.18 894.9370000000001 1582.43 894.7270000000001 1582.67C894.6700000000001 1582.74 894.4950000000001 1582.94 894.0870000000001 1582.7C893.5180000000001 1582.3500000000001 893.118 1582.01 892.8300000000002 1581.6000000000001C892.5840000000002 1581.2500000000002 892.5880000000002 1581.14 892.8600000000001 1580.8300000000002C893.5030000000002 1580.0900000000001 894.1880000000001 1579.2900000000002 895.0150000000001 1578.3100000000002C895.3480000000001 1577.91 895.6800000000001 1577.7200000000003 896.0360000000001 1577.7200000000003C896.152 1577.7200000000003 896.2700000000001 1577.7400000000002 896.392 1577.7800000000002C896.7900000000001 1577.9100000000003 897.4530000000001 1578.3500000000001 897.416 1579.13L897.4150000000001 1579.15ZM895.462 1590.23C895.24 1590.49 895.019 1590.76 894.7959999999999 1591.02C894.584 1591.27 894.578 1591.27 894.2929999999999 1591.16C893.6279999999999 1590.91 893.0959999999999 1590.46 892.7139999999999 1589.8100000000002C892.5859999999999 1589.5900000000001 892.6379999999999 1589.4800000000002 892.713 1589.4C892.927 1589.15 893.141 1588.91 893.3539999999999 1588.66C893.973 1587.94 894.6139999999999 1587.21 895.2499999999999 1586.49C895.4769999999999 1586.23 895.7519999999998 1586.1 896.0399999999998 1586.1C896.2469999999998 1586.1 896.4619999999999 1586.1699999999998 896.6709999999998 1586.31C897.1989999999998 1586.6499999999999 897.4389999999999 1587.02 897.4249999999998 1587.47C897.4149999999998 1587.83 897.3249999999998 1588.07 897.1239999999998 1588.3C896.5559999999998 1588.93 895.9999999999998 1589.59 895.4619999999998 1590.23ZM897.42 1570.66C897.4409999999999 1571.0600000000002 897.3199999999999 1571.38 897.038 1571.64C896.66 1572 896.283 1572.3600000000001 895.9060000000001 1572.72C895.2990000000001 1573.29 894.692 1573.8700000000001 894.086 1574.44C893.997 1574.53 893.932 1574.55 893.765 1574.48C892.987 1574.15 892.3969999999999 1573.56 891.963 1572.67C891.833 1572.41 891.832 1572.3400000000001 892.117 1572.0700000000002C893.029 1571.2200000000003 893.943 1570.3400000000001 894.831 1569.4800000000002C895.157 1569.1700000000003 895.485 1569.0100000000002 895.813 1569.0100000000002C896.144 1569.0100000000002 896.4739999999999 1569.1700000000003 896.803 1569.4900000000002C897.229 1569.9100000000003 897.453 1570.2100000000003 897.421 1570.6100000000001L897.4190000000001 1570.64ZM863.3 1581.78C863.1949999999999 1582.97 863.016 1584.19 862.857 1585.23C862.692 1586.3 862.539 1587.2 862.326 1588.09C862.168 1588.74 861.963 1589.3999999999999 861.765 1590.04C861.674 1590.34 861.579 1590.6399999999999 861.489 1590.94C861.4730000000001 1591 861.455 1591.05 861.437 1591.1100000000001C861.3770000000001 1591.2900000000002 861.315 1591.48 861.301 1591.69C861.2850000000001 1591.93 861.3710000000001 1592.2 861.519 1592.39C862.5600000000001 1593.73 863.255 1594.9 863.707 1596.0800000000002L863.735 1596.16C864.0020000000001 1596.8500000000001 864.279 1597.5800000000002 864.489 1598.3000000000002C864.59 1598.65 864.643 1599.0100000000002 864.6990000000001 1599.39C864.724 1599.5700000000002 864.7510000000001 1599.75 864.7810000000001 1599.92L864.7860000000001 1599.95C864.7990000000001 1600.02 864.812 1600.1000000000001 864.8320000000001 1600.18C864.8570000000001 1600.28 864.8850000000001 1600.38 864.9130000000001 1600.48C864.9650000000001 1600.67 865.0140000000001 1600.85 865.0490000000001 1601.03C865.3180000000001 1602.3999999999999 865.3000000000001 1603.8 865.2400000000001 1605.11C865.2090000000002 1605.8 865.0930000000001 1606.5 864.9290000000001 1607.33C864.7940000000001 1608.01 864.6210000000001 1608.6899999999998 864.4530000000001 1609.36C864.402 1609.56 864.3510000000001 1609.76 864.301 1609.9699999999998C864.2760000000001 1610.0699999999997 864.2230000000001 1610.1699999999998 864.158 1610.2999999999997C864.068 1610.4699999999998 864.051 1610.6299999999997 864.105 1610.7699999999998C864.141 1610.8599999999997 864.224 1610.9899999999998 864.421 1611.0599999999997L864.707 1611.1599999999996C865.358 1611.3999999999996 866.032 1611.6499999999996 866.703 1611.8799999999997C866.967 1611.9599999999996 867.298 1611.7199999999996 867.3729999999999 1611.5099999999998C867.4569999999999 1611.2799999999997 867.53 1611.0499999999997 867.6009999999999 1610.8299999999997C867.6699999999998 1610.6099999999997 867.7409999999999 1610.3799999999997 867.8189999999998 1610.1699999999996C867.8259999999998 1610.1599999999996 867.8369999999999 1610.1499999999996 867.8449999999998 1610.1499999999996C868.5079999999998 1610.1199999999997 869.1679999999998 1610.0999999999997 869.8089999999999 1610.1099999999997C870.1169999999998 1610.1099999999997 870.4329999999999 1610.1199999999997 870.7389999999998 1610.1299999999997C871.0419999999998 1610.1399999999996 871.3549999999998 1610.1599999999996 871.6659999999998 1610.1599999999996C873.2569999999998 1610.1699999999996 874.9629999999999 1610.1799999999996 876.6609999999998 1610.1699999999996C877.5019999999998 1610.1699999999996 878.3569999999999 1610.1499999999996 879.1839999999999 1610.1399999999996C879.6649999999998 1610.1299999999997 880.1459999999998 1610.1199999999997 880.6269999999998 1610.1199999999997C880.7939999999999 1610.1099999999997 880.9659999999999 1610.1199999999997 881.1629999999998 1610.1199999999997C881.0379999999998 1610.2399999999996 880.9109999999998 1610.3599999999997 880.7969999999998 1610.4999999999998C879.7259999999998 1611.8399999999997 878.3129999999998 1612.6999999999998 877.0719999999998 1613.3599999999997C876.2389999999998 1613.7999999999997 875.2329999999997 1614.2799999999997 874.0939999999998 1614.4299999999996C873.7889999999999 1614.4699999999996 873.4909999999999 1614.5299999999995 873.2029999999999 1614.5999999999997C872.9009999999998 1614.6699999999996 872.6159999999999 1614.7399999999998 872.3269999999999 1614.7699999999998C871.7989999999999 1614.8299999999997 871.2529999999999 1614.8599999999997 870.7239999999999 1614.8799999999997C870.5989999999999 1614.8899999999996 870.472 1614.8999999999996 870.3439999999999 1614.8999999999996L870.343 1614.8699999999997H870.035C869.865 1614.8699999999997 869.6949999999999 1614.8699999999997 869.524 1614.8699999999997C869.058 1614.8699999999997 868.576 1614.8599999999997 868.099 1614.8799999999997C867.875 1614.8899999999996 867.623 1614.9899999999996 867.4580000000001 1615.1499999999996C866.6740000000001 1615.8999999999996 865.8900000000001 1616.6799999999996 865.1310000000001 1617.4299999999996L864.998 1617.5599999999997C864.498 1617.0599999999997 863.9960000000001 1616.5499999999997 863.494 1616.0499999999997C863.186 1615.7499999999998 862.8770000000001 1615.4399999999998 862.5690000000001 1615.1299999999997C861.7590000000001 1614.3199999999997 860.897 1613.4499999999996 860.0480000000001 1612.5999999999997C859.5080000000002 1612.0599999999997 858.9700000000001 1611.5099999999998 858.4320000000001 1610.9699999999996L857.2770000000002 1609.7999999999995C856.5660000000001 1609.0799999999995 855.8550000000001 1608.3599999999994 855.1460000000002 1607.6399999999994C854.9030000000001 1607.3999999999994 854.6610000000002 1607.1499999999994 854.4190000000002 1606.8999999999994C853.9720000000002 1606.4399999999994 853.5100000000002 1605.9699999999993 853.0470000000003 1605.5099999999993C852.9460000000003 1605.4099999999994 852.9280000000002 1605.3899999999994 853.0350000000003 1605.2199999999993L853.1680000000003 1605.0099999999993C853.8560000000003 1603.9099999999994 854.5670000000003 1602.7699999999993 855.2240000000004 1601.6299999999992C855.4320000000004 1601.2699999999993 855.5810000000004 1600.8199999999993 855.6930000000004 1600.229999999999C855.9040000000005 1599.1199999999992 855.9130000000005 1597.999999999999 855.9230000000005 1596.9099999999992C855.9270000000005 1596.3299999999992 855.9320000000005 1595.729999999999 855.9690000000005 1595.1499999999992L855.9880000000005 1594.8299999999992C856.0610000000005 1593.6199999999992 856.1370000000005 1592.3699999999992 856.4640000000005 1591.1999999999991C856.6500000000005 1590.529999999999 856.8900000000006 1589.8599999999992 857.1220000000005 1589.2199999999991C857.2490000000005 1588.8599999999992 857.3810000000005 1588.489999999999 857.5030000000005 1588.1299999999992C857.6700000000005 1587.6299999999992 857.8270000000005 1587.1199999999992 857.9790000000005 1586.6299999999992C858.0310000000005 1586.4699999999991 858.0820000000004 1586.2999999999993 858.1340000000005 1586.1399999999992C858.2570000000005 1585.739999999999 858.3790000000005 1585.3499999999992 858.5010000000004 1584.9599999999991L858.6640000000004 1584.4299999999992C858.7350000000005 1584.1999999999991 858.8070000000005 1583.9699999999991 858.8780000000005 1583.739999999999C859.0360000000005 1583.229999999999 859.1950000000005 1582.7199999999991 859.3510000000005 1582.2099999999991C859.7330000000004 1580.9599999999991 860.1070000000004 1579.729999999999 860.4890000000005 1578.479999999999C860.5320000000005 1578.329999999999 860.5730000000004 1578.1899999999991 860.6140000000005 1578.049999999999C860.6830000000004 1577.809999999999 860.7540000000005 1577.569999999999 860.8320000000004 1577.329999999999C860.9020000000005 1577.119999999999 861.0740000000004 1576.9699999999991 861.2930000000005 1576.929999999999C861.3340000000005 1576.919999999999 861.3750000000005 1576.919999999999 861.4150000000004 1576.919999999999C861.5720000000005 1576.919999999999 861.7150000000004 1576.9799999999989 861.8200000000004 1577.099999999999C862.2960000000004 1577.639999999999 862.6420000000004 1578.229999999999 862.8460000000003 1578.849999999999C862.9210000000004 1579.069999999999 862.9950000000003 1579.289999999999 863.0870000000003 1579.509999999999C863.4030000000004 1580.249999999999 863.3630000000003 1581.069999999999 863.3000000000003 1581.779999999999ZM889.172 1598.43C888.75 1598.44 888.328 1598.44 887.905 1598.45C886.9169999999999 1598.45 885.896 1598.46 884.891 1598.46C883.632 1598.46 882.351 1598.45 881.112 1598.44C880.0849999999999 1598.43 879.0229999999999 1598.42 877.9789999999999 1598.41C875.7589999999999 1598.4 873.9499999999999 1598.4 872.2839999999999 1598.41C871.2909999999998 1598.41 870.2829999999999 1598.43 869.3079999999999 1598.45C868.9769999999999 1598.45 868.6469999999999 1598.46 868.3159999999999 1598.47C868.2669999999999 1598.47 868.1449999999999 1598.47 868.0909999999999 1598.46C868.0779999999999 1598.43 868.0559999999999 1598.38 868.0189999999999 1598.26C867.9149999999998 1597.93 867.8139999999999 1597.6 867.7149999999999 1597.27C867.54 1596.69 867.3599999999999 1596.09 867.16 1595.51C866.79 1594.43 866.256 1593.34 865.476 1592.08L865.45 1592.03C865.2990000000001 1591.79 865.1560000000001 1591.56 865.034 1591.31C865.013 1591.27 865.007 1591.21 865.012 1591.1799999999998C865.1279999999999 1590.7699999999998 865.25 1590.34 865.3689999999999 1589.9299999999998C865.5279999999999 1589.3799999999999 865.6919999999999 1588.81 865.8409999999999 1588.2399999999998C865.9739999999999 1587.7399999999998 866.079 1587.1999999999998 866.1539999999999 1586.6499999999999C866.3849999999999 1584.9299999999998 866.6009999999999 1583.2299999999998 866.7959999999999 1581.6C866.895 1580.77 866.7199999999999 1579.9699999999998 866.5509999999999 1579.2099999999998C866.5269999999999 1579.1 866.5029999999999 1578.9899999999998 866.4799999999999 1578.8799999999999C866.2429999999999 1577.77 865.7199999999999 1576.8 865.2049999999999 1575.9099999999999C864.665 1574.9799999999998 864.121 1574.3799999999999 863.4409999999999 1573.9699999999998C863.367 1573.9199999999998 863.3369999999999 1573.8999999999999 863.338 1573.7399999999998C863.346 1571.37 863.3449999999999 1568.8499999999997 863.3349999999999 1566.2599999999998C863.3349999999999 1566.2499999999998 863.3349999999999 1566.2499999999998 863.3349999999999 1566.2399999999998C863.3399999999999 1566.2399999999998 863.3439999999999 1566.2399999999998 863.3509999999999 1566.2399999999998C867.1839999999999 1566.2399999999998 871.0819999999999 1566.2399999999998 874.8519999999999 1566.2399999999998H880.3169999999999C883.8969999999999 1566.2399999999998 887.4769999999999 1566.2399999999998 891.0569999999999 1566.2399999999998C891.0829999999999 1566.2399999999998 891.1059999999999 1566.2399999999998 891.1239999999999 1566.2499999999998C891.1249999999999 1566.2599999999998 891.1249999999999 1566.2799999999997 891.1249999999999 1566.2999999999997C891.1239999999999 1566.4799999999998 891.1249999999999 1566.6699999999996 891.1269999999998 1566.8499999999997C891.1299999999999 1567.2499999999998 891.1329999999998 1567.6599999999996 891.1139999999998 1568.0499999999997C891.1079999999998 1568.1599999999996 891.0499999999998 1568.3099999999997 890.9839999999998 1568.3699999999997C890.7799999999999 1568.5799999999997 890.5589999999999 1568.7799999999997 890.3449999999998 1568.9699999999996C890.0199999999998 1569.2599999999995 889.6839999999999 1569.5599999999995 889.3839999999998 1569.8999999999996C889.0249999999997 1570.3099999999997 888.7489999999998 1570.7999999999997 888.6069999999997 1571.2799999999997C888.3789999999998 1572.0599999999997 888.3899999999998 1572.8099999999997 888.6419999999997 1573.5899999999997C888.8399999999997 1574.1999999999996 889.1849999999997 1574.8199999999997 889.7279999999997 1575.5399999999997C890.2449999999998 1576.2199999999998 890.8199999999997 1576.7599999999998 891.4799999999997 1577.1699999999998C891.3559999999997 1577.31 891.2329999999997 1577.4499999999998 891.1089999999997 1577.6C890.7279999999997 1578.04 890.3339999999997 1578.5 889.9419999999997 1578.9499999999998C888.9669999999996 1580.0499999999997 888.8729999999997 1581.4599999999998 889.6689999999996 1582.9999999999998C890.1379999999997 1583.9099999999999 890.8329999999996 1584.6799999999998 891.7359999999996 1585.2799999999997C891.7239999999997 1585.2899999999997 891.7099999999997 1585.3099999999997 891.6929999999996 1585.3299999999997C891.1539999999997 1585.9499999999996 890.5809999999997 1586.6099999999997 890.0149999999996 1587.2499999999998C889.3279999999996 1588.0199999999998 889.0399999999996 1588.8999999999999 889.1579999999997 1589.8499999999997C889.2419999999996 1590.5299999999997 889.5079999999997 1591.1899999999996 889.9949999999997 1591.9399999999996C890.4659999999997 1592.6599999999996 891.0749999999997 1593.2499999999995 891.8569999999996 1593.7599999999995C891.8589999999996 1593.7599999999995 891.8599999999997 1593.7599999999995 891.8619999999996 1593.7599999999995L891.5709999999996 1594.0999999999995C890.9329999999995 1594.8499999999995 890.2739999999995 1595.6199999999994 889.6559999999996 1596.4099999999994C889.2339999999996 1596.9499999999994 889.0669999999996 1597.6499999999994 889.1719999999996 1598.4299999999994ZM892.742 1598.04C892.929 1597.82 893.117 1597.6 893.305 1597.3899999999999C893.8589999999999 1596.7399999999998 894.4319999999999 1596.08 894.9899999999999 1595.4199999999998C895.2959999999999 1595.06 895.5989999999999 1594.8899999999999 895.9699999999999 1594.8899999999999C896.0509999999999 1594.8899999999999 896.1349999999999 1594.8999999999999 896.223 1594.9099999999999C896.798 1595.0199999999998 897.323 1595.6399999999999 897.323 1596.2199999999998V1596.2399999999998L897.327 1596.2699999999998C897.354 1596.4499999999998 897.269 1596.6299999999997 897.023 1596.9099999999999C896.645 1597.35 896.258 1597.8 895.883 1598.2299999999998C895.52 1598.6399999999999 895.145 1599.0699999999997 894.778 1599.4999999999998C894.442 1599.8899999999999 894.374 1599.8999999999999 893.964 1599.6499999999999C893.437 1599.32 893.019 1598.9099999999999 892.721 1598.4299999999998C892.604 1598.2399999999998 892.619 1598.1799999999998 892.742 1598.0399999999997ZM850.474 1609.76C850.168 1609.44 849.854 1609.12 849.551 1608.8L849.4140000000001 1608.6599999999999C849.2630000000001 1608.5099999999998 849.1110000000001 1608.4799999999998 849.0100000000001 1608.4699999999998C848.9070000000002 1608.4799999999998 848.7570000000001 1608.5099999999998 848.6040000000002 1608.6599999999999C848.0160000000002 1609.2499999999998 847.4810000000001 1609.7799999999997 846.9680000000002 1610.29C846.8410000000002 1610.42 846.7720000000002 1610.55 846.7620000000002 1610.7C846.7550000000002 1610.82 846.7820000000002 1610.99 846.9480000000002 1611.16L847.0120000000002 1611.22C847.3280000000002 1611.54 847.6540000000002 1611.88 847.9780000000002 1612.2C848.1410000000002 1612.3700000000001 848.3040000000002 1612.4 848.4130000000001 1612.4C848.4140000000001 1612.4 848.4150000000001 1612.4 848.4160000000002 1612.4C848.5270000000002 1612.4 848.6950000000002 1612.3600000000001 848.8650000000001 1612.19C849.1180000000002 1611.93 849.3710000000001 1611.67 849.6240000000001 1611.42C849.9050000000001 1611.13 850.1850000000002 1610.8500000000001 850.4650000000001 1610.5600000000002C850.5210000000002 1610.5000000000002 850.5590000000002 1610.4400000000003 850.5890000000002 1610.39C850.5980000000002 1610.38 850.6080000000002 1610.3600000000001 850.6180000000002 1610.3500000000001L850.7320000000002 1610.17L850.6280000000002 1610C850.6180000000002 1609.98 850.6090000000002 1609.96 850.6010000000001 1609.95C850.5720000000001 1609.89 850.5360000000001 1609.82 850.4740000000002 1609.76ZM888.165 1583.34C887.8779999999999 1583.07 887.582 1582.79 887.3009999999999 1582.51C885.189 1580.39 883.1419999999999 1578.32 881.4179999999999 1576.58C880.5849999999999 1575.74 879.7399999999999 1574.8799999999999 878.9229999999999 1574.05L878.3749999999999 1573.5C878.2979999999999 1573.42 878.1379999999999 1573.25 877.9039999999999 1573.25C877.9029999999999 1573.25 877.9029999999999 1573.25 877.9019999999999 1573.25C877.7549999999999 1573.26 877.6179999999999 1573.32 877.497 1573.45C877.3449999999999 1573.6000000000001 877.192 1573.76 877.039 1573.91L876.411 1574.5500000000002C875.6899999999999 1575.2900000000002 874.9469999999999 1576.0500000000002 874.2099999999999 1576.7900000000002C874.213 1576.6200000000001 874.2159999999999 1576.4500000000003 874.2199999999999 1576.2800000000002C874.2239999999999 1576.0900000000001 874.228 1575.9 874.2309999999999 1575.7200000000003C874.2329999999998 1575.5300000000002 874.1789999999999 1575.3800000000003 874.0699999999999 1575.2700000000002C873.959 1575.1600000000003 873.805 1575.1100000000001 873.611 1575.1100000000001C873.326 1575.1200000000001 873.035 1575.1200000000001 872.752 1575.1200000000001C872.6329999999999 1575.1100000000001 872.5129999999999 1575.1100000000001 872.3929999999999 1575.1100000000001H872.0719999999999V1575.13C871.8429999999998 1575.13 871.6059999999999 1575.13 871.3749999999999 1575.13C871.1719999999999 1575.13 871.0139999999999 1575.18 870.9019999999999 1575.3000000000002C870.7889999999999 1575.42 870.7349999999999 1575.5800000000002 870.7399999999999 1575.7800000000002C870.7559999999999 1576.39 870.7589999999999 1577.0100000000002 870.7599999999999 1577.4800000000002C870.7599999999999 1577.7300000000002 870.7559999999999 1577.9900000000002 870.7509999999999 1578.2400000000002C870.7409999999999 1578.7800000000002 870.7309999999999 1579.3300000000002 870.7699999999999 1579.8800000000003C870.7899999999998 1580.1600000000003 870.7139999999998 1580.3400000000004 870.4709999999999 1580.5700000000004C870.1599999999999 1580.8800000000003 869.8479999999998 1581.1900000000003 869.5459999999999 1581.4900000000005L869.435 1581.6000000000004C868.78 1582.2500000000005 868.103 1582.9300000000003 867.439 1583.6000000000004C867.314 1583.7200000000003 867.1709999999999 1583.8900000000003 867.1719999999999 1584.1200000000003C867.1719999999999 1584.3400000000004 867.31 1584.5100000000004 867.4449999999999 1584.6400000000003C867.9169999999999 1585.1100000000004 868.371 1585.5800000000004 868.8739999999999 1586.1000000000004C868.9819999999999 1586.2200000000003 869.146 1586.3800000000003 869.3739999999999 1586.3800000000003C869.3749999999999 1586.3800000000003 869.3749999999999 1586.3800000000003 869.3749999999999 1586.3800000000003C869.5849999999999 1586.3800000000003 869.7339999999999 1586.2500000000002 869.8569999999999 1586.1200000000003C870.0549999999998 1585.9100000000003 870.2539999999999 1585.7000000000003 870.4469999999999 1585.4900000000002C870.5469999999999 1585.3900000000003 870.6489999999999 1585.2800000000002 870.7519999999998 1585.1700000000003C870.7479999999998 1585.2200000000003 870.7449999999999 1585.2800000000002 870.7449999999999 1585.3400000000004C870.7469999999998 1586.9500000000003 870.7529999999999 1588.6000000000004 870.7589999999999 1590.1900000000003L870.7609999999999 1590.7500000000002C870.7619999999998 1590.8400000000001 870.7649999999999 1590.9400000000003 870.7679999999998 1591.0200000000002C870.7739999999998 1591.1800000000003 870.7789999999998 1591.3200000000002 870.7689999999998 1591.4600000000003C870.7499999999998 1591.7400000000002 870.7489999999998 1591.9800000000002 870.9189999999998 1592.1600000000003C871.0889999999997 1592.3400000000004 871.3289999999997 1592.3400000000004 871.5809999999998 1592.3300000000004C871.6349999999998 1592.3300000000004 871.6899999999998 1592.3300000000004 871.7449999999998 1592.3300000000004H874.1059999999998C876.9769999999997 1592.3300000000004 879.8479999999997 1592.3300000000004 882.7189999999998 1592.3400000000004C883.2769999999998 1592.3400000000004 883.8379999999999 1592.3500000000004 884.4599999999998 1592.3600000000004C884.4669999999998 1592.3600000000004 884.4739999999998 1592.3600000000004 884.4809999999998 1592.3600000000004C884.8279999999997 1592.3600000000004 885.0659999999998 1592.1500000000003 885.1029999999997 1591.8100000000004C885.1179999999997 1591.6700000000003 885.1159999999998 1591.5300000000004 885.1139999999997 1591.4100000000003C885.1129999999997 1591.3700000000003 885.1129999999997 1591.3300000000004 885.1129999999997 1591.3000000000004L885.1049999999997 1589.8700000000003C885.0959999999997 1588.3200000000004 885.0879999999996 1586.7300000000002 885.0809999999997 1585.1500000000003C885.4049999999996 1585.4900000000002 885.7179999999996 1585.8200000000004 886.0149999999996 1586.1400000000003C886.1619999999997 1586.3000000000004 886.3139999999996 1586.3700000000003 886.4809999999997 1586.3800000000003C886.6449999999996 1586.3800000000003 886.8009999999997 1586.3000000000004 886.9459999999997 1586.1500000000003C887.4669999999996 1585.6200000000003 888.0039999999997 1585.0800000000004 888.5099999999996 1584.5800000000004C888.6519999999997 1584.4300000000003 888.7229999999996 1584.2800000000004 888.7209999999997 1584.1100000000004C888.7189999999997 1583.9500000000003 888.6439999999997 1583.8000000000004 888.4989999999997 1583.6600000000003C888.3879999999997 1583.5500000000004 888.2769999999997 1583.4500000000003 888.1649999999997 1583.3400000000004ZM881.653 1586.85C881.654 1587.4699999999998 881.6560000000001 1588.08 881.655 1588.6999999999998C881.655 1588.7799999999997 881.6519999999999 1588.8199999999997 881.648 1588.85C881.6170000000001 1588.86 881.5640000000001 1588.86 881.477 1588.86C881.273 1588.86 881.068 1588.86 880.8629999999999 1588.86C880.482 1588.86 880.087 1588.86 879.699 1588.85C879.67 1588.85 879.6469999999999 1588.85 879.6279999999999 1588.85C879.627 1588.83 879.627 1588.8 879.6279999999999 1588.76C879.6389999999999 1588.21 879.6479999999999 1587.62 879.6589999999999 1586.85C879.6609999999998 1586.6699999999998 879.6439999999999 1586.4399999999998 879.4839999999999 1586.28C879.324 1586.12 879.0989999999999 1586.1 878.9019999999999 1586.1C878.271 1586.1 877.6419999999999 1586.1 876.8919999999999 1586.1C876.7139999999999 1586.1 876.51 1586.12 876.3589999999999 1586.27C876.2069999999999 1586.42 876.189 1586.6299999999999 876.1899999999999 1586.8C876.194 1587.47 876.204 1588.1599999999999 876.2189999999999 1588.84C876.2189999999999 1588.85 876.2189999999999 1588.85 876.2189999999999 1588.86H875.9899999999999C875.4149999999998 1588.85 874.8199999999999 1588.85 874.2349999999999 1588.85C874.2209999999999 1588.85 874.209 1588.85 874.1999999999999 1588.85C874.199 1588.84 874.198 1588.83 874.198 1588.81C874.2049999999999 1587.96 874.204 1587.11 874.203 1586.28C874.203 1586.08 874.203 1585.8799999999999 874.202 1585.68H874.21V1585.3600000000001C874.21 1585.0500000000002 874.21 1584.7400000000002 874.21 1584.44C874.211 1583.65 874.212 1582.8300000000002 874.207 1582.03C874.206 1581.77 874.278 1581.59 874.463 1581.41C875.1809999999999 1580.71 875.8969999999999 1579.99 876.5889999999999 1579.28C876.88 1578.99 877.17 1578.69 877.462 1578.3999999999999C877.572 1578.29 877.688 1578.1799999999998 877.8 1578.07C877.838 1578.03 877.876 1578 877.913 1577.96C878.205 1578.26 878.5 1578.56 878.785 1578.8500000000001C879.545 1579.63 880.3299999999999 1580.43 881.137 1581.19C881.5319999999999 1581.56 881.6819999999999 1581.92 881.6719999999999 1582.48C881.646 1583.94 881.6489999999999 1585.42 881.6529999999999 1586.85ZM878.841 1602.55C878.595 1602.57 878.347 1602.57 878.085 1602.57C877.96 1602.57 877.837 1602.56 877.707 1602.56C877.534 1602.55 877.355 1602.54 877.175 1602.54C876.9699999999999 1602.55 876.764 1602.56 876.5649999999999 1602.57C876.26 1602.58 875.9709999999999 1602.6 875.68 1602.59C875.4559999999999 1602.59 875.2239999999999 1602.58 875.058 1602.75C874.889 1602.91 874.889 1603.16 874.889 1603.37L874.89 1603.6499999999999C874.891 1604.1599999999999 874.8919999999999 1604.6899999999998 874.871 1605.2099999999998C874.861 1605.4299999999998 874.865 1605.6399999999999 875.018 1605.8099999999997C875.164 1605.9599999999998 875.3720000000001 1605.9799999999998 875.575 1605.9899999999998C875.9590000000001 1605.9899999999998 876.3480000000001 1605.9899999999998 876.724 1605.9899999999998C876.7800000000001 1605.9899999999998 876.835 1605.9899999999998 876.8910000000001 1605.9899999999998H877.2120000000001C877.3750000000001 1605.9899999999998 877.5370000000001 1605.9899999999998 877.7000000000002 1605.9899999999998C878.0830000000002 1605.9899999999998 878.4800000000001 1605.9799999999998 878.8670000000002 1605.9899999999998C878.8780000000002 1605.9899999999998 878.8900000000002 1605.9899999999998 878.9010000000002 1605.9899999999998C879.1260000000002 1605.9899999999998 879.2940000000002 1605.9299999999998 879.4130000000001 1605.8099999999997C879.5340000000001 1605.6799999999996 879.5860000000001 1605.4899999999998 879.5670000000001 1605.2599999999998C879.5580000000001 1605.1499999999999 879.5620000000001 1605.0199999999998 879.5660000000001 1604.8899999999999C879.5720000000001 1604.6999999999998 879.5800000000002 1604.52 879.5870000000001 1604.33C879.6020000000001 1603.98 879.6170000000001 1603.61 879.6210000000001 1603.25C879.623 1603.07 879.604 1602.85 879.4360000000001 1602.69C879.2680000000001 1602.54 879.0410000000002 1602.53 878.8410000000001 1602.55Z " fill="#333333" fill-opacity="1" transform="matrix(1,0,0,1,-838,-1556)"></path></svg>