<svg id="SvgjsSvg1044" xmlns="http://www.w3.org/2000/svg" version="1.1" xmlns:xlink="http://www.w3.org/1999/xlink" xmlns:svgjs="http://svgjs.com/svgjs" width="58" height="59" viewBox="0 0 58 59"><title>Shape 79</title><desc>Created with Avocode.</desc><defs id="SvgjsDefs1045"></defs><path id="SvgjsPath1046" d="M579.796 1567.32H579.856C580.314 1567.32 580.651 1566.97 580.92 1566.6799999999998L580.9979999999999 1566.6C582.762 1564.79 584.9449999999999 1563.85 587.486 1563.82C587.528 1563.82 587.569 1563.82 587.61 1563.82C590.236 1563.82 592.6800000000001 1564.75 594.875 1566.59C595.777 1567.35 596.921 1567.32 597.598 1566.52C597.925 1566.1399999999999 598.077 1565.67 598.0369999999999 1565.18C597.992 1564.64 597.7009999999999 1564.1100000000001 597.2169999999999 1563.71C594.3949999999999 1561.32 591.1299999999999 1560.15 586.9229999999999 1560L586.7899999999998 1560.01C586.5909999999999 1560.06 586.3449999999998 1560.11 586.0499999999998 1560.16C585.2419999999998 1560.3200000000002 584.1339999999998 1560.53 583.0649999999998 1560.88C581.1909999999998 1561.49 579.5399999999998 1562.6100000000001 578.1589999999999 1564.21C577.4289999999999 1565.06 577.3849999999999 1566.04 578.0479999999999 1566.7C578.4079999999999 1567.06 578.9809999999999 1567.27 579.7959999999999 1567.32ZM594.379 1567.89C592.369 1566.2800000000002 590.2280000000001 1565.46 588.027 1565.46C587.9870000000001 1565.46 587.947 1565.46 587.9060000000001 1565.46H587.7360000000001C585.219 1565.46 583.1450000000001 1566.32 581.3950000000001 1568.08C580.4570000000001 1569.02 580.3530000000001 1570.1599999999999 581.1300000000001 1570.98C581.4770000000001 1571.34 581.8830000000002 1571.52 582.3370000000001 1571.52C582.8300000000002 1571.52 583.363 1571.3 583.9230000000001 1570.85C584.5550000000001 1570.34 585.2720000000002 1569.77 585.9960000000001 1569.53C588.118 1568.83 590.1620000000001 1569.26 592.0710000000001 1570.81C592.5850000000002 1571.22 593.1670000000001 1571.4099999999999 593.7090000000002 1571.35C594.1720000000001 1571.29 594.5710000000001 1571.06 594.8630000000002 1570.6699999999998C595.5610000000001 1569.7499999999998 595.3760000000002 1568.6899999999998 594.3790000000001 1567.8899999999999ZM595.797 1615.24C595.073 1615.22 594.3380000000001 1615.23 593.69 1615.23C593.0840000000001 1615.23 592.479 1615.23 591.875 1615.23C591.172 1615.23 590.471 1615.23 589.769 1615.24C588.593 1615.26 587.888 1615.95 587.883 1617.09C587.8770000000001 1618.23 588.6120000000001 1618.98 589.753 1618.99C590.692 1619 591.648 1619 592.633 1619C593.642 1619 594.6840000000001 1619 595.77 1618.99C596.887 1618.98 597.6759999999999 1618.21 597.689 1617.1200000000001C597.702 1616.0300000000002 596.924 1615.2600000000002 595.7969999999999 1615.24ZM551.23 1615.24C550.5690000000001 1615.23 549.898 1615.23 549.2470000000001 1615.23H548.215H547.3090000000001C546.6060000000001 1615.23 545.9030000000001 1615.23 545.2 1615.24C544.062 1615.25 543.2900000000001 1615.99 543.279 1617.08C543.274 1617.61 543.448 1618.08 543.783 1618.4299999999998C544.128 1618.7899999999997 544.606 1618.9799999999998 545.166 1618.9899999999998C546.196 1618.9899999999998 547.219 1618.9999999999998 548.2270000000001 1618.9999999999998C549.258 1618.9999999999998 550.2730000000001 1618.9899999999998 551.2650000000001 1618.9899999999998C552.3310000000001 1618.9799999999998 553.089 1618.2099999999998 553.1080000000001 1617.1399999999999C553.1170000000001 1616.59 552.9390000000001 1616.12 552.5920000000001 1615.77C552.2510000000001 1615.43 551.7810000000001 1615.25 551.2300000000001 1615.24ZM591.187 1603.76C590.457 1603.7 589.872 1603.72 589.343 1603.82C588.406 1603.99 587.8249999999999 1604.76 587.895 1605.73C587.967 1606.7 588.574 1607.34 589.519 1607.45C589.752 1607.47 589.979 1607.47 590.188 1607.46L590.433 1607.47C590.494 1607.47 590.555 1607.47 590.617 1607.47C590.685 1607.47 590.7529999999999 1607.48 590.8209999999999 1607.48C590.911 1607.48 591.0009999999999 1607.47 591.093 1607.47C592.159 1607.39 592.906 1606.63 592.91 1605.6200000000001C592.914 1604.6200000000001 592.189 1603.8400000000001 591.187 1603.7600000000002ZM571.282 1603.76C570.7800000000001 1603.7 570.2860000000001 1603.71 569.8710000000001 1603.73C568.7690000000001 1603.79 567.9570000000001 1604.57 567.9380000000001 1605.58C567.9190000000001 1606.6399999999999 568.7320000000001 1607.4199999999998 569.916 1607.48C569.9910000000001 1607.48 570.067 1607.48 570.144 1607.48L570.587 1607.47L570.6659999999999 1607.48C570.8109999999999 1607.48 570.9749999999999 1607.48 571.1429999999999 1607.47C572.1999999999999 1607.39 572.9759999999999 1606.6200000000001 572.987 1605.64C572.9979999999999 1604.67 572.281 1603.88 571.2819999999999 1603.76ZM584.632 1603.79C584.3159999999999 1603.72 584.001 1603.72 583.709 1603.72H583.578C581.5509999999999 1603.72 581.1229999999999 1604.75 581.122 1605.6100000000001C581.121 1606.13 581.279 1606.5600000000002 581.5899999999999 1606.8700000000001C581.9899999999999 1607.2800000000002 582.598 1607.47 583.5039999999999 1607.47C583.6019999999999 1607.47 583.7019999999999 1607.47 583.8039999999999 1607.47C583.8869999999998 1607.47 583.9709999999999 1607.47 584.0559999999998 1607.47C584.1669999999998 1607.47 584.2789999999998 1607.47 584.3919999999998 1607.46C585.3779999999998 1607.38 586.0359999999998 1606.72 586.1099999999998 1605.74C586.1819999999998 1604.77 585.6149999999998 1604.02 584.6319999999998 1603.79ZM578.178 1603.81C577.8149999999999 1603.73 577.448 1603.73 577.124 1603.73L577.0210000000001 1603.72C574.892 1603.72 574.5670000000001 1604.9 574.5630000000001 1605.6100000000001C574.5600000000001 1606.1200000000001 574.7220000000001 1606.5500000000002 575.0320000000002 1606.8600000000001C575.4430000000001 1607.2800000000002 576.1000000000001 1607.47 577.0350000000002 1607.45C577.1180000000002 1607.45 577.2010000000002 1607.46 577.2830000000002 1607.46C577.3760000000002 1607.46 577.4700000000003 1607.46 577.5640000000002 1607.46C577.6880000000002 1607.46 577.8130000000002 1607.46 577.9380000000002 1607.45C578.8790000000002 1607.3600000000001 579.5050000000002 1606.7 579.5720000000002 1605.74C579.6380000000003 1604.78 579.1040000000003 1604.04 578.1780000000002 1603.81ZM557.592 1603.75C557.036 1603.7 556.5029999999999 1603.7 556.007 1603.76C555.006 1603.8799999999999 554.3019999999999 1604.68 554.333 1605.67C554.3629999999999 1606.65 555.071 1607.3700000000001 556.0949999999999 1607.46C556.1999999999999 1607.47 556.305 1607.47 556.41 1607.47C556.4839999999999 1607.47 556.559 1607.47 556.632 1607.47H556.68C556.731 1607.47 556.7829999999999 1607.47 556.834 1607.47H557.0139999999999C557.1739999999999 1607.47 557.3349999999999 1607.48 557.4959999999999 1607.47C558.5899999999999 1607.39 559.3159999999999 1606.69 559.3439999999998 1605.67C559.3729999999998 1604.64 558.6519999999998 1603.8500000000001 557.5919999999999 1603.75ZM564.792 1603.86C564.0400000000001 1603.74 563.241 1603.74 562.4830000000001 1603.86C561.5980000000001 1604 561.0690000000001 1604.78 561.167 1605.8C561.255 1606.72 561.842 1607.33 562.735 1607.44C562.958 1607.47 563.1750000000001 1607.48 563.366 1607.48C563.453 1607.48 563.539 1607.49 563.612 1607.49H563.656H563.6859999999999C563.7669999999999 1607.49 563.8489999999999 1607.48 563.93 1607.48C564.127 1607.48 564.3499999999999 1607.47 564.579 1607.44C565.467 1607.3200000000002 566.049 1606.7 566.1339999999999 1605.78C566.2249999999999 1604.79 565.6739999999999 1604 564.7919999999999 1603.86ZM550.934 1603.73C550.533 1603.71 550.1179999999999 1603.71 549.6999999999999 1603.74C548.563 1603.81 547.829 1604.55 547.8299999999999 1605.6200000000001C547.8319999999999 1606.68 548.5699999999999 1607.41 549.713 1607.47C549.8489999999999 1607.48 549.985 1607.48 550.1179999999999 1607.47H550.2789999999999L550.4649999999999 1607.48C550.535 1607.48 550.6059999999999 1607.48 550.6759999999999 1607.48C550.7629999999999 1607.48 550.8489999999999 1607.48 550.935 1607.47C552.0809999999999 1607.4 552.8219999999999 1606.67 552.8209999999999 1605.6100000000001C552.819 1604.5700000000002 552.0609999999999 1603.8100000000002 550.934 1603.73ZM595.318 1597.63C594.535 1597.63 593.752 1597.63 592.9689999999999 1597.63L592.5889999999999 1597.6200000000001C590.342 1597.6200000000001 588.0189999999999 1597.6200000000001 585.737 1597.65C585.6429999999999 1597.65 585.56 1597.64 585.4739999999999 1597.63H581.704C581.627 1597.64 581.5509999999999 1597.65 581.4659999999999 1597.64C577.9279999999999 1597.63 574.3879999999999 1597.63 570.8489999999999 1597.63H569.621C566.076 1597.63 562.531 1597.63 558.978 1597.65C558.904 1597.65 558.824 1597.64 558.727 1597.63L558.697 1597.6200000000001L555.022 1597.63H554.9590000000001C554.8860000000001 1597.64 554.801 1597.64 554.7220000000001 1597.64C553.445 1597.63 552.1690000000001 1597.63 550.8910000000001 1597.63H548.0720000000001C547.0940000000002 1597.63 546.1170000000001 1597.63 545.1390000000001 1597.64C543.3510000000001 1597.65 542.0410000000002 1598.92 542.0260000000001 1600.67C541.9900000000001 1604.52 541.999 1607.7 542.052 1610.68C542.063 1611.26 542.322 1611.94 542.746 1612.5C543.3299999999999 1613.27 544.2189999999999 1613.64 545.471 1613.64C551.363 1613.64 557.254 1613.64 563.148 1613.64H581.0880000000001C585.9000000000001 1613.64 590.714 1613.64 595.5280000000001 1613.63C597.7030000000001 1613.63 598.9610000000001 1612.3700000000001 598.9790000000002 1610.16C598.9980000000002 1607.75 599.0180000000001 1604.5700000000002 598.9910000000001 1601.3300000000002C598.9700000000001 1598.7700000000002 597.8370000000001 1597.63 595.3180000000001 1597.63ZM595.922 1609.9C595.926 1610.2900000000002 595.845 1610.3700000000001 595.818 1610.4C595.7909999999999 1610.43 595.707 1610.51 595.282 1610.51C590.517 1610.5 585.6940000000001 1610.5 580.941 1610.5C579.251 1610.5 577.5690000000001 1610.5 575.904 1610.5H570.403C562.213 1610.5 554.023 1610.5 545.833 1610.5C545.644 1610.5 545.201 1610.5 545.13 1610.47C545.078 1610.3700000000001 545.077 1609.92 545.077 1609.72C545.077 1608.91 545.078 1608.1000000000001 545.08 1607.29V1607.25C545.0830000000001 1605.32 545.087 1603.33 545.062 1601.37C545.059 1601.11 545.093 1600.9399999999998 545.164 1600.86C545.191 1600.84 545.273 1600.75 545.693 1600.75C562.622 1600.77 579.31 1600.77 595.298 1600.75C595.566 1600.75 595.74 1600.79 595.816 1600.87C595.889 1600.9399999999998 595.9250000000001 1601.12 595.923 1601.3799999999999C595.894 1604.3 595.894 1607.1599999999999 595.922 1609.8999999999999ZM591.187 1586.1C590.457 1586.04 589.872 1586.06 589.343 1586.1699999999998C588.406 1586.34 587.8249999999999 1587.11 587.895 1588.08C587.967 1589.05 588.574 1589.6899999999998 589.519 1589.79C589.752 1589.82 589.979 1589.81 590.188 1589.81L590.433 1589.82C590.494 1589.82 590.555 1589.82 590.617 1589.82C590.685 1589.82 590.7529999999999 1589.82 590.8209999999999 1589.82C590.911 1589.82 591.0009999999999 1589.82 591.093 1589.82C592.159 1589.74 592.906 1588.98 592.91 1587.97C592.914 1586.97 592.189 1586.18 591.187 1586.1000000000001ZM571.282 1586.11C570.7800000000001 1586.05 570.2860000000001 1586.06 569.8710000000001 1586.08C568.7690000000001 1586.1399999999999 567.9570000000001 1586.9199999999998 567.9380000000001 1587.9299999999998C567.9190000000001 1588.9899999999998 568.7320000000001 1589.7699999999998 569.916 1589.82C569.9910000000001 1589.83 570.067 1589.83 570.144 1589.83L570.587 1589.82H570.6659999999999C570.8109999999999 1589.83 570.9749999999999 1589.83 571.1429999999999 1589.82C572.1999999999999 1589.74 572.9759999999999 1588.97 572.987 1587.99C572.9979999999999 1587.02 572.281 1586.23 571.2819999999999 1586.11ZM584.632 1586.14C584.3159999999999 1586.0700000000002 584.001 1586.0700000000002 583.709 1586.0700000000002H583.578C581.5509999999999 1586.0700000000002 581.1229999999999 1587.1000000000001 581.122 1587.9600000000003C581.121 1588.4800000000002 581.279 1588.9100000000003 581.5899999999999 1589.2200000000003C581.9899999999999 1589.6300000000003 582.598 1589.8100000000002 583.5039999999999 1589.8100000000002C583.6019999999999 1589.8100000000002 583.7019999999999 1589.8200000000002 583.8039999999999 1589.8200000000002C583.8869999999998 1589.8200000000002 583.9709999999999 1589.8200000000002 584.0559999999998 1589.8200000000002C584.1669999999998 1589.8200000000002 584.2789999999998 1589.8200000000002 584.3919999999998 1589.8100000000002C585.3779999999998 1589.7300000000002 586.0359999999998 1589.0700000000002 586.1099999999998 1588.0900000000001C586.1819999999998 1587.1200000000001 585.6149999999998 1586.3700000000001 584.6319999999998 1586.14ZM578.178 1586.16C577.8149999999999 1586.0800000000002 577.448 1586.0700000000002 577.124 1586.0700000000002H577.0210000000001C574.892 1586.0700000000002 574.5670000000001 1587.2500000000002 574.5630000000001 1587.9500000000003C574.5600000000001 1588.4700000000003 574.7220000000001 1588.9000000000003 575.0320000000002 1589.2100000000003C575.4430000000001 1589.6300000000003 576.1000000000001 1589.8200000000002 577.0350000000002 1589.8000000000002C577.1180000000002 1589.8000000000002 577.2010000000002 1589.8100000000002 577.2830000000002 1589.8100000000002C577.3760000000002 1589.8100000000002 577.4700000000003 1589.8100000000002 577.5640000000002 1589.8100000000002C577.6880000000002 1589.8100000000002 577.8130000000002 1589.8100000000002 577.9380000000002 1589.8000000000002C578.8790000000002 1589.7000000000003 579.5050000000002 1589.0500000000002 579.5720000000002 1588.0900000000001C579.6380000000003 1587.13 579.1040000000003 1586.39 578.1780000000002 1586.16ZM557.592 1586.1C557.036 1586.05 556.5029999999999 1586.05 556.007 1586.11C555.006 1586.2299999999998 554.3019999999999 1587.03 554.333 1588.02C554.3629999999999 1589 555.071 1589.72 556.0949999999999 1589.81C556.1999999999999 1589.82 556.305 1589.82 556.41 1589.82C556.4839999999999 1589.82 556.559 1589.82 556.632 1589.82H556.68C556.731 1589.82 556.7829999999999 1589.82 556.834 1589.82H557.0139999999999C557.1739999999999 1589.82 557.3349999999999 1589.83 557.4959999999999 1589.81C558.5899999999999 1589.74 559.3159999999999 1589.04 559.3439999999998 1588.02C559.3729999999998 1586.99 558.6519999999998 1586.2 557.5919999999999 1586.1ZM564.792 1586.21C564.0400000000001 1586.0900000000001 563.2420000000001 1586.0900000000001 562.4830000000001 1586.21C561.5980000000001 1586.3500000000001 561.0690000000001 1587.13 561.167 1588.15C561.255 1589.0600000000002 561.842 1589.68 562.735 1589.7900000000002C562.958 1589.8200000000002 563.1750000000001 1589.8300000000002 563.366 1589.8300000000002C563.453 1589.8300000000002 563.539 1589.8400000000001 563.612 1589.8400000000001H563.656H563.6859999999999C563.7669999999999 1589.8400000000001 563.8489999999999 1589.8300000000002 563.93 1589.8300000000002C564.127 1589.8200000000002 564.3499999999999 1589.8200000000002 564.579 1589.7900000000002C565.467 1589.6700000000003 566.049 1589.0500000000002 566.1339999999999 1588.13C566.2249999999999 1587.14 565.6739999999999 1586.3500000000001 564.7919999999999 1586.21ZM550.934 1586.08C550.533 1586.06 550.1179999999999 1586.06 549.6999999999999 1586.08C548.563 1586.1599999999999 547.829 1586.8999999999999 547.8299999999999 1587.97C547.8319999999999 1589.03 548.5699999999999 1589.75 549.713 1589.82C549.8489999999999 1589.83 549.985 1589.83 550.1179999999999 1589.82H550.2789999999999H550.4649999999999C550.535 1589.83 550.6059999999999 1589.83 550.6759999999999 1589.83C550.7629999999999 1589.83 550.8489999999999 1589.82 550.935 1589.82C552.0809999999999 1589.75 552.8219999999999 1589.02 552.8209999999999 1587.96C552.819 1586.91 552.0609999999999 1586.16 550.934 1586.08ZM542.746 1594.85C543.3299999999999 1595.62 544.2189999999999 1595.99 545.471 1595.99C551.363 1595.98 557.254 1595.98 563.148 1595.98L581.0880000000001 1595.99C585.9010000000001 1595.99 590.714 1595.99 595.5280000000001 1595.98C597.7030000000001 1595.98 598.9610000000001 1594.72 598.9790000000002 1592.51C598.9980000000002 1590.1 599.0180000000001 1586.92 598.9910000000001 1583.68C598.9700000000001 1581.1200000000001 597.8370000000001 1579.98 595.3180000000001 1579.98C594.5350000000001 1579.98 593.7520000000001 1579.98 592.969 1579.97H592.589C591.5210000000001 1579.97 590.436 1579.97 589.346 1579.97C589.345 1579.21 589.343 1578.45 589.341 1577.7L589.339 1577.01C589.3370000000001 1576.27 589.374 1575.71 589.864 1575.12C590.253 1574.6599999999999 590.4340000000001 1574.05 590.373 1573.4299999999998C590.306 1572.7299999999998 589.956 1572.09 589.412 1571.6499999999999C588.356 1570.8 586.943 1570.87 586.053 1571.81C585.088 1572.84 585.026 1574.27 585.897 1575.37C586.1030000000001 1575.6299999999999 586.249 1576 586.2510000000001 1576.27C586.2610000000001 1577.52 586.2650000000001 1578.77 586.267 1579.99C586.09 1579.99 585.913 1579.99 585.7370000000001 1579.99C585.6450000000001 1580 585.5600000000001 1579.99 585.4750000000001 1579.98H581.7040000000002C581.6320000000002 1579.99 581.5510000000002 1579.99 581.4660000000001 1579.99C577.9280000000001 1579.98 574.3880000000001 1579.98 570.8490000000002 1579.97H569.6210000000002C566.0760000000002 1579.98 562.5310000000002 1579.98 558.9780000000002 1579.99C558.9040000000002 1580 558.8240000000002 1579.99 558.7270000000002 1579.98L558.6970000000002 1579.97H555.0220000000003L554.9590000000003 1579.98C554.8860000000003 1579.99 554.8010000000003 1579.99 554.7220000000003 1579.99C553.4450000000003 1579.98 552.1690000000003 1579.98 550.8910000000003 1579.97L548.0720000000003 1579.98C547.0940000000004 1579.98 546.1170000000003 1579.98 545.1390000000004 1579.99C543.3510000000003 1580 542.0410000000004 1581.27 542.0260000000003 1583.02C541.9900000000004 1586.87 541.9990000000003 1590.05 542.0520000000002 1593.03C542.0630000000002 1593.61 542.3220000000002 1594.29 542.7460000000002 1594.85ZM595.922 1592.25C595.926 1592.64 595.845 1592.72 595.818 1592.75C595.7909999999999 1592.78 595.707 1592.86 595.282 1592.86C590.519 1592.85 585.697 1592.85 580.946 1592.85C579.254 1592.85 577.571 1592.85 575.904 1592.85H570.403C562.213 1592.85 554.023 1592.85 545.833 1592.85C545.644 1592.85 545.201 1592.85 545.13 1592.82C545.078 1592.72 545.077 1592.27 545.077 1592.07C545.077 1591.26 545.078 1590.45 545.08 1589.6399999999999V1589.6C545.0830000000001 1587.6699999999998 545.087 1585.6799999999998 545.062 1583.7199999999998C545.059 1583.4599999999998 545.093 1583.2899999999997 545.164 1583.2099999999998C545.191 1583.1899999999998 545.273 1583.1 545.693 1583.1C562.622 1583.12 579.31 1583.12 595.298 1583.1C595.566 1583.1 595.74 1583.1399999999999 595.816 1583.2199999999998C595.889 1583.2899999999997 595.9250000000001 1583.4699999999998 595.923 1583.7299999999998C595.894 1586.6399999999999 595.894 1589.5099999999998 595.922 1592.2499999999998Z " fill="#333333" fill-opacity="1" transform="matrix(1,0,0,1,-542,-1560)"></path></svg>