<svg id="SvgjsSvg1038" xmlns="http://www.w3.org/2000/svg" version="1.1" xmlns:xlink="http://www.w3.org/1999/xlink" xmlns:svgjs="http://svgjs.com/svgjs" width="57" height="54" viewBox="0 0 57 54"><title>Shape 51</title><desc>Created with Avocode.</desc><defs id="SvgjsDefs1039"></defs><path id="SvgjsPath1040" d="M1170.48 1405.75C1166.59 1405.75 1162.65 1406.12 1158.82 1405.67C1149.95 1404.63 1143.3999999999999 1397.27 1143.07 1388.4C1142.9099999999999 1384.22 1142.76 1380.02 1144.77 1376.1200000000001C1147.57 1370.71 1151.86 1367.21 1157.96 1366.0200000000002C1158.57 1365.9100000000003 1159.15 1365.8700000000001 1159.1100000000001 1366.6800000000003C1159.0700000000002 1367.5500000000002 1159.97 1368.6700000000003 1158.3700000000001 1369.1700000000003C1156.8100000000002 1369.6600000000003 1155.22 1370.1700000000003 1153.7900000000002 1370.9500000000003C1149.5100000000002 1373.2600000000002 1147.0800000000002 1377.0100000000002 1146.4400000000003 1381.7000000000003C1145.9000000000003 1385.7500000000002 1145.7100000000003 1389.8900000000003 1147.5500000000002 1393.7500000000002C1150.15 1399.2200000000003 1154.5000000000002 1402.4500000000003 1160.64 1402.6600000000003C1167.23 1402.8900000000003 1173.8400000000001 1402.8300000000004 1180.44 1402.6800000000003C1188.04 1402.5200000000002 1194.47 1396.1500000000003 1194.76 1388.6100000000004C1194.89 1385.2600000000004 1195.18 1381.8800000000003 1193.86 1378.6400000000003C1191.8 1373.6000000000004 1188.1599999999999 1370.3600000000004 1182.78 1369.2000000000003C1181.45 1368.9100000000003 1181.1 1368.3300000000004 1181.1399999999999 1367.0900000000004C1181.1699999999998 1365.9600000000003 1181.61 1365.6500000000003 1182.6599999999999 1365.8500000000004C1185.6299999999999 1366.4200000000003 1188.3899999999999 1367.4900000000005 1190.7699999999998 1369.3600000000004C1195.3299999999997 1372.9600000000003 1197.8699999999997 1377.6100000000004 1197.9599999999998 1383.4500000000003C1197.9899999999998 1385.5800000000004 1198.0799999999997 1387.7400000000002 1197.85 1389.8500000000004C1196.8999999999999 1398.8900000000003 1189 1405.9200000000003 1179.83 1405.9700000000003C1176.72 1405.9900000000002 1173.6 1405.9800000000002 1170.48 1405.9800000000002C1170.48 1405.9000000000003 1170.48 1405.8200000000002 1170.48 1405.7500000000002ZM1161.5 1366.28C1161.5 1363.33 1161.44 1360.3799999999999 1161.52 1357.42C1161.59 1354.5 1163.12 1352.5600000000002 1165.5 1352.0900000000001C1166.56 1351.88 1167.5 1352.0400000000002 1167.83 1353.18C1168.1699999999998 1354.3400000000001 1167.3899999999999 1354.8300000000002 1166.3899999999999 1355.26C1165.78 1355.52 1165.08 1356.16 1164.9399999999998 1356.76C1164.6499999999999 1357.97 1164.6299999999999 1359.27 1164.6699999999998 1360.53C1164.6799999999998 1360.84 1165.33 1361.3899999999999 1165.6899999999998 1361.3899999999999C1168.7099999999998 1361.4099999999999 1171.7299999999998 1361.31 1174.7599999999998 1361.28C1175.6599999999999 1361.27 1175.7499999999998 1360.78 1175.7999999999997 1360.05C1175.9199999999996 1358.3899999999999 1175.9599999999998 1356.7 1176.3399999999997 1355.09C1176.7499999999998 1353.34 1178.0899999999997 1352.3799999999999 1179.8799999999997 1352.07C1180.9599999999996 1351.8799999999999 1181.8699999999997 1352.1299999999999 1182.1199999999997 1353.29C1182.3499999999997 1354.37 1181.6999999999996 1355.04 1180.6499999999996 1355.19C1179.6999999999996 1355.3300000000002 1179.2899999999997 1355.89 1179.1599999999996 1356.72C1179.0499999999997 1357.39 1178.9799999999996 1358.07 1178.9799999999996 1358.75C1178.9699999999996 1364.16 1178.9499999999996 1369.56 1178.9899999999996 1374.97C1178.9999999999995 1376.06 1178.8099999999995 1376.67 1177.5099999999995 1376.63C1176.3299999999995 1376.5900000000001 1175.7499999999995 1376.2900000000002 1175.7499999999995 1375C1175.7599999999995 1372.5 1175.7099999999996 1372.49 1173.1099999999994 1372.45C1170.7299999999993 1372.41 1168.3499999999995 1372.43 1165.9699999999993 1372.3700000000001C1164.9699999999993 1372.3400000000001 1164.5099999999993 1372.69 1164.6099999999994 1373.7C1164.6499999999994 1374.2 1164.5699999999995 1374.71 1164.6199999999994 1375.2C1164.7099999999994 1376.22 1164.2399999999993 1376.53 1163.2599999999995 1376.57C1161.5699999999995 1376.62 1161.4799999999996 1376.59 1161.4699999999996 1374.87C1161.4699999999996 1372.01 1161.4699999999996 1369.1499999999999 1161.4699999999996 1366.28C1161.4799999999996 1366.28 1161.4899999999996 1366.28 1161.4999999999995 1366.28ZM1170.23 1369.21C1170.23 1369.19 1170.23 1369.18 1170.23 1369.16C1170.96 1369.16 1171.69 1369.17 1172.42 1369.16C1176.38 1369.0800000000002 1175.69 1369.8200000000002 1175.8000000000002 1365.78C1175.8300000000002 1364.73 1175.3600000000001 1364.46 1174.4 1364.48C1172.21 1364.53 1170.02 1364.54 1167.8300000000002 1364.54C1164.4800000000002 1364.55 1164.4800000000002 1364.54 1164.6100000000001 1367.8999999999999C1164.6200000000001 1367.9899999999998 1164.6200000000001 1368.08 1164.6200000000001 1368.1699999999998C1164.5800000000002 1368.9299999999998 1164.99 1369.2199999999998 1165.71 1369.2099999999998C1167.22 1369.1999999999998 1168.72 1369.2099999999998 1170.23 1369.2099999999998ZM1179.36 1391.71C1179.9799999999998 1391.06 1180.53 1390.45 1181.11 1389.88C1182.6 1388.41 1184.2199999999998 1388.39 1185.6799999999998 1389.8500000000001C1186.61 1390.7900000000002 1187.4899999999998 1391.7900000000002 1188.3999999999999 1392.7400000000002C1189.06 1393.4400000000003 1189.2599999999998 1394.2000000000003 1188.5099999999998 1394.8900000000003C1187.7299999999998 1395.6000000000004 1186.9799999999998 1395.2700000000004 1186.3399999999997 1394.6000000000004C1185.3999999999996 1393.6200000000003 1184.4799999999998 1392.6200000000003 1183.7399999999998 1391.8400000000004C1182.1299999999999 1392.8000000000004 1180.7899999999997 1394.0700000000004 1179.2399999999998 1394.4200000000003C1177.2899999999997 1394.8600000000004 1176.5099999999998 1392.6100000000004 1175.1099999999997 1391.6400000000003C1173.6299999999997 1392.6100000000004 1172.9299999999996 1394.6200000000003 1170.8199999999997 1394.6000000000004C1168.6999999999998 1394.5900000000004 1168.0099999999998 1392.5900000000004 1166.7699999999998 1391.7600000000004C1165.2399999999998 1392.6900000000005 1163.8199999999997 1394.2200000000005 1162.3799999999997 1394.2600000000004C1160.9899999999996 1394.2900000000004 1159.5699999999997 1392.7600000000004 1157.8999999999996 1391.7600000000004C1157.2699999999995 1392.4300000000005 1156.3699999999997 1393.3700000000003 1155.4899999999996 1394.3200000000004C1154.8299999999995 1395.0500000000004 1154.0699999999995 1395.6800000000003 1153.1599999999996 1394.8500000000004C1152.2899999999997 1394.0700000000004 1152.6799999999996 1393.2100000000003 1153.3799999999997 1392.4700000000003C1154.2199999999996 1391.5700000000002 1155.0499999999997 1390.6600000000003 1155.9299999999996 1389.8000000000002C1157.3799999999997 1388.3600000000001 1158.8899999999996 1388.3200000000002 1160.4199999999996 1389.6900000000003C1161.0599999999997 1390.2600000000002 1161.6199999999997 1390.9200000000003 1162.2599999999995 1391.5900000000004C1163.7799999999995 1390.7000000000003 1164.4699999999996 1388.6400000000003 1166.5799999999995 1388.7100000000003C1168.6599999999994 1388.7800000000002 1169.3299999999995 1390.8200000000002 1170.5899999999995 1391.5900000000004C1172.1499999999994 1390.6000000000004 1173.4599999999994 1389.2800000000004 1175.0199999999995 1388.8900000000003C1176.9699999999996 1388.4100000000003 1177.7899999999995 1390.6500000000003 1179.3599999999994 1391.7100000000003ZM1170.79 1383.56C1172.28 1382.47 1172.94 1380.59 1174.99 1380.49C1177.11 1380.38 1177.75 1382.39 1179.5 1383.44C1179.98 1382.8600000000001 1180.46 1382.21 1181.02 1381.63C1182.49 1380.0700000000002 1184.32 1380.0700000000002 1185.81 1381.6200000000001C1186.69 1382.5400000000002 1187.55 1383.48 1188.4199999999998 1384.42C1189.0099999999998 1385.0600000000002 1189.2699999999998 1385.79 1188.6 1386.47C1187.8899999999999 1387.18 1187.11 1387.03 1186.4299999999998 1386.33C1185.7099999999998 1385.57 1184.9499999999998 1384.84 1184.2899999999997 1384.03C1183.6499999999996 1383.24 1183.1299999999997 1383.3 1182.5399999999997 1384.04C1182.3199999999997 1384.32 1182.0599999999997 1384.58 1181.8099999999997 1384.85C1180.1799999999996 1386.61 1178.3999999999996 1386.62 1176.7299999999998 1384.8799999999999C1176.6699999999998 1384.81 1176.61 1384.7399999999998 1176.5399999999997 1384.6799999999998C1175.0899999999997 1383.1299999999999 1175.0899999999997 1383.1299999999999 1173.6799999999998 1384.6499999999999C1171.6599999999999 1386.82 1170.2699999999998 1386.87 1168.1299999999999 1384.83C1167.61 1384.33 1167.1499999999999 1383.76 1166.4899999999998 1383.04C1165.9799999999998 1383.58 1165.4799999999998 1384.06 1165.0199999999998 1384.58C1163.2799999999997 1386.54 1161.3899999999996 1386.56 1159.6699999999998 1384.6299999999999C1158.2099999999998 1383.01 1158.1 1383.01 1156.6699999999998 1384.62C1156.1599999999999 1385.1999999999998 1155.7299999999998 1385.8999999999999 1155.1 1386.31C1154.6299999999999 1386.6 1153.6699999999998 1386.78 1153.36 1386.51C1152.99 1386.2 1152.77 1385.12 1153.03 1384.78C1154.11 1383.3899999999999 1155.3 1382.05 1156.6399999999999 1380.8999999999999C1157.7299999999998 1379.9599999999998 1159.37 1380.31 1160.4999999999998 1381.3999999999999C1162.3599999999997 1383.1999999999998 1162.3599999999997 1383.1999999999998 1164.1399999999999 1381.4799999999998C1165.6699999999998 1379.9999999999998 1167.4699999999998 1380.0399999999997 1168.9499999999998 1381.5899999999997C1169.5499999999997 1382.2099999999996 1170.1299999999999 1382.8499999999997 1170.7899999999997 1383.5599999999997Z " fill="#333333" fill-opacity="1" transform="matrix(1,0,0,1,-1142,-1352)"></path></svg>