<svg xmlns="http://www.w3.org/2000/svg" xmlns:xlink="http://www.w3.org/1999/xlink" preserveAspectRatio="xMidYMid" width="60" height="54" viewBox="0 0 60 54">
  <defs>
    <style>
      .cls-1 {
        fill: #333;
        fill-rule: evenodd;
      }
    </style>
  </defs>
  <path d="M59.319,28.039 C58.488,28.660 58.589,29.292 58.706,30.046 C58.808,30.701 59.145,31.404 58.993,31.989 C58.843,32.561 58.263,33.385 57.777,33.454 C53.766,34.025 49.733,34.437 45.709,34.918 C44.276,35.089 43.554,34.469 43.397,33.087 C43.294,32.179 43.139,31.277 42.980,30.191 C42.007,30.290 41.147,30.386 40.284,30.464 C36.672,30.791 33.052,31.050 29.449,31.455 C26.069,31.834 21.674,34.879 21.046,38.886 C20.921,39.684 20.956,40.163 21.882,40.545 C22.475,40.789 23.040,41.575 23.217,42.225 C23.617,43.700 23.808,45.236 24.011,46.757 C24.181,48.036 23.520,48.706 22.226,48.711 C18.177,48.724 14.128,48.719 10.078,48.716 C7.435,48.714 4.790,48.671 2.147,48.710 C0.415,48.736 -0.149,48.254 0.049,46.539 C0.231,44.963 0.539,43.401 0.787,41.832 C0.971,40.662 1.721,40.145 2.856,40.173 C4.466,40.214 6.075,40.388 7.683,40.373 C10.644,40.345 13.605,40.169 16.566,40.159 C18.048,40.153 17.905,39.089 18.002,38.250 C18.468,34.252 20.706,31.373 24.286,29.871 C26.916,28.768 29.872,28.283 32.734,27.883 C37.515,27.213 42.337,26.832 47.141,26.326 C49.459,26.082 51.777,25.834 54.093,25.574 C54.694,25.507 55.290,25.389 55.923,25.289 C54.711,22.681 52.395,21.230 49.866,21.326 C47.165,21.427 44.463,21.523 41.762,21.540 C36.398,21.573 31.035,21.513 25.672,21.564 C22.270,21.596 19.539,20.634 18.058,17.320 C17.904,16.977 17.160,16.723 16.685,16.715 C13.666,16.660 10.644,16.737 7.625,16.660 C6.403,16.629 6.016,17.007 6.013,18.219 C5.999,23.758 5.885,29.296 5.829,34.835 C5.803,37.479 5.681,37.602 2.648,37.323 C2.648,36.699 2.648,36.052 2.648,35.404 C2.648,28.994 2.647,22.583 2.650,16.172 C2.651,13.707 3.023,13.345 5.562,13.342 C9.103,13.337 12.645,13.312 16.185,13.355 C17.231,13.368 17.688,13.076 17.651,11.968 C17.582,9.865 17.662,7.758 17.620,5.654 C17.587,4.026 16.958,3.426 15.332,3.412 C12.885,3.390 10.437,3.387 7.990,3.415 C6.407,3.434 5.843,3.990 5.804,5.570 C5.765,7.150 5.796,8.732 5.796,10.201 C5.552,10.371 5.474,10.469 5.387,10.479 C2.348,10.825 2.346,10.823 2.349,7.888 C2.350,6.861 2.314,5.831 2.384,4.809 C2.562,2.235 4.468,0.212 7.085,0.096 C10.151,-0.039 13.231,-0.034 16.297,0.092 C18.773,0.193 20.619,2.089 20.945,4.531 C21.013,5.036 21.051,5.546 21.123,6.255 C22.643,5.990 24.106,5.739 25.568,5.479 C29.665,4.750 33.764,4.034 37.855,3.279 C39.054,3.057 40.088,3.104 40.472,4.469 C40.779,5.555 40.017,6.322 38.434,6.604 C33.158,7.542 27.888,8.507 22.602,9.385 C21.390,9.586 20.885,10.049 21.016,11.278 C21.114,12.192 21.048,13.124 21.038,14.048 C21.009,16.888 22.200,18.134 25.050,18.141 C33.486,18.162 41.921,18.144 50.357,18.174 C54.845,18.189 59.139,21.622 59.984,25.945 C60.112,26.602 59.812,27.671 59.319,28.039 ZM18.558,43.489 C14.136,43.551 9.713,43.554 5.291,43.491 C3.901,43.472 3.622,44.054 3.814,45.277 C9.293,45.277 14.683,45.277 20.156,45.277 C20.292,43.872 19.782,43.472 18.558,43.489 ZM54.727,28.906 C52.018,29.103 49.315,29.386 46.642,29.642 C46.597,31.400 46.597,31.397 47.974,31.317 C48.334,31.296 48.698,31.326 49.056,31.290 C50.958,31.098 52.866,30.936 54.754,30.651 C55.072,30.603 55.446,30.029 55.518,29.648 C55.557,29.444 54.989,28.887 54.727,28.906 ZM51.605,38.550 C52.441,37.428 53.660,37.491 54.390,38.617 C55.309,40.036 56.269,41.433 57.282,42.787 C58.360,44.226 59.158,45.735 59.043,47.756 C59.300,52.503 54.194,55.425 49.982,53.277 C46.077,51.286 45.604,46.875 48.128,43.246 C49.239,41.648 50.441,40.112 51.605,38.550 ZM51.049,50.008 C51.947,50.539 53.487,50.474 54.545,50.101 C55.161,49.883 55.661,48.578 55.714,47.732 C55.848,45.620 54.053,44.453 52.770,42.552 C51.751,44.218 50.619,45.553 50.122,47.088 C49.851,47.928 50.356,49.598 51.049,50.008 Z" class="cls-1"/>
</svg>
