<svg id="SvgjsSvg1035" xmlns="http://www.w3.org/2000/svg" version="1.1" xmlns:xlink="http://www.w3.org/1999/xlink" xmlns:svgjs="http://svgjs.com/svgjs" width="58" height="50" viewBox="0 0 58 50"><title>Shape 74</title><desc>Created with Avocode.</desc><defs id="SvgjsDefs1036"></defs><path id="SvgjsPath1037" d="M897.008 1396.32C896.464 1395.96 896.2560000000001 1395.46 896.268 1394.54C896.3050000000001 1391.6299999999999 896.299 1388.67 896.293 1385.81C896.291 1384.77 896.289 1383.72 896.288 1382.6799999999998C896.288 1381.4799999999998 896.291 1380.2799999999997 896.295 1379.08C896.3019999999999 1376.55 896.31 1373.9299999999998 896.28 1371.35C896.193 1364.01 891.208 1357.56 884.158 1355.6699999999998C879.187 1354.34 874 1355.36 869.9250000000001 1358.4699999999998C865.845 1361.5899999999997 863.4970000000001 1366.3299999999997 863.4820000000001 1371.4899999999998C863.4750000000001 1373.7199999999998 863.4770000000001 1375.9499999999998 863.4800000000001 1378.1899999999998C863.4820000000001 1380.7999999999997 863.4840000000002 1383.4199999999998 863.4730000000002 1386.0399999999997C863.4630000000002 1388.2599999999998 862.1850000000002 1389.7199999999998 860.2190000000002 1389.7499999999998C859.2910000000002 1389.7699999999998 858.4720000000002 1389.4599999999998 857.8740000000001 1388.8799999999999C857.2100000000002 1388.2199999999998 856.8420000000001 1387.2299999999998 856.8400000000001 1386.09C856.8350000000002 1383.6499999999999 856.8370000000001 1381.22 856.8410000000001 1378.78C856.8460000000001 1374 856.8520000000001 1369.06 856.7960000000002 1364.2C856.7800000000002 1362.76 857.1570000000002 1361.89 858.1410000000002 1361.1000000000001C858.8040000000002 1360.5700000000002 859.3160000000001 1359.7700000000002 859.4470000000002 1359.0600000000002C859.5980000000002 1358.2400000000002 859.5630000000002 1357.4 859.5290000000002 1356.5900000000001C859.5190000000002 1356.3400000000001 859.5080000000003 1356.0800000000002 859.5040000000002 1355.8300000000002C859.4820000000002 1354.68 858.7820000000003 1354.0000000000002 857.6020000000002 1354.0100000000002C857.1590000000002 1354.0100000000002 856.7140000000002 1354.0100000000002 856.2700000000002 1354.0100000000002H851.1820000000002C848.5420000000003 1354.0100000000002 845.9010000000003 1354.0100000000002 843.2610000000002 1354.0000000000002C842.6520000000002 1354.0000000000002 841.1900000000002 1354.0000000000002 841.1430000000001 1355.4200000000003C841.1320000000002 1355.7500000000002 841.1050000000001 1356.0900000000004 841.0770000000001 1356.4400000000003C840.9310000000002 1358.2300000000002 840.7670000000002 1360.2500000000002 842.9380000000001 1361.6200000000003C843.5420000000001 1362.0000000000005 843.7650000000001 1362.5600000000004 843.7590000000001 1363.6800000000003C843.7220000000001 1370.8800000000003 843.6960000000001 1378.6200000000003 843.7510000000001 1386.4300000000003C843.787 1391.4400000000003 845.998 1396.1100000000004 849.8180000000001 1399.2300000000002C853.5760000000001 1402.3000000000002 858.4760000000001 1403.5300000000002 863.2620000000001 1402.5900000000001C871.023 1401.0800000000002 876.49 1394.42 876.556 1386.4C876.577 1383.8300000000002 876.575 1381.21 876.572 1378.68C876.569 1376.51 876.567 1374.3500000000001 876.579 1372.18C876.582 1371.6000000000001 876.616 1370.8600000000001 876.852 1370.26C877.427 1368.79 878.947 1367.99 880.548 1368.32C882.126 1368.6399999999999 883.147 1369.97 883.151 1371.71C883.1669999999999 1379.13 883.175 1387.0900000000001 883.1289999999999 1394.99C883.127 1395.36 882.8729999999999 1395.9 882.6059999999999 1396.1C880.8499999999999 1397.4399999999998 880.1679999999999 1399.07 880.5219999999999 1401.07C880.5279999999999 1401.11 880.525 1401.1799999999998 880.5219999999999 1401.25C880.5189999999999 1401.3 880.5169999999999 1401.36 880.5169999999999 1401.41C880.5189999999999 1403.5800000000002 880.9229999999999 1403.99 883.0609999999999 1403.99H886.1199999999999C889.3689999999999 1403.99 892.6179999999999 1403.99 895.8669999999998 1404H895.9089999999999C895.9459999999999 1404 895.9819999999999 1404 896.0179999999999 1404C898.516 1404 898.756 1403.73 898.8249999999999 1401.17C898.8259999999999 1401.14 898.824 1401.1000000000001 898.8309999999999 1401.0700000000002C899.281 1399.0200000000002 898.6679999999999 1397.42 897.0079999999999 1396.3200000000002ZM873.208 1376.74C873.2189999999999 1380.06 873.23 1383.5 873.159 1386.8700000000001C873.032 1392.91 868.577 1398.1100000000001 862.566 1399.2500000000002C858.7900000000001 1399.9700000000003 854.9 1398.9800000000002 851.892 1396.5400000000002C848.96 1394.1700000000003 847.2320000000001 1390.6800000000003 847.1510000000001 1386.9700000000003C847.0400000000001 1381.9100000000003 847.0600000000001 1376.7600000000002 847.0790000000001 1371.7700000000002C847.089 1369.13 847.099 1366.39 847.091 1363.7000000000003C847.09 1363.4600000000003 847.13 1363.3900000000003 847.128 1363.3900000000003C847.138 1363.3800000000003 847.215 1363.3400000000004 847.519 1363.3500000000004H847.636C849.303 1363.3800000000003 851.0269999999999 1363.4100000000003 852.727 1363.3400000000004C853.193 1363.3200000000004 853.319 1363.3900000000003 853.353 1363.4200000000003C853.387 1363.4600000000003 853.4649999999999 1363.5800000000004 853.4609999999999 1364.0500000000004C853.4229999999999 1367.5900000000004 853.4289999999999 1371.1900000000005 853.435 1374.6700000000003C853.4359999999999 1375.9100000000003 853.438 1377.1500000000003 853.438 1378.3900000000003L853.436 1380.6900000000003C853.4340000000001 1382.5500000000002 853.431 1384.4100000000003 853.4440000000001 1386.2600000000002C853.469 1390.2000000000003 856.3560000000001 1393.1600000000003 860.1600000000001 1393.1600000000003C860.162 1393.1600000000003 860.1640000000001 1393.1600000000003 860.166 1393.1600000000003C863.9630000000001 1393.1500000000003 866.835 1390.1700000000003 866.846 1386.2200000000003C866.851 1384.4400000000003 866.847 1382.6600000000003 866.843 1380.8700000000003C866.8349999999999 1377.8600000000004 866.828 1374.7400000000002 866.8679999999999 1371.6800000000003C866.954 1365.1800000000003 871.161 1360.0000000000002 877.3359999999999 1358.7800000000002C881.1419999999999 1358.0300000000002 885.0529999999999 1358.9800000000002 888.0669999999999 1361.4C891.0079999999999 1363.76 892.7429999999999 1367.27 892.8249999999999 1371.02C892.9559999999999 1376.93 892.9169999999999 1382.96 892.8799999999999 1388.78C892.8679999999999 1390.62 892.8559999999999 1392.45 892.8509999999999 1394.27C892.8369999999999 1394.34 892.7319999999999 1394.51 892.6519999999999 1394.59C890.997 1394.6399999999999 889.343 1394.6299999999999 887.5939999999999 1394.6299999999999C887.256 1394.6299999999999 886.915 1394.6299999999999 886.5699999999999 1394.6299999999999V1393.6C886.5699999999999 1391.4099999999999 886.5719999999999 1389.2199999999998 886.574 1387.04C886.5799999999999 1381.94 886.5849999999999 1376.68 886.56 1371.5C886.549 1369.28 885.4459999999999 1367.21 883.6099999999999 1365.97C881.781 1364.73 879.4679999999998 1364.48 877.4229999999999 1365.29C874.8679999999999 1366.3 873.2119999999999 1368.72 873.2029999999999 1371.47C873.1969999999999 1373.23 873.2029999999999 1374.98 873.2079999999999 1376.74ZM853.98 1359.95C851.888 1359.97 849.7570000000001 1359.96 847.696 1359.96L846.889 1359.95C846.197 1359.95 845.569 1359.65 845.121 1359.1100000000001C844.736 1358.65 844.537 1358.0600000000002 844.5509999999999 1357.44H856.0279999999999C856.0619999999999 1357.97 855.8809999999999 1358.55 855.5199999999999 1359.04C855.1039999999998 1359.6 854.5289999999999 1359.94 853.9799999999999 1359.95ZM886.996 1398.02C888.389 1398.09 889.802 1398.08 891.168 1398.07C891.905 1398.06 892.641 1398.06 893.377 1398.06C894.228 1398.07 895.664 1399.47 895.7059999999999 1400.34C895.7199999999999 1400.6299999999999 895.6619999999999 1400.6999999999998 895.661 1400.6999999999998C895.65 1400.7099999999998 895.5799999999999 1400.7499999999998 895.409 1400.7399999999998C894.827 1400.7299999999998 894.245 1400.7299999999998 893.663 1400.7399999999998H892.389C891.878 1400.7399999999998 891.366 1400.7399999999998 890.854 1400.7499999999998C888.926 1400.7499999999998 886.932 1400.7599999999998 884.975 1400.7199999999998C884.51 1400.7099999999998 884.067 1400.5899999999997 883.9440000000001 1400.4999999999998C883.7230000000001 1399.9599999999998 884.0640000000001 1399.4499999999998 884.393 1399.1099999999997C885.1890000000001 1398.2799999999997 885.938 1397.9599999999996 886.996 1398.0199999999998ZM860.01 1394.63L859.521 1394.5400000000002C858.3549999999999 1394.3000000000002 857.149 1394.0500000000002 856.161 1393.5200000000002C853.64 1392.1700000000003 852.2449999999999 1389.9400000000003 852.0139999999999 1386.88C851.9509999999999 1386.0400000000002 851.7009999999999 1385.45 851.2709999999998 1385.1100000000001C850.9469999999999 1384.8500000000001 850.5349999999999 1384.7600000000002 850.0779999999999 1384.8300000000002C848.4979999999998 1385.0800000000002 848.5769999999999 1386.5000000000002 848.6059999999999 1386.9900000000002C848.8059999999999 1392.7900000000002 853.6749999999998 1397.7400000000002 859.4619999999999 1398.0200000000002C859.5769999999999 1398.0200000000002 859.7129999999999 1398.0300000000002 859.8599999999999 1398.0300000000002C860.6199999999999 1398.0300000000002 861.6809999999999 1397.8600000000001 861.7899999999998 1396.4700000000003C861.9059999999998 1395.0000000000002 860.7189999999998 1394.7700000000002 860.0099999999999 1394.6300000000003ZM881.518 1361.57C881.489 1361.07 881.3100000000001 1360.6699999999998 880.989 1360.3899999999999C880.605 1360.06 880.052 1359.9299999999998 879.3000000000001 1359.9899999999998C873.3670000000001 1360.2299999999998 868.4390000000001 1365.2099999999998 868.3100000000001 1371.1099999999997C868.272 1372.8499999999997 869.311 1373.1499999999996 869.9340000000001 1373.1799999999996C869.9730000000001 1373.1899999999996 870.0120000000001 1373.1899999999996 870.0500000000001 1373.1899999999996C871.0590000000001 1373.1899999999996 871.618 1372.5399999999995 871.7120000000001 1371.2599999999995C872.0380000000001 1366.8199999999995 875.0280000000001 1363.7999999999995 879.5150000000001 1363.3899999999996C880.089 1363.3399999999997 881.613 1363.1899999999996 881.5180000000001 1361.5699999999997Z " fill="#333333" fill-opacity="1" transform="matrix(1,0,0,1,-841,-1354)"></path></svg>