<svg id="SvgjsSvg1020" xmlns="http://www.w3.org/2000/svg" version="1.1" xmlns:xlink="http://www.w3.org/1999/xlink" xmlns:svgjs="http://svgjs.com/svgjs" width="44" height="62" viewBox="0 0 44 62"><title>Shape 83</title><desc>Created with Avocode.</desc><defs id="SvgjsDefs1021"></defs><path id="SvgjsPath1022" d="M569.942 1195.53C566.122 1195.53 562.302 1195.54 558.4830000000001 1195.53C556.8460000000001 1195.53 556.5050000000001 1195.18 556.4970000000001 1193.57C556.4920000000001 1192.4099999999999 556.5550000000001 1191.24 556.4810000000001 1190.08C556.4110000000001 1188.99 556.8720000000001 1188.37 557.839 1187.9299999999998C559.6300000000001 1187.12 561.3850000000001 1186.2199999999998 563.1500000000001 1185.35C563.8510000000001 1185 564.339 1183.07 563.801 1182.54C563.5780000000001 1182.32 563.101 1182.31 562.735 1182.3C560.8290000000001 1182.22 560.647 1182.04 560.645 1180.1C560.643 1178.24 560.619 1176.3799999999999 560.658 1174.52C560.674 1173.75 560.468 1173.29 559.753 1172.86C550.7270000000001 1167.3999999999999 547.072 1156.99 551.022 1147.32C553.9910000000001 1140.05 559.561 1135.7 567.336 1134.6799999999998C575.0600000000001 1133.6699999999998 581.547 1136.37 586.261 1142.6C593.8209999999999 1152.59 591.0649999999999 1166.29 580.337 1172.8C579.55 1173.28 579.311 1173.78 579.334 1174.6399999999999C579.387 1176.58 579.3589999999999 1178.52 579.348 1180.4499999999998C579.3389999999999 1181.9099999999999 578.9989999999999 1182.2099999999998 577.601 1182.3099999999997C577.048 1182.3499999999997 576.127 1181.8499999999997 576.052 1182.9299999999996C575.984 1183.9099999999996 575.669 1184.9599999999996 577.0840000000001 1185.5199999999995C578.9100000000001 1186.2299999999996 580.6260000000001 1187.2299999999996 582.403 1188.0699999999995C583.157 1188.4299999999994 583.496 1188.9799999999996 583.48 1189.8199999999995C583.4540000000001 1191.0899999999995 583.484 1192.3699999999994 583.472 1193.6499999999994C583.457 1195.1699999999994 583.096 1195.5299999999995 581.5169999999999 1195.5299999999995C577.659 1195.5399999999995 573.8 1195.5299999999995 569.9419999999999 1195.5299999999995ZM558.018 1141.61C558.846 1142.31 559.594 1142.9099999999999 560.3090000000001 1143.55C560.974 1144.1499999999999 561.397 1144.8899999999999 560.671 1145.6599999999999C559.927 1146.4599999999998 559.183 1146.05 558.595 1145.37C557.943 1144.61 557.345 1143.81 556.639 1142.9199999999998C553.83 1146.33 552.313 1149.6999999999998 552.073 1153.8C553.172 1153.8 554.163 1153.82 555.154 1153.79C556.032 1153.77 556.76 1154.02 556.7909999999999 1155C556.8249999999999 1156.07 556.0319999999999 1156.32 555.131 1156.32C554.144 1156.32 553.1569999999999 1156.32 552.058 1156.32C552.3629999999999 1160.4399999999998 553.829 1163.82 556.52 1167C557.3149999999999 1166.14 558.013 1165.37 558.721 1164.61C559.289 1164.01 559.954 1163.7199999999998 560.625 1164.3899999999999C561.324 1165.09 561.06 1165.78 560.43 1166.4099999999999C559.703 1167.1399999999999 558.995 1167.8799999999999 558.279 1168.62C564.981 1174.9799999999998 576.186 1174.2299999999998 581.815 1168.4099999999999C581.067 1167.7499999999998 580.302 1167.11 579.5680000000001 1166.4299999999998C578.926 1165.83 578.647 1165.11 579.3450000000001 1164.4099999999999C580.0670000000001 1163.6699999999998 580.7360000000001 1164.06 581.3430000000002 1164.6699999999998C582.0690000000002 1165.3899999999999 582.8090000000002 1166.1 583.6020000000002 1166.8799999999999C586.1390000000002 1163.76 587.6700000000002 1160.4099999999999 587.9010000000002 1156.32C586.7560000000002 1156.32 585.7630000000001 1156.33 584.7700000000002 1156.32C583.9160000000002 1156.31 583.1650000000002 1156.05 583.1760000000002 1155.05C583.1870000000001 1154.08 583.8730000000002 1153.77 584.7690000000001 1153.79C585.7910000000002 1153.82 586.8140000000001 1153.8 587.9310000000002 1153.8C587.6250000000001 1149.68 586.1560000000002 1146.29 583.4080000000001 1143.02C582.6350000000001 1143.91 581.9680000000001 1144.7 581.2770000000002 1145.47C580.7210000000001 1146.09 580.0470000000001 1146.3700000000001 579.3690000000001 1145.72C578.6570000000002 1145.02 578.8950000000001 1144.29 579.5490000000001 1143.7C580.3170000000001 1143 581.1380000000001 1142.3700000000001 582.027 1141.64C578.6790000000001 1138.7700000000002 575.274 1137.3300000000002 571.2170000000001 1137.0600000000002C571.2170000000001 1138.2400000000002 571.2150000000001 1139.2400000000002 571.2170000000001 1140.2400000000002C571.219 1141.0600000000002 570.9800000000001 1141.7500000000002 570.0280000000001 1141.7700000000002C569.0120000000002 1141.7800000000002 568.7540000000001 1141.0800000000002 568.7610000000001 1140.2000000000003C568.7700000000001 1139.1700000000003 568.763 1138.1500000000003 568.763 1137.0200000000002C564.6890000000001 1137.4000000000003 561.2610000000001 1138.7600000000002 558.018 1141.6100000000001ZM569.902 1193.06C573.221 1193.06 576.5400000000001 1193.06 579.859 1193.05C580.188 1193.05 580.618 1193.04 580.826 1192.84C581.368 1192.34 580.88 1190.1399999999999 580.186 1189.79C578.9440000000001 1189.17 577.6840000000001 1188.59 576.446 1187.95C573.096 1186.25 573.6170000000001 1187.0900000000001 573.5740000000001 1183.41C573.5730000000001 1183.3300000000002 573.565 1183.25 573.5730000000001 1183.18C573.6410000000001 1182.52 573.3360000000001 1182.28 572.6980000000001 1182.29C571.5790000000001 1182.31 570.4590000000001 1182.29 569.3400000000001 1182.29C566.4820000000002 1182.29 566.4500000000002 1182.29 566.4500000000002 1185.2C566.4490000000002 1186.2 566.0460000000002 1186.76 565.1660000000002 1187.17C563.5860000000001 1187.88 562.0750000000002 1188.77 560.4690000000002 1189.42C559.2620000000002 1189.91 558.9040000000001 1190.64 558.9810000000001 1191.89C559.0370000000001 1192.7900000000002 559.2530000000002 1193.1000000000001 560.1770000000001 1193.0800000000002C563.4180000000001 1193.0300000000002 566.6600000000001 1193.0600000000002 569.9020000000002 1193.0600000000002ZM563.134 1174.51C563.134 1176.02 563.1800000000001 1177.37 563.118 1178.72C563.0790000000001 1179.57 563.351 1179.8600000000001 564.226 1179.8500000000001C568.085 1179.8100000000002 571.945 1179.8300000000002 575.804 1179.8300000000002C576.102 1179.8300000000002 576.4 1179.7700000000002 576.768 1179.7400000000002C576.768 1178.0000000000002 576.768 1176.3300000000002 576.768 1174.5000000000002C572.221 1176.0100000000002 567.743 1175.9700000000003 563.134 1174.5100000000002ZM576.644 1196C575.445 1196 574.246 1196 573.047 1196H566.2180000000001C563.638 1196 561.0600000000001 1196 558.4820000000001 1195.99C556.5920000000001 1195.99 556.0430000000001 1195.45 556.0340000000001 1193.57C556.0320000000002 1193.1799999999998 556.0380000000001 1192.79 556.0440000000001 1192.3899999999999C556.0550000000001 1191.6399999999999 556.0670000000001 1190.86 556.0190000000001 1190.11C555.9410000000001 1188.8799999999999 556.4580000000001 1188.05 557.6480000000001 1187.51C559.0230000000001 1186.8799999999999 560.4030000000001 1186.2 561.7370000000002 1185.53L562.9450000000002 1184.93C563.1460000000002 1184.8300000000002 563.4370000000001 1184.29 563.5360000000002 1183.68C563.6130000000002 1183.19 563.5300000000002 1182.93 563.4770000000002 1182.8700000000001C563.3840000000002 1182.7900000000002 562.9490000000002 1182.7700000000002 562.7630000000001 1182.7600000000002C560.5630000000001 1182.6700000000003 560.1840000000002 1182.2800000000002 560.1820000000001 1180.1000000000001L560.1780000000001 1178.66C560.1720000000001 1177.3000000000002 560.1660000000002 1175.9 560.1950000000002 1174.51C560.2080000000002 1173.87 560.0560000000002 1173.59 559.5140000000001 1173.26C550.2670000000002 1167.66 546.5980000000001 1156.92 550.5930000000001 1147.14C553.623 1139.72 559.393 1135.25 567.2760000000001 1134.22C575.1490000000001 1133.19 581.84 1135.99 586.6300000000001 1142.32C590.3260000000001 1147.2 591.7500000000001 1153.11 590.6400000000001 1158.95C589.5110000000001 1164.88 585.9370000000001 1169.94 580.5760000000001 1173.2C579.9600000000002 1173.57 579.7770000000002 1173.91 579.7970000000001 1174.63C579.8410000000001 1176.25 579.8290000000002 1177.9 579.8180000000001 1179.49L579.8110000000001 1180.46C579.8010000000002 1182.14 579.3130000000001 1182.66 577.6330000000002 1182.77C577.4460000000001 1182.78 577.2580000000002 1182.76 577.0760000000001 1182.73C576.9440000000002 1182.71 576.6340000000001 1182.67 576.5760000000001 1182.71C576.5660000000001 1182.72 576.5270000000002 1182.79 576.5140000000001 1182.96C576.5050000000001 1183.0900000000001 576.4930000000002 1183.22 576.4800000000001 1183.3400000000001C576.3860000000001 1184.2800000000002 576.3800000000001 1184.7400000000002 577.2530000000002 1185.0800000000002C578.4630000000002 1185.5600000000002 579.6360000000002 1186.16 580.7710000000002 1186.7400000000002C581.3780000000002 1187.0500000000002 581.9860000000002 1187.3600000000001 582.6020000000002 1187.6500000000003C583.5250000000002 1188.0900000000004 583.9630000000002 1188.8000000000004 583.9420000000002 1189.8300000000004C583.9280000000002 1190.5400000000004 583.9320000000002 1191.2600000000004 583.9350000000003 1191.9800000000005C583.9380000000003 1192.5400000000004 583.9400000000003 1193.1000000000004 583.9350000000003 1193.6500000000005C583.9170000000003 1195.4400000000005 583.3530000000003 1195.9900000000005 581.5180000000003 1196.0000000000005C579.8930000000003 1196.0000000000005 578.2680000000003 1196.0000000000005 576.6440000000002 1196.0000000000005ZM573.047 1195.07C575.87 1195.07 578.693 1195.07 581.5160000000001 1195.07C582.8420000000001 1195.06 582.9960000000001 1194.9199999999998 583.008 1193.6499999999999C583.014 1193.09 583.0110000000001 1192.54 583.009 1191.9899999999998C583.005 1191.2599999999998 583.0020000000001 1190.5299999999997 583.016 1189.8099999999997C583.029 1189.1499999999996 582.794 1188.7699999999998 582.2049999999999 1188.4899999999998C581.5809999999999 1188.1999999999998 580.9659999999999 1187.8799999999999 580.3499999999999 1187.5699999999997C579.2359999999999 1186.9999999999998 578.084 1186.4099999999996 576.9159999999999 1185.9499999999998C575.3499999999999 1185.34 575.4699999999999 1184.1299999999999 575.558 1183.2499999999998C575.5699999999999 1183.1299999999999 575.582 1183.0199999999998 575.59 1182.8999999999999C575.618 1182.4899999999998 575.754 1182.1799999999998 575.994 1181.9899999999998C576.366 1181.6899999999998 576.8330000000001 1181.7599999999998 577.2080000000001 1181.8099999999997C577.3430000000001 1181.8299999999997 577.4810000000001 1181.8499999999997 577.5710000000001 1181.8399999999997C578.7550000000001 1181.7599999999998 578.8780000000002 1181.6299999999997 578.8850000000001 1180.4499999999996L578.8910000000001 1179.4899999999996C578.903 1177.8999999999996 578.9150000000001 1176.2599999999995 578.8710000000001 1174.6599999999996C578.8420000000001 1173.5999999999997 579.1970000000001 1172.9499999999996 580.0970000000001 1172.3999999999996C585.2300000000001 1169.2799999999997 588.6510000000001 1164.4499999999996 589.7300000000001 1158.7699999999995C590.7900000000001 1153.1999999999996 589.4270000000001 1147.5499999999995 585.8920000000002 1142.8799999999994C581.3150000000002 1136.8299999999995 574.9140000000002 1134.1499999999994 567.3960000000002 1135.1399999999994C559.8610000000002 1136.1299999999994 554.3470000000002 1140.3999999999994 551.4510000000001 1147.4999999999993C547.6330000000002 1156.8399999999992 551.1450000000001 1167.1099999999992 559.9920000000002 1172.4599999999994C560.8150000000002 1172.9599999999994 561.1420000000002 1173.5599999999993 561.1210000000002 1174.5299999999993C561.0920000000002 1175.9099999999994 561.0980000000002 1177.3099999999993 561.1040000000002 1178.6599999999994L561.1090000000002 1180.0999999999995C561.1100000000001 1181.7699999999995 561.1100000000001 1181.7699999999995 562.7540000000001 1181.8299999999995C563.2380000000002 1181.8499999999995 563.7840000000001 1181.8699999999994 564.1250000000001 1182.2099999999996C564.5630000000001 1182.6399999999996 564.5170000000002 1183.4099999999996 564.4500000000002 1183.8199999999995C564.3290000000002 1184.5799999999995 563.9440000000002 1185.4799999999996 563.3540000000002 1185.7699999999995L562.1480000000001 1186.3699999999994C560.8070000000001 1187.0299999999995 559.4200000000002 1187.7199999999993 558.0310000000002 1188.3599999999994C557.1840000000002 1188.7399999999996 556.8890000000001 1189.1999999999994 556.9430000000002 1190.0499999999995C556.9940000000003 1190.8399999999995 556.9820000000002 1191.6399999999994 556.9700000000003 1192.4099999999994C556.9640000000003 1192.7899999999995 556.9590000000003 1193.1799999999994 556.9610000000002 1193.5699999999995C556.9660000000002 1194.9199999999994 557.1090000000003 1195.0599999999995 558.4830000000003 1195.0599999999995C561.0610000000003 1195.0699999999995 563.6390000000002 1195.0699999999995 566.2170000000003 1195.0699999999995ZM560.125 1193.55C558.877 1193.55 558.579 1192.8999999999999 558.519 1191.9199999999998C558.425 1190.4099999999999 558.957 1189.5299999999997 560.296 1188.9899999999998C561.219 1188.6099999999997 562.134 1188.1499999999999 563.018 1187.6999999999998C563.654 1187.3799999999999 564.312 1187.0399999999997 564.975 1186.7399999999998C565.712 1186.4099999999999 565.986 1185.9899999999998 565.987 1185.1999999999998C565.987 1183.6699999999998 565.987 1182.83 566.497 1182.3199999999997C566.9979999999999 1181.8299999999997 567.7959999999999 1181.8199999999997 569.3399999999999 1181.8299999999997C569.689 1181.8299999999997 570.0379999999999 1181.8299999999997 570.387 1181.8299999999997C571.154 1181.8299999999997 571.9219999999999 1181.8399999999997 572.688 1181.8199999999997C573.178 1181.8099999999997 573.527 1181.9299999999996 573.763 1182.1899999999996C573.988 1182.4399999999996 574.08 1182.7799999999995 574.033 1183.2299999999996C574.03 1183.2599999999995 574.033 1183.2899999999995 574.034 1183.3199999999995L574.037 1183.3999999999994C574.043 1183.9099999999994 574.038 1184.3299999999995 574.034 1184.6799999999994C574.025 1185.4999999999993 574.021 1185.9499999999994 574.159 1186.1699999999994C574.299 1186.3899999999994 574.711 1186.5899999999995 575.461 1186.9499999999994C575.792 1187.1099999999994 576.186 1187.2999999999993 576.6560000000001 1187.5399999999993C577.3320000000001 1187.8799999999992 578.0150000000001 1188.2199999999993 578.6980000000001 1188.5499999999993C579.2640000000001 1188.8199999999993 579.8310000000001 1189.0999999999992 580.3930000000001 1189.3799999999992C581.0160000000002 1189.6899999999991 581.3670000000002 1190.6999999999991 581.4790000000002 1191.479999999999C581.5450000000002 1191.9299999999992 581.5900000000001 1192.759999999999 581.1420000000002 1193.1799999999992C580.8190000000002 1193.489999999999 580.3320000000002 1193.509999999999 579.8610000000002 1193.519999999999C577.2650000000002 1193.529999999999 574.6700000000002 1193.529999999999 572.0740000000002 1193.519999999999H569.9020000000002C568.9880000000002 1193.529999999999 568.0600000000002 1193.519999999999 567.1380000000001 1193.519999999999C564.8560000000001 1193.509999999999 562.5000000000001 1193.509999999999 560.1840000000002 1193.549999999999C560.1640000000002 1193.549999999999 560.1450000000002 1193.549999999999 560.1250000000002 1193.549999999999ZM569.241 1182.76C568.116 1182.76 567.3729999999999 1182.76 567.149 1182.98C566.913 1183.22 566.913 1184.05 566.913 1185.2C566.912 1186.3600000000001 566.433 1187.1000000000001 565.357 1187.5900000000001C564.712 1187.88 564.063 1188.21 563.4359999999999 1188.5300000000002C562.5339999999999 1188.9900000000002 561.602 1189.4600000000003 560.6429999999999 1189.8500000000001C559.6769999999999 1190.2400000000002 559.3739999999999 1190.7500000000002 559.4429999999999 1191.8700000000001C559.4869999999999 1192.5700000000002 559.5339999999999 1192.63 560.1689999999999 1192.6200000000001C562.4929999999998 1192.5800000000002 564.8549999999999 1192.5800000000002 567.1399999999999 1192.5900000000001C568.0609999999999 1192.5900000000001 568.9779999999998 1192.5900000000001 569.9019999999998 1192.5900000000001H572.0749999999998C574.6689999999999 1192.6000000000001 577.2629999999998 1192.6000000000001 579.8569999999999 1192.5900000000001C580.2249999999999 1192.5800000000002 580.4449999999998 1192.5600000000002 580.5109999999999 1192.5000000000002C580.5659999999998 1192.4400000000003 580.6539999999999 1192.1000000000001 580.5399999999998 1191.4800000000002C580.4129999999999 1190.7800000000002 580.1279999999998 1190.2800000000002 579.9789999999998 1190.2100000000003C579.4199999999998 1189.9300000000003 578.8569999999999 1189.6600000000003 578.2949999999998 1189.3800000000003C577.6059999999999 1189.0500000000004 576.9179999999999 1188.7200000000003 576.2359999999999 1188.3700000000003C575.7739999999999 1188.1300000000003 575.3849999999999 1187.9500000000003 575.0599999999998 1187.7900000000004C573.1949999999998 1186.8900000000003 573.0859999999998 1186.7200000000005 573.1079999999998 1184.6700000000005C573.1119999999999 1184.3300000000006 573.1159999999999 1183.9100000000005 573.1099999999998 1183.4200000000005L573.1089999999998 1183.3600000000006C573.1059999999998 1183.2800000000007 573.1039999999998 1183.2000000000005 573.1129999999998 1183.1300000000006C573.1329999999998 1182.9300000000005 573.1029999999998 1182.8400000000006 573.0809999999998 1182.8200000000006C573.0749999999998 1182.8100000000006 572.9999999999998 1182.7500000000007 572.7069999999998 1182.7500000000007C571.9329999999998 1182.7700000000007 571.1579999999998 1182.7600000000007 570.3819999999997 1182.7600000000007C570.0009999999997 1182.7600000000007 569.6119999999997 1182.7600000000007 569.2409999999998 1182.7600000000007ZM564.179 1180.31C563.788 1180.31 563.3149999999999 1180.26 562.9929999999999 1179.9299999999998C562.66 1179.58 562.637 1179.09 562.655 1178.6899999999998C562.697 1177.7699999999998 562.689 1176.84 562.679 1175.86C562.675 1175.4199999999998 562.6709999999999 1174.9699999999998 562.6709999999999 1174.51V1173.8799999999999L563.2729999999999 1174.07C567.8699999999999 1175.52 572.2359999999999 1175.52 576.622 1174.06L577.231 1173.86V1180.1699999999998L576.809 1180.1999999999998C576.6899999999999 1180.2199999999998 576.579 1180.2299999999998 576.472 1180.2399999999998C576.244 1180.2699999999998 576.029 1180.2899999999997 575.805 1180.2899999999997C574.577 1180.2899999999997 573.3499999999999 1180.2899999999997 572.122 1180.2899999999997C569.535 1180.2899999999997 566.86 1180.2899999999997 564.231 1180.3099999999997C564.2139999999999 1180.3099999999997 564.196 1180.3099999999997 564.179 1180.3099999999997ZM563.6 1175.14C563.602 1175.38 563.604 1175.6100000000001 563.606 1175.8500000000001C563.615 1176.8500000000001 563.624 1177.7900000000002 563.581 1178.7400000000002C563.562 1179.1400000000003 563.63 1179.2500000000002 563.66 1179.2800000000002C563.6909999999999 1179.3100000000002 563.808 1179.39 564.221 1179.38C566.856 1179.3500000000001 569.534 1179.3600000000001 572.123 1179.3600000000001C573.35 1179.3600000000001 574.577 1179.3600000000001 575.803 1179.3600000000001C575.959 1179.3600000000001 576.121 1179.3400000000001 576.304 1179.3200000000002V1175.14C572.126 1176.4 567.957 1176.4 563.6 1175.14ZM569.856 1173.55C565.644 1173.55 561.322 1172.1499999999999 557.961 1168.96L557.619 1168.63L558.592 1167.63C559.093 1167.1100000000001 559.593 1166.5900000000001 560.1039999999999 1166.0800000000002C560.4169999999999 1165.7700000000002 560.5769999999999 1165.4900000000002 560.5769999999999 1165.2600000000002C560.5769999999999 1165.0800000000002 560.4859999999999 1164.9100000000003 560.2979999999999 1164.7200000000003C560.1269999999998 1164.5500000000002 559.9579999999999 1164.4600000000003 559.8139999999999 1164.4700000000003C559.6009999999999 1164.4700000000003 559.3399999999998 1164.6300000000003 559.0579999999999 1164.9300000000003C558.5699999999998 1165.4500000000003 558.0859999999999 1165.9800000000002 557.5729999999999 1166.5400000000002L556.5059999999999 1167.7000000000003L556.1669999999998 1167.3000000000002C553.3559999999998 1163.9800000000002 551.9029999999998 1160.5000000000002 551.5959999999998 1156.3500000000001L551.5589999999997 1155.8500000000001H555.1309999999997C555.6479999999998 1155.8500000000001 555.9959999999998 1155.7600000000002 556.1669999999997 1155.5900000000001C556.2829999999997 1155.46 556.3359999999997 1155.2800000000002 556.3279999999996 1155.0200000000002C556.3159999999997 1154.63 556.2059999999997 1154.2200000000003 555.1649999999996 1154.2600000000002C554.4739999999996 1154.2700000000002 553.7879999999997 1154.2700000000002 553.0619999999997 1154.2700000000002C552.7409999999996 1154.2600000000002 552.4119999999997 1154.2600000000002 552.0729999999996 1154.2600000000002H551.5809999999997L551.6099999999997 1153.7700000000002C551.8499999999997 1149.6900000000003 553.2899999999996 1146.2600000000002 556.2819999999997 1142.63L556.6439999999997 1142.19L556.9999999999997 1142.63C557.2239999999997 1142.91 557.4359999999997 1143.19 557.6429999999997 1143.45C558.0869999999996 1144.02 558.5059999999997 1144.55 558.9449999999997 1145.06C559.2629999999997 1145.4299999999998 559.5599999999997 1145.6299999999999 559.8029999999997 1145.6299999999999C559.8059999999997 1145.6299999999999 559.8099999999996 1145.6299999999999 559.8119999999997 1145.6299999999999C559.9809999999997 1145.6299999999999 560.1509999999997 1145.54 560.3329999999996 1145.34C560.5119999999996 1145.1499999999999 560.5939999999996 1144.97 560.5869999999996 1144.8C560.5759999999997 1144.54 560.3729999999996 1144.23 559.9999999999997 1143.8999999999999C559.5139999999997 1143.4599999999998 559.0079999999997 1143.04 558.4729999999996 1142.6C558.2289999999996 1142.3899999999999 557.9779999999996 1142.1799999999998 557.7189999999996 1141.9599999999998L557.3069999999996 1141.61L557.7129999999995 1141.26C560.8999999999995 1138.46 564.3979999999995 1136.96 568.7199999999995 1136.56L569.2259999999994 1136.51L569.2279999999994 1138.02C569.2289999999994 1138.77 569.2299999999993 1139.49 569.2239999999994 1140.21C569.2209999999993 1140.67 569.2989999999994 1140.98 569.4569999999993 1141.14C569.5729999999993 1141.25 569.7349999999993 1141.3100000000002 570.0199999999993 1141.3000000000002C570.3919999999993 1141.2900000000002 570.7559999999993 1141.2100000000003 570.7539999999993 1140.2400000000002C570.7529999999994 1139.5500000000002 570.7529999999994 1138.8600000000001 570.7529999999994 1138.1100000000001V1136.5700000000002L571.2469999999994 1136.6000000000001C575.3889999999994 1136.8700000000001 578.9099999999994 1138.3600000000001 582.3269999999994 1141.2800000000002L582.7479999999995 1141.64L582.3209999999995 1142C582.0449999999995 1142.22 581.7759999999995 1142.44 581.5119999999995 1142.66C580.9299999999995 1143.13 580.3799999999995 1143.5700000000002 579.8589999999995 1144.0400000000002C579.5659999999995 1144.3100000000002 579.4029999999995 1144.5800000000002 579.3989999999994 1144.8100000000002C579.3949999999994 1145.0000000000002 579.4939999999995 1145.1900000000003 579.6909999999995 1145.38C579.8659999999994 1145.5500000000002 580.0159999999995 1145.63 580.1909999999995 1145.63C580.4079999999994 1145.6200000000001 580.6649999999995 1145.46 580.9329999999994 1145.16C581.4099999999994 1144.63 581.8749999999994 1144.0900000000001 582.3719999999994 1143.51L583.4139999999994 1142.3L583.7619999999994 1142.72C586.6149999999993 1146.1200000000001 588.0859999999993 1149.63 588.3929999999993 1153.77L588.4299999999994 1154.27H587.9309999999994C587.5879999999994 1154.27 587.2539999999993 1154.27 586.9259999999994 1154.27C586.1789999999994 1154.27 585.4719999999994 1154.28 584.7579999999994 1154.26C584.3119999999993 1154.24 583.9959999999994 1154.33 583.8279999999994 1154.49C583.7039999999994 1154.61 583.6419999999994 1154.8 583.6389999999994 1155.05C583.6369999999995 1155.3 583.6899999999995 1155.47 583.8029999999994 1155.59C583.9709999999994 1155.76 584.2969999999995 1155.85 584.7749999999994 1155.85C585.4549999999994 1155.86 586.1359999999994 1155.86 586.8659999999994 1155.86H588.3919999999994L588.3639999999994 1156.35C588.1389999999993 1160.32 586.7399999999993 1163.76 583.9609999999993 1167.1699999999998L583.6409999999993 1167.57L582.5489999999993 1166.5C582.0229999999993 1165.99 581.5159999999993 1165.49 581.0159999999993 1164.99C580.6629999999993 1164.64 580.3829999999992 1164.47 580.1609999999993 1164.47C580.1599999999993 1164.47 580.1589999999993 1164.47 580.1589999999993 1164.47C580.1029999999993 1164.47 579.9319999999993 1164.47 579.6739999999993 1164.73C579.4859999999993 1164.92 579.3959999999993 1165.1 579.3999999999993 1165.28C579.4059999999993 1165.58 579.6659999999993 1165.8799999999999 579.8829999999992 1166.08C580.3879999999992 1166.55 580.9199999999993 1167.02 581.4339999999993 1167.46C581.6629999999993 1167.66 581.8929999999992 1167.8600000000001 582.1209999999993 1168.06L582.4869999999993 1168.3899999999999L582.1469999999993 1168.7399999999998C579.2229999999993 1171.7599999999998 574.6099999999992 1173.5499999999997 569.8559999999992 1173.5499999999997ZM558.943 1168.6C565.588 1174.53 575.888 1173.4399999999998 581.135 1168.4299999999998C581.032 1168.35 580.93 1168.2599999999998 580.827 1168.1699999999998C580.308 1167.7099999999998 579.77 1167.2499999999998 579.254 1166.7699999999998C578.7470000000001 1166.2999999999997 578.485 1165.8099999999997 578.474 1165.2999999999997C578.464 1164.8699999999997 578.647 1164.4499999999998 579.0160000000001 1164.0799999999997C579.3660000000001 1163.7199999999998 579.7500000000001 1163.5399999999997 580.1560000000001 1163.5399999999997C580.157 1163.5399999999997 580.1590000000001 1163.5399999999997 580.1610000000001 1163.5399999999997C580.8000000000001 1163.5399999999997 581.3280000000001 1163.9899999999998 581.6700000000001 1164.3399999999997C582.1680000000001 1164.8299999999997 582.671 1165.3199999999997 583.1940000000001 1165.8299999999997L583.5590000000001 1166.1899999999996C585.888 1163.2099999999996 587.119 1160.1899999999996 587.4040000000001 1156.7899999999995H586.8680000000002C586.1350000000002 1156.7899999999995 585.4500000000002 1156.7899999999995 584.7660000000002 1156.7799999999995C584.0230000000001 1156.7799999999995 583.4920000000002 1156.5999999999995 583.1410000000002 1156.2399999999996C582.8520000000002 1155.9399999999996 582.7070000000002 1155.5399999999995 582.7130000000002 1155.0399999999995C582.7190000000002 1154.5299999999995 582.8770000000002 1154.1199999999994 583.1840000000002 1153.8199999999995C583.5400000000002 1153.4799999999996 584.0670000000002 1153.3199999999995 584.7800000000002 1153.3299999999995C585.4800000000002 1153.3499999999995 586.1800000000002 1153.3399999999995 586.9210000000002 1153.3399999999995C587.0880000000002 1153.3399999999995 587.2560000000002 1153.3399999999995 587.4260000000002 1153.3399999999995C587.0730000000002 1149.7899999999995 585.7830000000001 1146.7099999999994 583.3990000000001 1143.7399999999996L583.0730000000001 1144.1099999999994C582.5720000000001 1144.6999999999994 582.1020000000001 1145.2399999999996 581.6210000000001 1145.7799999999995C581.1740000000001 1146.2799999999995 580.7040000000001 1146.5399999999995 580.2230000000001 1146.5599999999995C579.7930000000001 1146.5599999999995 579.408 1146.3999999999994 579.047 1146.0499999999995C578.562 1145.5799999999995 578.466 1145.1099999999994 578.472 1144.7999999999995C578.481 1144.2999999999995 578.747 1143.7999999999995 579.239 1143.3499999999995C579.779 1142.8599999999994 580.339 1142.4099999999994 580.931 1141.9299999999994C581.052 1141.8299999999995 581.1740000000001 1141.7299999999993 581.298 1141.6299999999994C578.312 1139.1999999999994 575.231 1137.8899999999994 571.68 1137.5699999999995L571.679 1138.1099999999994C571.679 1138.8599999999994 571.679 1139.5499999999995 571.68 1140.2399999999996C571.684 1141.9499999999996 570.6519999999999 1142.2199999999996 570.0369999999999 1142.2299999999996C569.525 1142.2399999999996 569.1039999999999 1142.0899999999995 568.805 1141.7999999999995C568.458 1141.4499999999996 568.2919999999999 1140.9299999999996 568.298 1140.1999999999996C568.304 1139.4799999999996 568.302 1138.7699999999995 568.301 1138.0199999999995V1137.5399999999995C564.596 1137.9699999999996 561.532 1139.2699999999995 558.735 1141.5999999999995C558.847 1141.6999999999994 558.957 1141.7899999999995 559.066 1141.8799999999994C559.6070000000001 1142.3299999999995 560.119 1142.7599999999995 560.6170000000001 1143.2099999999994C561.1970000000001 1143.7299999999993 561.489 1144.2299999999993 561.513 1144.7599999999993C561.5310000000001 1145.1899999999994 561.361 1145.5999999999992 561.008 1145.9799999999993C560.6460000000001 1146.3699999999994 560.245 1146.5599999999993 559.8140000000001 1146.5599999999993C559.8040000000001 1146.5599999999993 559.7950000000001 1146.5599999999993 559.7850000000001 1146.5599999999993C559.2650000000001 1146.5499999999993 558.7470000000001 1146.2499999999993 558.2450000000001 1145.6699999999992C557.7910000000002 1145.1399999999992 557.3650000000001 1144.5999999999992 556.9140000000001 1144.019999999999C556.8230000000001 1143.9099999999992 556.7290000000002 1143.789999999999 556.6340000000001 1143.6699999999992C554.1380000000001 1146.8199999999993 552.8680000000002 1149.8399999999992 552.5700000000002 1153.3299999999992C552.7380000000002 1153.3299999999992 552.9040000000001 1153.3399999999992 553.0680000000002 1153.3399999999992C553.7860000000002 1153.3399999999992 554.4650000000003 1153.3399999999992 555.1420000000002 1153.3299999999992C556.9270000000001 1153.2799999999993 557.2330000000002 1154.3499999999992 557.2540000000001 1154.9899999999993C557.2700000000001 1155.5099999999993 557.1290000000001 1155.9199999999994 556.8330000000001 1156.2299999999993C556.4760000000001 1156.5999999999992 555.9190000000001 1156.7799999999993 555.1310000000001 1156.7799999999993H552.5630000000001C552.9150000000001 1160.3399999999992 554.1880000000001 1163.3899999999992 556.5380000000001 1166.2899999999993L556.8910000000001 1165.9099999999992C557.407 1165.3499999999992 557.893 1164.8199999999993 558.383 1164.2999999999993C558.8470000000001 1163.7999999999993 559.3230000000001 1163.5499999999993 559.7990000000001 1163.5399999999993C559.806 1163.5399999999993 559.8140000000001 1163.5399999999993 559.8210000000001 1163.5399999999993C560.2260000000001 1163.5399999999993 560.6070000000001 1163.7099999999994 560.9530000000001 1164.0599999999993C561.3180000000001 1164.4299999999992 561.5040000000001 1164.8299999999992 561.503 1165.2599999999993C561.503 1165.7599999999993 561.259 1166.2399999999993 560.7570000000001 1166.7399999999993C560.2510000000001 1167.2499999999993 559.754 1167.7599999999993 559.2570000000001 1168.2799999999993ZM570.047 1157.69C568.657 1157.72 567.457 1156.5800000000002 567.389 1155.17C567.32 1153.75 568.369 1152.47 569.817 1152.46C570.654 1152.46 571.166 1152.13 571.691 1151.58C572.7280000000001 1150.49 573.812 1149.4499999999998 574.868 1148.3799999999999C575.4830000000001 1147.76 576.177 1147.4499999999998 576.889 1148.1299999999999C577.635 1148.83 577.276 1149.51 576.66 1150.12C575.756 1151.02 574.8729999999999 1151.9299999999998 573.967 1152.83C573.207 1153.58 572.482 1154.23 572.509 1155.52C572.534 1156.73 571.256 1157.66 570.047 1157.69ZM569.984 1158.15C568.369 1158.15 567.005 1156.8400000000001 566.926 1155.19C566.885 1154.3400000000001 567.191 1153.5 567.764 1152.89C568.3050000000001 1152.3200000000002 569.033 1152 569.814 1152C570.519 1152 570.913 1151.73 571.356 1151.26C572.019 1150.56 572.711 1149.8799999999999 573.379 1149.21C573.768 1148.83 574.155 1148.44 574.54 1148.05C575.7769999999999 1146.8 576.742 1147.35 577.206 1147.79C577.576 1148.1399999999999 577.766 1148.52 577.7710000000001 1148.94C577.7790000000001 1149.5900000000001 577.326 1150.1100000000001 576.9850000000001 1150.45C576.5660000000001 1150.8700000000001 576.1520000000002 1151.29 575.7370000000001 1151.71C575.2570000000001 1152.19 574.7780000000001 1152.68 574.291 1153.16L574.192 1153.26C573.498 1153.94 572.951 1154.48 572.972 1155.51C573.0029999999999 1157.03 571.461 1158.12 570.058 1158.15C570.033 1158.15 570.008 1158.15 569.984 1158.15ZM576.055 1148.21C575.837 1148.21 575.563 1148.33 575.197 1148.71C574.811 1149.1000000000001 574.421 1149.48 574.031 1149.8700000000001C573.367 1150.5300000000002 572.68 1151.21 572.026 1151.9C571.521 1152.43 570.905 1152.92 569.819 1152.93C569.293 1152.93 568.8019999999999 1153.15 568.4359999999999 1153.53C568.036 1153.96 567.8229999999999 1154.54 567.8509999999999 1155.1399999999999C567.9059999999998 1156.28 568.8779999999999 1157.2199999999998 569.9859999999999 1157.2199999999998C570.0029999999999 1157.2199999999998 570.0189999999999 1157.2199999999998 570.0349999999999 1157.2199999999998C570.9999999999999 1157.1999999999998 572.0649999999998 1156.4699999999998 572.0459999999998 1155.5299999999997C572.0159999999998 1154.0899999999997 572.7929999999998 1153.3299999999997 573.5439999999999 1152.5899999999997L573.6419999999998 1152.4999999999998C574.1249999999998 1152.0199999999998 574.6019999999999 1151.5299999999997 575.0789999999998 1151.0499999999997C575.4959999999999 1150.6299999999997 575.9129999999998 1150.2099999999998 576.3339999999998 1149.7899999999997C576.6749999999998 1149.4499999999998 576.8469999999999 1149.1699999999998 576.8449999999998 1148.9499999999998C576.8439999999998 1148.8899999999999 576.8419999999998 1148.7199999999998 576.5709999999998 1148.4599999999998C576.4299999999998 1148.3299999999997 576.2699999999998 1148.2099999999998 576.0549999999998 1148.2099999999998ZM570.022 1165.2C569.2520000000001 1165.2 568.481 1165.21 567.71 1165.2C566.9530000000001 1165.19 566.431 1164.8400000000001 566.389 1164.04C566.348 1163.24 566.844 1162.79 567.591 1162.77C569.169 1162.72 570.751 1162.72 572.3290000000001 1162.76C573.052 1162.78 573.6030000000001 1163.17 573.5960000000001 1163.98C573.5880000000001 1164.8600000000001 573.0100000000001 1165.18 572.2190000000002 1165.2C571.4870000000002 1165.22 570.7550000000001 1165.2 570.0220000000002 1165.2ZM571.372 1165.67C571.139 1165.67 570.9069999999999 1165.67 570.674 1165.67H569.295C568.764 1165.67 568.233 1165.67 567.702 1165.67C566.642 1165.65 565.978 1165.0500000000002 565.927 1164.0700000000002C565.9010000000001 1163.5700000000002 566.0400000000001 1163.14 566.328 1162.8300000000002C566.626 1162.5000000000002 567.058 1162.3200000000002 567.576 1162.3100000000002C569.158 1162.2600000000002 570.7620000000001 1162.2500000000002 572.342 1162.3000000000002C573.394 1162.3300000000002 574.068 1162.9900000000002 574.059 1163.9900000000002C574.05 1165.0300000000002 573.3829999999999 1165.6400000000003 572.2289999999999 1165.6700000000003C571.943 1165.6700000000003 571.6579999999999 1165.6700000000003 571.372 1165.6700000000003ZM570.679 1164.74C571.188 1164.74 571.699 1164.75 572.2099999999999 1164.74C573.0149999999999 1164.72 573.1299999999999 1164.36 573.1329999999999 1163.98C573.1349999999999 1163.8 573.1389999999999 1163.25 572.3159999999999 1163.23C570.7529999999999 1163.18 569.1679999999999 1163.18 567.6049999999999 1163.23C567.4209999999999 1163.24 567.1689999999999 1163.28 567.0099999999999 1163.46C566.8929999999999 1163.58 566.8389999999998 1163.77 566.8519999999999 1164.02C566.8699999999999 1164.37 566.9869999999999 1164.72 567.7179999999998 1164.74C568.2429999999998 1164.74 568.7669999999998 1164.74 569.2919999999998 1164.74Z " fill="#333333" fill-opacity="1" transform="matrix(1,0,0,1,-548,-1134)"></path></svg>