<svg xmlns="http://www.w3.org/2000/svg" xmlns:xlink="http://www.w3.org/1999/xlink" width="54" height="67" viewBox="0 0 54 67"><defs><path id="7agsa" d="M534.03 908.65a4.19 4.19 0 0 1 5.3-2.6c1.02.34 2.13-.2 2.48-1.23a1.11 1.11 0 0 1 2.1.72 4.18 4.18 0 0 1-5.3 2.6 1.96 1.96 0 0 0-2.47 1.22 1.11 1.11 0 0 1-2.1-.7zm2.63-7.73a4.15 4.15 0 0 1 5.3-2.6c1.02.34 2.13-.2 2.48-1.22a1.1 1.1 0 1 1 2.1.7 4.18 4.18 0 0 1-5.3 2.62 1.94 1.94 0 0 0-2.48 1.22 1.11 1.11 0 0 1-2.1-.72zm2.63-7.72a3.67 3.67 0 0 1 4.64-2.3 1.43 1.43 0 0 0 1.84-.9 1.11 1.11 0 0 1 2.1.72 3.64 3.64 0 0 1-4.65 2.29 1.45 1.45 0 0 0-1.83.9 1.11 1.11 0 1 1-2.1-.71zm9.36 18.06v.02l-1.93 27.75a6.32 6.32 0 0 1-6.32 5.97h-31.18a6.32 6.32 0 0 1-6.32-6l-1.89-26.81c-.02-.4.09-.77.28-1.1-.4-1.57-.33-2.95.27-4.08.99-1.86 3.11-2.69 4.87-3.2-.7-.8-1.67-1.48-2.7-1.48h-.12a1.11 1.11 0 0 1-.03-2.22c1.75-.06 3.32.93 4.42 2.14a4.31 4.31 0 0 1 .61-4.49 5.55 5.55 0 0 1 3.8-7.38 5 5 0 0 1 3.67-4.76 4.09 4.09 0 0 1 5.94-2.63 3.78 3.78 0 0 1 5.62 2.56 5.3 5.3 0 0 1 4.12 4.1 6.42 6.42 0 0 1 3.51 4.44l.33-.69c1.9-4.04 4.28-9.06 7.6-10.77 2.11-1.09 3.74-.57 4.74.05 2.07 1.3 3.1 4.1 3.04 6.2a77.92 77.92 0 0 1-3.59 20.86 1.44 1.44 0 0 1 1.26 1.52zm-15.68-7.16l-.42 1.05a78.46 78.46 0 0 0-2.26 6.59l-.1.29c.5-.06.99-.19 1.43-.45l.8-.48a5.73 5.73 0 0 1 2.98-.81h.04c1.02 0 2.04.27 2.95.81l.8.48c.54.33 1.15.49 1.76.5a3.51 3.51 0 0 0 1.9-.57l1.89-.83a75.82 75.82 0 0 0 4.03-21.85c.03-1.43-.73-3.47-2.01-4.27-.75-.47-1.58-.46-2.55.04-2.65 1.36-4.93 6.21-6.6 9.75-.51 1.08-.99 2.1-1.43 2.91a73.73 73.73 0 0 0-3.21 6.84zm-12.44.36l.67 3.08c2.25.32 3.61-.02 5.44-1.32a11.34 11.34 0 0 1 3.85-1.92l.2-.49c.43-1.07.87-2.12 1.35-3.16a3.8 3.8 0 0 0-.78-1 4.86 4.86 0 0 0-.99-.75c-.12-.08-.25-.17-.38-.24l-.22-.12-.45-.24-.53-.28a2.49 2.49 0 0 1-1.21-1.64l-4.64 1.01a2.37 2.37 0 0 1-.44 2.01l-.38.5c-.96 1.21-1.95 2.47-1.49 4.56zm4.12-10.67l-3.26.7c-.24.06-.4.31-.35.55.05.25.3.4.54.36l6.14-1.35a.45.45 0 0 0 .28-.2c.04-.06.1-.18.07-.34a.47.47 0 0 0-.54-.35zm-.36 16.5h.04c1.02 0 2.04.27 2.96.82l.73.44c.3-1 .6-2 .93-2.99l.22-.62.3-.87c-.48.25-.98.56-1.54.96a8.6 8.6 0 0 1-5.29 1.85c-.3 0-.62-.03-.94-.06l.22.97a5.7 5.7 0 0 1 1.77-.47l.25-.01.35-.02zm-14.43-9.78c0 .28.06.55.16.8.49-.33 1.01-.6 1.57-.78l.1-.03c.2-.06.41-.12.63-.16l.25-.03.51-.05h.08l.27.02c.12.01.25 0 .38.02l.1.03h.07l.55.14.17.07a4.73 4.73 0 0 1 1.2.62l.18.11.63.51.16.15a10.38 10.38 0 0 1 1.26 1.41l.04.06.02.02.02-.4.02-.3c.03-.24.07-.47.13-.7l.02-.13c.07-.26.16-.52.26-.76l.09-.21a7.59 7.59 0 0 1 .62-1.13l.14-.22.28-.39.13-.17.37-.49.35-.45c.07-.1.08-.15.06-.23a.67.67 0 0 0-.37-.36c-.7-.3-1.22-.92-1.38-1.66l-.06-.3-.07-.3a2.34 2.34 0 0 1 .32-1.79c.34-.53.87-.9 1.49-1.03l3.18-.7 3.26-.7.3-.07a2.35 2.35 0 0 1 1.79.32c.53.34.9.86 1.03 1.48l.14.61c.15.72-.04 1.49-.52 2.05a.63.63 0 0 0-.16.5c.02.1.08.15.13.18l.5.28c.68.35 1.48.77 2.23 1.4a4 4 0 0 0 .72-2.2 4.23 4.23 0 0 0-2.83-4.08l-.7-.24-.04-.73a3.06 3.06 0 0 0-3.04-2.84h-1.25l.13-1.23a1.6 1.6 0 0 0-1.36-1.72c-.49-.06-.96.1-1.3.44l-.75.73-.77-.7a1.83 1.83 0 0 0-1.24-.48c-1.01 0-1.83.8-1.87 1.8v1.1l-1.02.08a2.76 2.76 0 0 0-2.47 3.38l.32 1.3-1.35.06a3.34 3.34 0 0 0-2.76 5l.48.82-.73.6c-.5.41-.8 1.02-.8 1.67zm-6.53 9.69a1.9 1.9 0 0 1 .63.24l1.5.9c.67.4 1.42.6 2.17.6.76 0 1.51-.2 2.18-.6l.39-.24a5.73 5.73 0 0 1 2.99-.81h.03c1.02 0 2.05.27 2.96.81l.79.48a3.44 3.44 0 0 0 1.38.45 8.41 8.41 0 0 0-1.27-6.31l-.16-.24-.37-.54-.2-.27c-.1-.14-.21-.28-.32-.4l-.23-.26-.28-.31-.25-.23-.26-.23-.27-.2-.23-.15-.28-.15-.2-.1-.31-.08-.17-.05c-.2-.03-.42-.04-.64-.02h-.05c-.7.1-1.47.5-2.36 1.22-.3.23-.59.49-.9.8a6 6 0 0 1-2.49 1.41c-1.98.57-3.12 1.24-3.59 2.13-.3.56-.36 1.27-.19 2.15zm43.02 2.19l-.17.07c-.04.03-.07.07-.12.09l-2.18.96c-.9.53-1.9.79-2.89.79h-.05a5.74 5.74 0 0 1-2.98-.82l-.79-.48a3.51 3.51 0 0 0-1.77-.5 3.5 3.5 0 0 0-1.77.5l-.8.48c-.44.27-.93.45-1.42.58l-.26.07c-.18.04-.36.09-.55.1-.32.05-.64.06-.97.05h-.05a5.74 5.74 0 0 1-2.72-.8l-.8-.48a3.52 3.52 0 0 0-1.77-.5 3.5 3.5 0 0 0-1.77.5l-.79.48c-.06.03-.13.04-.2.06-.68.39-1.42.63-2.18.71l-.04.01-.3.02a5.72 5.72 0 0 1-3.26-.8l-.79-.48a3.52 3.52 0 0 0-1.77-.5 3.5 3.5 0 0 0-1.77.5l-.39.24a6.53 6.53 0 0 1-3.4.92c-1.17.01-2.34-.3-3.39-.92l-.97-.58 1.85 26.21a4.1 4.1 0 0 0 4.1 3.91h31.18a4.1 4.1 0 0 0 4.1-3.89zm-39.79 16.18c0-.61.5-1.1 1.11-1.1h7.78a1.1 1.1 0 1 1 0 2.2h-7.78a1.1 1.1 0 0 1-1.1-1.1zm0 4.44c0-.62.5-1.11 1.11-1.11h10a1.1 1.1 0 1 1 0 2.21h-10c-.6 0-1.1-.5-1.1-1.1zm14.44 4.43c0 .61-.5 1.1-1.11 1.1h-12.22a1.11 1.11 0 1 1 0-2.2h12.22c.61 0 1.11.49 1.11 1.1zm6.66 0c0 .61-.5 1.1-1.1 1.1h-2.23a1.1 1.1 0 1 1 0-2.2h2.22c.62 0 1.11.49 1.11 1.1z"/></defs><g><g transform="translate(-499 -880)"><use fill="#373738" xlink:href="#7agsa"/></g></g></svg>