<svg xmlns="http://www.w3.org/2000/svg" xmlns:xlink="http://www.w3.org/1999/xlink" width="74" height="50" viewBox="0 0 74 50"><defs><path id="fbraa" d="M943.29 929.95c0 1.3-1.08 2.35-2.4 2.35a2.38 2.38 0 0 1-2.38-2.35c0-1.3 1.07-2.35 2.39-2.35 1.31 0 2.39 1.06 2.39 2.35zm40.76 0c0 1.3-1.08 2.35-2.4 2.35a2.38 2.38 0 0 1-2.38-2.35c0-1.3 1.07-2.35 2.39-2.35 1.31 0 2.39 1.06 2.39 2.35zm-4.78-9.4c0 .7-.48 1.17-1.2 1.17h-2.39c-.72 0-1.2-.47-1.2-1.17s.48-1.18 1.2-1.18h2.4c.7 0 1.19.47 1.19 1.18zm16.73-1.41v9.63c0 1.3-1.08 2.35-2.4 2.35h-4.87a7.16 7.16 0 0 1-7.07 5.88 7.16 7.16 0 0 1-7.07-5.88h-26.62a7.16 7.16 0 0 1-7.07 5.88 7.16 7.16 0 0 1-7.07-5.88h-6.08a1.1 1.1 0 0 1-.96-.47c-.24-.35-.24-.58-.12-.94l2.83-15.04c0-.07.02-.15.04-.23l.6-3.3h-3.94c-.72 0-1.2-.46-1.2-1.17 0-.7.48-1.17 1.2-1.17h4.37l.44-2.35h-3.86c-.72 0-1.2-.47-1.2-1.18 0-.7.48-1.17 1.2-1.17h4.29l.43-2.35h-3.88c-.72 0-1.2-.47-1.2-1.18 0-.7.48-1.17 1.2-1.17h4.3l.44-2.35h-3.9c-.72 0-1.2-.47-1.2-1.18 0-.7.48-1.17 1.2-1.17h4.33l.69-3.76c0-.59.47-.94 1.07-.94h43.15c.36 0 .72.12.96.35.12.35.24.59.24.94-.05.43-.65 4.54-2.22 9.28h6.28c1.67 0 3.1 1.06 3.47 2.7l2.98 11.76 4.67 1.88a2.3 2.3 0 0 1 1.55 2.23zm-49-9.17c0 .71-.48 1.18-1.08 1.18H932.6l-.43 2.35h30.36l.39-.01h.1a8.6 8.6 0 0 0 .64-.07c4.97-.72 8.23-6.07 10.19-10.98a54.5 54.5 0 0 0 2.79-10.09H936l-.43 2.35h12.86c.71 0 1.2.47 1.2 1.17 0 .71-.49 1.18-1.2 1.18h-13.28l-.43 2.35h12.87c.72 0 1.2.47 1.2 1.17 0 .71-.48 1.18-1.2 1.18h-13.3l-.42 2.35h12.88c.72 0 1.2.47 1.2 1.17 0 .71-.6 1.18-1.2 1.18h-13.3l-.43 2.35h12.78c.72 0 1.2.47 1.2 1.17zm-1.32 19.98c0-2.59-2.15-4.7-4.78-4.7a4.75 4.75 0 0 0-4.78 4.7c0 2.58 2.15 4.7 4.78 4.7a4.75 4.75 0 0 0 4.78-4.7zm40.76 0c0-2.59-2.15-4.7-4.78-4.7a4.75 4.75 0 0 0-4.78 4.7c0 2.58 2.15 4.7 4.78 4.7a4.76 4.76 0 0 0 4.78-4.7zm7.17-1.18v-9.75l-5.26-2h-6.33a3.95 3.95 0 0 1-3.95-3.87v-5.53c0-.7.48-1.17 1.2-1.17.71 0 1.2.47 1.2 1.17v5.53c0 .82.7 1.53 1.55 1.53h5.23l-2.72-10.82c-.12-.47-.6-.94-1.2-.94h-7.12c-2.41 6.19-6.5 12.59-13.14 12.92h-.04l-.5.01H931.7l-2.5 12.92h4.64a7.11 7.11 0 0 1 4.12-5.24l.14-.07.1-.03.23-.1c.02 0 .04 0 .06-.02l.27-.08.06-.02.27-.08.06-.02a7.2 7.2 0 0 1 .96-.17h.09l.26-.03h.1a7.1 7.1 0 0 1 .7 0h.09l.27.02.08.01a7.15 7.15 0 0 1 .96.17l.06.02.28.08a7.45 7.45 0 0 1 .62.22l.09.03.14.07a7.11 7.11 0 0 1 4.13 5.24h26.51a7.16 7.16 0 0 1 7.06-5.87h.12c3.53 0 6.5 2.55 7.07 5.87z"/></defs><g><g transform="translate(-923 -888)"><use fill="#373738" xlink:href="#fbraa"/></g></g></svg>