<svg xmlns="http://www.w3.org/2000/svg" xmlns:xlink="http://www.w3.org/1999/xlink" width="62" height="63" viewBox="0 0 62 63"><defs><path id="imkda" d="M990 1204.7v4.3c0 .6-.4 1-1 1h-58c-.6 0-1-.4-1-1v-4.3c0-2.1 1.1-4 3-4.9 5.97-3.17 10.55-4.94 14.62-5.62l-.42-.58c-.2-.3-.2-.6-.2-.8l.94-3.75a21.87 21.87 0 0 1-3.6-8.48c-.46.27-.99.43-1.54.43h-1.5c-1.8 0-3.3-1.5-3.3-3.2v-7.5c0-1.74 1.4-3.1 3.02-3.2.22-5.77 2.76-17.1 18.98-17.1 16.21 0 18.76 11.33 18.98 17.1a3.22 3.22 0 0 1 3.02 3.2v7.5a3.3 3.3 0 0 1-3.05 3.2c-.32 3.15-2.2 5.3-5.93 6.56-.3.51-.62 1.01-.96 1.5l.94 3.74c.1.3 0 .6-.2.8l-.42.58c4.07.68 8.65 2.45 14.62 5.62 1.8 1 3 2.9 3 4.9zm-32.43-1.7h4.83l-2.4-5.49zm-1.33 5h7.5l-.58-3h-6.32zm13.85-16.57a14.51 14.51 0 0 1-8.57 4.48l2.7 6.06 1.32-1.81 4.16-5.76a.9.9 0 0 1 .18-.2l1.02-1.4-.4-1.8-.41.43zm6.85-10.45c-.46-.05-.9-.2-1.28-.44-.27 1.44-.7 2.87-1.26 4.24a4.88 4.88 0 0 0 2.54-3.8zm1.76-11.98h-1.5c-.7 0-1.2.6-1.2 1.2v7.5c0 .7.6 1.2 1.2 1.2h1.5c.7 0 1.2-.6 1.2-1.2v-7.5c0-.7-.6-1.2-1.2-1.2zm-35.68-1.88c.42.04.82.17 1.18.36A16.06 16.06 0 0 1 960 1154c7.94 0 14.58 5.87 15.8 13.48.36-.2.76-.32 1.18-.36-.44-13.1-10.82-15.12-16.98-15.12s-16.54 2.01-16.98 15.12zm.88 3.08c0-.7-.6-1.2-1.2-1.2h-1.5c-.7 0-1.2.6-1.2 1.2v7.5c0 .7.6 1.2 1.2 1.2h1.5c.7 0 1.2-.6 1.2-1.2zm2.1-.2v7c0 4.36 1.5 8.23 3.74 11.18l.06.02.3.3c1.36 1.7 2.9 3.05 4.52 3.99 1.61.9 3.3 1.42 4.96 1.5a.96.96 0 0 1 .42-.09c.15 0 .3.03.44.09 2.7-.13 5.52-1.46 7.87-3.66.56-.55 1.09-1.16 1.59-1.83l.18-.18c-2.46.46-5.48.68-9.08.68-.6 0-1-.4-1-1s.4-1 1-1c4.92 0 8.36-.41 10.74-1.1a18.5 18.5 0 0 0 2.26-8.9v-7c0-7.7-6.3-14-14-14s-14 6.3-14 14zm3.91 21.43l-.41-.43-.4 1.8 1.1 1.5.1.1 4.16 5.76 1.32 1.81 2.7-6.06a14.51 14.51 0 0 1-8.57-4.48zM932 1208h22.16l.76-3.79-5.97-8.2c-4.09.5-8.68 2.2-15.05 5.59-1.2.6-1.9 1.8-1.9 3.1zm56 0v-3.3c0-1.3-.7-2.5-1.9-3.2-6.24-3.27-10.91-4.97-14.99-5.58l-6.03 8.3.76 3.78z"/></defs><g><g transform="translate(-929 -1148)"><use fill="#373738" xlink:href="#imkda"/></g></g></svg>