<svg xmlns="http://www.w3.org/2000/svg" xmlns:xlink="http://www.w3.org/1999/xlink" width="64" height="63" viewBox="0 0 64 63"><defs><path id="7x05a" d="M1418.4 1196.9c1 1.9.7 4.3-.9 5.8l-2.5 2.6c-3.11 3.1-6.61 4.7-10.32 4.7-2.6 0-5.4-.8-8.2-2.4-1.7-.9-3.3-2.2-4.9-3.8l-20.52-20.5c-1.9-1.9-3.4-4-4.4-6.1-3-6.4-1.9-12.2 3.1-17.2l2.5-2.5c1.5-1.5 3.9-1.9 5.8-.9 3.8 2 7.91 9 8.11 9.3.7 1.3 1 2.6.7 3.7-.2.8-.8 1.5-1.5 2-1.2 1-2.6 2.3-2.9 2.6-1.6 2.4-1.4 4.2.6 6.3l.66.67.04.03a.8.8 0 0 1 .17.18l10.54 10.62c2 2 3.9 2.2 6.3.6.3-.2 1.6-1.6 2.6-2.9.5-.8 1.2-1.3 2-1.5a5 5 0 0 1 3.7.6c.3.2 7.31 4.3 9.31 8.1zm-1.9 1.1c-1.7-3.3-8.51-7.3-8.51-7.3-.8-.4-1.6-.6-2.2-.5-.4.1-.6.3-.8.7v.1c-.7.9-2.4 2.9-3.1 3.3-.81.53-1.6.9-2.37 1.13a17.1 17.1 0 0 0 5.57 1.57c.5.1.9.5.9 1.1-.1.5-.5.9-1 .9-7.01-.7-11.51-5.1-11.61-5.3a11.48 11.48 0 0 1-.3-.3l-10.61-10.6c-.2-.2-5.7-4.7-6.4-11.7-.1-.5.3-1 .9-1.1.6-.1 1 .3 1.1.9.17 1.76.72 3.36 1.4 4.74.22-.83.62-1.68 1.2-2.54.4-.6 2.5-2.3 3.3-3.1l.1-.1c.4-.2.6-.5.7-.8.2-.6 0-1.4-.5-2.2 0-.1-4-6.8-7.3-8.5-1-.6-2.4-.4-3.3.5l-2.51 2.5c-4.4 4.4-5.3 9.3-2.7 14.9.9 1.9 2.2 3.8 4 5.6l20.52 20.6c1.4 1.4 2.9 2.6 4.4 3.4 6.1 3.4 11.4 2.7 16.11-2l2.5-2.5c.9-.9 1.1-2.3.5-3.4zm1.5-29c0 .6-.4 1-1 1h-1v3c0 .6-.4 1-1 1s-1-.4-1-1v-3h-5.01c-.4 0-.7-.2-.9-.6-.2-.3-.1-.7.1-1l6-8c.3-.3.7-.5 1.1-.3.4.1.7.5.7.9v7h1c.6 0 1 .4 1 1zm-4-5l-3.01 4h3zm-6.01 9c0 .6-.4 1-1 1h-7.4c-.71 0-1.31-.4-1.51-1-.2-.6-.1-1.3.5-1.8l6-5.2c.8-.8.8-1.9.5-2.6-.4-.9-1.1-1.4-2.1-1.4-1.7 0-3 1.3-3 3 0 .6-.4 1-1 1s-1-.4-1-1c0-2.8 2.2-5 5-5h.1c1.7 0 3.2 1 3.8 2.7.7 1.7.3 3.5-1 4.8l-5.2 4.5h6.3c.6 0 1 .4 1 1zm17.01-6a17 17 0 0 1-25.32 14.8l-7.4 2.2h-.3a.9.9 0 0 1-.7-.3c-.3-.2-.4-.6-.3-1l1.9-8c-1.3-2.3-1.9-5-1.9-7.7a17 17 0 0 1 17-17 17 17 0 0 1 17.02 17zm-2-.1c0-8.3-6.7-14.9-15.01-14.9a15.07 15.07 0 0 0-13.21 22.2c.1.2.2.5.1.7l-1.6 6.7 6.2-1.8c.1 0 .2-.1.3-.1.2 0 .4 0 .5.1 2.3 1.4 5 2.1 7.7 2.1 8.31 0 15.02-6.7 15.02-15z"/></defs><g><g transform="translate(-1362 -1148)"><use fill="#373738" xlink:href="#7x05a"/></g></g></svg>