<?xml version="1.0" standalone="no"?>
<!DOCTYPE svg PUBLIC "-//W3C//DTD SVG 1.1//EN" "http://www.w3.org/Graphics/SVG/1.1/DTD/svg11.dtd" >
<svg xmlns="http://www.w3.org/2000/svg">
<metadata></metadata>
<defs>
<font id="core_sans_ds65_heavy" horiz-adv-x="1122" >
<font-face units-per-em="2048" ascent="1638" descent="-410" />
<missing-glyph horiz-adv-x="532" />
<glyph horiz-adv-x="682" />
<glyph horiz-adv-x="0" />
<glyph horiz-adv-x="0" />
<glyph unicode="&#xd;" horiz-adv-x="485" />
<glyph unicode=" "  horiz-adv-x="532" />
<glyph unicode="&#x09;" horiz-adv-x="532" />
<glyph unicode="&#xa0;" horiz-adv-x="532" />
<glyph unicode="!" horiz-adv-x="702" d="M199 1214v76q0 63 44 108.5t107 45.5t108.5 -45.5t45.5 -108.5v-76l-39 -653q-3 -46 -36 -78t-79 -32q-45 0 -77 32t-35 78zM207 135v23q0 60 41.5 102.5t101.5 42.5t103 -42.5t43 -102.5v-23q0 -60 -43 -102.5t-103 -42.5t-101.5 42.5t-41.5 102.5z" />
<glyph unicode="&#x22;" horiz-adv-x="964" d="M154 1317q0 52 39 89.5t92 37.5t92 -37.5t39 -89.5q0 -12 -2 -34l-15 -206q-3 -48 -35 -80t-79 -32t-79.5 32t-35.5 80l-14 206q-2 22 -2 34zM549 1317q0 52 39 89.5t92 37.5t92 -37.5t39 -89.5q0 -12 -2 -34l-14 -206q-3 -48 -35.5 -80t-79.5 -32t-79.5 32t-35.5 80 l-14 206q-2 22 -2 34z" />
<glyph unicode="#" horiz-adv-x="1462" d="M59 453q0 49 33.5 82.5t83.5 33.5h117l65 295h-112q-50 0 -83.5 34t-33.5 83q0 50 34 84.5t83 34.5h164l51 235q10 44 48.5 76.5t92.5 32.5q62 0 104 -42t42 -104q0 -20 -9 -51l-32 -147h215l51 235q10 44 48.5 76.5t92.5 32.5q62 0 104 -42t42 -104q0 -20 -9 -51 l-32 -147h67q49 0 83 -34.5t34 -84.5q0 -49 -33.5 -83t-83.5 -34h-119l-63 -295h113q49 0 82.5 -33.5t33.5 -82.5q0 -50 -33.5 -84.5t-82.5 -34.5h-164l-52 -236q-10 -44 -48.5 -76t-92.5 -32q-62 0 -103.5 42t-41.5 103q0 23 8 51l31 148h-213l-52 -236q-10 -44 -48.5 -76 t-92.5 -32q-62 0 -103.5 42t-41.5 103q0 23 8 51l31 148h-66q-49 0 -83 34.5t-34 84.5zM592 569h213l65 295h-215z" />
<glyph unicode="$" horiz-adv-x="1222" d="M100 293q0 63 43.5 107t106.5 44q75 0 127 -65q48 -60 118 -92.5t142 -32.5q90 0 142 41.5t52 114.5q0 69 -44.5 108.5t-143.5 59.5l-113 22q-415 83 -415 428q0 152 93 268t263 150v51q0 54 38.5 92.5t92.5 38.5t92.5 -38.5t38.5 -92.5v-51q177 -34 301 -158 q53 -53 53 -121q0 -63 -44 -106t-107 -43q-65 0 -125 63q-88 99 -215 99q-79 0 -122.5 -41.5t-43.5 -106.5q0 -122 188 -162l117 -24q209 -44 310.5 -150.5t101.5 -279.5q0 -171 -102.5 -286t-284.5 -144v-49q0 -54 -38.5 -93t-92.5 -39t-92.5 39t-38.5 93v51 q-239 43 -367 211q-31 42 -31 94z" />
<glyph unicode="%" horiz-adv-x="1789" d="M115 985v162q0 132 83.5 221.5t229.5 89.5t229.5 -89.5t83.5 -221.5v-162q0 -132 -83.5 -221.5t-229.5 -89.5t-229.5 89.5t-83.5 221.5zM346 993q0 -119 82 -119t82 119v146q0 118 -82 118t-82 -118v-146zM494 100q0 24 12 52l579 1224q14 30 41 49t60 19q46 0 78 -32.5 t32 -78.5q0 -23 -12 -51l-579 -1225q-14 -30 -41 -48.5t-60 -18.5q-46 0 -78 32t-32 78zM1049 287v162q0 132 83.5 221.5t229.5 89.5t229.5 -89.5t83.5 -221.5v-162q0 -132 -83.5 -222t-229.5 -90t-229.5 90t-83.5 222zM1280 295q0 -119 82 -119t82 119v145q0 119 -82 119 t-82 -119v-145z" />
<glyph unicode="&#x26;" horiz-adv-x="1417" d="M119 377q0 124 63.5 221.5t206.5 206.5q-94 111 -126 176t-32 149q0 143 99 234.5t260 91.5q162 0 258 -90.5t96 -235.5q0 -84 -42 -167.5t-157 -192.5l207 -240q17 56 29 146q7 48 43.5 81.5t85.5 33.5q54 0 94.5 -37t40.5 -89q0 -39 -11 -107q-21 -143 -79 -257 l100 -108q31 -34 31 -82q0 -53 -36 -89t-89 -36q-55 0 -94 41l-72 73q-156 -125 -397 -125q-218 0 -348.5 114.5t-130.5 287.5zM397 381q0 -74 58.5 -121t150.5 -47q132 0 217 82l-272 319q-71 -53 -112.5 -108t-41.5 -125zM496 1126q0 -68 77 -155l15 -17q96 92 96 172 q0 44 -27 71.5t-67 27.5q-43 0 -68.5 -26.5t-25.5 -72.5z" />
<glyph unicode="'" horiz-adv-x="569" d="M154 1317q0 52 39 89.5t92 37.5t92 -37.5t39 -89.5q0 -12 -2 -34l-15 -206q-3 -48 -35 -80t-79 -32t-79.5 32t-35.5 80l-14 206q-2 22 -2 34z" />
<glyph unicode="(" horiz-adv-x="708" d="M152 336v741q0 167 73 295.5t205 208.5q35 21 74 21q58 0 99.5 -41.5t41.5 -100.5q0 -76 -61 -117q-138 -96 -138 -305v-663q0 -209 138 -305q61 -41 61 -117q0 -59 -41.5 -100t-99.5 -41q-41 0 -74 20q-132 80 -205 208.5t-73 295.5z" />
<glyph unicode=")" horiz-adv-x="708" d="M63 -47q0 75 62 117q137 95 137 305v663q0 210 -137 305q-62 42 -62 117q0 58 41.5 100t100.5 42q39 0 74 -21q131 -82 204.5 -210t73.5 -294v-741q0 -166 -73.5 -294t-204.5 -210q-33 -20 -74 -20q-59 0 -100.5 41.5t-41.5 99.5z" />
<glyph unicode="*" horiz-adv-x="1093" d="M113 489q0 38 19 70.5t56 46.5l146 60l-146 59q-37 14 -56 46.5t-19 70.5q0 55 39 92.5t90 37.5q38 0 73 -26l123 -94l-17 144q-2 18 -2 26q0 53 38.5 89t89.5 36t89.5 -36t38.5 -89q0 -8 -2 -26l-18 -144l123 94q35 26 74 26q51 0 90 -37.5t39 -92.5q0 -38 -19.5 -70.5 t-56.5 -46.5l-145 -59l145 -60q37 -14 56.5 -46.5t19.5 -70.5q0 -55 -39 -92.5t-90 -37.5q-39 0 -74 26l-123 94l18 -144q2 -18 2 -26q0 -53 -38.5 -89t-89.5 -36t-89.5 36t-38.5 89q0 8 2 26l17 144l-123 -94q-35 -26 -73 -26q-51 0 -90 37.5t-39 92.5z" />
<glyph unicode="+" horiz-adv-x="1150" d="M92 668q0 49 33.5 82.5t83.5 33.5h223v222q0 60 41.5 102.5t101.5 42.5t102 -42.5t42 -102.5v-222h223q50 0 83.5 -33.5t33.5 -82.5q0 -50 -33.5 -83.5t-83.5 -33.5h-223v-221q0 -60 -42 -103t-102 -43t-101.5 43t-41.5 103v221h-223q-49 0 -83 33.5t-34 83.5z" />
<glyph unicode="," horiz-adv-x="561" d="M123 147v17q0 66 46 112t112 46q67 0 112 -46.5t45 -117.5v-142q0 -98 -56.5 -172.5t-162.5 -107.5q-16 -4 -29 -4q-28 0 -47.5 21t-19.5 52q0 49 47 66q41 16 70 48t32 71q-63 3 -106 48t-43 109z" />
<glyph unicode="-" horiz-adv-x="878" d="M92 668q0 51 35 85.5t86 34.5h453q51 0 85.5 -34.5t34.5 -85.5t-34.5 -86t-85.5 -35h-453q-51 0 -86 35t-35 86z" />
<glyph unicode="." horiz-adv-x="561" d="M123 147v17q0 66 46 112t112 46t111.5 -46t45.5 -112v-17q0 -66 -45.5 -111.5t-111.5 -45.5t-112 45.5t-46 111.5z" />
<glyph unicode="/" horiz-adv-x="954" d="M18 -61q0 23 9 47l643 1542q15 38 50 62t77 24q59 0 99 -40t40 -99q0 -27 -8 -48l-643 -1542q-15 -38 -50 -62t-77 -24q-58 0 -99 40.5t-41 99.5z" />
<glyph unicode="0" d="M92 471v492q0 231 128.5 363t340.5 132t340.5 -132t128.5 -363v-492q0 -232 -128.5 -364t-340.5 -132t-340.5 132t-128.5 364zM389 496q0 -140 48 -200t124 -60t124 60t48 200v442q0 140 -48 200t-124 60t-124 -60t-48 -200v-442z" />
<glyph unicode="1" d="M168 1186q0 85 84 123l268 114q51 21 90 21q62 0 103 -41t41 -103v-1052h149q53 0 89 -36t36 -89q0 -52 -36 -87.5t-89 -35.5h-600q-53 0 -89 35.5t-36 87.5q0 53 36 89t89 36h154v866l-103 -43q-27 -12 -59 -12q-54 0 -90.5 36.5t-36.5 90.5z" />
<glyph unicode="2" d="M90 123q0 36 12 61.5t37 55.5l498 581q49 56 67.5 101.5t18.5 97.5q0 93 -44 141.5t-118 48.5q-120 0 -164 -151q-14 -47 -51.5 -76t-87.5 -29q-61 0 -104 43t-43 105q0 24 6 45q36 138 154 224.5t290 86.5q208 0 332.5 -122t124.5 -314q0 -104 -32 -180t-103 -158 l-375 -436h395q53 0 89 -36t36 -89q0 -52 -36 -87.5t-89 -35.5h-688q-53 0 -89 35.5t-36 87.5z" />
<glyph unicode="3" d="M104 342q0 61 43 104t105 43q109 0 147 -124q42 -142 162 -142q82 0 128 60t46 178q0 120 -45 180.5t-125 60.5q-27 0 -51 -8q-30 -10 -55 -10q-49 0 -86 37t-37 86q0 41 41 88l252 291h-377q-52 0 -87.5 35t-35.5 88t35.5 89t87.5 36h604q60 0 96.5 -35.5t36.5 -95.5 q0 -50 -15 -82.5t-59 -83.5l-215 -244q161 -18 245.5 -133t84.5 -299q0 -216 -122 -351t-347 -135q-169 0 -284.5 81.5t-159.5 219.5q-13 39 -13 66z" />
<glyph unicode="4" d="M49 397q0 47 16 89.5t54 109.5l383 672q55 95 110.5 137.5t128.5 42.5q77 0 122.5 -46t45.5 -124v-756h39q52 0 88.5 -36t36.5 -89q0 -52 -36 -87.5t-89 -35.5h-39v-137q0 -61 -42.5 -104t-104.5 -43t-105 43t-43 104v137h-440q-53 0 -89 35.5t-36 87.5zM348 522h266v459 z" />
<glyph unicode="5" d="M111 336q0 62 42 104.5t103 42.5q52 0 91.5 -32t51.5 -80q41 -150 166 -150q174 0 174 260q0 258 -176 258q-74 0 -143 -59q-43 -37 -105 -37q-66 0 -111.5 46t-45.5 112v502q0 57 37 94t94 37h555q52 0 88.5 -36t36.5 -89q0 -52 -36 -87.5t-89 -35.5h-391v-256 q63 57 172 57q87 0 160 -31t129.5 -92t88 -159.5t31.5 -225.5q0 -235 -120.5 -369.5t-348.5 -134.5q-172 0 -289.5 86t-158.5 232q-6 24 -6 43z" />
<glyph unicode="6" d="M84 440q0 123 57 234l357 690q42 80 125 80q57 0 96 -39t39 -96q0 -36 -17 -70l-174 -338q209 -1 344.5 -133t135.5 -330q0 -197 -134.5 -330t-347.5 -133t-347 134t-134 331zM369 440q0 -101 53.5 -162t142.5 -61t143 61t54 162t-54 162.5t-143 61.5t-142.5 -61.5 t-53.5 -162.5z" />
<glyph unicode="7" d="M96 1309q0 53 36 89t89 36h670q62 0 98.5 -35.5t36.5 -95.5q0 -45 -22 -105l-418 -1112q-17 -44 -53.5 -70t-86.5 -26q-62 0 -103.5 42t-41.5 103q0 31 14 66l375 985h-469q-53 0 -89 35.5t-36 87.5z" />
<glyph unicode="8" d="M82 440q0 118 51 210.5t139 140.5q-64 46 -101.5 117t-37.5 159q0 169 119.5 280t308.5 111t308.5 -111t119.5 -280q0 -88 -37.5 -160t-101.5 -116q89 -50 139.5 -142.5t50.5 -208.5q0 -201 -132.5 -333t-346.5 -132q-213 0 -346 132.5t-133 332.5zM367 444 q0 -102 54 -164.5t142 -62.5t142.5 62.5t54.5 164.5t-54.5 165t-142.5 63t-142 -62.5t-54 -165.5zM408 1057q0 -71 43 -115.5t110 -44.5q68 0 111 45t43 115q0 71 -43.5 116.5t-110.5 45.5t-110 -45.5t-43 -116.5z" />
<glyph unicode="9" d="M76 995q0 197 134 330t347 133t347 -134t134 -331q0 -119 -57 -233l-356 -690q-42 -80 -125 -80q-57 0 -96 39t-39 96q0 38 16 70l174 337q-209 1 -344 133t-135 330zM360 993q0 -101 54 -162t143 -61t143 61t54 162t-54 162.5t-143 61.5t-143 -61.5t-54 -162.5z" />
<glyph unicode=":" horiz-adv-x="561" d="M123 147v17q0 66 46 112t112 46t111.5 -46t45.5 -112v-17q0 -66 -45.5 -111.5t-111.5 -45.5t-112 45.5t-46 111.5zM123 961v16q0 66 46 112t112 46t111.5 -46t45.5 -112v-16q0 -66 -45.5 -112t-111.5 -46t-112 46t-46 112z" />
<glyph unicode=";" horiz-adv-x="561" d="M123 147v17q0 66 46 112t112 46q67 0 112 -46.5t45 -117.5v-142q0 -98 -56.5 -172.5t-162.5 -107.5q-16 -4 -29 -4q-28 0 -47.5 21t-19.5 52q0 49 47 66q41 16 70 48t32 71q-63 3 -106 48t-43 109zM123 961v16q0 66 46 112t112 46t111.5 -46t45.5 -112v-16 q0 -66 -45.5 -112t-111.5 -46t-112 46t-46 112z" />
<glyph unicode="&#x3c;" horiz-adv-x="1150" d="M111 668q0 46 23.5 82.5t64.5 56.5l657 313q34 17 64 17q51 0 85.5 -35t34.5 -86q0 -38 -19 -67.5t-50 -43.5l-512 -237l512 -238q31 -14 50 -43.5t19 -67.5q0 -51 -34.5 -85.5t-85.5 -34.5q-32 0 -64 16l-657 313q-41 20 -64.5 57t-23.5 83z" />
<glyph unicode="=" horiz-adv-x="1150" d="M92 469q0 49 34 83t83 34h733q50 0 83.5 -34t33.5 -83t-33.5 -83t-83.5 -34h-733q-49 0 -83 34t-34 83zM92 866q0 50 34 83.5t83 33.5h733q50 0 83.5 -33.5t33.5 -83.5q0 -49 -33.5 -82.5t-83.5 -33.5h-733q-50 0 -83.5 33.5t-33.5 82.5z" />
<glyph unicode="&#x3e;" horiz-adv-x="1150" d="M111 319q0 38 19 67.5t50 43.5l512 238l-512 237q-31 14 -50 43.5t-19 67.5q0 51 34.5 86t85.5 35q30 0 64 -17l657 -313q41 -20 64.5 -56.5t23.5 -82.5t-23.5 -83t-64.5 -57l-657 -313q-32 -16 -64 -16q-51 0 -85.5 34.5t-34.5 85.5z" />
<glyph unicode="?" horiz-adv-x="1099" d="M115 1153q0 40 16 72q57 106 168 169.5t254 63.5q195 0 312.5 -117t117.5 -294q0 -122 -42.5 -211t-141.5 -156q-69 -48 -91 -77.5t-22 -61.5v-2q0 -60 -42.5 -103t-102.5 -43t-102 42.5t-42 101.5v18q0 93 41.5 158.5t143.5 134.5q65 44 89.5 85.5t24.5 96.5 q0 77 -38.5 122.5t-110.5 45.5q-95 0 -160 -104q-53 -82 -131 -82q-60 0 -100.5 40.5t-40.5 100.5zM397 135v23q0 60 42 102.5t102 42.5t102.5 -42.5t42.5 -102.5v-23q0 -60 -42.5 -102.5t-102.5 -42.5t-102 42.5t-42 102.5z" />
<glyph unicode="@" horiz-adv-x="1548" d="M135 184v701q0 163 89.5 296t235 205t314.5 72q126 0 242.5 -42.5t204 -116.5t140 -180.5t52.5 -227.5v-422q0 -213 -109.5 -335t-316.5 -122q-204 0 -314 118t-110 310v107q0 89 21.5 163.5t65 133.5t116.5 92t170 33q79 0 146.5 -34.5t103.5 -90.5v16 q0 119 -57.5 207.5t-150 132t-204.5 43.5q-174 0 -293 -104.5t-119 -284.5v-639q0 -117 57.5 -206.5t150 -135t204.5 -45.5q104 0 168 22q45 15 59 15q44 0 75.5 -31.5t31.5 -75.5q0 -71 -70 -100q-107 -45 -264 -45q-168 0 -314.5 73.5t-235.5 205.5t-89 292zM817 473 q0 -118 43 -174.5t137 -56.5q88 0 138.5 58.5t50.5 174.5v162q-25 46 -73 74t-105 28q-91 0 -141 -59.5t-50 -171.5v-35z" />
<glyph unicode="A" horiz-adv-x="1265" d="M31 147q0 28 10 58l383 1079q58 160 209 160t209 -160l383 -1079q10 -30 10 -58q0 -66 -46 -111.5t-112 -45.5q-51 0 -91.5 29.5t-57.5 76.5l-60 170h-473l-57 -170q-15 -46 -56.5 -76t-93.5 -30q-66 0 -111.5 45.5t-45.5 111.5zM483 524h297l-147 434z" />
<glyph unicode="B" horiz-adv-x="1234" d="M137 145v1143q0 63 41.5 104.5t104.5 41.5h358q215 0 346 -102.5t131 -295.5q0 -103 -49 -178t-131 -110q104 -39 162.5 -123t58.5 -203q0 -110 -38.5 -192.5t-107.5 -132t-157 -73.5t-194 -24h-379q-63 0 -104.5 41t-41.5 104zM451 258h194q89 0 143 45.5t54 132.5 t-54 132.5t-143 45.5h-194v-356zM451 854h159q89 0 141 39.5t52 122.5q0 81 -52 120.5t-141 39.5h-159v-322z" />
<glyph unicode="C" horiz-adv-x="1232" d="M96 553v328q0 256 149 416.5t394 160.5q173 0 303 -79.5t193 -221.5q16 -37 16 -72q0 -66 -46 -111.5t-112 -45.5q-101 0 -149 104q-68 148 -201 148q-115 0 -173 -83.5t-58 -244.5v-270q0 -161 58 -244.5t173 -83.5q133 0 201 147q48 105 149 105q66 0 112 -46t46 -112 q0 -35 -16 -72q-63 -142 -193 -221.5t-303 -79.5q-245 0 -394 161t-149 417z" />
<glyph unicode="D" horiz-adv-x="1255" d="M137 145v1143q0 63 41.5 104.5t104.5 41.5h335q248 0 394.5 -148.5t146.5 -404.5v-328q0 -256 -146.5 -404.5t-394.5 -148.5h-335q-63 0 -104.5 41t-41.5 104zM453 279h161q113 0 171.5 73t58.5 230v270q0 157 -58.5 230t-171.5 73h-161v-876z" />
<glyph unicode="E" horiz-adv-x="1155" d="M137 145v1143q0 63 41.5 104.5t104.5 41.5h657q58 0 98.5 -40.5t40.5 -99.5q0 -58 -40.5 -98.5t-98.5 -40.5h-487v-281h403q58 0 98.5 -40t40.5 -99t-40.5 -99t-98.5 -40h-403v-317h487q58 0 98.5 -40.5t40.5 -99.5t-40.5 -99t-98.5 -40h-657q-63 0 -104.5 41t-41.5 104z " />
<glyph unicode="F" horiz-adv-x="1114" d="M137 147v1141q0 63 41.5 104.5t104.5 41.5h657q58 0 98.5 -40.5t40.5 -99.5q0 -58 -40.5 -98.5t-98.5 -40.5h-487v-299h424q59 0 99 -40t40 -99t-40 -99t-99 -40h-424v-431q0 -66 -46 -111.5t-112 -45.5t-112 45.5t-46 111.5z" />
<glyph unicode="G" horiz-adv-x="1267" d="M96 551v330q0 256 149 416.5t394 160.5q173 0 303 -79.5t193 -221.5q16 -37 16 -72q0 -66 -46 -111.5t-112 -45.5q-101 0 -149 104q-68 148 -201 148q-115 0 -173 -83.5t-58 -244.5v-272q0 -159 59 -243.5t168 -84.5q108 0 167.5 74t59.5 198v8h-114q-51 0 -87 36t-36 87 t36 87t87 36h303q55 0 92 -37t37 -92v-88q0 -263 -144 -424.5t-399 -161.5q-247 0 -396 160t-149 416z" />
<glyph unicode="H" horiz-adv-x="1310" d="M137 147v1139q0 66 46 112t112 46t112 -46t46 -112v-412h405v412q0 66 46 112t112 46t112 -46t46 -112v-1139q0 -66 -46 -111.5t-112 -45.5t-112 45.5t-46 111.5v449h-405v-449q0 -66 -46 -111.5t-112 -45.5t-112 45.5t-46 111.5z" />
<glyph unicode="I" horiz-adv-x="618" d="M152 147v1139q0 66 45.5 112t111.5 46t112 -46t46 -112v-1139q0 -66 -46 -111.5t-112 -45.5t-111.5 45.5t-45.5 111.5z" />
<glyph unicode="J" horiz-adv-x="1134" d="M72 293q0 63 43 106t106 43q90 0 141 -94q53 -94 158 -94q84 0 134.5 60.5t50.5 185.5v786q0 66 45.5 112t111.5 46t112 -46t46 -112v-821q0 -228 -133.5 -359t-360.5 -131q-140 0 -256.5 65t-177.5 173q-20 38 -20 80z" />
<glyph unicode="K" horiz-adv-x="1275" d="M135 147v1139q0 66 46 112t112 46t112 -46t46 -112v-446l133 88q112 73 165.5 160t69.5 204q9 68 51 110t107 42q64 0 111 -43t47 -105q0 -18 -2 -42q-13 -155 -80 -273.5t-199 -220.5l338 -527q25 -40 25 -86q0 -66 -46 -111.5t-112 -45.5q-88 0 -144 88l-315 508 l-149 -99v-340q0 -66 -46 -111.5t-112 -45.5t-112 45.5t-46 111.5z" />
<glyph unicode="L" horiz-adv-x="1093" d="M137 145v1141q0 66 46 112t112 46t112 -46t46 -112v-1007h487q58 0 98.5 -40.5t40.5 -99.5t-40.5 -99t-98.5 -40h-657q-63 0 -104.5 41t-41.5 104z" />
<glyph unicode="M" horiz-adv-x="1597" d="M137 147v1139q0 66 46 112t112 46q99 0 158 -109l346 -645l346 645q59 109 158 109q66 0 111.5 -46t45.5 -112v-1139q0 -66 -45.5 -111.5t-111.5 -45.5t-112 45.5t-46 111.5v646l-187 -349q-57 -106 -159 -106q-103 0 -160 106l-186 349v-646q0 -66 -46 -111.5 t-112 -45.5t-112 45.5t-46 111.5z" />
<glyph unicode="N" horiz-adv-x="1370" d="M137 147v1139q0 66 46 112t112 46q108 0 170 -103l453 -757v702q0 66 45.5 112t111.5 46t112 -46t46 -112v-1139q0 -66 -46 -111.5t-112 -45.5q-108 0 -170 102l-452 758v-703q0 -66 -46 -111.5t-112 -45.5t-112 45.5t-46 111.5z" />
<glyph unicode="O" horiz-adv-x="1277" d="M96 551v332q0 254 149 414.5t394 160.5t394 -160.5t149 -414.5v-332q0 -255 -149 -415.5t-394 -160.5t-394 160.5t-149 415.5zM412 580q0 -161 59 -243.5t168 -82.5t168 82.5t59 243.5v274q0 161 -59 243.5t-168 82.5t-168 -82.5t-59 -243.5v-274z" />
<glyph unicode="P" horiz-adv-x="1236" d="M137 147v1141q0 63 41.5 104.5t104.5 41.5h397q73 0 141.5 -17.5t130.5 -55.5t108.5 -92t73.5 -133t27 -173q0 -116 -41 -208.5t-109.5 -148.5t-152 -85t-174.5 -29h-231v-345q0 -66 -46 -111.5t-112 -45.5t-112 45.5t-46 111.5zM453 770h192q90 0 145.5 49t55.5 144 t-55.5 143.5t-145.5 48.5h-192v-385z" />
<glyph unicode="Q" horiz-adv-x="1277" d="M96 551v332q0 254 149 414.5t394 160.5t394 -160.5t149 -414.5v-332q0 -170 -74 -309l80 -68q49 -42 49 -100q0 -52 -36.5 -88.5t-88.5 -36.5q-47 0 -90 37l-84 71q-127 -82 -299 -82q-245 0 -394 160.5t-149 415.5zM412 580q0 -161 59 -243.5t168 -82.5q39 0 63 8 l-55 49q-45 42 -45 97q0 52 36 88t89 36q51 0 90 -36l39 -35q10 58 10 119v274q0 161 -59 243.5t-168 82.5t-168 -82.5t-59 -243.5v-274z" />
<glyph unicode="R" horiz-adv-x="1251" d="M137 147v1141q0 63 41.5 104.5t104.5 41.5h395q73 0 141.5 -16.5t130.5 -53t108 -89t73.5 -130.5t27.5 -172q0 -281 -225 -400l229 -325q35 -49 35 -101q0 -66 -46 -111.5t-112 -45.5q-86 0 -137 78l-289 444h-161v-365q0 -66 -46 -111.5t-112 -45.5t-112 45.5t-46 111.5 zM453 791h190q92 0 146.5 44t54.5 138t-54.5 138t-146.5 44h-190v-364z" />
<glyph unicode="S" horiz-adv-x="1222" d="M100 293q0 63 43.5 107t106.5 44q75 0 127 -65q48 -60 118 -92.5t142 -32.5q90 0 142 41.5t52 114.5q0 69 -44.5 108.5t-143.5 59.5l-113 22q-415 83 -415 428q0 86 31 162.5t90 136.5t152 95.5t208 35.5q268 0 438 -170q53 -53 53 -121q0 -63 -44 -106t-107 -43 q-65 0 -125 63q-91 99 -215 99q-79 0 -122.5 -41.5t-43.5 -106.5q0 -122 188 -162l117 -24q213 -45 312.5 -150.5t99.5 -279.5q0 -199 -136.5 -320t-371.5 -121q-157 0 -290.5 58t-217.5 166q-31 42 -31 94z" />
<glyph unicode="T" horiz-adv-x="1101" d="M14 1294q0 58 41 99t99 41h794q58 0 98.5 -40.5t40.5 -99.5q0 -58 -40.5 -98.5t-98.5 -40.5h-239v-1008q0 -66 -46 -111.5t-112 -45.5t-112 45.5t-46 111.5v1008h-239q-59 0 -99.5 40.5t-40.5 98.5z" />
<glyph unicode="U" horiz-adv-x="1306" d="M123 532v754q0 66 46 112t112 46t111.5 -46t45.5 -112v-610q0 -226 46 -325t169 -99t169 99t46 325v610q0 66 46 112t112 46t112 -46t46 -112v-754q0 -255 -142.5 -406t-388.5 -151t-388 151t-142 406z" />
<glyph unicode="V" horiz-adv-x="1257" d="M27 1286q0 66 45.5 112t111.5 46q52 0 93.5 -30t56.5 -77l295 -862l295 862q15 47 56 77t93 30q66 0 112 -46t46 -112q0 -27 -10 -57l-383 -1079q-56 -160 -209 -160t-209 160l-383 1079q-10 30 -10 57z" />
<glyph unicode="W" horiz-adv-x="1933" d="M43 1282q0 68 46 115t112 47q57 0 100 -35.5t57 -89.5l220 -809l198 760q45 174 191 174q145 0 190 -174l199 -760l219 809q14 54 57.5 89.5t100.5 35.5q66 0 111.5 -47t45.5 -115q0 -27 -8 -53l-317 -1069q-51 -170 -193 -170q-71 0 -123.5 41.5t-70.5 111.5l-211 826 l-211 -826q-18 -69 -70.5 -111t-124.5 -42q-141 0 -192 170l-318 1069q-8 26 -8 53z" />
<glyph unicode="X" horiz-adv-x="1290" d="M55 150q0 49 27 88l352 497l-323 461q-27 39 -27 88q0 66 47 113t113 47q82 0 135 -74l266 -383l266 383q53 74 136 74q66 0 112.5 -47t46.5 -113q0 -51 -26 -88l-324 -461l352 -497q27 -39 27 -88q0 -66 -47 -113t-113 -47q-83 0 -135 73l-295 422l-295 -422 q-52 -73 -135 -73q-66 0 -113 47t-47 113z" />
<glyph unicode="Y" horiz-adv-x="1236" d="M45 1286q0 66 46 112t112 46q83 0 133 -72l282 -409l283 409q50 72 133 72q66 0 112 -46t46 -112q0 -48 -29 -92l-387 -543v-504q0 -66 -46 -111.5t-112 -45.5t-111.5 45.5t-45.5 111.5v504l-387 543q-29 44 -29 92z" />
<glyph unicode="Z" horiz-adv-x="1107" d="M68 139q0 60 36 121l525 895h-404q-59 0 -99 40.5t-40 98.5q0 59 40.5 99.5t98.5 40.5h676q58 0 98.5 -40.5t40.5 -99.5t-36 -120l-525 -895h422q58 0 98.5 -40.5t40.5 -99.5t-40 -99t-99 -40h-694q-59 0 -99 40t-40 99z" />
<glyph unicode="[" horiz-adv-x="720" d="M150 -63v1540q0 56 35.5 91.5t90.5 35.5h267q51 0 86 -35t35 -86t-35 -86t-86 -35h-97v-1311h97q51 0 86 -35t35 -86t-35 -85.5t-86 -34.5h-267q-55 0 -90.5 35.5t-35.5 91.5z" />
<glyph unicode="\" horiz-adv-x="954" d="M18 1475q0 58 40.5 98.5t99.5 40.5q42 0 77 -24t50 -62l643 -1542q8 -21 8 -47q0 -59 -40.5 -99.5t-98.5 -40.5q-42 0 -77 24t-50 62l-643 1542q-9 24 -9 48z" />
<glyph unicode="]" horiz-adv-x="720" d="M57 -70q0 51 35 86t86 35h96v1311h-96q-51 0 -86 35t-35 86t35 86t86 35h266q56 0 91.5 -36t35.5 -91v-1540q0 -55 -35.5 -91t-91.5 -36h-266q-51 0 -86 34.5t-35 85.5z" />
<glyph unicode="^" horiz-adv-x="1044" d="M82 1069q0 56 37 88l270 238q59 53 133 53t133 -53l271 -238q37 -32 37 -88q0 -51 -35 -86t-86 -35t-94 37l-226 193l-225 -193q-43 -37 -94 -37t-86 35t-35 86z" />
<glyph unicode="_" horiz-adv-x="1024" d="M-10 -279q0 31 21 52.5t52 21.5h898q31 0 52 -21.5t21 -52.5t-21 -52t-52 -21h-898q-31 0 -52 21t-21 52z" />
<glyph unicode="`" horiz-adv-x="806" d="M256 1399q0 46 31.5 78t77.5 32q52 0 90 -45l127 -155q22 -27 22 -62q0 -39 -27.5 -66.5t-66.5 -27.5q-36 0 -72 31l-151 137q-31 28 -31 78z" />
<glyph unicode="a" horiz-adv-x="1069" d="M74 276v23q0 140 109.5 226.5t338.5 86.5h150v33q0 80 -40.5 123t-109.5 43q-106 0 -198 -76q-41 -33 -86 -33q-47 0 -83 36t-36 83q0 49 33 82q67 68 171.5 107t217.5 39q200 0 312 -111.5t112 -290.5v-510q0 -60 -43.5 -103.5t-104.5 -43.5q-54 0 -94 35.5t-49 87.5 q-87 -138 -268 -138q-146 0 -239 83.5t-93 217.5zM354 301q0 -39 33.5 -63.5t93.5 -24.5q63 0 114.5 26t76.5 72v103h-185q-60 0 -96.5 -28t-36.5 -73v-12z" />
<glyph unicode="b" horiz-adv-x="1101" d="M115 137v1184q0 61 42.5 104t104.5 43t105 -43t43 -104v-385q35 53 100.5 83t144.5 30q164 0 265.5 -111t101.5 -293v-266q0 -182 -101.5 -293t-265.5 -111q-81 0 -149 33t-100 92q-12 -48 -52.5 -79t-91.5 -31q-62 0 -104.5 43t-42.5 104zM410 317q51 -98 149 -98 q91 0 129.5 55.5t38.5 174.5v126q0 119 -38.5 174.5t-129.5 55.5q-98 0 -149 -98v-390z" />
<glyph unicode="c" horiz-adv-x="1017" d="M80 410v202q0 184 130 309.5t329 125.5q123 0 223.5 -52.5t157.5 -140.5q24 -39 24 -80q0 -57 -41 -97t-100 -40q-74 0 -123 78q-56 90 -141 90q-72 0 -118 -54t-46 -159v-162q0 -105 46 -159t118 -54q85 0 141 90q49 78 123 78q59 0 100 -40t41 -97q0 -41 -24 -80 q-57 -88 -157.5 -140.5t-223.5 -52.5q-199 0 -329 125.5t-130 309.5z" />
<glyph unicode="d" horiz-adv-x="1101" d="M80 379v266q0 182 101.5 293t264.5 111q79 0 145 -30t101 -83v385q0 61 43 104t105 43t104.5 -43t42.5 -104v-1188q0 -61 -42.5 -102t-104.5 -41q-51 0 -91.5 31t-52.5 79q-32 -59 -100 -92t-150 -33q-163 0 -264.5 111t-101.5 293zM375 449q0 -119 38.5 -174.5 t129.5 -55.5q98 0 149 98v390q-51 98 -149 98q-91 0 -129.5 -55.5t-38.5 -174.5v-126z" />
<glyph unicode="e" horiz-adv-x="1077" d="M80 410v202q0 184 130 310.5t329 126.5q196 0 327 -124.5t131 -301.5v-52q0 -67 -41.5 -109t-109.5 -42h-471v-8q0 -91 48.5 -142t135.5 -51q114 0 193 76q33 29 77 29q54 0 91.5 -37.5t37.5 -91.5q0 -58 -51 -105q-59 -53 -152.5 -84t-197.5 -31q-144 0 -254 59.5 t-166.5 157.5t-56.5 218zM375 616h327v7q0 81 -44.5 131.5t-118.5 50.5t-119 -51t-45 -131v-7z" />
<glyph unicode="f" horiz-adv-x="761" d="M49 901q0 51 35 87t86 36h31v51q0 218 93 300.5t327 82.5q51 0 85.5 -36t34.5 -87t-34.5 -86t-85.5 -35q-70 0 -97.5 -31.5t-27.5 -113.5v-45h125q51 0 85.5 -36t34.5 -87t-34.5 -86t-85.5 -35h-125v-643q0 -61 -43 -104t-105 -43t-104.5 43t-42.5 104v643h-31 q-51 0 -86 35t-35 86z" />
<glyph unicode="g" horiz-adv-x="1101" d="M80 379v266q0 182 101.5 293t264.5 111q82 0 150 -33t100 -92q12 48 52.5 79t91.5 31q62 0 104.5 -43t42.5 -104v-920q0 -203 -115.5 -322.5t-326.5 -119.5q-114 0 -212 36t-157 99q-31 36 -31 86q0 56 37.5 93.5t93.5 37.5q53 0 103 -47q74 -68 164 -68q149 0 149 215 v111q-35 -53 -101 -83t-145 -30q-163 0 -264.5 111t-101.5 293zM375 449q0 -119 38.5 -174.5t129.5 -55.5q98 0 149 98v390q-51 98 -149 98q-91 0 -129.5 -55.5t-38.5 -174.5v-126z" />
<glyph unicode="h" horiz-adv-x="1126" d="M115 137v1184q0 61 42.5 104t104.5 43t105 -43t43 -104v-399q38 58 105.5 92.5t152.5 34.5q166 0 261 -109.5t95 -302.5v-500q0 -61 -43 -104t-104 -43q-62 0 -105 43t-43 104v469q0 199 -156 199q-52 0 -96 -31t-67 -84v-553q0 -61 -43 -104t-105 -43t-104.5 43 t-42.5 104z" />
<glyph unicode="i" horiz-adv-x="565" d="M135 137v750q0 61 43 104t105 43q61 0 104 -43t43 -104v-750q0 -61 -43 -104t-104 -43q-62 0 -105 43t-43 104zM135 1317v4q0 61 43 104t105 43q61 0 104 -43t43 -104v-4q0 -62 -43 -105t-104 -43t-104.5 43.5t-43.5 104.5z" />
<glyph unicode="j" horiz-adv-x="602" d="M-45 -311q0 49 32 82.5t83 38.5q57 4 79.5 33t22.5 91v953q0 61 43 104t104 43q62 0 105 -43t43 -104v-979q0 -176 -92 -259t-277 -83h-22q-51 0 -86 36t-35 87zM172 1317v4q0 61 43 104t104 43q62 0 105 -43t43 -104v-4q0 -61 -43.5 -104.5t-104.5 -43.5t-104 43 t-43 105z" />
<glyph unicode="k" horiz-adv-x="1062" d="M115 137v1184q0 61 42.5 104t104.5 43t105 -43t43 -104v-680l49 33q82 56 132.5 110.5t67.5 122.5q15 61 52 94t90 33q57 0 102 -40.5t45 -102.5q0 -19 -4 -39q-40 -166 -194 -283l237 -342q29 -43 29 -90q0 -61 -43 -104t-105 -43q-77 0 -125 69l-231 344l-102 -67v-199 q0 -61 -43 -104t-105 -43t-104.5 43t-42.5 104z" />
<glyph unicode="l" horiz-adv-x="651" d="M135 336v985q0 61 43 104t105 43q61 0 104 -43t43 -104v-965q0 -55 17 -84t61 -36q47 -8 78.5 -42t31.5 -83q0 -51 -33 -85.5t-83 -37.5h-13q-354 0 -354 348z" />
<glyph unicode="m" horiz-adv-x="1740" d="M115 137v750q0 61 42.5 104t104.5 43q54 0 95.5 -34.5t50.5 -88.5q34 63 104 100.5t156 37.5q100 0 176 -42t121 -120q48 70 133.5 116t183.5 46q166 0 261 -109.5t95 -302.5v-500q0 -61 -43 -104t-104 -43q-62 0 -105 43t-43 104v469q0 199 -155 199q-50 0 -94.5 -32.5 t-69.5 -84.5v-551q0 -61 -43 -104t-104 -43q-62 0 -105 43t-43 104v469q0 199 -156 199q-52 0 -96 -31t-67 -84v-553q0 -61 -43 -104t-105 -43t-104.5 43t-42.5 104z" />
<glyph unicode="n" horiz-adv-x="1126" d="M115 137v750q0 61 42.5 104t104.5 43q54 0 95.5 -34.5t50.5 -88.5q36 64 104.5 101t155.5 37q166 0 261 -109.5t95 -302.5v-500q0 -61 -43 -104t-104 -43q-62 0 -105 43t-43 104v469q0 199 -156 199q-52 0 -96 -31t-67 -84v-553q0 -61 -43 -104t-105 -43t-104.5 43 t-42.5 104z" />
<glyph unicode="o" horiz-adv-x="1077" d="M80 412v200q0 184 130 310.5t329 126.5t328.5 -126.5t129.5 -310.5v-200q0 -184 -129.5 -310.5t-328.5 -126.5t-329 126.5t-130 310.5zM375 432q0 -105 46 -159t118 -54t117.5 54t45.5 159v160q0 105 -45.5 159t-117.5 54t-118 -54t-46 -159v-160z" />
<glyph unicode="p" horiz-adv-x="1101" d="M115 -309v1196q0 61 42.5 104t104.5 43q51 0 91.5 -31t52.5 -79q32 59 100 92t149 33q164 0 265.5 -111t101.5 -293v-266q0 -182 -101.5 -293t-265.5 -111q-79 0 -144.5 30t-100.5 83v-397q0 -61 -43 -104.5t-105 -43.5q-61 0 -104 43t-43 105zM410 317q51 -98 149 -98 q91 0 129.5 55.5t38.5 174.5v126q0 119 -38.5 174.5t-129.5 55.5q-98 0 -149 -98v-390z" />
<glyph unicode="q" horiz-adv-x="1101" d="M80 379v266q0 182 101.5 293t264.5 111q82 0 150 -33t100 -92q12 48 52.5 79t91.5 31q62 0 104.5 -43t42.5 -104v-1196q0 -62 -43 -105t-104 -43q-62 0 -105 43.5t-43 104.5v397q-35 -53 -101 -83t-145 -30q-163 0 -264.5 111t-101.5 293zM375 449q0 -119 38.5 -174.5 t129.5 -55.5q98 0 149 98v390q-51 98 -149 98q-91 0 -129.5 -55.5t-38.5 -174.5v-126z" />
<glyph unicode="r" horiz-adv-x="813" d="M115 137v750q0 61 42.5 104t104.5 43t105 -43t43 -104v-8q42 80 108.5 125t147.5 45q58 0 98.5 -40.5t40.5 -99.5q0 -57 -40.5 -97t-98.5 -40q-89 0 -150 -29t-106 -96v-510q0 -61 -43 -104t-105 -43t-104.5 43t-42.5 104z" />
<glyph unicode="s" horiz-adv-x="1007" d="M96 205q0 51 35 87t86 36t92 -41q83 -86 213 -86q53 0 85 26t32 66t-28 66t-99 40l-86 19q-167 36 -246.5 112t-79.5 207q0 137 103 224.5t282 87.5q105 0 201.5 -35t155.5 -94q39 -39 39 -89q0 -51 -34.5 -84.5t-84.5 -33.5q-51 0 -94 43q-67 67 -162 67 q-51 0 -81 -23.5t-30 -58.5q0 -73 125 -98l88 -18q173 -36 249.5 -112.5t76.5 -209.5q0 -144 -109 -236t-297 -92q-126 0 -236 43t-173 117q-23 30 -23 70z" />
<glyph unicode="t" horiz-adv-x="763" d="M20 903q0 51 35 86t86 35h31v154q0 62 43 104.5t104 42.5q62 0 105 -43t43 -104v-154h123q51 0 86 -35t35 -86t-35 -87t-86 -36h-123v-411q0 -65 26.5 -95t84.5 -30h24q51 0 86 -35t35 -86t-35 -87t-86 -36h-80q-183 0 -266.5 81.5t-83.5 260.5v438h-31q-51 0 -86 36 t-35 87z" />
<glyph unicode="u" horiz-adv-x="1126" d="M102 387v500q0 61 43 104t105 43t104.5 -43t42.5 -104v-469q0 -199 156 -199q52 0 96.5 31t67.5 84v553q0 61 42.5 104t104.5 43t105 -43t43 -104v-750q0 -61 -43 -104t-105 -43q-54 0 -95 34.5t-50 88.5q-36 -64 -104.5 -101t-155.5 -37q-166 0 -261.5 109.5 t-95.5 302.5z" />
<glyph unicode="v" horiz-adv-x="1048" d="M39 887q0 61 42.5 104t104.5 43q48 0 85.5 -27t54.5 -71l198 -530l199 530q17 44 54 71t85 27q62 0 105 -43t43 -104q0 -27 -13 -60l-278 -696q-26 -65 -76.5 -103t-118.5 -38t-118 38t-76 103l-279 696q-12 31 -12 60z" />
<glyph unicode="w" horiz-adv-x="1638" d="M41 885q0 62 42 104.5t103 42.5q50 0 88.5 -28.5t53.5 -75.5l172 -525l157 506q18 57 61.5 91t100.5 34t100.5 -34t61.5 -91l158 -506l172 525q15 47 53 75.5t88 28.5q61 0 103 -42.5t42 -104.5q0 -29 -12 -64l-256 -704q-21 -57 -66.5 -92t-105.5 -35q-62 0 -110 36.5 t-66 94.5l-162 534l-162 -534q-18 -58 -66 -94.5t-110 -36.5q-60 0 -105.5 35t-66.5 92l-256 704q-12 35 -12 64z" />
<glyph unicode="x" horiz-adv-x="1001" d="M35 127q0 48 39 96l233 301l-213 277q-39 50 -39 96q0 57 40.5 97t97.5 40q68 0 112 -59l195 -256l196 256q45 59 113 59q57 0 97 -40t40 -97q0 -46 -39 -96l-213 -277l234 -301q39 -48 39 -96q0 -57 -40.5 -97t-97.5 -40q-65 0 -112 59l-217 279l-215 -279 q-47 -59 -113 -59q-57 0 -97 40t-40 97z" />
<glyph unicode="y" horiz-adv-x="1050" d="M37 889q0 60 42.5 102.5t102.5 42.5q44 0 80.5 -24.5t54.5 -63.5l224 -508l192 508q15 39 52.5 63.5t82.5 24.5q60 0 103 -42.5t43 -102.5q0 -23 -19 -74l-358 -983q-55 -150 -140.5 -207t-246.5 -57q-51 0 -86 36t-35 89q0 50 32.5 83.5t82.5 37.5q45 4 74.5 28t46.5 76 l47 143l-357 754q-18 37 -18 74z" />
<glyph unicode="z" horiz-adv-x="1003" d="M57 123q0 60 39 110l414 547h-309q-51 0 -86 35t-35 86t35 87t86 36h604q51 0 86 -36t35 -87q0 -60 -39 -110l-416 -547h354q51 0 86 -35t35 -86t-35 -87t-86 -36h-647q-51 0 -86 36t-35 87z" />
<glyph unicode="{" horiz-adv-x="727" d="M68 707q0 44 26 76.5t68 41.5q76 18 76 103v364q0 166 89 239t259 73q50 0 84.5 -35t34.5 -84q0 -44 -30.5 -76.5t-76.5 -40.5q-36 -6 -51 -30t-15 -74v-355q0 -66 -35 -123t-104 -79q69 -22 104 -79.5t35 -123.5v-354q0 -50 15 -74.5t51 -30.5q46 -8 76.5 -40.5 t30.5 -76.5q0 -49 -34.5 -83.5t-84.5 -34.5q-170 0 -259 72.5t-89 238.5v364q0 85 -76 103q-41 9 -67.5 42t-26.5 77z" />
<glyph unicode="|" horiz-adv-x="679" d="M186 -47v1507q0 63 45.5 108.5t108.5 45.5t108.5 -45.5t45.5 -108.5v-1507q0 -63 -45.5 -108.5t-108.5 -45.5t-108.5 45.5t-45.5 108.5z" />
<glyph unicode="}" horiz-adv-x="727" d="M23 -72q0 44 30 76.5t76 40.5q36 6 51 30.5t15 74.5v354q0 66 35 123.5t104 79.5q-69 22 -104 79t-35 123v355q0 50 -15 74t-51 30q-46 8 -76 40.5t-30 76.5q0 50 34.5 84.5t83.5 34.5q170 0 259 -73t89 -239v-364q0 -85 76 -103q42 -9 68 -41.5t26 -76.5t-26.5 -77 t-67.5 -42q-76 -18 -76 -103v-364q0 -166 -89 -238.5t-259 -72.5q-49 0 -83.5 34t-34.5 84z" />
<glyph unicode="~" horiz-adv-x="1150" d="M76 594q0 31 8 55q72 230 309 230q155 0 269 -119q32 -34 51 -46t39 -12q43 0 57 66q11 47 47.5 78t83.5 31q57 0 96 -39.5t39 -96.5q0 -31 -8 -55q-72 -229 -309 -229q-156 0 -269 118q-32 34 -51 46t-39 12q-43 0 -57 -66q-11 -47 -47.5 -77.5t-83.5 -30.5 q-57 0 -96 39t-39 96z" />
<glyph unicode="&#xa2;" horiz-adv-x="1017" d="M80 410v202q0 146 86 259.5t227 154.5v66q0 54 38.5 92.5t92.5 38.5t92.5 -38.5t38.5 -92.5v-60q86 -20 155 -66.5t110 -111.5q24 -39 24 -80q0 -57 -41 -97t-100 -40q-74 0 -123 78q-56 90 -141 90q-72 0 -118 -54t-46 -159v-162q0 -105 46 -159t118 -54q85 0 141 90 q49 78 123 78q59 0 100 -40t41 -97q0 -41 -24 -80q-41 -66 -110 -112.5t-155 -65.5v-60q0 -54 -38.5 -92.5t-92.5 -38.5t-92.5 38.5t-38.5 92.5v66q-141 41 -227 154.5t-86 259.5z" />
<glyph unicode="&#xa3;" horiz-adv-x="1216" d="M76 676q0 38 27 66t65 28h39v213q0 220 117.5 347.5t334.5 127.5q146 0 259 -68.5t169 -189.5q13 -29 13 -61q0 -65 -47 -111.5t-111 -46.5q-99 0 -147 100q-48 99 -136 99q-137 0 -137 -209v-201h254q38 0 65 -28t27 -66t-27 -65t-65 -27h-254v-78q0 -146 -65 -227h555 q58 0 98.5 -40.5t40.5 -99.5t-40.5 -99t-98.5 -40h-791q-60 0 -100.5 40.5t-40.5 100.5q0 70 47 129q40 52 60 101.5t20 117.5v95h-39q-38 0 -65 27t-27 65z" />
<glyph unicode="&#xa5;" horiz-adv-x="1236" d="M45 1286q0 66 46 112t112 46q83 0 133 -72l282 -409l283 409q50 72 133 72q66 0 112 -46t46 -112q0 -48 -29 -92l-284 -399h120q29 0 50.5 -21.5t21.5 -50.5t-21.5 -50.5t-50.5 -21.5h-223v-98h223q29 0 50.5 -21.5t21.5 -50.5t-21.5 -50t-50.5 -21h-223v-263 q0 -66 -46 -111.5t-112 -45.5t-111.5 45.5t-45.5 111.5v263h-223q-29 0 -50.5 21t-21.5 50t21.5 50.5t50.5 21.5h223v98h-223q-29 0 -50.5 21.5t-21.5 50.5t21.5 50.5t50.5 21.5h120l-284 399q-29 44 -29 92z" />
<glyph unicode="&#xa8;" horiz-adv-x="806" d="M84 1315v24q0 51 35 86t86 35t86 -35t35 -86v-24q0 -51 -35 -86t-86 -35t-86 35t-35 86zM481 1315v24q0 51 35 86t86 35t86 -35t35 -86v-24q0 -51 -35 -86t-86 -35t-86 35t-35 86z" />
<glyph unicode="&#xa9;" horiz-adv-x="1544" d="M92 676v82q0 324 187.5 512t492.5 188t492.5 -188t187.5 -512v-82q0 -324 -187.5 -512.5t-492.5 -188.5t-492.5 188.5t-187.5 512.5zM207 692q0 -285 150 -447.5t415 -162.5t415 162.5t150 447.5v49q0 285 -150 448t-415 163t-415 -163t-150 -448v-49zM453 621v194 q0 156 89.5 252t241.5 96q95 0 174.5 -46t116.5 -122q15 -30 15 -53q0 -43 -31 -73.5t-74 -30.5q-66 0 -94 61q-17 36 -46 56t-61 20q-118 0 -118 -176v-162q0 -176 118 -176q32 0 61 20t46 56q28 61 94 61q43 0 74 -30.5t31 -73.5q0 -24 -15 -54q-37 -76 -116.5 -122 t-174.5 -46q-152 0 -241.5 96.5t-89.5 252.5z" />
<glyph unicode="&#xab;" horiz-adv-x="1095" d="M45 639q0 58 47 90l320 236q24 18 57 18q41 0 70.5 -29.5t29.5 -70.5q0 -55 -41 -82l-229 -162l229 -162q41 -27 41 -82q0 -41 -29.5 -70.5t-70.5 -29.5q-33 0 -57 18l-320 236q-47 32 -47 90zM526 639q0 58 47 90l320 236q24 18 57 18q41 0 71 -29.5t30 -70.5 q0 -55 -41 -82l-230 -162l230 -162q41 -27 41 -82q0 -41 -30 -70.5t-71 -29.5q-33 0 -57 18l-320 236q-47 32 -47 90z" />
<glyph unicode="&#xad;" horiz-adv-x="878" d="M92 668q0 51 35 85.5t86 34.5h453q51 0 85.5 -34.5t34.5 -85.5t-34.5 -86t-85.5 -35h-453q-51 0 -86 35t-35 86z" />
<glyph unicode="&#xae;" horiz-adv-x="1544" d="M92 676v82q0 324 187.5 512t492.5 188t492.5 -188t187.5 -512v-82q0 -324 -187.5 -512.5t-492.5 -188.5t-492.5 188.5t-187.5 512.5zM207 692q0 -285 150 -447.5t415 -162.5t415 162.5t150 447.5v49q0 285 -150 448t-415 163t-415 -163t-150 -448v-49zM467 381v649 q0 49 32.5 81t82.5 32h223q74 0 139.5 -30t110.5 -95.5t45 -153.5q0 -159 -142 -239l132 -174q28 -36 28 -72q0 -43 -31.5 -74t-74.5 -31q-55 0 -86 45l-189 267h-55v-205q0 -44 -32.5 -75.5t-76.5 -31.5t-75 31.5t-31 75.5zM680 774h102q47 0 76 24.5t29 67.5q0 42 -29 65 t-76 23h-102v-180z" />
<glyph unicode="&#xb4;" horiz-adv-x="806" d="M203 1247q0 35 22 62l127 155q38 45 90 45q46 0 77.5 -32t31.5 -78q0 -50 -31 -78l-151 -137q-36 -31 -72 -31q-39 0 -66.5 27.5t-27.5 66.5z" />
<glyph unicode="&#xb8;" horiz-adv-x="806" d="M133 -371q0 43 27.5 70t66.5 27q28 0 56 -17q39 -20 73 -20q27 0 43.5 13t16.5 36q0 49 -115 63q-43 6 -43 43q0 19 8 35l56 121h200l-37 -90q152 -49 152 -195q0 -98 -69 -157.5t-195 -59.5q-110 0 -183 43q-57 35 -57 88z" />
<glyph unicode="&#xbb;" horiz-adv-x="1095" d="M45 395q0 55 41 82l229 162l-229 162q-41 27 -41 82q0 41 29.5 70.5t70.5 29.5q34 0 58 -18l319 -236q47 -32 47 -90t-47 -90l-319 -236q-24 -18 -58 -18q-41 0 -70.5 29.5t-29.5 70.5zM526 395q0 55 41 82l230 162l-230 162q-41 27 -41 82q0 41 30 70.5t71 29.5 q33 0 57 -18l320 -236q47 -32 47 -90t-47 -90l-320 -236q-24 -18 -57 -18q-41 0 -71 29.5t-30 70.5z" />
<glyph unicode="&#x2c6;" horiz-adv-x="806" d="M78 1243q0 43 37 72l184 147q50 41 104 41q55 0 105 -41l184 -147q37 -29 37 -72q0 -36 -25 -61t-63 -25q-27 0 -55 19l-183 124l-182 -124q-28 -19 -55 -19q-38 0 -63 25t-25 61z" />
<glyph unicode="&#x2da;" horiz-adv-x="806" d="M174 1327q0 102 65 162.5t164 60.5t164.5 -60.5t65.5 -162.5t-65.5 -162.5t-164.5 -60.5t-164 60.5t-65 162.5zM336 1327q0 -33 18.5 -52.5t48.5 -19.5t49 19.5t19 52.5t-19 52.5t-49 19.5t-48.5 -19.5t-18.5 -52.5z" />
<glyph unicode="&#x2dc;" horiz-adv-x="806" d="M66 1278q0 21 12 53q27 66 80.5 99.5t124.5 33.5q97 0 161 -61q41 -41 72 -41q34 0 49 41q11 26 34 41.5t52 15.5q38 0 64 -26t26 -64q0 -21 -12 -53q-27 -66 -80.5 -99.5t-124.5 -33.5q-98 0 -162 61q-41 41 -71 41q-34 0 -49 -41q-11 -26 -34 -41.5t-52 -15.5 q-38 0 -64 26t-26 64z" />
<glyph unicode="&#x400;" horiz-adv-x="1155" d="M137 145v1143q0 63 41.5 104.5t104.5 41.5h657q58 0 98.5 -40.5t40.5 -99.5q0 -58 -40.5 -98.5t-98.5 -40.5h-487v-281h403q58 0 98.5 -40t40.5 -99t-40.5 -99t-98.5 -40h-403v-317h487q58 0 98.5 -40.5t40.5 -99.5t-40.5 -99t-98.5 -40h-657q-63 0 -104.5 41t-41.5 104z M410 1796q0 46 31.5 78.5t76.5 32.5q52 0 90 -45l127 -156q23 -28 23 -61q0 -39 -28 -67t-66 -28q-36 0 -72 31l-152 137q-30 27 -30 78z" />
<glyph unicode="&#x401;" horiz-adv-x="1155" d="M137 145v1143q0 63 41.5 104.5t104.5 41.5h657q58 0 98.5 -40.5t40.5 -99.5q0 -58 -40.5 -98.5t-98.5 -40.5h-487v-281h403q58 0 98.5 -40t40.5 -99t-40.5 -99t-98.5 -40h-403v-317h487q58 0 98.5 -40.5t40.5 -99.5t-40.5 -99t-98.5 -40h-657q-63 0 -104.5 41t-41.5 104z M287 1712v25q0 51 35 86t86 35t85.5 -35t34.5 -86v-25q0 -51 -34.5 -86t-85.5 -35t-86 35t-35 86zM684 1712v25q0 51 35 86t86 35t86 -35t35 -86v-25q0 -51 -35 -86t-86 -35t-86 35t-35 86z" />
<glyph unicode="&#x402;" horiz-adv-x="1482" d="M14 1294q0 58 41 99t99 41h794q58 0 98.5 -40.5t40.5 -99.5q0 -58 -40.5 -98.5t-98.5 -40.5h-239v-303q58 42 139.5 68t165.5 26q182 0 283.5 -113t101.5 -317v-485q0 -173 -83.5 -255.5t-279.5 -82.5h-8q-58 0 -98.5 40.5t-40.5 98.5q0 54 34.5 93.5t94.5 45.5 q65 6 65 82v416q0 199 -170 199q-119 0 -204 -72v-449q0 -66 -46 -111.5t-112 -45.5t-112 45.5t-46 111.5v1008h-239q-59 0 -99.5 40.5t-40.5 98.5z" />
<glyph unicode="&#x403;" horiz-adv-x="1124" d="M137 147v1141q0 63 41.5 104.5t104.5 41.5h698q58 0 98.5 -40.5t40.5 -99.5q0 -58 -40 -98.5t-99 -40.5h-528v-1008q0 -66 -46 -111.5t-112 -45.5t-112 45.5t-46 111.5zM492 1645q0 34 22 61l127 156q38 45 90 45q46 0 77.5 -32.5t31.5 -78.5q0 -50 -31 -78l-152 -137 q-36 -31 -71 -31q-38 0 -66 28t-28 67z" />
<glyph unicode="&#x404;" horiz-adv-x="1232" d="M96 553v328q0 256 149 416.5t394 160.5q173 0 303 -79.5t193 -221.5q16 -37 16 -72q0 -66 -46 -111.5t-112 -45.5q-101 0 -149 104q-68 148 -201 148q-115 0 -173 -83t-58 -241h194q58 0 98.5 -40t40.5 -99t-40.5 -99t-98.5 -40h-194q0 -159 58 -241.5t173 -82.5 q133 0 201 147q48 105 149 105q66 0 112 -46t46 -112q0 -35 -16 -72q-63 -142 -193 -221.5t-303 -79.5q-245 0 -394 161t-149 417z" />
<glyph unicode="&#x405;" horiz-adv-x="1222" d="M100 293q0 63 43.5 107t106.5 44q75 0 127 -65q48 -60 118 -92.5t142 -32.5q90 0 142 41.5t52 114.5q0 69 -44.5 108.5t-143.5 59.5l-113 22q-415 83 -415 428q0 86 31 162.5t90 136.5t152 95.5t208 35.5q268 0 438 -170q53 -53 53 -121q0 -63 -44 -106t-107 -43 q-65 0 -125 63q-91 99 -215 99q-79 0 -122.5 -41.5t-43.5 -106.5q0 -122 188 -162l117 -24q213 -45 312.5 -150.5t99.5 -279.5q0 -199 -136.5 -320t-371.5 -121q-157 0 -290.5 58t-217.5 166q-31 42 -31 94z" />
<glyph unicode="&#x406;" horiz-adv-x="618" d="M152 147v1139q0 66 45.5 112t111.5 46t112 -46t46 -112v-1139q0 -66 -46 -111.5t-112 -45.5t-111.5 45.5t-45.5 111.5z" />
<glyph unicode="&#x407;" horiz-adv-x="618" d="M-10 1712v25q0 51 35 86t86 35t85.5 -35t34.5 -86v-25q0 -51 -34.5 -86t-85.5 -35t-86 35t-35 86zM152 147v1139q0 66 45.5 112t111.5 46t112 -46t46 -112v-1139q0 -66 -46 -111.5t-112 -45.5t-111.5 45.5t-45.5 111.5zM387 1712v25q0 51 35 86t86 35t86 -35t35 -86v-25 q0 -51 -35 -86t-86 -35t-86 35t-35 86z" />
<glyph unicode="&#x408;" horiz-adv-x="1134" d="M72 293q0 63 43 106t106 43q90 0 141 -94q53 -94 158 -94q84 0 134.5 60.5t50.5 185.5v786q0 66 45.5 112t111.5 46t112 -46t46 -112v-821q0 -228 -133.5 -359t-360.5 -131q-140 0 -256.5 65t-177.5 173q-20 38 -20 80z" />
<glyph unicode="&#x409;" horiz-adv-x="2050" d="M18 115q0 58 38.5 96.5t101.5 44.5q43 4 61.5 33.5t18.5 89.5v909q0 63 41 104.5t104 41.5h754q63 0 104 -41.5t41 -104.5v-416h203q237 0 367 -116.5t130 -319.5t-130 -319.5t-367 -116.5h-373q-63 0 -104 41t-41 104v1010h-414v-838q0 -178 -87.5 -260t-272.5 -82h-35 q-58 0 -99 40.5t-41 99.5zM1282 279h176q106 0 157.5 41.5t51.5 115.5q0 75 -51.5 116.5t-157.5 41.5h-176v-315z" />
<glyph unicode="&#x40a;" horiz-adv-x="1941" d="M137 147v1139q0 66 46 112t112 46t112 -46t46 -112v-412h405v412q0 66 46 112t112 46t112 -46t46 -112v-414h202q237 0 367.5 -116.5t130.5 -319.5t-130.5 -319.5t-367.5 -116.5h-372q-63 0 -104.5 41t-41.5 104v451h-405v-449q0 -66 -46 -111.5t-112 -45.5t-112 45.5 t-46 111.5zM1174 279h176q106 0 157.5 41.5t51.5 115.5q0 75 -51.5 116.5t-157.5 41.5h-176v-315z" />
<glyph unicode="&#x40b;" horiz-adv-x="1482" d="M14 1294q0 58 41 99t99 41h794q58 0 98.5 -40.5t40.5 -99.5q0 -58 -40.5 -98.5t-98.5 -40.5h-239v-303q58 42 139.5 68t165.5 26q182 0 283.5 -113t101.5 -317v-369q0 -66 -46 -111.5t-112 -45.5t-112 45.5t-46 111.5v322q0 199 -170 199q-119 0 -204 -72v-449 q0 -66 -46 -111.5t-112 -45.5t-112 45.5t-46 111.5v1008h-239q-59 0 -99.5 40.5t-40.5 98.5z" />
<glyph unicode="&#x40c;" horiz-adv-x="1275" d="M135 147v1139q0 66 46 112t112 46t112 -46t46 -112v-446l133 88q112 73 165.5 160t69.5 204q9 68 51 110t107 42q64 0 111 -43t47 -105q0 -18 -2 -42q-13 -155 -80 -273.5t-199 -220.5l338 -527q25 -40 25 -86q0 -66 -46 -111.5t-112 -45.5q-88 0 -144 88l-315 508 l-149 -99v-340q0 -66 -46 -111.5t-112 -45.5t-112 45.5t-46 111.5zM530 1645q0 33 23 61l127 156q38 45 90 45q46 0 77.5 -32.5t31.5 -78.5q0 -50 -31 -78l-152 -137q-36 -31 -71 -31q-39 0 -67 28t-28 67z" />
<glyph unicode="&#x40d;" horiz-adv-x="1370" d="M137 147q0 -66 46 -111.5t112 -45.5q110 0 170 102l453 758v-703q0 -66 45.5 -111.5t111.5 -45.5t112 45.5t46 111.5v1139q0 66 -46 112t-112 46q-110 0 -170 -103l-452 -757v702q0 66 -46 112t-112 46t-112 -46t-46 -112v-1139zM473 1796q0 46 31.5 78.5t77.5 32.5 q52 0 90 -45l127 -156q22 -27 22 -61q0 -39 -27.5 -67t-66.5 -28q-36 0 -72 31l-151 137q-31 28 -31 78z" />
<glyph unicode="&#x40e;" horiz-adv-x="1163" d="M53 1292q0 63 44 107.5t106 44.5q93 0 139 -90l256 -518l238 518q19 41 56 65.5t83 24.5q62 0 105.5 -44.5t43.5 -107.5q0 -26 -20 -75l-416 -965q-61 -142 -140.5 -197t-209.5 -55h-12q-59 0 -99.5 40.5t-40.5 98.5t39 96.5t101 47.5q56 9 84 84l39 104l-375 746 q-21 44 -21 75zM276 1778q0 44 31.5 75t75.5 31q65 0 94 -59q39 -80 119 -80t119 80q29 59 94 59q44 0 75 -31t31 -75q0 -43 -30 -86q-44 -62 -121 -96.5t-168 -34.5t-168 34.5t-121 96.5q-31 44 -31 86z" />
<glyph unicode="&#x40f;" horiz-adv-x="1310" d="M137 145v1141q0 66 46 112t112 46t112 -46t46 -112v-1007h405v1007q0 66 46 112t112 46t112 -46t46 -112v-1141q0 -63 -41.5 -104t-104.5 -41h-215v-98q0 -66 -46 -112t-112 -46t-111.5 46t-45.5 112v98h-215q-63 0 -104.5 41t-41.5 104z" />
<glyph unicode="&#x410;" horiz-adv-x="1265" d="M31 147q0 28 10 58l383 1079q58 160 209 160t209 -160l383 -1079q10 -30 10 -58q0 -66 -46 -111.5t-112 -45.5q-51 0 -91.5 29.5t-57.5 76.5l-60 170h-473l-57 -170q-15 -46 -56.5 -76t-93.5 -30q-66 0 -111.5 45.5t-45.5 111.5zM483 524h297l-147 434z" />
<glyph unicode="&#x411;" horiz-adv-x="1224" d="M137 145v1143q0 63 41.5 104.5t104.5 41.5h600q58 0 98.5 -40.5t40.5 -99.5q0 -58 -40 -98.5t-99 -40.5h-430v-283h202q237 0 367.5 -116.5t130.5 -319.5t-130.5 -319.5t-367.5 -116.5h-372q-63 0 -104.5 41t-41.5 104zM453 279h176q106 0 157.5 41.5t51.5 115.5 q0 75 -51.5 116.5t-157.5 41.5h-176v-315z" />
<glyph unicode="&#x412;" horiz-adv-x="1234" d="M137 145v1143q0 63 41.5 104.5t104.5 41.5h358q215 0 346 -102.5t131 -295.5q0 -103 -49 -178t-131 -110q104 -39 162.5 -123t58.5 -203q0 -110 -38.5 -192.5t-107.5 -132t-157 -73.5t-194 -24h-379q-63 0 -104.5 41t-41.5 104zM451 258h194q89 0 143 45.5t54 132.5 t-54 132.5t-143 45.5h-194v-356zM451 854h159q89 0 141 39.5t52 122.5q0 81 -52 120.5t-141 39.5h-159v-322z" />
<glyph unicode="&#x413;" horiz-adv-x="1124" d="M137 147v1141q0 63 41.5 104.5t104.5 41.5h698q58 0 98.5 -40.5t40.5 -99.5q0 -58 -40 -98.5t-99 -40.5h-528v-1008q0 -66 -46 -111.5t-112 -45.5t-112 45.5t-46 111.5z" />
<glyph unicode="&#x414;" horiz-adv-x="1341" d="M35 -98v231q0 63 41 104.5t104 41.5q82 259 82 595v414q0 63 41.5 104.5t104.5 41.5h589q63 0 104.5 -41.5t41.5 -104.5v-1009h4q63 0 104 -41.5t41 -104.5v-231q0 -66 -45.5 -112t-111.5 -46t-112 46t-46 112v98h-627v-98q0 -66 -45.5 -112t-111.5 -46t-112 46t-46 112z M502 279h325v876h-249v-299q0 -309 -76 -577z" />
<glyph unicode="&#x415;" horiz-adv-x="1155" d="M137 145v1143q0 63 41.5 104.5t104.5 41.5h657q58 0 98.5 -40.5t40.5 -99.5q0 -58 -40.5 -98.5t-98.5 -40.5h-487v-281h403q58 0 98.5 -40t40.5 -99t-40.5 -99t-98.5 -40h-403v-317h487q58 0 98.5 -40.5t40.5 -99.5t-40.5 -99t-98.5 -40h-657q-63 0 -104.5 41t-41.5 104z " />
<glyph unicode="&#x416;" horiz-adv-x="1785" d="M29 150q0 43 26 90l307 528q-101 85 -153.5 172.5t-70.5 207.5q-11 77 -11 142q0 64 46.5 109t111.5 45q66 0 110.5 -46t46.5 -112q3 -127 42.5 -202t144.5 -148l106 -74v424q0 66 46 112t112 46t112 -46t46 -112v-424l106 74q105 73 144 148t42 202q2 66 47 112t111 46 q65 0 111.5 -45t46.5 -109q0 -65 -11 -142q-18 -120 -70.5 -207t-154.5 -173l308 -528q26 -47 26 -90q0 -66 -46 -112t-112 -46q-92 0 -141 86l-291 508l-116 -78v-361q0 -66 -46 -111.5t-112 -45.5t-112 45.5t-46 111.5v361l-117 78l-290 -508q-49 -86 -142 -86 q-66 0 -111.5 46t-45.5 112z" />
<glyph unicode="&#x417;" horiz-adv-x="1191" d="M90 315q0 63 44.5 107.5t107.5 44.5q83 0 133 -76q87 -137 243 -137q91 0 143 45t52 119q0 90 -61 140t-158 50q-58 0 -98.5 40.5t-40.5 99.5q0 58 40 98t99 43q180 9 180 153q0 65 -44 101.5t-122 36.5q-122 0 -202 -113q-57 -76 -134 -76q-63 0 -107 44.5t-44 107.5 q0 45 29 92q71 106 194 164.5t264 58.5q229 0 355.5 -114t126.5 -295q0 -217 -189 -299q109 -43 168 -129.5t59 -204.5q0 -194 -132 -317.5t-375 -123.5q-157 0 -295.5 68t-212.5 195q-23 44 -23 77z" />
<glyph unicode="&#x418;" horiz-adv-x="1370" d="M137 147v1139q0 66 46 112t112 46t112 -46t46 -112v-702l452 757q60 103 170 103q66 0 112 -46t46 -112v-1139q0 -66 -46 -111.5t-112 -45.5t-111.5 45.5t-45.5 111.5v703l-453 -758q-60 -102 -170 -102q-66 0 -112 45.5t-46 111.5z" />
<glyph unicode="&#x419;" horiz-adv-x="1370" d="M137 147v1139q0 66 46 112t112 46t112 -46t46 -112v-702l452 757q60 103 170 103q66 0 112 -46t46 -112v-1139q0 -66 -46 -111.5t-112 -45.5t-111.5 45.5t-45.5 111.5v703l-453 -758q-60 -102 -170 -102q-66 0 -112 45.5t-46 111.5zM365 1778q0 44 31 75t75 31 q65 0 94 -59q39 -80 119 -80t119 80q29 59 94 59q44 0 75.5 -31t31.5 -75q0 -42 -31 -86q-44 -62 -121 -96.5t-168 -34.5t-168 34.5t-121 96.5q-30 43 -30 86z" />
<glyph unicode="&#x41a;" horiz-adv-x="1275" d="M135 147v1139q0 66 46 112t112 46t112 -46t46 -112v-446l133 88q112 73 165.5 160t69.5 204q9 68 51 110t107 42q64 0 111 -43t47 -105q0 -18 -2 -42q-13 -155 -80 -273.5t-199 -220.5l338 -527q25 -40 25 -86q0 -66 -46 -111.5t-112 -45.5q-88 0 -144 88l-315 508 l-149 -99v-340q0 -66 -46 -111.5t-112 -45.5t-112 45.5t-46 111.5z" />
<glyph unicode="&#x41b;" horiz-adv-x="1419" d="M18 115q0 58 38.5 96.5t101.5 44.5q43 4 61.5 33.5t18.5 89.5v909q0 63 41 104.5t104 41.5h754q63 0 104 -41.5t41 -104.5v-1141q0 -66 -46 -111.5t-112 -45.5t-111.5 45.5t-45.5 111.5v1008h-414v-838q0 -178 -87.5 -260t-272.5 -82h-35q-58 0 -99 40.5t-41 99.5z" />
<glyph unicode="&#x41c;" horiz-adv-x="1597" d="M137 147v1139q0 66 46 112t112 46q99 0 158 -109l346 -645l346 645q59 109 158 109q66 0 111.5 -46t45.5 -112v-1139q0 -66 -45.5 -111.5t-111.5 -45.5t-112 45.5t-46 111.5v646l-187 -349q-57 -106 -159 -106q-103 0 -160 106l-186 349v-646q0 -66 -46 -111.5 t-112 -45.5t-112 45.5t-46 111.5z" />
<glyph unicode="&#x41d;" horiz-adv-x="1310" d="M137 147v1139q0 66 46 112t112 46t112 -46t46 -112v-412h405v412q0 66 46 112t112 46t112 -46t46 -112v-1139q0 -66 -46 -111.5t-112 -45.5t-112 45.5t-46 111.5v449h-405v-449q0 -66 -46 -111.5t-112 -45.5t-112 45.5t-46 111.5z" />
<glyph unicode="&#x41e;" horiz-adv-x="1277" d="M96 551v332q0 254 149 414.5t394 160.5t394 -160.5t149 -414.5v-332q0 -255 -149 -415.5t-394 -160.5t-394 160.5t-149 415.5zM412 580q0 -161 59 -243.5t168 -82.5t168 82.5t59 243.5v274q0 161 -59 243.5t-168 82.5t-168 -82.5t-59 -243.5v-274z" />
<glyph unicode="&#x41f;" horiz-adv-x="1310" d="M137 147v1141q0 63 41.5 104.5t104.5 41.5h745q63 0 104.5 -41.5t41.5 -104.5v-1141q0 -66 -46 -111.5t-112 -45.5t-112 45.5t-46 111.5v1008h-405v-1008q0 -66 -46 -111.5t-112 -45.5t-112 45.5t-46 111.5z" />
<glyph unicode="&#x420;" horiz-adv-x="1236" d="M137 147v1141q0 63 41.5 104.5t104.5 41.5h397q73 0 141.5 -17.5t130.5 -55.5t108.5 -92t73.5 -133t27 -173q0 -116 -41 -208.5t-109.5 -148.5t-152 -85t-174.5 -29h-231v-345q0 -66 -46 -111.5t-112 -45.5t-112 45.5t-46 111.5zM453 770h192q90 0 145.5 49t55.5 144 t-55.5 143.5t-145.5 48.5h-192v-385z" />
<glyph unicode="&#x421;" horiz-adv-x="1232" d="M96 553v328q0 256 149 416.5t394 160.5q173 0 303 -79.5t193 -221.5q16 -37 16 -72q0 -66 -46 -111.5t-112 -45.5q-101 0 -149 104q-68 148 -201 148q-115 0 -173 -83.5t-58 -244.5v-270q0 -161 58 -244.5t173 -83.5q133 0 201 147q48 105 149 105q66 0 112 -46t46 -112 q0 -35 -16 -72q-63 -142 -193 -221.5t-303 -79.5q-245 0 -394 161t-149 417z" />
<glyph unicode="&#x422;" horiz-adv-x="1101" d="M14 1294q0 58 41 99t99 41h794q58 0 98.5 -40.5t40.5 -99.5q0 -58 -40.5 -98.5t-98.5 -40.5h-239v-1008q0 -66 -46 -111.5t-112 -45.5t-112 45.5t-46 111.5v1008h-239q-59 0 -99.5 40.5t-40.5 98.5z" />
<glyph unicode="&#x423;" horiz-adv-x="1163" d="M53 1292q0 63 44 107.5t106 44.5q93 0 139 -90l256 -518l238 518q19 41 56 65.5t83 24.5q62 0 105.5 -44.5t43.5 -107.5q0 -26 -20 -75l-416 -965q-61 -142 -140.5 -197t-209.5 -55h-12q-59 0 -99.5 40.5t-40.5 98.5t39 96.5t101 47.5q56 9 84 84l39 104l-375 746 q-21 44 -21 75z" />
<glyph unicode="&#x424;" horiz-adv-x="1544" d="M74 672v90q0 137 64 251t183.5 182.5t270.5 68.5h29v28q0 63 44 107.5t107 44.5t107.5 -44.5t44.5 -107.5v-28h28q151 0 270.5 -68.5t183.5 -182.5t64 -251v-90q0 -137 -64 -251t-183.5 -182.5t-270.5 -68.5h-28v-29q0 -63 -44.5 -107t-107.5 -44t-107 44t-44 107v29h-29 q-151 0 -270.5 68.5t-183.5 182.5t-64 251zM377 702q0 -118 57 -192t158 -74h29v561h-29q-101 0 -158 -74t-57 -192v-29zM924 436h28q101 0 158 74t57 192v29q0 118 -57 192t-158 74h-28v-561z" />
<glyph unicode="&#x425;" horiz-adv-x="1290" d="M55 150q0 49 27 88l352 497l-323 461q-27 39 -27 88q0 66 47 113t113 47q82 0 135 -74l266 -383l266 383q53 74 136 74q66 0 112.5 -47t46.5 -113q0 -51 -26 -88l-324 -461l352 -497q27 -39 27 -88q0 -66 -47 -113t-113 -47q-83 0 -135 73l-295 422l-295 -422 q-52 -73 -135 -73q-66 0 -113 47t-47 113z" />
<glyph unicode="&#x426;" horiz-adv-x="1372" d="M137 145v1141q0 66 46 112t112 46t112 -46t46 -112v-1007h405v1007q0 66 46 112t112 46t112 -46t46 -112v-1007h4q63 0 104 -41.5t41 -104.5v-231q0 -66 -46 -112t-112 -46t-111.5 46t-45.5 112v98h-725q-63 0 -104.5 41t-41.5 104z" />
<glyph unicode="&#x427;" horiz-adv-x="1253" d="M104 930v356q0 66 46 112t112 46t112 -46t46 -112v-305q0 -114 41 -164.5t135 -50.5q115 0 205 65v455q0 66 45.5 112t111.5 46t112 -46t46 -112v-1139q0 -66 -46 -111.5t-112 -45.5t-111.5 45.5t-45.5 111.5v422q-55 -39 -131.5 -60.5t-157.5 -21.5q-200 0 -304 112 t-104 331z" />
<glyph unicode="&#x428;" horiz-adv-x="1990" d="M137 145v1141q0 66 46 112t112 46t112 -46t46 -112v-1007h385v1007q0 66 45.5 112t111.5 46t112 -46t46 -112v-1007h385v1007q0 66 46 112t112 46t111.5 -46t45.5 -112v-1141q0 -63 -41 -104t-104 -41h-1425q-63 0 -104.5 41t-41.5 104z" />
<glyph unicode="&#x429;" horiz-adv-x="2052" d="M137 145v1141q0 66 46 112t112 46t112 -46t46 -112v-1007h385v1007q0 66 45.5 112t111.5 46t112 -46t46 -112v-1007h385v1007q0 66 46 112t112 46t111.5 -46t45.5 -112v-1007h5q63 0 104 -41.5t41 -104.5v-231q0 -66 -46 -112t-112 -46t-111.5 46t-45.5 112v98h-1405 q-63 0 -104.5 41t-41.5 104z" />
<glyph unicode="&#x42a;" horiz-adv-x="1478" d="M12 1294q0 58 41 99t99 41h413q63 0 104.5 -41.5t41.5 -104.5v-416h202q237 0 367.5 -116.5t130.5 -319.5t-130.5 -319.5t-367.5 -116.5h-372q-63 0 -104.5 41t-41.5 104v1010h-243q-59 0 -99.5 40.5t-40.5 98.5zM711 279h176q106 0 157.5 41.5t51.5 115.5 q0 75 -51.5 116.5t-157.5 41.5h-176v-315z" />
<glyph unicode="&#x42b;" horiz-adv-x="1751" d="M137 145v1141q0 66 46 112t112 46t112 -46t46 -112v-414h202q237 0 367.5 -116.5t130.5 -319.5t-130.5 -319.5t-367.5 -116.5h-372q-63 0 -104.5 41t-41.5 104zM453 279h176q106 0 157.5 41.5t51.5 115.5q0 75 -51.5 116.5t-157.5 41.5h-176v-315zM1300 147v1139 q0 66 46 112t112 46t112 -46t46 -112v-1139q0 -66 -46 -111.5t-112 -45.5t-112 45.5t-46 111.5z" />
<glyph unicode="&#x42c;" horiz-adv-x="1220" d="M137 145v1141q0 66 46 112t112 46t112 -46t46 -112v-414h202q237 0 367.5 -116.5t130.5 -319.5t-130.5 -319.5t-367.5 -116.5h-372q-63 0 -104.5 41t-41.5 104zM453 279h176q106 0 157.5 41.5t51.5 115.5q0 75 -51.5 116.5t-157.5 41.5h-176v-315z" />
<glyph unicode="&#x42d;" horiz-adv-x="1232" d="M82 348q0 66 46 112t112 46q101 0 149 -105q67 -147 201 -147q113 0 171 82.5t60 241.5h-194q-59 0 -99.5 40.5t-40.5 98.5t40.5 98.5t99.5 40.5h194q-2 158 -60 241t-171 83q-133 0 -201 -148q-48 -104 -149 -104q-66 0 -112 45.5t-46 111.5q0 35 16 72 q63 142 193 221.5t303 79.5q245 0 394 -160.5t149 -416.5v-328q0 -256 -149 -417t-394 -161q-173 0 -303 79.5t-193 221.5q-16 37 -16 72z" />
<glyph unicode="&#x42e;" horiz-adv-x="1759" d="M135 147v1139q0 66 46 112t112 46t112 -46t46 -112v-430h127v27q0 255 148.5 415t393.5 160t394 -160.5t149 -414.5v-332q0 -255 -149 -415.5t-394 -160.5t-393.5 160.5t-148.5 415.5v27h-127v-431q0 -66 -46 -111.5t-112 -45.5t-112 45.5t-46 111.5zM893 580 q0 -161 59 -243.5t168 -82.5t168.5 83t59.5 243v274q0 160 -59.5 243t-168.5 83t-168 -82.5t-59 -243.5v-274z" />
<glyph unicode="&#x42f;" horiz-adv-x="1251" d="M53 147q0 52 35 101l229 325q-225 119 -225 400q0 94 27.5 172t73.5 130.5t108 89t130.5 53t141.5 16.5h396q63 0 104 -41.5t41 -104.5v-1141q0 -66 -46 -111.5t-112 -45.5t-111.5 45.5t-45.5 111.5v365h-162l-289 -444q-51 -78 -137 -78q-66 0 -112 45.5t-46 111.5z M408 973q0 -94 54 -138t146 -44h191v364h-191q-92 0 -146 -44t-54 -138z" />
<glyph unicode="&#x430;" horiz-adv-x="1069" d="M74 276v23q0 140 109.5 226.5t338.5 86.5h150v33q0 80 -40.5 123t-109.5 43q-106 0 -198 -76q-41 -33 -86 -33q-47 0 -83 36t-36 83q0 49 33 82q67 68 171.5 107t217.5 39q200 0 312 -111.5t112 -290.5v-510q0 -60 -43.5 -103.5t-104.5 -43.5q-54 0 -94 35.5t-49 87.5 q-87 -138 -268 -138q-146 0 -239 83.5t-93 217.5zM354 301q0 -39 33.5 -63.5t93.5 -24.5q63 0 114.5 26t76.5 72v103h-185q-60 0 -96.5 -28t-36.5 -73v-12z" />
<glyph unicode="&#x431;" horiz-adv-x="1083" d="M98 406v516q0 215 86 319.5t295 144.5l281 54q20 4 31 4q47 0 79.5 -33t32.5 -80q0 -42 -27.5 -71t-72.5 -37l-271 -49q-74 -14 -105.5 -53.5t-31.5 -123.5v-49q38 45 100.5 73t131.5 28q119 0 206 -60t129 -156t42 -215v-212q0 -88 -28.5 -164.5t-83 -136t-142.5 -94 t-199 -34.5t-199 34.5t-142.5 94t-83 136t-28.5 164.5zM393 438q0 -217 158 -217t158 217v148q0 219 -156 219q-105 0 -160 -90v-277z" />
<glyph unicode="&#x432;" horiz-adv-x="1011" d="M117 154v716q0 66 43.5 110t109.5 44h303q172 0 263.5 -80t91.5 -211q0 -66 -31.5 -119t-85.5 -79q69 -32 106 -91t37 -133q0 -142 -89.5 -226.5t-264.5 -84.5h-330q-66 0 -109.5 44t-43.5 110zM397 223h156q119 0 119 99q0 47 -31 71.5t-88 24.5h-156v-195zM397 637h144 q104 0 104 82t-104 82h-144v-164z" />
<glyph unicode="&#x433;" horiz-adv-x="890" d="M117 137v733q0 66 43.5 110t109.5 44h475q51 0 86 -36t35 -87t-35 -86t-86 -35h-333v-643q0 -61 -43 -104t-105 -43t-104.5 43t-42.5 104z" />
<glyph unicode="&#x434;" horiz-adv-x="1083" d="M14 -88v180q0 57 33 98t86 52q53 191 53 440v188q0 66 44 110t110 44h442q66 0 110 -44t44 -110v-628q53 -11 86 -52t33 -98v-180q0 -62 -43.5 -105t-104.5 -43t-104 43t-43 105v88h-451v-88q0 -62 -43 -105t-104 -43q-62 0 -105 43t-43 105zM422 242h227v544h-176v-124 q0 -229 -51 -420z" />
<glyph unicode="&#x435;" horiz-adv-x="1077" d="M80 410v202q0 184 130 310.5t329 126.5q196 0 327 -124.5t131 -301.5v-52q0 -67 -41.5 -109t-109.5 -42h-471v-8q0 -91 48.5 -142t135.5 -51q114 0 193 76q33 29 77 29q54 0 91.5 -37.5t37.5 -91.5q0 -58 -51 -105q-59 -53 -152.5 -84t-197.5 -31q-144 0 -254 59.5 t-166.5 157.5t-56.5 218zM375 616h327v7q0 81 -44.5 131.5t-118.5 50.5t-119 -51t-45 -131v-7z" />
<glyph unicode="&#x436;" horiz-adv-x="1409" d="M20 131q0 39 27 84l205 328q-75 76 -111 147t-43 166q-2 20 -2 42q0 55 40 95.5t97 40.5q54 0 94 -35t46 -88q11 -97 43.5 -153t103.5 -103l37 -24v256q0 61 43 104t105 43q61 0 104 -43t43 -104v-256l37 24q71 47 103.5 103t43.5 153q6 53 46 88t94 35q57 0 97 -40.5 t40 -95.5q0 -22 -2 -42q-7 -95 -43 -166t-111 -147l205 -328q27 -45 27 -84q0 -58 -41.5 -99.5t-100.5 -41.5q-84 0 -133 82l-186 311l-76 -51v-195q0 -61 -43 -104t-104 -43q-62 0 -105 43t-43 104v195l-76 51l-186 -311q-49 -82 -133 -82q-59 0 -100.5 41.5t-41.5 99.5z " />
<glyph unicode="&#x437;" horiz-adv-x="962" d="M70 201q0 56 37.5 94.5t91.5 38.5q65 0 108 -53q68 -80 168 -80q61 0 96 26.5t35 71.5q0 115 -160 115q-47 0 -79.5 32.5t-32.5 79.5q0 46 32.5 79.5t79.5 33.5q63 0 96 25.5t33 72.5q0 38 -27 62t-73 24q-83 0 -149 -69q-41 -41 -95 -41q-53 0 -89 36.5t-36 88.5 q0 60 50 100q63 50 151.5 80.5t179.5 30.5q172 0 277.5 -88t105.5 -232q0 -67 -32 -122.5t-93 -82.5q77 -24 116.5 -85.5t39.5 -143.5q0 -142 -111 -231t-303 -89q-109 0 -204.5 31.5t-161.5 89.5q-51 44 -51 105z" />
<glyph unicode="&#x438;" horiz-adv-x="1110" d="M117 131v762q0 59 41.5 100t99.5 41t99.5 -41t41.5 -100v-412l293 451q65 102 160 102q58 0 99.5 -41t41.5 -100v-762q0 -59 -41.5 -100t-99.5 -41t-99.5 41t-41.5 100v412l-293 -451q-65 -102 -160 -102q-58 0 -99.5 41t-41.5 100z" />
<glyph unicode="&#x439;" horiz-adv-x="1110" d="M117 131v762q0 59 41.5 100t99.5 41t99.5 -41t41.5 -100v-412l293 451q65 102 160 102q58 0 99.5 -41t41.5 -100v-762q0 -59 -41.5 -100t-99.5 -41t-99.5 41t-41.5 100v412l-293 -451q-65 -102 -160 -102q-58 0 -99.5 41t-41.5 100zM236 1374q0 44 31 75.5t75 31.5 q65 0 94 -60q39 -80 119 -80t119 80q29 60 94 60q44 0 75 -31.5t31 -75.5q0 -43 -30 -86q-44 -62 -121 -96.5t-168 -34.5t-168 34.5t-121 96.5q-30 43 -30 86z" />
<glyph unicode="&#x43a;" horiz-adv-x="1062" d="M115 137v750q0 61 42.5 104t104.5 43t105 -43t43 -104v-246l49 33q82 56 132.5 110.5t67.5 122.5q15 61 52 94t90 33q57 0 102 -40.5t45 -102.5q0 -19 -4 -39q-40 -166 -194 -283l237 -342q29 -43 29 -90q0 -61 -43 -104t-105 -43q-77 0 -125 69l-231 344l-102 -67v-199 q0 -61 -43 -104t-105 -43t-104.5 43t-42.5 104z" />
<glyph unicode="&#x43b;" horiz-adv-x="1155" d="M10 96q0 48 30 81.5t77 41.5q71 13 71 111v540q0 66 44 110t110 44h543q66 0 109.5 -44t43.5 -110v-733q0 -61 -43 -104t-104 -43q-62 0 -105 43t-43 104v643h-260v-467q0 -171 -87 -254.5t-265 -83.5q-51 0 -86 35t-35 86z" />
<glyph unicode="&#x43c;" horiz-adv-x="1290" d="M117 131v762q0 59 41.5 100t99.5 41q92 0 143 -92l244 -444l244 444q51 92 143 92q59 0 100.5 -41.5t41.5 -99.5v-762q0 -58 -41.5 -99.5t-100.5 -41.5q-58 0 -99.5 41t-41.5 100v399l-150 -272q-32 -63 -96 -63t-96 63l-150 272v-399q0 -59 -41.5 -100t-99.5 -41 t-99.5 41t-41.5 100z" />
<glyph unicode="&#x43d;" horiz-adv-x="1089" d="M117 137v750q0 61 42.5 104t104.5 43t105 -43t43 -104v-232h266v232q0 61 43 104t104 43q62 0 105 -43t43 -104v-750q0 -61 -43 -104t-105 -43q-61 0 -104 43t-43 104v256h-266v-256q0 -61 -43 -104t-105 -43t-104.5 43t-42.5 104z" />
<glyph unicode="&#x43e;" horiz-adv-x="1077" d="M80 412v200q0 184 130 310.5t329 126.5t328.5 -126.5t129.5 -310.5v-200q0 -184 -129.5 -310.5t-328.5 -126.5t-329 126.5t-130 310.5zM375 432q0 -105 46 -159t118 -54t117.5 54t45.5 159v160q0 105 -45.5 159t-117.5 54t-118 -54t-46 -159v-160z" />
<glyph unicode="&#x43f;" horiz-adv-x="1099" d="M117 137v733q0 66 43.5 110t109.5 44h561q66 0 110 -44t44 -110v-733q0 -61 -42.5 -104t-104.5 -43t-105 43t-43 104v643h-278v-643q0 -61 -43 -104t-105 -43t-104.5 43t-42.5 104z" />
<glyph unicode="&#x440;" horiz-adv-x="1101" d="M115 -309v1196q0 61 42.5 104t104.5 43q51 0 91.5 -31t52.5 -79q32 59 100 92t149 33q164 0 265.5 -111t101.5 -293v-266q0 -182 -101.5 -293t-265.5 -111q-79 0 -144.5 30t-100.5 83v-397q0 -61 -43 -104.5t-105 -43.5q-61 0 -104 43t-43 105zM410 317q51 -98 149 -98 q91 0 129.5 55.5t38.5 174.5v126q0 119 -38.5 174.5t-129.5 55.5q-98 0 -149 -98v-390z" />
<glyph unicode="&#x441;" horiz-adv-x="1017" d="M80 410v202q0 184 130 309.5t329 125.5q123 0 223.5 -52.5t157.5 -140.5q24 -39 24 -80q0 -57 -41 -97t-100 -40q-74 0 -123 78q-56 90 -141 90q-72 0 -118 -54t-46 -159v-162q0 -105 46 -159t118 -54q85 0 141 90q49 78 123 78q59 0 100 -40t41 -97q0 -41 -24 -80 q-57 -88 -157.5 -140.5t-223.5 -52.5q-199 0 -329 125.5t-130 309.5z" />
<glyph unicode="&#x442;" horiz-adv-x="933" d="M14 901q0 51 35 87t86 36h664q51 0 86 -36t35 -87t-35 -86t-86 -35h-185v-643q0 -61 -43 -104t-104 -43q-62 0 -105 43t-43 104v643h-184q-51 0 -86 35t-35 86z" />
<glyph unicode="&#x443;" horiz-adv-x="1050" d="M37 889q0 60 42.5 102.5t102.5 42.5q44 0 80.5 -24.5t54.5 -63.5l224 -508l192 508q15 39 52.5 63.5t82.5 24.5q60 0 103 -42.5t43 -102.5q0 -23 -19 -74l-358 -983q-55 -150 -140.5 -207t-246.5 -57q-51 0 -86 36t-35 89q0 50 32.5 83.5t82.5 37.5q45 4 74.5 28t46.5 76 l47 143l-357 754q-18 37 -18 74z" />
<glyph unicode="&#x444;" horiz-adv-x="1679" d="M80 379v266q0 182 101.5 293t264.5 111q79 0 145 -30t101 -83v385q0 61 43 104t105 43t104.5 -43t42.5 -104v-385q35 53 101 83t145 30q163 0 264.5 -111t101.5 -293v-266q0 -182 -101.5 -293t-264.5 -111q-79 0 -145 30t-101 83v-397q0 -62 -43 -105t-104 -43 q-62 0 -105 43.5t-43 104.5v397q-35 -53 -101 -83t-145 -30q-163 0 -264.5 111t-101.5 293zM375 449q0 -119 38.5 -174.5t129.5 -55.5q98 0 149 98v390q-51 98 -149 98q-91 0 -129.5 -55.5t-38.5 -174.5v-126zM987 317q51 -98 150 -98q91 0 129.5 55.5t38.5 174.5v126 q0 119 -38.5 174.5t-129.5 55.5q-99 0 -150 -98v-390z" />
<glyph unicode="&#x445;" horiz-adv-x="1001" d="M35 127q0 48 39 96l233 301l-213 277q-39 50 -39 96q0 57 40.5 97t97.5 40q68 0 112 -59l195 -256l196 256q45 59 113 59q57 0 97 -40t40 -97q0 -46 -39 -96l-213 -277l234 -301q39 -48 39 -96q0 -57 -40.5 -97t-97.5 -40q-65 0 -112 59l-217 279l-215 -279 q-47 -59 -113 -59q-57 0 -97 40t-40 97z" />
<glyph unicode="&#x446;" horiz-adv-x="1132" d="M117 154v733q0 61 42.5 104t104.5 43t105 -43t43 -104v-643h278v643q0 61 43 104t105 43t104.5 -43t42.5 -104v-647q53 -12 86 -53t33 -97v-178q0 -62 -43 -105t-105 -43q-61 0 -104 43t-43 105v88h-539q-66 0 -109.5 44t-43.5 110z" />
<glyph unicode="&#x447;" horiz-adv-x="1064" d="M96 698v189q0 61 43 104t105 43t104.5 -43t42.5 -104v-152q0 -107 28.5 -155t106.5 -48q59 0 127 37v318q0 61 43 104t105 43q61 0 104 -43t43 -104v-750q0 -61 -43 -104t-104 -43q-62 0 -105 43t-43 104v203q-84 -51 -194 -51q-183 0 -273 105.5t-90 303.5z" />
<glyph unicode="&#x448;" horiz-adv-x="1609" d="M117 154v733q0 61 42.5 104t104.5 43t105 -43t43 -104v-643h245v643q0 61 43 104t105 43q61 0 104 -43t43 -104v-643h246v643q0 61 43 104t105 43t104.5 -43t42.5 -104v-733q0 -66 -44 -110t-110 -44h-1069q-66 0 -109.5 44t-43.5 110z" />
<glyph unicode="&#x449;" horiz-adv-x="1642" d="M117 154v733q0 61 42.5 104t104.5 43t105 -43t43 -104v-643h245v643q0 61 43 104t105 43q61 0 104 -43t43 -104v-643h246v643q0 61 43 104t105 43t104.5 -43t42.5 -104v-647q53 -12 86 -53t33 -97v-178q0 -62 -43 -105t-105 -43q-61 0 -104 43t-43 105v88h-1047 q-66 0 -109.5 44t-43.5 110z" />
<glyph unicode="&#x44a;" horiz-adv-x="1193" d="M14 901q0 51 35 87t86 36h311q66 0 110 -44t44 -110v-190h174q169 0 273 -90t104 -250t-104 -250t-273 -90h-315q-66 0 -110 44t-44 110v626h-170q-51 0 -86 35t-35 86zM600 238h127q63 0 96 23.5t33 78.5t-33 78.5t-96 23.5h-127v-204z" />
<glyph unicode="&#x44b;" horiz-adv-x="1482" d="M117 154v733q0 61 42.5 104t104.5 43t105 -43t43 -104v-207h174q169 0 273 -90t104 -250t-104 -250t-273 -90h-316q-66 0 -109.5 44t-43.5 110zM412 238h127q63 0 96 23.5t33 78.5t-33 78.5t-96 23.5h-127v-204zM1071 137v750q0 61 43 104t105 43q61 0 104 -43t43 -104 v-750q0 -61 -43 -104t-104 -43q-62 0 -105 43t-43 104z" />
<glyph unicode="&#x44c;" horiz-adv-x="1005" d="M117 154v733q0 61 42.5 104t104.5 43t105 -43t43 -104v-207h174q169 0 273 -90t104 -250t-104 -250t-273 -90h-316q-66 0 -109.5 44t-43.5 110zM412 238h127q63 0 96 23.5t33 78.5t-33 78.5t-96 23.5h-127v-204z" />
<glyph unicode="&#x44d;" horiz-adv-x="1017" d="M74 248q0 57 41 97t100 40q74 0 123 -78q56 -90 141 -90q67 0 111.5 45.5t50.5 136.5h-135q-44 0 -76.5 32.5t-32.5 78.5t32.5 78.5t76.5 32.5h135q-6 91 -50.5 137.5t-111.5 46.5q-85 0 -141 -90q-49 -78 -123 -78q-59 0 -100 40t-41 97q0 41 24 80q57 88 157.5 140.5 t223.5 52.5q199 0 329 -125.5t130 -309.5v-202q0 -184 -130 -309.5t-329 -125.5q-123 0 -223.5 52.5t-157.5 140.5q-24 39 -24 80z" />
<glyph unicode="&#x44e;" horiz-adv-x="1503" d="M117 137v750q0 61 42.5 104t104.5 43t105 -43t43 -104v-256h94q6 177 135.5 297.5t323.5 120.5q199 0 328.5 -126.5t129.5 -310.5v-200q0 -184 -129.5 -310.5t-328.5 -126.5q-192 0 -321 118t-138 294h-94v-250q0 -61 -43 -104t-105 -43t-104.5 43t-42.5 104zM801 432 q0 -105 46 -159t118 -54t117.5 54t45.5 159v160q0 105 -45.5 159t-117.5 54t-118 -54t-46 -159v-160z" />
<glyph unicode="&#x44f;" horiz-adv-x="1048" d="M55 131q0 53 37 96l156 187q-77 43 -120.5 113t-43.5 163q0 155 112.5 244.5t282.5 89.5h299q66 0 110 -44t44 -110v-733q0 -61 -43 -104t-105 -43t-104.5 43t-42.5 104v219h-82l-229 -293q-56 -73 -129 -73q-59 0 -100.5 41.5t-41.5 99.5zM379 690q0 -48 32.5 -75 t84.5 -27h141v207h-141q-52 0 -84.5 -28t-32.5 -77z" />
<glyph unicode="&#x450;" horiz-adv-x="1077" d="M80 410v202q0 184 130 310.5t329 126.5q196 0 327 -124.5t131 -301.5v-52q0 -67 -41.5 -109t-109.5 -42h-471v-8q0 -91 48.5 -142t135.5 -51q114 0 193 76q33 29 77 29q54 0 91.5 -37.5t37.5 -91.5q0 -58 -51 -105q-59 -53 -152.5 -84t-197.5 -31q-144 0 -254 59.5 t-166.5 157.5t-56.5 218zM326 1389q0 46 31 78t77 32q52 0 90 -45l127 -156q23 -28 23 -61q0 -39 -27.5 -66.5t-66.5 -27.5q-36 0 -72 31l-152 137q-30 27 -30 78zM375 616h327v7q0 81 -44.5 131.5t-118.5 50.5t-119 -51t-45 -131v-7z" />
<glyph unicode="&#x451;" horiz-adv-x="1077" d="M80 410v202q0 184 130 310.5t329 126.5q196 0 327 -124.5t131 -301.5v-52q0 -67 -41.5 -109t-109.5 -42h-471v-8q0 -91 48.5 -142t135.5 -51q114 0 193 76q33 29 77 29q54 0 91.5 -37.5t37.5 -91.5q0 -58 -51 -105q-59 -53 -152.5 -84t-197.5 -31q-144 0 -254 59.5 t-166.5 157.5t-56.5 218zM219 1305v24q0 51 35 86t86 35t86 -35t35 -86v-24q0 -51 -35 -86t-86 -35t-86 35t-35 86zM375 616h327v7q0 81 -44.5 131.5t-118.5 50.5t-119 -51t-45 -131v-7zM616 1305v24q0 51 35 86t86 35t86 -35t35 -86v-24q0 -51 -35 -86t-86 -35t-86 35 t-35 86z" />
<glyph unicode="&#x452;" horiz-adv-x="1126" d="M-20 1241q0 38 26 65t64 27h45q5 57 47 96t100 39t100.5 -39t47.5 -96h163q38 0 64.5 -27t26.5 -65t-26.5 -64t-64.5 -26h-163v-229q38 58 105.5 92.5t152.5 34.5q166 0 261 -109.5t95 -302.5v-727q0 -179 -87 -261.5t-271 -82.5h-37q-51 0 -86 36t-35 87t35 86t86 35 q100 0 100 124v672q0 199 -156 199q-52 0 -96 -31t-67 -84v-553q0 -61 -43 -104t-105 -43t-104.5 43t-42.5 104v1014h-45q-38 0 -64 26t-26 64z" />
<glyph unicode="&#x453;" horiz-adv-x="890" d="M117 137v733q0 66 43.5 110t109.5 44h475q51 0 86 -36t35 -87t-35 -86t-86 -35h-333v-643q0 -61 -43 -104t-105 -43t-104.5 43t-42.5 104zM330 1237q0 34 22 61l127 156q38 45 90 45q46 0 77.5 -32t31.5 -78q0 -50 -31 -78l-151 -137q-36 -31 -72 -31q-39 0 -66.5 27.5 t-27.5 66.5z" />
<glyph unicode="&#x454;" horiz-adv-x="1017" d="M80 410v202q0 184 130 309.5t329 125.5q123 0 223.5 -52.5t157.5 -140.5q24 -39 24 -80q0 -57 -41 -97t-100 -40q-74 0 -123 78q-56 90 -141 90q-67 0 -112 -46.5t-52 -137.5h137q44 0 76.5 -32.5t32.5 -78.5t-32.5 -78.5t-76.5 -32.5h-137q7 -91 52 -136.5t112 -45.5 q85 0 141 90q49 78 123 78q59 0 100 -40t41 -97q0 -41 -24 -80q-57 -88 -157.5 -140.5t-223.5 -52.5q-199 0 -329 125.5t-130 309.5z" />
<glyph unicode="&#x455;" horiz-adv-x="1007" d="M96 205q0 51 35 87t86 36t92 -41q83 -86 213 -86q53 0 85 26t32 66t-28 66t-99 40l-86 19q-167 36 -246.5 112t-79.5 207q0 137 103 224.5t282 87.5q105 0 201.5 -35t155.5 -94q39 -39 39 -89q0 -51 -34.5 -84.5t-84.5 -33.5q-51 0 -94 43q-67 67 -162 67 q-51 0 -81 -23.5t-30 -58.5q0 -73 125 -98l88 -18q173 -36 249.5 -112.5t76.5 -209.5q0 -144 -109 -236t-297 -92q-126 0 -236 43t-173 117q-23 30 -23 70z" />
<glyph unicode="&#x456;" horiz-adv-x="565" d="M135 137v750q0 61 43 104t105 43q61 0 104 -43t43 -104v-750q0 -61 -43 -104t-104 -43q-62 0 -105 43t-43 104zM135 1317v4q0 61 43 104t105 43q61 0 104 -43t43 -104v-4q0 -62 -43 -105t-104 -43t-104.5 43.5t-43.5 104.5z" />
<glyph unicode="&#x457;" horiz-adv-x="565" d="M-37 1305v24q0 51 35 86t86 35t86 -35t35 -86v-24q0 -51 -35 -86t-86 -35t-86 35t-35 86zM135 137v750q0 61 43 104t105 43q61 0 104 -43t43 -104v-750q0 -61 -43 -104t-104 -43q-62 0 -105 43t-43 104zM360 1305v24q0 51 35 86t86 35t86 -35t35 -86v-24q0 -51 -35 -86 t-86 -35t-86 35t-35 86z" />
<glyph unicode="&#x458;" horiz-adv-x="602" d="M-45 -311q0 49 32 82.5t83 38.5q57 4 79.5 33t22.5 91v953q0 61 43 104t104 43q62 0 105 -43t43 -104v-979q0 -176 -92 -259t-277 -83h-22q-51 0 -86 36t-35 87zM172 1317v4q0 61 43 104t104 43q62 0 105 -43t43 -104v-4q0 -61 -43.5 -104.5t-104.5 -43.5t-104 43 t-43 105z" />
<glyph unicode="&#x459;" horiz-adv-x="1632" d="M10 96q0 48 30 81.5t77 41.5q71 13 71 111v540q0 66 44 110t110 44h543q66 0 109.5 -44t43.5 -110v-190h174q169 0 273 -90t104 -250t-104 -250t-273 -90h-315q-66 0 -110 44t-44 110v626h-260v-467q0 -171 -87 -254.5t-265 -83.5q-51 0 -86 35t-35 86zM1038 238h127 q63 0 96 23.5t33 78.5t-33 78.5t-96 23.5h-127v-204z" />
<glyph unicode="&#x45a;" horiz-adv-x="1566" d="M117 137v750q0 61 42.5 104t104.5 43t105 -43t43 -104v-232h266v232q0 61 43 104t104 43q62 0 105 -43t43 -104v-207h174q169 0 273 -90t104 -250t-104 -250t-273 -90h-316q-66 0 -109.5 44t-43.5 110v239h-266v-256q0 -61 -43 -104t-105 -43t-104.5 43t-42.5 104z M973 238h127q63 0 96 23.5t33 78.5t-33 78.5t-96 23.5h-127v-204z" />
<glyph unicode="&#x45b;" horiz-adv-x="1126" d="M-20 1241q0 38 26 65t64 27h45q5 57 47 96t100 39t100.5 -39t47.5 -96h163q38 0 64.5 -27t26.5 -65t-26.5 -64t-64.5 -26h-163v-229q38 58 105.5 92.5t152.5 34.5q166 0 261 -109.5t95 -302.5v-500q0 -61 -43 -104t-104 -43q-62 0 -105 43t-43 104v469q0 199 -156 199 q-52 0 -96 -31t-67 -84v-553q0 -61 -43 -104t-105 -43t-104.5 43t-42.5 104v1014h-45q-38 0 -64 26t-26 64z" />
<glyph unicode="&#x45c;" horiz-adv-x="1062" d="M115 137v750q0 61 42.5 104t104.5 43t105 -43t43 -104v-246l49 33q82 56 132.5 110.5t67.5 122.5q15 61 52 94t90 33q57 0 102 -40.5t45 -102.5q0 -19 -4 -39q-40 -166 -194 -283l237 -342q29 -43 29 -90q0 -61 -43 -104t-105 -43q-77 0 -125 69l-231 344l-102 -67v-199 q0 -61 -43 -104t-105 -43t-104.5 43t-42.5 104zM406 1237q0 34 22 61l127 156q38 45 90 45q46 0 77.5 -32t31.5 -78q0 -50 -31 -78l-152 -137q-36 -31 -71 -31q-39 0 -66.5 27.5t-27.5 66.5z" />
<glyph unicode="&#x45d;" horiz-adv-x="1110" d="M117 131q0 -59 41.5 -100t99.5 -41q95 0 160 102l293 451v-412q0 -59 41.5 -100t99.5 -41t99.5 41t41.5 100v762q0 59 -41.5 100t-99.5 41q-95 0 -160 -102l-293 -451v412q0 59 -41.5 100t-99.5 41t-99.5 -41t-41.5 -100v-762zM362 1389q0 46 31.5 78t77.5 32 q52 0 90 -45l127 -156q23 -28 23 -61q0 -39 -28 -66.5t-67 -27.5q-35 0 -71 31l-152 137q-31 28 -31 78z" />
<glyph unicode="&#x45e;" horiz-adv-x="1046" d="M33 889q0 60 42.5 102.5t102.5 42.5q44 0 80.5 -24.5t54.5 -63.5l224 -508l192 508q15 39 52.5 63.5t82.5 24.5q60 0 103 -42.5t43 -102.5q0 -23 -19 -74l-358 -983q-55 -150 -140.5 -207t-246.5 -57q-51 0 -86 36t-35 89q0 50 32.5 83.5t82.5 37.5q44 4 73.5 28t46.5 76 l48 143l-357 754q-18 37 -18 74zM213 1374q0 44 31 75.5t75 31.5q66 0 95 -60q39 -80 118 -80q80 0 119 80q29 60 94 60q44 0 75.5 -31.5t31.5 -75.5q0 -42 -31 -86q-44 -62 -121 -96.5t-168 -34.5q-90 0 -167 34.5t-121 96.5q-31 44 -31 86z" />
<glyph unicode="&#x45f;" horiz-adv-x="1099" d="M117 154v733q0 61 42.5 104t104.5 43t105 -43t43 -104v-643h278v643q0 61 43 104t105 43t104.5 -43t42.5 -104v-733q0 -66 -44 -110t-110 -44h-135v-88q0 -62 -43 -105t-104 -43t-104.5 43t-43.5 105v88h-131q-66 0 -109.5 44t-43.5 110z" />
<glyph unicode="&#x490;" horiz-adv-x="1124" d="M137 147v1141q0 63 41.5 104.5t104.5 41.5h512v139q0 66 45.5 112t111.5 46t112 -46t46 -112v-273q0 -63 -41 -104t-104 -41h-512v-1008q0 -66 -46 -111.5t-112 -45.5t-112 45.5t-46 111.5z" />
<glyph unicode="&#x491;" horiz-adv-x="890" d="M117 137v733q0 66 43.5 110t109.5 44h291v84q0 61 43 104t105 43q61 0 104 -42.5t43 -104.5v-174q0 -66 -44 -110t-110 -44h-290v-643q0 -61 -43 -104t-105 -43t-104.5 43t-42.5 104z" />
<glyph unicode="&#x2000;" horiz-adv-x="953" />
<glyph unicode="&#x2001;" horiz-adv-x="1907" />
<glyph unicode="&#x2002;" horiz-adv-x="953" />
<glyph unicode="&#x2003;" horiz-adv-x="1907" />
<glyph unicode="&#x2004;" horiz-adv-x="635" />
<glyph unicode="&#x2005;" horiz-adv-x="476" />
<glyph unicode="&#x2006;" horiz-adv-x="317" />
<glyph unicode="&#x2007;" horiz-adv-x="317" />
<glyph unicode="&#x2008;" horiz-adv-x="238" />
<glyph unicode="&#x2009;" horiz-adv-x="381" />
<glyph unicode="&#x200a;" horiz-adv-x="105" />
<glyph unicode="&#x2010;" horiz-adv-x="878" d="M92 668q0 51 35 85.5t86 34.5h453q51 0 85.5 -34.5t34.5 -85.5t-34.5 -86t-85.5 -35h-453q-51 0 -86 35t-35 86z" />
<glyph unicode="&#x2011;" horiz-adv-x="878" d="M92 668q0 51 35 85.5t86 34.5h453q51 0 85.5 -34.5t34.5 -85.5t-34.5 -86t-85.5 -35h-453q-51 0 -86 35t-35 86z" />
<glyph unicode="&#x2012;" horiz-adv-x="878" d="M92 668q0 51 35 85.5t86 34.5h453q51 0 85.5 -34.5t34.5 -85.5t-34.5 -86t-85.5 -35h-453q-51 0 -86 35t-35 86z" />
<glyph unicode="&#x2013;" horiz-adv-x="1024" d="M-10 668q0 47 33.5 80.5t80.5 33.5h816q47 0 80.5 -33.5t33.5 -80.5t-33.5 -81t-80.5 -34h-816q-47 0 -80.5 34t-33.5 81z" />
<glyph unicode="&#x2014;" horiz-adv-x="2048" d="M-10 668q0 47 33.5 80.5t80.5 33.5h1840q47 0 80.5 -33.5t33.5 -80.5t-33.5 -81t-80.5 -34h-1840q-47 0 -80.5 34t-33.5 81z" />
<glyph unicode="&#x2018;" horiz-adv-x="561" d="M123 1196v141q0 98 56.5 173t162.5 108q16 4 29 4q28 0 47.5 -21.5t19.5 -52.5q0 -48 -47 -65q-41 -16 -70 -48t-32 -71q63 -3 106 -48.5t43 -109.5v-16q0 -66 -45.5 -112t-111.5 -46q-67 0 -112.5 46.5t-45.5 117.5z" />
<glyph unicode="&#x2019;" horiz-adv-x="561" d="M123 1106q0 48 47 65q41 16 70 48t32 71q-63 3 -106 48.5t-43 109.5v16q0 66 46 112t112 46q67 0 112 -46.5t45 -117.5v-141q0 -98 -56.5 -173t-162.5 -108q-16 -4 -29 -4q-28 0 -47.5 21.5t-19.5 52.5z" />
<glyph unicode="&#x201a;" horiz-adv-x="561" d="M123 147v17q0 66 46 112t112 46q67 0 112 -46.5t45 -117.5v-142q0 -98 -56.5 -172.5t-162.5 -107.5q-16 -4 -29 -4q-28 0 -47.5 21t-19.5 52q0 49 47 66q41 16 70 48t32 71q-63 3 -106 48t-43 109z" />
<glyph unicode="&#x201c;" horiz-adv-x="974" d="M123 1196v141q0 98 56.5 173t162.5 108q16 4 29 4q28 0 47.5 -21.5t19.5 -52.5q0 -48 -47 -65q-41 -16 -70 -48t-32 -71q63 -3 106 -48.5t43 -109.5v-16q0 -66 -45.5 -112t-111.5 -46q-67 0 -112.5 46.5t-45.5 117.5zM537 1196v141q0 98 56.5 173t162.5 108q16 4 28 4 q28 0 48 -21.5t20 -52.5q0 -48 -47 -65q-41 -16 -70.5 -48.5t-32.5 -70.5q63 -3 106.5 -48.5t43.5 -109.5v-16q0 -66 -46 -112t-112 -46q-67 0 -112 46.5t-45 117.5z" />
<glyph unicode="&#x201d;" horiz-adv-x="974" d="M123 1106q0 48 47 65q41 16 70 48t32 71q-63 3 -106 48.5t-43 109.5v16q0 66 46 112t112 46q67 0 112 -46.5t45 -117.5v-141q0 -98 -56.5 -173t-162.5 -108q-16 -4 -29 -4q-28 0 -47.5 21.5t-19.5 52.5zM537 1106q0 48 47 65q41 16 70 48t32 71q-63 3 -106 48.5 t-43 109.5v16q0 66 45.5 112t111.5 46q67 0 112.5 -46.5t45.5 -117.5v-141q0 -98 -56.5 -173t-162.5 -108q-16 -4 -29 -4q-28 0 -47.5 21.5t-19.5 52.5z" />
<glyph unicode="&#x201e;" horiz-adv-x="974" d="M123 147v17q0 66 46 112t112 46q67 0 112 -46.5t45 -117.5v-142q0 -98 -56.5 -172.5t-162.5 -107.5q-16 -4 -29 -4q-28 0 -47.5 21t-19.5 52q0 49 47 66q41 16 70 48t32 71q-63 3 -106 48t-43 109zM537 147v17q0 66 45.5 112t111.5 46q67 0 112.5 -46.5t45.5 -117.5v-142 q0 -98 -56.5 -172.5t-162.5 -107.5q-16 -4 -29 -4q-28 0 -47.5 21t-19.5 52q0 49 47 66q41 16 70 48t32 71q-63 3 -106 48t-43 109z" />
<glyph unicode="&#x2022;" horiz-adv-x="774" d="M96 668q0 120 85.5 205t205.5 85t205.5 -85t85.5 -205t-85.5 -205.5t-205.5 -85.5t-205.5 85.5t-85.5 205.5z" />
<glyph unicode="&#x2026;" horiz-adv-x="1683" d="M123 147v17q0 66 46 112t112 46t111.5 -46t45.5 -112v-17q0 -66 -45.5 -111.5t-111.5 -45.5t-112 45.5t-46 111.5zM684 147v17q0 66 46 112t112 46t111.5 -46t45.5 -112v-17q0 -66 -45.5 -111.5t-111.5 -45.5t-112 45.5t-46 111.5zM1245 147v17q0 66 46 112t112 46 t112 -46t46 -112v-17q0 -66 -46 -111.5t-112 -45.5t-112 45.5t-46 111.5z" />
<glyph unicode="&#x202f;" horiz-adv-x="381" />
<glyph unicode="&#x2039;" horiz-adv-x="614" d="M45 639q0 58 47 90l320 236q24 18 57 18q41 0 70.5 -29.5t29.5 -70.5q0 -52 -41 -82l-229 -162l229 -162q41 -30 41 -82q0 -41 -29.5 -70.5t-70.5 -29.5q-33 0 -57 18l-320 236q-47 32 -47 90z" />
<glyph unicode="&#x203a;" horiz-adv-x="614" d="M45 395q0 55 41 82l229 162l-229 162q-41 27 -41 82q0 41 29.5 70.5t70.5 29.5q34 0 58 -18l319 -236q47 -32 47 -90t-47 -90l-319 -236q-24 -18 -58 -18q-41 0 -70.5 29.5t-29.5 70.5z" />
<glyph unicode="&#x205f;" horiz-adv-x="476" />
<glyph unicode="&#x20ac;" horiz-adv-x="1292" d="M23 600q0 29 21 50.5t50 21.5h62v90h-62q-29 0 -50 21.5t-21 50.5t21 50t50 21h62q8 247 155.5 400t386.5 153q173 0 303 -79.5t193 -221.5q16 -37 16 -72q0 -66 -45.5 -111.5t-111.5 -45.5q-102 0 -150 104q-68 148 -201 148q-105 0 -163.5 -70.5t-67.5 -204.5h227 q29 0 50.5 -21t21.5 -50t-21.5 -50.5t-50.5 -21.5h-227v-90h182q29 0 50.5 -21.5t21.5 -50.5t-21.5 -50.5t-50.5 -21.5h-182q18 -274 231 -274q134 0 201 147q48 105 150 105q66 0 111.5 -46t45.5 -112q0 -35 -16 -72q-63 -142 -193 -221.5t-303 -79.5q-239 0 -386.5 153 t-155.5 400h-62q-29 0 -50 21.5t-21 50.5z" />
<glyph unicode="&#x2122;" horiz-adv-x="1327" d="M14 1346q0 37 25.5 62.5t62.5 25.5h369q37 0 62.5 -25.5t25.5 -62.5t-25.5 -63t-62.5 -26h-88v-419q0 -40 -28 -68.5t-68 -28.5t-68.5 28.5t-28.5 68.5v419h-88q-37 0 -62.5 26t-25.5 63zM604 838v512q0 38 27 65t65 27q64 0 105 -80l135 -272l135 272q41 80 105 80 q38 0 65 -27t27 -65v-512q0 -40 -28.5 -68.5t-68.5 -28.5t-68 28.5t-28 68.5v227l-59 -123q-26 -53 -80 -53t-80 53l-59 123v-227q0 -40 -28.5 -68.5t-68.5 -28.5t-68 28.5t-28 68.5z" />
<glyph unicode="&#x25fc;" horiz-adv-x="1034" d="M0 0v1034h1034v-1034h-1034z" />
</font>
</defs>
</svg>
